<?xml version="1.0" encoding="utf-8"?>
<!-- Generator: Adobe Illustrator 19.1.0, SVG Export Plug-In . SVG Version: 6.00 Build 0)  -->
<svg version="1.1" id="Layer_1" xmlns="http://www.w3.org/2000/svg" xmlns:xlink="http://www.w3.org/1999/xlink" x="0px" y="0px"
	 viewBox="0 0 48 48" style="enable-background:new 0 0 48 48;" xml:space="preserve">
<g id="playlist_1_">
	<path d="M37.192,23.032c-0.847,0.339-0.179-0.339-0.179-0.339s1.422-2.092,0.406-3.786c-0.793-1.321-3.338-1.075-4.42-1.669v14.154
		c0,0.037-0.016,0.07-0.022,0.106c-0.154,1.504-1.607,3.034-3.696,3.712c-2.559,0.829-5.102,0.063-5.678-1.711
		c-0.574-1.774,1.034-3.887,3.595-4.717c0.66-0.189,2.207-0.439,2.801-0.193V12.607C30,12.273,30.271,12,30.607,12h1.785
		C32.728,12,33,12.273,33,12.607v0.549c1.542,1.004,6.18,1.455,6.851,4.139C40.656,20.52,38.038,22.693,37.192,23.032z M12.5,20H28
		v-3H12.5c-0.275,0-0.5,0.225-0.5,0.5v2C12,19.775,12.225,20,12.5,20z M12.5,26H28v-3H12.5c-0.275,0-0.5,0.225-0.5,0.5v2
		C12,25.775,12.225,26,12.5,26z M22.625,29H12.5c-0.275,0-0.5,0.225-0.5,0.5v2c0,0.275,0.225,0.5,0.5,0.5h8.551
		C21.227,30.925,21.779,29.887,22.625,29z"/>
</g>
</svg>
