<svg xmlns="http://www.w3.org/2000/svg" xmlns:xlink="http://www.w3.org/1999/xlink" version="1.1" id="Capa_1" x="0px" y="0px" viewBox="0 0 512 512" style="enable-background:new 0 0 512 512;" xml:space="preserve">
<g>
	<g>
		<path d="M66.065,313.806C29.635,313.806,0,343.442,0,379.871s29.635,66.065,66.065,66.065s66.065-29.635,66.065-66.065    S102.494,313.806,66.065,313.806z M66.065,412.903c-18.217,0-33.032-14.815-33.032-33.032s14.815-33.032,33.032-33.032    s33.032,14.815,33.032,33.032S84.282,412.903,66.065,412.903z"/>
	</g>
</g>
    <g>
	<g>
		<path d="M176.172,126.624c-36.429,0-66.065,29.635-66.065,66.065s29.635,66.065,66.065,66.065s66.065-29.635,66.065-66.065    S212.601,126.624,176.172,126.624z M176.172,225.72c-18.217,0-33.032-14.815-33.032-33.032s14.815-33.032,33.032-33.032    s33.032,14.815,33.032,33.032S194.389,225.72,176.172,225.72z"/>
	</g>
</g>
    <g>
	<g>
		<path d="M341.333,286.28c-36.429,0-66.065,29.635-66.065,66.065c0,36.429,29.635,66.065,66.065,66.065    s66.065-29.635,66.065-66.065C407.398,315.915,377.762,286.28,341.333,286.28z M341.333,385.376    c-18.217,0-33.032-14.815-33.032-33.032c0-18.217,14.815-33.032,33.032-33.032s33.032,14.815,33.032,33.032    C374.366,370.561,359.551,385.376,341.333,385.376z"/>
	</g>
</g>
    <g>
	<g>
		<path d="M445.935,66.065c-36.429,0-66.065,29.635-66.065,66.065s29.635,66.065,66.065,66.065S512,168.558,512,132.129    S482.365,66.065,445.935,66.065z M445.935,165.161c-18.217,0-33.032-14.815-33.032-33.032s14.815-33.032,33.032-33.032    s33.032,14.815,33.032,33.032S464.153,165.161,445.935,165.161z"/>
	</g>
</g>
    <g>
	<g>

			<rect x="61.58" y="269.761" transform="matrix(0.5547 -0.8321 0.8321 0.5547 -184.2592 228.275)" width="119.103" height="33.034"/>
	</g>
</g>
    <g>
	<g>

			<rect x="242.213" y="208.023" transform="matrix(0.6402 -0.7682 0.7682 0.6402 -116.2621 296.8083)" width="33.032" height="128.996"/>
	</g>
</g>
    <g>
	<g>

			<rect x="319.551" y="222.711" transform="matrix(0.4672 -0.8842 0.8842 0.4672 -2.9392 473.5728)" width="143.807" height="33.028"/>
	</g>
</g>
    <g>
</g>
    <g>
</g>
    <g>
</g>
    <g>
</g>
    <g>
</g>
    <g>
</g>
    <g>
</g>
    <g>
</g>
    <g>
</g>
    <g>
</g>
    <g>
</g>
    <g>
</g>
    <g>
</g>
    <g>
</g>
    <g>
</g>
</svg>