<svg id="Flat" height="512" viewBox="0 0 512 512" width="512" xmlns="http://www.w3.org/2000/svg"><g fill="#8690fa"><circle cx="48" cy="304" r="24"/><circle cx="192" cy="448" r="24"/><circle cx="101" cy="395" r="24"/><circle cx="48" cy="304" r="24"/><path d="m216 448a24 24 0 1 0 -24 24 24 24 0 0 0 24-24"/><circle cx="101" cy="395" r="24"/><circle cx="48" cy="192" r="24"/><circle cx="192" cy="48" r="24"/><circle cx="101" cy="101" r="24"/><circle cx="48" cy="192" r="24"/><path d="m216 48a24 24 0 1 1 -24-24 24 24 0 0 1 24 24"/><circle cx="101" cy="101" r="24"/><path d="m311.992 472a24 24 0 0 1 -6.433-47.123 185.506 185.506 0 0 0 96.328-64.917 181.561 181.561 0 0 0 38.113-111.96c0-81.5-55.349-154.248-134.6-176.922a24 24 0 0 1 13.2-46.147 236.543 236.543 0 0 1 121 82.086 230.506 230.506 0 0 1 .276 282.283 233.819 233.819 0 0 1 -121.421 81.812 24.04 24.04 0 0 1 -6.463.888z"/></g><path d="m456.029 488a24.512 24.512 0 0 1 -2.679-.148l-144-16a24 24 0 0 1 -20.474-30.278l40-144a24 24 0 1 1 46.248 12.848l-32.454 116.838 115.98 12.886a24 24 0 0 1 -2.621 47.854z" fill="#5153ff"/></svg>