<svg fill="#7289da" style="enable-background:new 0 0 16 16" version="1.1" viewBox="0 0 16 16" xmlns="http://www.w3.org/2000/svg">
 <path d="m13.801 3.864h-5.693v-.752c0-.593-.481-1.074-1.074-1.074h-4.834c-.593 0-1.074.481-1.074 1.074v9.775c0 .593.481 1.074 1.074 1.074h11.602c.593 0 1.074-.481 1.074-1.074v-7.949c-0-.593-.481-1.074-1.074-1.074z" fill="#7289da"/>
 <path d="m6.751 7.5653c0-.352.123-.651.368-.896s.54-.369.885-.369.638.123.882.369c.243.246.364.545.364.896v.952h.832v-.952c0-.383-.093-.735-.28-1.058s-.439-.579-.757-.768c-.319-.189-.667-.284-1.044-.284s-.725.095-1.044.284-.571.445-.758.768-.28.676-.28 1.058v.952h.833v-.952z" fill="#f2f2f2"/>
 <path d="m5.409 8.4193h5.185c.076.017.143.054.2.112.08.081.12.181.12.3v2.953c0 .118-.04.219-.12.3s-.178.122-.296.122h-4.997c-.113 0-.21-.04-.293-.122s-.124-.182-.124-.3v-2.953c0-.119.041-.218.124-.3.059-.058.125-.095.2-.112zm3.047 1.149c0-.169-.137-.307-.307-.307h-.298c-.169 0-.307.138-.307.307v1.586c0 .169.138.307.307.307h.298c.169 0 .307-.137.307-.307z" fill="#f2f2f2"/>
</svg>
