<?xml version="1.0" encoding="iso-8859-1"?>
<!-- Generator: Adobe Illustrator 19.0.0, SVG Export Plug-In . SVG Version: 6.00 Build 0)  -->
<svg version="1.1" id="Layer_1" xmlns="http://www.w3.org/2000/svg" xmlns:xlink="http://www.w3.org/1999/xlink" x="0px" y="0px"
	 viewBox="0 0 512 512" style="enable-background:new 0 0 512 512;" xml:space="preserve">
<g>
	<g>
		<path d="M256,0C114.841,0,0,114.841,0,256s114.841,256,256,256s256-114.841,256-256S397.159,0,256,0z M256,468.732
			c-117.301,0-212.732-95.431-212.732-212.732S138.699,43.268,256,43.268S468.732,138.699,468.732,256S373.301,468.732,256,468.732z
			"/>
	</g>
</g>
<g>
	<g>
		<path d="M372.101,248.068H271.144V97.176c0-11.948-9.686-21.634-21.634-21.634c-11.948,0-21.634,9.686-21.634,21.634v172.525
			c0,11.948,9.686,21.634,21.634,21.634c0.244,0,0.48-0.029,0.721-0.036c0.241,0.009,0.477,0.036,0.721,0.036h121.149
			c11.948,0,21.634-9.686,21.634-21.634S384.049,248.068,372.101,248.068z"/>
	</g>
</g>
<g>
</g>
<g>
</g>
<g>
</g>
<g>
</g>
<g>
</g>
<g>
</g>
<g>
</g>
<g>
</g>
<g>
</g>
<g>
</g>
<g>
</g>
<g>
</g>
<g>
</g>
<g>
</g>
<g>
</g>
</svg>
