<svg id="regular" enable-background="new 0 0 24 24" height="512" viewBox="0 0 24 24" width="512" xmlns="http://www.w3.org/2000/svg"><g><path d="m12 10c-.009 0-.019 0-.028 0-.226-.009-.436-.119-.572-.3l-1.275-1.7h-2.375c-.965 0-1.75-.785-1.75-1.75v-4.5c0-.965.785-1.75 1.75-1.75h8.5c.965 0 1.75.785 1.75 1.75v4.5c0 .965-.785 1.75-1.75 1.75h-2.16l-1.526 1.744c-.142.163-.348.256-.564.256zm-4.25-8.5c-.138 0-.25.112-.25.25v4.5c0 .138.112.25.25.25h2.75c.236 0 .458.111.6.3l.945 1.26 1.141-1.303c.142-.164.348-.257.564-.257h2.5c.138 0 .25-.112.25-.25v-4.5c0-.138-.112-.25-.25-.25z"/></g><g><path d="m20 11c-.01 0-.02 0-.029 0-.227-.009-.437-.12-.572-.301l-.79-1.06c-.248-.332-.179-.802.153-1.05.333-.248.802-.179 1.05.153l.235.316 1.139-1.301c.142-.164.348-.257.564-.257h.5c.136 0 .25-.114.25-.25v-4.5c0-.136-.114-.25-.25-.25h-1.5c-.414 0-.75-.336-.75-.75s.336-.75.75-.75h1.5c.965 0 1.75.785 1.75 1.75v4.5c0 .965-.785 1.75-1.75 1.75h-.16l-1.526 1.744c-.142.163-.348.256-.564.256z"/></g><g><path d="m4 11c-.216 0-.422-.093-.564-.256l-1.526-1.744h-.16c-.965 0-1.75-.785-1.75-1.75v-4.5c0-.965.785-1.75 1.75-1.75h1.5c.414 0 .75.336.75.75s-.336.75-.75.75h-1.5c-.136 0-.25.114-.25.25v4.5c0 .136.114.25.25.25h.5c.216 0 .422.093.564.256l1.139 1.301.235-.316c.248-.332.717-.401 1.05-.153.332.248.401.718.153 1.05l-.79 1.06c-.135.182-.345.293-.572.302-.009 0-.019 0-.029 0z"/></g><g><path d="m20 17c-1.103 0-2-.897-2-2s.897-2 2-2 2 .897 2 2-.897 2-2 2zm0-2.5c-.276 0-.5.224-.5.5s.224.5.5.5.5-.224.5-.5-.224-.5-.5-.5z"/></g><g><path d="m23.25 22c-.414 0-.75-.336-.75-.75v-.5c0-.689-.561-1.25-1.25-1.25h-2.5c-.414 0-.75-.336-.75-.75s.336-.75.75-.75h2.5c1.517 0 2.75 1.233 2.75 2.75v.5c0 .414-.336.75-.75.75z"/></g><g><path d="m4 17c-1.103 0-2-.897-2-2s.897-2 2-2 2 .897 2 2-.897 2-2 2zm0-2.5c-.276 0-.5.224-.5.5s.224.5.5.5.5-.224.5-.5-.224-.5-.5-.5z"/></g><g><path d="m.75 22c-.414 0-.75-.336-.75-.75v-.5c0-1.517 1.233-2.75 2.75-2.75h2.5c.414 0 .75.336.75.75s-.336.75-.75.75h-2.5c-.689 0-1.25.561-1.25 1.25v.5c0 .414-.336.75-.75.75z"/></g><g><path d="m12 17.5c-1.654 0-3-1.346-3-3s1.346-3 3-3 3 1.346 3 3-1.346 3-3 3zm0-4.5c-.827 0-1.5.673-1.5 1.5s.673 1.5 1.5 1.5 1.5-.673 1.5-1.5-.673-1.5-1.5-1.5z"/></g><g><path d="m16.75 24c-.414 0-.75-.336-.75-.75v-1.5c0-.689-.561-1.25-1.25-1.25h-5.5c-.689 0-1.25.561-1.25 1.25v1.5c0 .414-.336.75-.75.75s-.75-.336-.75-.75v-1.5c0-1.517 1.233-2.75 2.75-2.75h5.5c1.517 0 2.75 1.233 2.75 2.75v1.5c0 .414-.336.75-.75.75z"/></g></svg>