<svg style="clip-rule:evenodd;fill-rule:evenodd;stroke-linejoin:round;stroke-miterlimit:1.4142" version="1.1" viewBox="0 0 128 128" xmlns="http://www.w3.org/2000/svg">
 <g transform="translate(-2688 -480)">
  <g id="loading_image" transform="matrix(1 0 0 1.3763 2688 294.19)">
   <rect y="135" width="128" height="93" style="fill:none"/>
   <g transform="matrix(1 0 0 .72656 0 134.27)">
    <path d="m9.041 88.646c0-3.866 3.134-7 7-7h96c3.866 0 7 3.134 7 7v9c0 3.866-3.134 7-7 7h-96c-3.866 0-7-3.134-7-7v-9z" style="fill-rule:nonzero;fill:#a9aaac"/>
   </g>
   <g transform="matrix(1 0 0 .72656 0 134.27)">
    <path d="m9.041 88.646c0-3.866 3.134-7 7-7h62c3.866 0 7 3.134 7 7v9c0 3.866-3.134 7-7 7h-62c-3.866 0-7-3.134-7-7v-9z" style="fill-rule:nonzero;fill:#7289da"/>
   </g>
   <g transform="matrix(1 0 0 .72656 0 134.27)">
    <path d="m8.95 25.658h3.566v14.616h6.853v3.034h-10.419v-17.65z" style="fill-rule:nonzero;fill:#a9aaac"/>
    <path d="m29.13 25.354c1.299 0 2.47.211 3.515.632 1.045.422 1.934 1.025 2.668 1.809.733.783 1.298 1.732 1.695 2.844.395 1.113.594 2.37.594 3.768 0 1.417-.207 2.689-.62 3.818-.414 1.13-.995 2.095-1.745 2.896-.75.802-1.661 1.416-2.731 1.846s-2.263.645-3.578.645c-1.298 0-2.479-.211-3.541-.632-1.062-.422-1.964-1.029-2.706-1.821s-1.315-1.749-1.719-2.87c-.405-1.122-.607-2.381-.607-3.78 0-2.934.768-5.193 2.302-6.778 1.533-1.584 3.692-2.377 6.473-2.377zm-.215 2.757c-.71 0-1.356.151-1.939.455s-1.086.733-1.509 1.29c-.423.556-.748 1.231-.977 2.023-.228.792-.341 1.669-.341 2.63 0 .96.113 1.833.341 2.616.229.784.559 1.45.989 1.999.431.547.942.973 1.534 1.277.591.304 1.259.455 2.003.455.709 0 1.356-.155 1.94-.468.582-.312 1.085-.746 1.508-1.302.422-.557.752-1.227.989-2.011s.355-1.647.355-2.592c0-.978-.114-1.862-.343-2.656-.228-.792-.558-1.462-.989-2.01s-.946-.969-1.546-1.264c-.599-.295-1.271-.442-2.015-.442z" style="fill-rule:nonzero;fill:#a9aaac"/>
    <path d="m56.77 43.309h-3.869l-1.542-4.071h-7.359l-1.542 4.071h-3.668l6.929-17.65h4.021l7.03 17.65zm-7.84-10.874c-.101-.27-.211-.585-.328-.948-.119-.362-.232-.733-.342-1.113-.11-.378-.215-.736-.316-1.074-.101-.337-.177-.624-.228-.86h-.05c-.068.236-.152.522-.253.86s-.215.696-.342 1.074c-.126.38-.249.751-.366 1.113-.118.362-.228.678-.329.948l-1.466 4.122h5.487l-1.467-4.122z" style="fill-rule:nonzero;fill:#a9aaac"/>
    <path d="m63.976 25.658c1.483 0 2.861.156 4.135.468 1.272.312 2.377.821 3.313 1.529.936.709 1.665 1.628 2.188 2.756.522 1.13.784 2.513.784 4.148 0 1.551-.271 2.879-.81 3.982-.539 1.105-1.277 2.011-2.213 2.719-.935.708-2.035 1.226-3.3 1.556-1.265.328-2.63.493-4.097.493h-4.83v-17.65h4.83v-.001zm-1.264 14.945h.935c.978 0 1.897-.105 2.756-.316s1.605-.551 2.238-1.024c.632-.472 1.133-1.096 1.505-1.872.37-.775.557-1.728.557-2.857 0-1.179-.187-2.162-.557-2.946-.372-.784-.873-1.412-1.505-1.884-.633-.472-1.379-.801-2.238-.986-.859-.186-1.779-.279-2.756-.279h-.935v12.164z" style="fill-rule:nonzero;fill:#a9aaac"/>
    <rect x="77.731" y="25.658" width="3.566" height="17.65" style="fill-rule:nonzero;fill:#a9aaac"/>
    <path d="m97.051 25.658h3.213v17.65h-4.502l-4.526-8.648c-.236-.438-.477-.915-.721-1.429-.244-.513-.485-1.02-.721-1.517s-.451-.965-.646-1.403c-.193-.438-.35-.801-.467-1.088h-.051c.017.27.033.654.051 1.15.017.498.028 1.033.038 1.606.008.573.017 1.138.024 1.695.009.555.014 1.02.014 1.39v8.244h-3.213v-17.65h4.756l4.45 8.724c.169.32.362.708.582 1.163.219.456.442.927.671 1.416.227.49.442.966.644 1.429.203.464.37.847.507 1.15h.05c-.018-.32-.034-.754-.05-1.301-.018-.549-.034-1.134-.051-1.759-.018-.623-.03-1.239-.038-1.846-.01-.606-.014-1.129-.014-1.567v-7.409z" style="fill-rule:nonzero;fill:#a9aaac"/>
    <path d="m118.24 29.324c-.541-.286-1.229-.521-2.066-.708-.836-.185-1.711-.278-2.622-.278-.947 0-1.8.143-2.561.429-.76.286-1.406.689-1.938 1.211-.533.522-.946 1.161-1.243 1.918-.295.757-.443 1.598-.443 2.524 0 .909.136 1.741.406 2.499.27.756.664 1.4 1.18 1.93s1.154.942 1.915 1.237 1.632.441 2.613.441c.371 0 .739-.021 1.103-.063.363-.042.689-.105.977-.189v-4.376h-3.768v-2.832h7.156v9.483c-.961.337-1.938.577-2.934.72-.994.143-1.997.215-3.009.215-1.349 0-2.601-.206-3.756-.62-1.154-.413-2.153-1.011-2.996-1.795s-1.5-1.736-1.973-2.857c-.472-1.121-.708-2.389-.708-3.806 0-1.365.236-2.6.708-3.704.473-1.104 1.143-2.044 2.011-2.819.868-.776 1.918-1.37 3.148-1.783 1.229-.413 2.613-.62 4.146-.62.877 0 1.733.05 2.567.151.835.102 1.613.279 2.339.531l-.252 3.161z" style="fill-rule:nonzero;fill:#a9aaac"/>
    <rect x="9.05" y="50.073" width="4.968" height="24.584" style="fill-rule:nonzero;fill:#a9aaac"/>
    <path d="m31.734 61.802c.33 1.033.688 2.218 1.075 3.557s.723 2.582 1.003 3.733h.07c.33-1.151.694-2.395 1.092-3.733.4-1.339.764-2.524 1.092-3.557l3.946-11.729h7.713v24.584h-4.755v-12.01-2.008c0-.751.006-1.532.018-2.344.011-.809.024-1.613.035-2.412.012-.798.029-1.549.053-2.254h-.07c-.189.587-.388 1.232-.599 1.938-.212.704-.429 1.409-.652 2.112-.223.706-.434 1.375-.633 2.009-.201.634-.37 1.175-.511 1.621l-4.754 13.348h-4.439l-4.579-13.208c-.093-.282-.247-.751-.457-1.409-.212-.658-.44-1.386-.687-2.185-.246-.798-.481-1.578-.705-2.342-.223-.762-.405-1.392-.546-1.884h-.07c.023.705.04 1.456.053 2.254.012.798.023 1.603.035 2.412.012.812.019 1.593.019 2.344v14.018h-4.544v-24.584h7.961l3.836 11.729z" style="fill-rule:nonzero;fill:#a9aaac"/>
    <path d="m75.939 74.657h-5.39l-2.147-5.67h-10.251l-2.148 5.67h-5.108l9.651-24.584h5.601l9.792 24.584zm-10.919-15.146c-.141-.375-.294-.815-.457-1.319-.166-.504-.322-1.022-.476-1.551-.153-.528-.299-1.026-.44-1.497-.14-.47-.247-.869-.317-1.198h-.07c-.095.329-.212.728-.352 1.198-.141.47-.3.969-.477 1.497-.176.529-.347 1.046-.51 1.551-.165.504-.317.944-.458 1.319l-2.042 5.742h7.643l-2.044-5.742z" style="fill-rule:nonzero;fill:#a9aaac"/>
    <path d="m98.023 55.179c-.754-.399-1.713-.727-2.877-.986-1.166-.258-2.385-.387-3.653-.387-1.318 0-2.507.199-3.567.598-1.058.398-1.958.96-2.699 1.687-.742.727-1.318 1.617-1.73 2.671-.412 1.055-.619 2.226-.619 3.516 0 1.266.189 2.425.567 3.48.375 1.054.924 1.95 1.642 2.688.719.738 1.607 1.313 2.668 1.723s2.272.615 3.64.615c.519 0 1.031-.03 1.537-.088.506-.059.96-.146 1.36-.264v-6.095h-5.249v-3.944h9.968v13.208c-1.339.47-2.7.804-4.086 1.003-1.385.199-2.782.301-4.191.301-1.879 0-3.622-.287-5.23-.863-1.609-.575-3-1.408-4.175-2.501-1.174-1.093-2.089-2.418-2.746-3.98-.658-1.561-.986-3.328-.986-5.301 0-1.902.328-3.622.986-5.16.657-1.538 1.591-2.848 2.8-3.927 1.21-1.081 2.671-1.908 4.387-2.483 1.713-.575 3.639-.863 5.775-.863 1.221 0 2.413.071 3.576.211 1.162.142 2.247.388 3.258.739l-.356 4.402z" style="fill-rule:nonzero;fill:#a9aaac"/>
    <path d="m104.4 50.073h14.547v4.12h-9.651v5.884h8.877v3.98h-8.877v6.481h9.757v4.119h-14.652v-24.584h-.001z" style="fill-rule:nonzero;fill:#a9aaac"/>
   </g>
  </g>
 </g>
</svg>
