<svg xmlns="http://www.w3.org/2000/svg" width="300" height="300" viewBox="0 0 300 300">
  <!-- https://dennism.de/wp-content/uploads/smiley-smile.svg -->
  <path fill="#262626" d="M0,149.993333 C0,67.2933333 67.2866667,2.84217094e-14 149.993333,2.84217094e-14 C232.696667,2.84217094e-14 299.986667,67.2933333 299.986667,149.993333 C299.986667,232.703333 232.696667,300 149.993333,300 C67.2866667,300 0,232.703333 0,149.993333 Z M284.986667,149.993333 C284.986667,75.56 224.426667,15 149.993333,15 C75.5466667,15 15,75.56 15,149.993333 C15,224.44 75.5466667,285 149.993333,285 C224.426667,285 284.986667,224.44 284.986667,149.993333 Z M194.993333,121.866667 C185.666667,121.866667 178.12,114.306667 178.12,104.993333 C178.12,95.6866667 185.67,88.12 194.993333,88.12 C204.3,88.1233333 211.866667,95.6866667 211.866667,104.993333 C211.866667,114.31 204.3,121.866667 194.993333,121.866667 Z M104.993333,121.866667 C95.67,121.866667 88.12,114.306667 88.12,104.993333 C88.12,95.6866667 95.67,88.12 104.993333,88.12 C114.303333,88.1233333 121.866667,95.6866667 121.866667,104.993333 C121.866667,114.31 114.3,121.866667 104.993333,121.866667 Z M79.189449,191.903171 C77.0341864,188.693693 77.8887964,184.344712 81.098274,182.189449 C84.3077516,180.034186 88.6567329,180.888796 90.8119956,184.098274 C105.18258,205.498018 124.671916,216.000722 150.000722,216.000722 C175.329705,216.000722 194.820479,205.497839 209.193591,184.097834 C211.349096,180.88852 215.698142,180.034239 218.907457,182.189745 C222.116771,184.34525 222.971052,188.694296 220.815546,191.903611 C203.845419,217.17029 180.000273,230.000722 150.000722,230.000722 C120.000994,230.000722 96.1569752,217.170112 79.189449,191.903171 Z"/>
</svg>
