<svg enable-background="new 0 0 24 24" height="512" viewBox="0 0 24 24" width="512" fill="#7289da"
     xmlns="http://www.w3.org/2000/svg">
    <g>
        <path d="m15.25 11h-6.5c-.965 0-1.75-.785-1.75-1.75v-1.5c0-.414.336-.75.75-.75s.75.336.75.75v1.5c0 .138.112.25.25.25h6.5c.138 0 .25-.112.25-.25v-1.5c0-.414.336-.75.75-.75s.75.336.75.75v1.5c0 .965-.785 1.75-1.75 1.75z"/>
    </g>
    <g>
        <path d="m12 8c-.414 0-.75-.336-.75-.75v-6.25c0-.414.336-.75.75-.75s.75.336.75.75v6.25c0 .414-.336.75-.75.75z"/>
    </g>
    <g>
        <path d="m14.25 3.75c-.192 0-.384-.073-.53-.22l-1.72-1.719-1.72 1.72c-.293.293-.768.293-1.061 0s-.293-.768 0-1.061l2.25-2.25c.293-.293.768-.293 1.061 0l2.25 2.25c.293.293.293.768 0 1.061-.146.146-.338.219-.53.219z"/>
    </g>
    <g>
        <path d="m22.25 21h-20.5c-.965 0-1.75-.785-1.75-1.75v-13.5c0-.965.785-1.75 1.75-1.75h3.5c.415 0 .75.336.75.75s-.335.75-.75.75h-3.5c-.138 0-.25.112-.25.25v13.5c0 .138.112.25.25.25h20.5c.138 0 .25-.112.25-.25v-13.5c0-.138-.112-.25-.25-.25h-3.5c-.414 0-.75-.336-.75-.75s.336-.75.75-.75h3.5c.965 0 1.75.785 1.75 1.75v13.5c0 .965-.785 1.75-1.75 1.75z"/>
    </g>
    <g>
        <path d="m23.25 17.5h-22.5c-.414 0-.75-.336-.75-.75s.336-.75.75-.75h22.5c.414 0 .75.336.75.75s-.336.75-.75.75z"/>
    </g>
    <g>
        <path d="m15.25 24h-6.5c-.303 0-.577-.183-.693-.463s-.052-.602.163-.817c1.041-1.041 1.265-2.553 1.267-2.567.054-.411.432-.704.841-.646.411.054.7.431.646.841-.008.059-.147 1.066-.744 2.152h3.523c-.591-1.08-.738-2.088-.746-2.147-.057-.41.229-.788.64-.846.414-.058.788.229.846.639.007.045.232 1.469 1.184 2.487.195.136.323.361.323.617 0 .414-.336.75-.75.75z"/>
    </g>
</svg>