<?xml version="1.0" encoding="utf-8"?>
<svg xmlns="http://www.w3.org/2000/svg" xmlns:xlink="http://www.w3.org/1999/xlink" id="client-away" width="16"
     height="16" viewBox="0 0 16 16" x="0" y="32">
    <path fill="#7289da"
          d="M14.875 13.808c0 0.593-0.481 1.074-1.074 1.074h-11.601c-0.593 0-1.074-0.481-1.074-1.074v-6.016c0-0.593 0.481-1.074 1.074-1.074h11.602c0.593 0 1.074 0.481 1.074 1.074v6.016h-0z"></path>
    <path fill="#fff"
          d="M8.991 10.623l1.589 1.595c0.070 0.070 0.105 0.153 0.105 0.249s-0.035 0.178-0.105 0.244l-0.493 0.493c-0.066 0.070-0.149 0.105-0.247 0.105s-0.18-0.035-0.247-0.105l-1.595-1.589-1.595 1.589c-0.066 0.070-0.149 0.105-0.247 0.105s-0.18-0.035-0.247-0.105l-0.493-0.493c-0.070-0.066-0.105-0.148-0.105-0.244s0.035-0.179 0.105-0.249l1.589-1.595-1.589-1.589c-0.070-0.070-0.105-0.153-0.105-0.249s0.035-0.179 0.105-0.249l0.493-0.493c0.066-0.066 0.149-0.1 0.247-0.1s0.18 0.033 0.247 0.1l1.595 1.595 1.594-1.595c0.066-0.066 0.149-0.1 0.247-0.1s0.18 0.033 0.247 0.1l0.493 0.493c0.070 0.070 0.105 0.153 0.105 0.249s-0.035 0.179-0.105 0.249l-1.589 1.589z"></path>
    <path fill="#a9aaac" d="M8 2.93l2.146 2.515h1.787l-3.933-4.609-3.933 4.609h1.787l2.146-2.515z"></path>
</svg>