<?xml version="1.0" encoding="utf-8"?>
<svg xmlns="http://www.w3.org/2000/svg" xmlns:xlink="http://www.w3.org/1999/xlink" id="client-bookmark_add" width="16"
     height="16" viewBox="0 0 16 16" x="96" y="32">
    <path fill="#7289da" d="M4.885 14.875l-1.88-1.858-1.88 1.858v-13.75h3.76v13.75z"></path>
    <path fill="#ccc"
          d="M12.755 6.57v1.566h1.566c0.191 0 0.378 0.031 0.554 0.089v-7.101h-3.76v3.695c0.427 0.027 0.824 0.203 1.128 0.507 0.33 0.33 0.512 0.772 0.512 1.243z"></path>
    <path fill="#b3b3b3"
          d="M8.137 8.136v-1.566c0-0.471 0.182-0.913 0.513-1.245 0.327-0.327 0.764-0.507 1.23-0.511v-3.69h-3.76v7.071c0.145-0.038 0.296-0.059 0.45-0.059l1.566 0z"></path>
    <path fill="#1ca037"
          d="M14.321 11.553h-2.768v2.768c0 0.155-0.053 0.287-0.16 0.393s-0.238 0.16-0.393 0.16h-1.107c-0.156 0-0.287-0.055-0.394-0.164s-0.16-0.24-0.16-0.389v-2.768h-2.768c-0.156 0-0.287-0.055-0.394-0.165s-0.16-0.239-0.16-0.389v-1.107c0-0.156 0.053-0.287 0.16-0.394s0.238-0.16 0.394-0.16h2.768v-2.768c0-0.156 0.053-0.287 0.16-0.394s0.238-0.16 0.394-0.16h1.107c0.156 0 0.287 0.053 0.393 0.16s0.16 0.238 0.16 0.394v2.768h2.768c0.155 0 0.287 0.054 0.393 0.16s0.16 0.238 0.16 0.394v1.107c0 0.15-0.053 0.279-0.16 0.389s-0.238 0.165-0.393 0.165z"></path>
</svg>