<?xml version="1.0" encoding="utf-8"?>
<svg xmlns="http://www.w3.org/2000/svg" xmlns:xlink="http://www.w3.org/1999/xlink" id="client-channel_edit" width="16"
     height="16" viewBox="0 0 16 16" x="128" y="64">
    <path fill="#000"
          d="M11.956 1.563h-7.913c-1.612 0-2.918 1.307-2.918 2.918v3.787c0 1.612 1.307 2.918 2.918 2.918h4.317c0.254 0.67 0.515 2.036-0.863 3.249 2.518-0.468 3.701-2.439 4.088-3.249h0.371c1.612 0 2.918-1.306 2.918-2.918v-3.787c0-1.612-1.307-2.918-2.919-2.918z"></path>
    <path fill="#fff"
          d="M4.396 5.885c-0.121-0.121-0.121-0.318 0-0.439l0.293-0.293c0.121-0.121 0.318-0.121 0.439 0l0.878 0.878c0.121 0.121 0.121 0.318 0 0.439l-0.293 0.293c-0.121 0.121-0.318 0.121-0.439 0l-0.878-0.878z"></path>
    <path fill="#fff"
          d="M6.92 3.36c-0.121-0.121-0.121-0.318 0-0.439l0.293-0.293c0.121-0.121 0.318-0.121 0.439 0l0.878 0.878c0.121 0.121 0.121 0.318 0 0.439l-0.293 0.293c-0.121 0.121-0.318 0.121-0.439 0l-0.878-0.878z"></path>
    <path fill="#fff"
          d="M4.284 4.706c0-0.171 0.139-0.31 0.31-0.31h0.414c0.171 0 0.31 0.139 0.31 0.31v0.931c0 0.171-0.139 0.311-0.31 0.311h-0.414c-0.171 0-0.31-0.139-0.31-0.311v-0.931z"></path>
    <path fill="#fff"
          d="M6.473 3.551c-0.171 0-0.31-0.139-0.31-0.31v-0.414c0-0.171 0.139-0.311 0.31-0.31h0.931c0.171 0 0.311 0.139 0.311 0.31v0.414c0 0.171-0.139 0.31-0.311 0.31h-0.931z"></path>
    <path fill="#fff"
          d="M5.5 6.86c-0.171 0-0.311-0.139-0.311-0.31v-0.414c0-0.171 0.139-0.31 0.311-0.31h1.966c0.171 0 0.311 0.139 0.31 0.31v0.414c0 0.171-0.139 0.31-0.31 0.311l-1.966-0z"></path>
    <path fill="#fff"
          d="M7.592 3.732c0-0.171 0.139-0.311 0.31-0.311h0.414c0.171 0 0.31 0.139 0.31 0.31l0 1.966c-0 0.171-0.139 0.31-0.31 0.31h-0.414c-0.171 0-0.311-0.139-0.311-0.31l0-1.966z"></path>
    <path fill="#fff"
          d="M11.565 8.582c0.201 0.201 0.201 0.528 0 0.729l-0.486 0.486c-0.201 0.201-0.528 0.201-0.729-0l-3.242-3.242c-0.201-0.201-0.201-0.528 0-0.729l0.486-0.486c0.201-0.201 0.528-0.201 0.729 0l3.242 3.242z"></path>
    <path fill="#7289da"
          d="M11.956 1.563h-7.913c-1.612 0-2.918 1.307-2.918 2.918v3.787c0 1.612 1.307 2.918 2.918 2.918h4.317c0.254 0.67 0.515 2.036-0.863 3.249 2.518-0.468 3.701-2.439 4.088-3.249h0.371c1.612 0 2.918-1.306 2.918-2.918v-3.787c0-1.612-1.307-2.918-2.919-2.918z"></path>
    <path fill="#f2f2f2"
          d="M8.49 5.609c0.43-0.833 0.363-1.792-0.328-2.478-0.482-0.478-2.316-0.408-2.316-0.408l-0.148 0.446 1.314 0.459c0 0 1.1 0.696 0.016 1.773s-1.713-0.089-1.713-0.089l-0.471-1.296-0.442 0.14c0 0-0.172 1.858 0.341 2.368 0.691 0.686 1.658 0.752 2.497 0.325l1.249-1.239z"></path>
    <path fill="#f2f2f2"
          d="M11.467 8.56c0.21 0.21 0.21 0.55 0 0.761l-0.507 0.507c-0.21 0.21-0.55 0.21-0.761 0l-3.382-3.382c-0.21-0.21-0.21-0.551 0-0.761l0.507-0.507c0.21-0.21 0.551-0.21 0.761 0l3.382 3.382z"></path>
</svg>