<?xml version="1.0" encoding="utf-8"?>
<svg xmlns="http://www.w3.org/2000/svg" xmlns:xlink="http://www.w3.org/1999/xlink" id="client-channel_create" width="16"
     height="16" viewBox="0 0 16 16" x="0" y="64">
    <path fill="#1ca037"
          d="M11.956 1.563h-7.913c-1.612 0-2.918 1.307-2.918 2.918v3.787c0 1.612 1.307 2.918 2.918 2.918h4.317c0.254 0.67 0.515 2.036-0.863 3.249 2.518-0.468 3.701-2.439 4.088-3.249h0.371c1.612 0 2.918-1.306 2.918-2.918v-3.787c0-1.612-1.307-2.918-2.919-2.918z"></path>
    <path fill="#fff"
          d="M11.055 7.108h-2.182v2.182c0 0.123-0.042 0.226-0.126 0.31s-0.188 0.126-0.31 0.126h-0.873c-0.123 0-0.226-0.043-0.31-0.13s-0.126-0.189-0.126-0.307v-2.182h-2.182c-0.123 0-0.226-0.043-0.31-0.13s-0.126-0.189-0.126-0.307v-0.873c0-0.123 0.042-0.226 0.126-0.31s0.188-0.126 0.31-0.126h2.182v-2.182c0-0.123 0.042-0.226 0.126-0.31s0.188-0.126 0.31-0.126h0.873c0.123 0 0.226 0.042 0.31 0.126s0.126 0.188 0.126 0.31v2.182h2.182c0.123 0 0.226 0.042 0.31 0.126s0.126 0.188 0.126 0.31v0.873c0 0.118-0.042 0.221-0.126 0.307s-0.187 0.13-0.31 0.13z"></path>
</svg>