<?xml version="1.0" encoding="utf-8"?>
<svg xmlns="http://www.w3.org/2000/svg" xmlns:xlink="http://www.w3.org/1999/xlink" id="client-channel_default"
     width="16" height="16" viewBox="0 0 16 16" x="64" y="64">
    <path fill="#7289da"
          d="M5.398 9.393c0.345-0.344 0.805-0.534 1.295-0.534s0.95 0.19 1.296 0.535l0.438 0.438 3.735-3.727c0.345-0.345 0.805-0.535 1.296-0.535 0.49 0 0.949 0.189 1.293 0.532l0.122 0.121v-1.903c0-1.612-1.307-2.918-2.919-2.918h-7.913c-1.612 0-2.918 1.307-2.918 2.918v3.787c0 1.612 1.307 2.918 2.918 2.918h0.055c0.083-0.299 0.241-0.573 0.466-0.798l0.835-0.835z"></path>
    <path fill="#1ca037"
          d="M14.705 8.648l-5.8 5.791c-0.112 0.112-0.278 0.165-0.497 0.159-0.2-0.006-0.353-0.059-0.459-0.159l-2.502-2.502c-0.112-0.112-0.168-0.25-0.168-0.412s0.056-0.3 0.168-0.412l0.834-0.834c0.112-0.112 0.25-0.169 0.412-0.169s0.3 0.056 0.412 0.169l1.321 1.321 4.62-4.61c0.112-0.112 0.25-0.169 0.412-0.169s0.3 0.056 0.412 0.169l0.834 0.825c0.112 0.119 0.169 0.258 0.169 0.417s-0.056 0.298-0.169 0.417z"></path>
</svg>