<?xml version="1.0" encoding="utf-8"?>
<svg xmlns="http://www.w3.org/2000/svg" xmlns:xlink="http://www.w3.org/1999/xlink" id="client-channel_private"
     width="16" height="16" viewBox="0 0 16 16" x="256" y="64">
    <path fill="#7289da"
          d="M11.956 1.563h-7.913c-1.612 0-2.918 1.307-2.918 2.918v3.787c0 1.612 1.307 2.918 2.918 2.918h4.317c0.254 0.67 0.515 2.036-0.863 3.249 2.518-0.468 3.701-2.439 4.088-3.249h0.371c1.612 0 2.918-1.306 2.918-2.918v-3.787c0-1.612-1.307-2.918-2.919-2.918z"></path>
    <path fill="#f2f2f2"
          d="M6.751 4.978c0-0.352 0.123-0.651 0.368-0.896s0.54-0.369 0.885-0.369 0.638 0.123 0.882 0.369c0.243 0.246 0.364 0.545 0.364 0.896v0.952h0.832v-0.952c0-0.383-0.093-0.735-0.28-1.058s-0.439-0.579-0.757-0.768c-0.319-0.189-0.667-0.284-1.044-0.284s-0.725 0.095-1.044 0.284c-0.319 0.189-0.571 0.445-0.758 0.768s-0.28 0.676-0.28 1.058v0.952h0.833v-0.952h-0z"></path>
    <path fill="#f2f2f2"
          d="M5.409 5.832h5.185c0.076 0.017 0.143 0.054 0.2 0.112 0.080 0.081 0.12 0.181 0.12 0.3v2.953c0 0.118-0.040 0.219-0.12 0.3s-0.178 0.122-0.296 0.122h-4.997c-0.113 0-0.21-0.040-0.293-0.122s-0.124-0.182-0.124-0.3v-2.953c0-0.119 0.041-0.218 0.124-0.3 0.059-0.058 0.125-0.095 0.2-0.112zM8.456 6.981c0-0.169-0.137-0.307-0.307-0.307h-0.298c-0.169 0-0.307 0.138-0.307 0.307v1.586c0 0.169 0.138 0.307 0.307 0.307h0.298c0.169 0 0.307-0.137 0.307-0.307v-1.586z"></path>
</svg>