<?xml version="1.0" encoding="utf-8"?>
<svg xmlns="http://www.w3.org/2000/svg" xmlns:xlink="http://www.w3.org/1999/xlink" id="client-change_nickname"
     width="16" height="16" viewBox="0 0 16 16" x="384" y="32">
    <path fill="#7289da"
          d="M3.57 9.56l-2.445 5.315 5.316-2.445c-0.358-0.566-0.781-1.103-1.274-1.596s-1.030-0.916-1.596-1.274z"></path>
    <path fill="#7289da"
          d="M14.875 3.687c0-0.297-0.104-0.547-0.313-0.749l-1.498-1.501c-0.203-0.207-0.452-0.311-0.751-0.311s-0.552 0.101-0.759 0.302l-7.175 7.174c0.447 0.293 0.877 0.624 1.284 0.992 0.129 0.117 0.256 0.237 0.381 0.362s0.245 0.252 0.363 0.382c0.369 0.407 0.699 0.836 0.992 1.284l7.175-7.175c0.2-0.207 0.301-0.461 0.301-0.76z"></path>
</svg>