<?xml version="1.0" encoding="utf-8"?>
<svg xmlns="http://www.w3.org/2000/svg" xmlns:xlink="http://www.w3.org/1999/xlink" id="client-client_hide" width="16"
     height="16" viewBox="0 0 16 16" x="0" y="96">
    <path fill="#a9aaac"
          d="M6.939 1.291c-2.031 0-3.023 0.365-3.371 0.522s-0.521 0.313-0.591 0.643c-0.057 0.273-0.449 2.206-0.582 2.865-0.709 0.295-1.208 0.996-1.208 1.813 0 1.085 0.879 1.964 1.964 1.964s1.964-0.879 1.964-1.964c0-0.708-0.376-1.33-0.939-1.675v-3.645c0 0 0.643-0.222 2.277-0.222 2.457 0 7.368 1.74 7.368 6.403 0 4.456-4.814 6.245-7.612 6.245-2.085 0-2.885-0.452-2.885-0.452l-0.348 0.192c0 0 1.338 0.73 3.736 0.73 3.84 0 8.099-2.492 8.099-6.715 0-4.304-4.554-6.702-7.873-6.702z"></path>
    <path fill="#a9aaac"
          d="M7.31 6.172c0.049 0.311-0.343 0.481-0.343 0.714 0 0.2 0.85 1.406 1.087 1.785 0.224 0.36 0.076 0.514-0.36 0.619s-0.384 0.311-0.384 0.478 0.168 0.315 0.168 0.43c0 0.114-0.29 0.255-0.29 0.358s0.21 0.209 0.21 0.292c0 0.083-0.266 0.192-0.284 0.4-0.019 0.226 0.364 0.668-0.035 1.155s-2.172 0.131-2.172 0.131 1.547-1.477 1.547-3.718c0-2.242-1.738-3.372-1.738-3.372s0-2.538 0-3.024c0.958 0 2.31 1.966 2.595 3.751z"></path>
    <path fill="#a9aaac"
          d="M7.567 12.573c0 0 0.266-0.379 0.199-0.644s-0.158-0.585-0.094-0.688c0.065-0.102 0.246-0.114 0.246-0.337 0-0.122-0.042-0.179-0.079-0.214 0.063-0.040 0.118-0.054 0.118-0.076 0-0.011-0.037-0.053-0.149-0.035 0.060-0.071 0.195-0.193 0.195-0.338 0-0.187-0.157-0.272-0.157-0.471s0.206-0.211 0.375-0.259c0.168-0.049 0.507-0.158 0.507-0.495 0-0.338-1.201-1.846-1.201-2.033s0.364-0.353 0.307-0.79c-0.008-0.062-0.021-0.137-0.039-0.222 0.29-0.050 1.588-0.627 1.427-1.030-0.246-0.616-2.188-1.723-2.871-1.904-0.27-0.311-0.58-0.585-0.929-0.789 2.72-0.349 7.324 1.499 7.324 5.163-0 3.663-3.781 4.978-5.177 5.162z"></path>
    <path fill="#fff"
          d="M7.838 10.689c-0.019-0.021-0.059-0.039-0.059-0.056s0.006-0.031 0.027-0.055c0.898-0.401 1.675-1.227 1.675-2.284s-0.891-1.973-1.688-2.324c-0.144-0.666-0.61-1.974-1.444-2.934 1.362-0.152 4.812 1.248 4.812 3.743 0 2.724-2.75 3.761-3.322 3.91z"></path>
    <path fill="#fff"
          d="M4.171 7.322c0 0.736-0.597 1.334-1.333 1.334s-1.334-0.598-1.334-1.334c0-0.736 0.598-1.334 1.334-1.334s1.333 0.598 1.333 1.334z"></path>
</svg>