<?xml version="1.0" encoding="utf-8"?>
<svg xmlns="http://www.w3.org/2000/svg" xmlns:xlink="http://www.w3.org/1999/xlink" id="client-copy" width="16"
     height="16" viewBox="0 0 16 16" x="224" y="96">
    <path fill="#a9aaac"
          d="M8.325 4.973c0.331 0 0.6 0.269 0.6 0.6v7.44c0 0.331-0.269 0.6-0.6 0.6h-5.4c-0.331 0-0.6-0.269-0.6-0.6v-7.44c0-0.331 0.269-0.6 0.6-0.6h5.4zM8.325 3.772h-5.4c-0.994 0-1.8 0.806-1.8 1.8v7.44c0 0.994 0.806 1.8 1.8 1.8h5.4c0.994 0 1.8-0.806 1.8-1.8v-7.44c0-0.994-0.806-1.8-1.8-1.8z"></path>
    <path fill="#a9aaac"
          d="M7.515 12.381h-3.72c-0.331 0-0.6-0.269-0.6-0.6s0.269-0.6 0.6-0.6h3.72c0.332 0 0.6 0.269 0.6 0.6s-0.269 0.6-0.6 0.6z"></path>
    <path fill="#a9aaac"
          d="M7.515 9.864h-3.72c-0.331 0-0.6-0.268-0.6-0.6s0.269-0.6 0.6-0.6h3.72c0.332 0 0.6 0.268 0.6 0.6s-0.269 0.6-0.6 0.6z"></path>
    <path fill="#a9aaac"
          d="M7.515 7.346h-3.72c-0.331 0-0.6-0.269-0.6-0.6s0.269-0.6 0.6-0.6h3.72c0.332 0 0.6 0.269 0.6 0.6s-0.269 0.6-0.6 0.6z"></path>
    <path fill="#7289da" opacity="0.941176"
          d="M13.075 1.188h-5.4c-0.833 0-1.532 0.567-1.737 1.335h2.387c1.682 0 3.050 1.368 3.050 3.050v6.655h1.7c0.994 0 1.8-0.806 1.8-1.8v-7.44c0-0.994-0.806-1.8-1.8-1.8z"></path>
</svg>