<?xml version="1.0" encoding="utf-8"?>
<svg xmlns="http://www.w3.org/2000/svg" xmlns:xlink="http://www.w3.org/1999/xlink" id="client-copy_url" width="16"
     height="16" viewBox="0 0 16 16" x="256" y="96">
    <path fill="#a9aaac"
          d="M8.325 4.91c0.331 0 0.6 0.269 0.6 0.6v7.44c0 0.331-0.269 0.6-0.6 0.6h-5.4c-0.331 0-0.6-0.269-0.6-0.6v-7.44c0-0.331 0.269-0.6 0.6-0.6h5.4zM8.325 3.71h-5.4c-0.994 0-1.8 0.806-1.8 1.8v7.44c0 0.994 0.806 1.8 1.8 1.8h5.4c0.994 0 1.8-0.806 1.8-1.8v-7.44c0-0.994-0.806-1.8-1.8-1.8z"></path>
    <path fill="#7289da"
          d="M8.12 9.278c0 1.38-1.119 2.5-2.5 2.5s-2.5-1.12-2.5-2.5c0-1.38 1.119-2.5 2.5-2.5s2.5 1.12 2.5 2.5z"></path>
    <path fill="#fff" d="M4.897 7.15c-0-0-0.011-0.022 0 0z"></path>
    <path fill="#fff"
          d="M5.524 6.993c0.004-0.029 0.052-0.035-0.037-0.035-0.014 0.053 0.023 0.014 0.037 0.035z"></path>
    <path fill="#fff"
          d="M5.316 9.877c0.018-0.061 0.047-0.066 0.099-0.030-0.007-0.076-0.185-0.043-0.236-0.151-0.004-0.216-0.044-0.15-0.214-0.193 0.032-0.045 0.072-0.151 0.080-0.201 0.023-0.163-0.207 0.108-0.169 0.096-0.229 0.075-0.32-0.281-0.208-0.417 0.058-0.069 0.131-0.038 0.193-0.064 0.011-0.005 0.062 0.024 0.095 0.022-0.021 0.001 0.041-0.056 0.081-0.058 0.173-0.012 0.163 0.144 0.268 0.245 0.071-0.137-0.083-0.245 0.073-0.373 0.095-0.078 0.159-0.094 0.086-0.211 0.028 0.009 0.017-0.002 0.051 0.018 0.033-0.095 0.094-0.161 0.195-0.159-0.037-0.111 0.15-0.201 0.247-0.169-0.034 0.040-0.097-0.014-0.087 0.064 0.072-0.018 0.186-0.049 0.209-0.137-0.075 0.088-0.226-0.015-0.177-0.053 0.056-0.043-0.027-0.055-0.062-0.045-0.067 0.018-0.122 0.074-0.173 0.118 0.013-0.029 0.037-0.048 0.059-0.071-0.014-0.003-0.028-0.007-0.043-0.010 0.069 0 0.179-0.071 0.259-0.088 0.061 0.043 0.167-0.046 0.236-0.073 0.011 0.037-0.019 0.067-0.043 0.093-0.069 0.083 0.106 0.079 0.168 0.104 0.072-0.079-0.048-0.13-0.109-0.143 0.026-0.096-0.047-0.178-0.166-0.122 0.020-0.009 0.066-0.047 0.095-0.061-0.154-0.010-0.26-0.219-0.353-0.321 0.010-0.005 0.026 0.013 0.036 0.013-0.018-0.016-0.052-0.062-0.080-0.085 0.031 0.026 0.079 0.037 0.114 0.058-0.003-0.071-0.034-0.103-0.105-0.151 0.007-0.008 0.014-0.016 0.023-0.022 0.026 0.032 0.073 0.046 0.101 0.068 0.090-0.093-0.035-0.116-0.127-0.149-0.006-0.039 0.007-0.008 0.026-0.030-0.032-0.044-0.185-0.157-0.276-0.108-0-0.017 0.002-0.043 0.005-0.061-0.066-0.002-0.085 0.051-0.090 0.090 0.014-0.038 0.013-0.050 0.039-0.091-0.065 0-0.092 0.031-0.122 0.086-0.005-0.016 0.043 0.027 0.035 0.020-0.012-0.005-0.024-0.005-0.037 0.001 0.018 0.004 0.053 0.025 0.080 0.037-0.013 0.029-0.049 0.074-0.086 0.108-0.002-0.069-0.025-0.042-0.043-0.060 0.003-0.183-0.078-0.078-0.112 0 0.019-0.002 0.030-0.005 0.046-0.015-0.009 0.019-0.055 0.062-0.071 0.074-0.005-0.006-0.010-0.012-0.016-0.018 0.074-0.104-0.019-0.038-0.009-0.037-0.068-0.010-0.205-0.008-0.247 0.071-0.002-0.068-0.016-0.053-0.093-0.061 0.013-0.011 0.025-0.010 0.037-0.019-0.047-0.046-0.053-0.063-0.12-0.050 0.007-0.010 0.015-0.019 0.022-0.029 0.005 0.002-0.049 0.021-0.045 0.019 0.009-0.011 0.019-0.022 0.028-0.033-0.037 0.013-0.101 0.029-0.148 0.048 0.035-0.013 0.070-0.029 0.105-0.043-0.048 0.014-0.11 0.019-0.157 0.029 0.002-0.026-0.005-0.054-0.016-0.054-0.154-0.011-0.403 0.218-0.526 0.336-0.001 0.023 0.007 0.027-0.056 0.082 0.034-0.024 0.091-0.041 0.119-0.058 0.018 0.060 0.087 0.201 0.048 0.262-0.092 0.141 0.069 0.229 0.004 0.369-0.007-0.075-0.008-0.132-0.070-0.155 0.103 0.237-0.168 0.461-0.055 0.728 0.070 0.010 0.159 0.268 0.128 0.294-0.014 0.012 0.113 0.215 0.131 0.246 0.049-0.097-0.117-0.279-0.116-0.404 0.074 0.026 0.144 0.234 0.195 0.315 0.097 0.154 0.061 0.204 0.211 0.312s0.285 0.078 0.425 0.168c0.138 0.089 0.211 0.217 0.414 0.288z"></path>
    <path fill="#fff"
          d="M7.020 10.325c-0.057 0-0.094-0.079-0.143-0.063-0.034 0.001-0.142-0.017-0.13-0.021-0.106-0.074-0.199-0.293-0.432-0.307-0.099 0.005-0.178-0.124-0.261-0.141-0.013-0.024-0.007-0.037 0.017-0.040-0.021-0.031-0.161 0.001-0.19-0.005-0.158 0-0.144-0.1-0.212 0.069-0.057-0.032-0.012-0.129 0.009-0.152-0.13 0.070-0.302 0.108-0.255 0.289 0.026 0.101-0.24 0.277-0.104 0.297 0.002 0.046-0.096 0.049-0.049 0.109 0.002 0.066 0.181 0.273 0.222 0.33 0.072 0.1 0.251 0.107 0.189 0.264-0.019 0.029-0.059 0.247-0.058 0.254 0.021 0.114-0.088 0.242-0.060 0.335 0.007 0.005 0.016 0.007 0.024 0.005 0.020-0.020-0.021-0.036 0.022-0.036 0 0.022-0.016 0.057-0.020 0.084-0.021-0.007-0.006-0.021-0.023-0.021 0.007 0.012 0.013 0.025 0.016 0.039-0.065-0.043 0 0.034 0.002 0.041-0.079 0.008 0.059 0.175 0.125 0.112-0.089-0.024-0.003-0.105 0.040-0.126 0.002-0.004-0.077-0.044-0.013-0.051 0.013 0 0.085-0.069 0.083-0.073-0.007-0.002-0.025 0.005-0.026 0.005 0-0.011 0-0.023 0-0.034 0.095 0 0.257-0.074 0.223-0.173 0.095-0.003 0.228-0.071 0.236-0.087 0.138-0.011 0.105-0.233 0.262-0.233 0.104-0.017 0.182-0.069 0.241-0.164 0.044-0.070 0.342-0.469 0.266-0.506-0.012 0 0.011 0.005 0 0z"></path>
    <path fill="#7289da"
          d="M13.075 1.125h-5.4c-0.833 0-1.532 0.567-1.737 1.335h2.387c1.271 0 2.362 0.781 2.82 1.889 1.079 0.277 1.878 1.254 1.878 2.418 0 1.081-0.687 1.999-1.647 2.348v3.050h1.7c0.994 0 1.8-0.806 1.8-1.8v-7.44c-0-0.994-0.806-1.8-1.8-1.8z"></path>
    <path fill="#7289da"
          d="M11.922 7.815c-0.012 0-0.026 0-0.043 0-0.040-0.011-0.045-0.081-0.101-0.063-0.013 0-0.030 0.002-0.050 0.002-0.031-0.018-0.102-0.009-0.080-0.023-0.056-0.039-0.056-0.039-0.085-0.042-0.003 0-0.005 0-0.018-0.004-0.018-0.009-0.054-0.013-0.051-0.015-0.001-0.003-0.003-0.007-0.003-0.011 0 0-0.019-0.005-0.046-0.015-0.003 0-0.005 0-0.010 0-0.001 0-0.003 0-0.008 0-0.003 0.003 0.014-0.045 0-0.074-0.007 0-0.015 0.001-0.023 0 0.002-0.014 0.002-0.029 0.004-0.044-0.017-0.046-0.017-0.046-0.020-0.049 0 0-0.006-0.003-0.015-0.008v1.020c0.003-0.002 0.005-0.003 0.008-0.004 0.012-0.001 0.022-0.001 0.033-0.001 0.004-0.001 0.004-0.001 0.039-0.024 0.027 0 0.052-0.002 0.081-0.009 0.003-0.005 0.009-0.012 0.014-0.015 0.012-0.005 0.012-0.005 0.1-0.107 0.003-0.001 0.003-0.001 0.039-0.062 0-0.002 0-0.005 0.005-0.012 0.016-0.022 0.024-0.033 0.027-0.048 0.002-0.005 0.003-0.008 0.006-0.018 0-0.002 0-0.006 0-0.011 0.002-0.005 0.003-0.010 0.005-0.021 0.004-0.014 0.008-0.029 0.024-0.046 0 0 0.073-0.060 0.093-0.079l0.066-0.078c0.019-0.024 0.019-0.024 0.023-0.041 0.007-0.082-0.005-0.091-0.016-0.096z"></path>
</svg>