<?xml version="1.0" encoding="utf-8"?>
<svg xmlns="http://www.w3.org/2000/svg" xmlns:xlink="http://www.w3.org/1999/xlink" id="client-d_sound_me" width="16"
     height="16" viewBox="0 0 16 16" x="32" y="0">
    <path fill="#7289da"
          d="M7.349 13.035v-3.516c0-0.433 0.225-0.835 0.593-1.063 0.020-0.012 0.040-0.024 0.061-0.035l0.128-0.072c-0.004-0.002-0.009-0.004-0.013-0.006-0.224-0.113-0.94-0.641-0.838-0.751 0.519-0.562 0.719-0.71 0.979-1.347l0.082-0.202 0.183-0.095c0.153-0.080 0.357-0.383 0.466-0.881 0.063-0.285 0.076-0.573 0.036-0.789-0.030-0.155-0.077-0.237-0.112-0.262l-0.213-0.152-0.033-0.276c-0.165-1.459-1-2.462-2.489-2.462-1.491 0-2.326 1.003-2.493 2.461l-0.032 0.278-0.216 0.151c-0.035 0.024-0.082 0.106-0.111 0.261-0.040 0.217-0.027 0.505 0.036 0.79 0.111 0.5 0.314 0.803 0.467 0.882l0.185 0.095 0.083 0.203c0.259 0.638 0.481 0.806 0.978 1.346 0.133 0.145-0.613 0.637-0.838 0.751-0.171 0.086-0.345 0.134-0.527 0.186-0.509 0.142-1.085 0.305-1.786 1.371-0.526 0.803-0.768 3.558-0.798 4.975h8.14l-1.299-0.761c-0.383-0.224-0.618-0.635-0.618-1.078z"></path>
    <path fill="#a9aaac" d="M8.599 9.521l3.137 1.833v3.521l-3.137-1.831z"></path>
    <path fill="#808080" d="M14.875 9.521l-3.139 1.833v3.521l3.139-1.831z"></path>
    <path fill="#999" d="M14.875 9.521l-3.139-1.772-3.137 1.771 3.14 1.836z"></path>
</svg>