<?xml version="1.0" encoding="utf-8"?>
<svg xmlns="http://www.w3.org/2000/svg" xmlns:xlink="http://www.w3.org/1999/xlink" id="client-default" width="16"
     height="16" viewBox="0 0 16 16" x="288" y="96">
    <path fill="#1ca037"
          d="M14.875 8c0 3.797-3.078 6.875-6.875 6.875s-6.875-3.078-6.875-6.875c0-3.797 3.078-6.875 6.875-6.875s6.875 3.078 6.875 6.875z"></path>
    <path fill="#fff"
          d="M12.504 6.063l-5.8 5.791c-0.112 0.112-0.278 0.165-0.497 0.159-0.2-0.006-0.353-0.059-0.459-0.159l-2.502-2.502c-0.112-0.112-0.168-0.25-0.168-0.412s0.056-0.3 0.168-0.412l0.834-0.834c0.112-0.112 0.25-0.169 0.412-0.169s0.3 0.056 0.412 0.169l1.321 1.321 4.62-4.61c0.112-0.112 0.25-0.169 0.412-0.169s0.3 0.056 0.412 0.169l0.834 0.824c0.112 0.119 0.169 0.258 0.169 0.417s-0.056 0.298-0.169 0.417z"></path>
</svg>