<?xml version="1.0" encoding="utf-8"?>
<svg xmlns="http://www.w3.org/2000/svg" xmlns:xlink="http://www.w3.org/1999/xlink" id="client-file_home" width="16"
     height="16" viewBox="0 0 16 16" x="128" y="128">
    <path fill="#7289da"
          d="M13.801 3.864h-5.693v-0.752c0-0.593-0.481-1.074-1.074-1.074h-4.834c-0.593 0-1.074 0.481-1.074 1.074v9.775c0 0.593 0.481 1.074 1.074 1.074h11.602c0.593 0 1.074-0.481 1.074-1.074v-7.949c-0-0.593-0.481-1.074-1.074-1.074z"></path>
    <path fill="#f2f2f2"
          d="M11.187 8.361l-3.188-2.875-3.188 2.875v4.25h1.875v-2.106c0-0.356 0.288-0.644 0.643-0.644h1.339c0.355 0 0.643 0.288 0.643 0.644v2.105h1.875v-4.25z"></path>
</svg>