<?xml version="1.0" encoding="utf-8"?>
<svg xmlns="http://www.w3.org/2000/svg" xmlns:xlink="http://www.w3.org/1999/xlink" id="client-folder_up" width="16"
     height="16" viewBox="0 0 16 16" x="288" y="128">
    <path fill="#7289da"
          d="M13.801 3.864h-5.693v-0.752c0-0.593-0.481-1.074-1.074-1.074h-4.834c-0.593 0-1.074 0.481-1.074 1.074v9.775c0 0.593 0.481 1.074 1.074 1.074h11.602c0.593 0 1.074-0.481 1.074-1.074v-7.949c-0-0.593-0.481-1.074-1.074-1.074z"></path>
    <path fill="#f2f2f2"
          d="M7.994 6.797c0.131 0 0.261 0.065 0.391 0.195l2.613 2.65c0.085 0.085 0.127 0.189 0.127 0.311s-0.042 0.226-0.127 0.312l-0.312 0.31c-0.085 0.086-0.19 0.129-0.312 0.129s-0.226-0.042-0.311-0.129l-2.063-2.063-2.063 2.063c-0.085 0.086-0.189 0.129-0.311 0.129s-0.226-0.042-0.311-0.129l-0.311-0.31c-0.086-0.086-0.128-0.19-0.128-0.312s0.043-0.226 0.128-0.311l2.6-2.65c0.13-0.13 0.26-0.195 0.391-0.195z"></path>
</svg>