<?xml version="1.0" encoding="utf-8"?>
<svg xmlns="http://www.w3.org/2000/svg" xmlns:xlink="http://www.w3.org/1999/xlink" id="client-group_500" width="16"
     height="16" viewBox="0 0 16 16" x="416" y="128">
    <path fill="#c90709" d="M12.027 12.022l2.52 2.853h-1.563l-2.105-2.353 1.148-0.5z"></path>
    <path fill="#c90709"
          d="M11.319 7.917c0.494 0 0.941 0.080 1.339 0.241s0.737 0.39 1.016 0.689c0.279 0.299 0.495 0.66 0.646 1.084s0.226 0.903 0.226 1.436c0 0.54-0.079 1.024-0.236 1.455s-0.379 0.799-0.665 1.104c-0.286 0.306-0.633 0.539-1.040 0.703s-0.863 0.245-1.363 0.245c-0.496 0-0.945-0.080-1.35-0.24-0.405-0.162-0.749-0.392-1.031-0.695-0.283-0.301-0.501-0.667-0.656-1.093s-0.231-0.907-0.231-1.441c0-1.117 0.292-1.979 0.877-2.583s1.407-0.906 2.467-0.906zM11.237 8.968c-0.271 0-0.517 0.058-0.739 0.173-0.221 0.116-0.413 0.28-0.574 0.492s-0.285 0.469-0.372 0.771-0.13 0.636-0.13 1.002c0 0.366 0.043 0.699 0.13 0.997 0.087 0.3 0.213 0.553 0.377 0.762 0.164 0.209 0.359 0.37 0.584 0.486s0.48 0.173 0.763 0.173c0.271 0 0.518-0.059 0.739-0.178s0.413-0.285 0.575-0.496c0.161-0.213 0.287-0.467 0.376-0.766 0.091-0.299 0.136-0.627 0.136-0.988 0-0.372-0.043-0.709-0.131-1.012-0.086-0.301-0.212-0.557-0.377-0.766s-0.361-0.369-0.59-0.482c-0.228-0.113-0.485-0.169-0.768-0.169z"></path>
    <path fill="#7289da"
          d="M7.915 14.71c-0.386-0.412-0.686-0.909-0.894-1.482-0.197-0.548-0.297-1.161-0.297-1.821 0-1.416 0.402-2.548 1.193-3.365 0.012-0.012 0.024-0.023 0.036-0.035-0.216-0.172-0.401-0.354-0.346-0.414 0.519-0.562 0.719-0.71 0.979-1.347l0.082-0.202 0.183-0.095c0.153-0.080 0.357-0.383 0.466-0.881 0.063-0.285 0.076-0.573 0.036-0.789-0.030-0.155-0.077-0.237-0.112-0.262l-0.213-0.152-0.033-0.276c-0.165-1.459-1-2.462-2.489-2.462s-2.325 1.003-2.492 2.461l-0.032 0.278-0.216 0.151c-0.035 0.024-0.082 0.106-0.111 0.261-0.040 0.217-0.027 0.505 0.036 0.79 0.111 0.5 0.314 0.803 0.467 0.882l0.185 0.095 0.083 0.203c0.259 0.638 0.481 0.806 0.978 1.346 0.133 0.145-0.613 0.637-0.838 0.751-0.171 0.086-0.345 0.134-0.527 0.186-0.509 0.142-1.085 0.305-1.786 1.371-0.526 0.803-0.768 3.558-0.798 4.974h6.627c-0.056-0.053-0.112-0.108-0.165-0.165z"></path>
</svg>