<?xml version="1.0" encoding="utf-8"?>
<svg xmlns="http://www.w3.org/2000/svg" xmlns:xlink="http://www.w3.org/1999/xlink" id="client-group_100" width="16"
     height="16" viewBox="0 0 16 16" x="320" y="128">
    <path fill="#7289da"
          d="M9.476 14.746c-0.463-0.403-0.824-0.899-1.074-1.475-0.243-0.563-0.367-1.189-0.367-1.861 0-0.703 0.137-1.352 0.407-1.93 0.159-0.339 0.356-0.651 0.587-0.934-0.021-0.006-0.042-0.012-0.062-0.018-0.185-0.052-0.358-0.101-0.527-0.186-0.224-0.113-0.94-0.641-0.838-0.751 0.519-0.562 0.719-0.71 0.979-1.347l0.082-0.202 0.183-0.095c0.153-0.080 0.357-0.383 0.466-0.881 0.063-0.285 0.076-0.573 0.036-0.789-0.030-0.155-0.077-0.237-0.112-0.262l-0.213-0.152-0.033-0.276c-0.165-1.459-1-2.462-2.49-2.462s-2.325 1.003-2.492 2.461l-0.032 0.278-0.216 0.151c-0.035 0.024-0.082 0.106-0.111 0.261-0.040 0.217-0.027 0.505 0.036 0.79 0.111 0.5 0.314 0.803 0.467 0.882l0.185 0.095 0.083 0.203c0.259 0.638 0.481 0.806 0.978 1.346 0.133 0.145-0.613 0.637-0.838 0.751-0.171 0.086-0.345 0.134-0.527 0.186-0.509 0.142-1.085 0.305-1.786 1.371-0.526 0.803-0.768 3.558-0.798 4.975h8.184c-0.053-0.042-0.105-0.085-0.156-0.129z"></path>
    <path fill="#c90709"
          d="M14.331 9.427c-0.168-0.071-0.34-0.124-0.515-0.159s-0.381-0.053-0.613-0.053c-0.352 0-0.661 0.058-0.925 0.172s-0.488 0.268-0.668 0.463c-0.181 0.194-0.319 0.421-0.411 0.681s-0.14 0.54-0.14 0.84c0 0.309 0.042 0.593 0.126 0.853s0.215 0.487 0.397 0.681c0.181 0.194 0.408 0.344 0.682 0.45s0.601 0.159 0.981 0.159c0.214 0 0.418-0.018 0.612-0.053s0.394-0.097 0.599-0.185l0.098 1.388c-0.242 0.071-0.478 0.123-0.71 0.159s-0.501 0.053-0.807 0.053c-0.594 0-1.132-0.082-1.615-0.245s-0.895-0.394-1.239-0.694c-0.344-0.3-0.608-0.664-0.794-1.091-0.185-0.428-0.278-0.906-0.278-1.435 0-0.547 0.102-1.039 0.306-1.475s0.483-0.806 0.836-1.111c0.352-0.304 0.763-0.535 1.232-0.694s0.967-0.238 1.497-0.238c0.296 0 0.563 0.013 0.8 0.040 0.237 0.027 0.467 0.075 0.689 0.146l-0.139 1.349z"></path>
</svg>