<?xml version="1.0" encoding="utf-8"?>
<svg xmlns="http://www.w3.org/2000/svg" xmlns:xlink="http://www.w3.org/1999/xlink" id="client-group_600" width="16"
     height="16" viewBox="0 0 16 16" x="448" y="128">
    <path fill="#7289da"
          d="M5.929 8.28l-0.565-1.461h2.919c0.105-0.153 0.197-0.326 0.298-0.574l0.082-0.202 0.183-0.095c0.153-0.080 0.357-0.383 0.466-0.881 0.063-0.285 0.076-0.573 0.036-0.789-0.030-0.155-0.077-0.237-0.112-0.262l-0.213-0.152-0.033-0.276c-0.165-1.459-1-2.462-2.49-2.462s-2.325 1.003-2.493 2.461l-0.032 0.278-0.216 0.151c-0.035 0.024-0.082 0.106-0.111 0.261-0.040 0.217-0.027 0.505 0.036 0.79 0.111 0.5 0.314 0.803 0.467 0.882l0.185 0.095 0.083 0.203c0.259 0.638 0.481 0.806 0.978 1.346 0.133 0.145-0.613 0.637-0.838 0.751-0.171 0.086-0.345 0.134-0.527 0.186-0.509 0.142-1.085 0.305-1.786 1.371-0.526 0.803-0.768 3.558-0.798 4.974h7.030l-2.548-6.595z"></path>
    <path fill="#c90709"
          d="M10.286 11.77c0.038 0.108 0.078 0.236 0.121 0.38s0.088 0.296 0.136 0.454c0.047 0.159 0.093 0.312 0.136 0.461 0.043 0.15 0.079 0.283 0.108 0.401h0.028c0.029-0.117 0.067-0.253 0.115-0.407 0.047-0.153 0.095-0.309 0.143-0.467s0.092-0.31 0.136-0.454c0.043-0.145 0.083-0.267 0.121-0.367l1.299-3.877h1.926l-2.669 6.982h-2.255l-2.697-6.982h2.069l1.285 3.877z"></path>
</svg>