<?xml version="1.0" encoding="utf-8"?>
<svg xmlns="http://www.w3.org/2000/svg" xmlns:xlink="http://www.w3.org/1999/xlink" id="client-guisetup" width="16"
     height="16" viewBox="0 0 16 16" x="480" y="128">
    <path fill="#a9aaac"
          d="M5.59 1.435l2.5 2.5h5.845v10h-11.25v-7.096l-1.25-1.25v9.596h13.75v-13.75h-9.595z"></path>
    <path fill="#7289da"
          d="M10.247 7.861l-6.767-6.767c-0.196-0.189-0.437-0.282-0.722-0.279-0.284 0.003-0.523 0.106-0.719 0.307l-0.919 0.917c-0.2 0.196-0.302 0.435-0.305 0.72s0.090 0.526 0.28 0.721l6.766 6.767c0.008-0.012 0.008-0.012 0.001 0.001l3.564 1.177-1.177-3.564c-0.010 0.006-0.011 0.006-0-0z"></path>
</svg>