<?xml version="1.0" encoding="utf-8"?>
<svg xmlns="http://www.w3.org/2000/svg" xmlns:xlink="http://www.w3.org/1999/xlink" id="client-hardware_output_muted"
     width="16" height="16" viewBox="0 0 16 16" x="32" y="160">
    <path fill="#c90709"
          d="M11.375 7.86c2 0 3.5 1.519 3.5 3.52s-1.534 3.5-3.53 3.5c-1.996 0-3.492-1.526-3.491-3.526s1.504-3.5 3.521-3.494zM13.287 10.33c-0.932 0.932-1.851 1.856-2.777 2.774-0.284 0.281-0.031 0.326 0.16 0.398 0.786 0.294 1.799 0.012 2.375-0.656 0.634-0.732 0.734-1.637 0.242-2.515zM12.287 9.376c-0.846-0.463-1.9-0.281-2.592 0.484-0.654 0.723-0.765 1.75-0.311 2.429l2.904-2.912z"></path>
    <path fill="#a9aaac"
          d="M8.437 1.12c-1.17 1.225-2.228 2.341-3.296 3.444-0.18 0.173-0.277 0.415-0.266 0.665 0 1.853 0 3.704-0.009 5.556 0 0.206-0.013 0.404 0.159 0.576 0.686 0.694 1.362 1.4 2.041 2.101l0.143 0.015-0.044-0.125c-0.046-0.137-0.093-0.275-0.14-0.412-0.612-1.773-0.229-3.396 0.965-4.75 0.391-0.442 0.468-0.804 0.465-1.293-0.007-1.436-0.012-2.872-0.016-4.308-0.002-0.451-0.001-0.896-0.001-1.47z"></path>
    <path fill="#a9aaac"
          d="M3.867 8.074h-0.013c0-0.603 0-1.206 0-1.809 0-1.567 0-1.567-1.596-1.454-0.75 0.054-1.125 0.44-1.125 1.2-0.012 1.331-0.018 2.662-0.015 3.992 0 0.758 0.365 1.16 1.115 1.213 0.394 0.027 0.791-0.011 1.185 0.012 0.361 0.023 0.464-0.125 0.456-0.473-0.020-0.895-0.007-1.789-0.007-2.682z"></path>
    <path fill="#ccc"
          d="M12.558 2.085c-0.266-0.299-0.559-0.574-0.949-0.231s-0.154 0.651 0.125 0.954c0.922 1 1.616 2.15 1.821 3.484 0.135 0.875 0.481 1.5 1.324 1.957 0.055-2.414-0.771-4.424-2.321-6.164z"></path>
    <path fill="#ccc"
          d="M9.905 3.547c-0.332 0.308-0.189 0.625 0.080 0.922 0.375 0.416 0.78 0.86 0.902 1.4 0.188 0.827 0.693 1 1.481 0.915-0.274-1.181-0.759-2.181-1.565-3.033-0.255-0.274-0.54-0.536-0.899-0.205z"></path>
</svg>