<?xml version="1.0" encoding="utf-8"?>
<svg xmlns="http://www.w3.org/2000/svg" xmlns:xlink="http://www.w3.org/1999/xlink" id="client-hardware_input_muted"
     width="16" height="16" viewBox="0 0 16 16" x="0" y="160">
    <path fill="#c90709"
          d="M11.367 7.839c2 0 3.521 1.51 3.522 3.5 0 2.026-1.523 3.541-3.556 3.537-1.981 0-3.484-1.531-3.482-3.541s1.508-3.499 3.516-3.496zM13.316 10.276c-0.941 0.951-1.806 1.845-2.694 2.711-0.375 0.36-0.17 0.436 0.179 0.524 0.894 0.224 1.656-0.023 2.25-0.7 0.62-0.721 0.731-1.551 0.265-2.535zM12.34 9.385c-1.015-0.475-2.045-0.25-2.705 0.559-0.594 0.734-0.669 1.7-0.214 2.336l2.919-2.895z"></path>
    <path fill="#a9aaac"
          d="M11.135 1.124c-2.069 0.011-3.652 1.649-3.644 3.774 0.002 0.856 0.313 1.683 0.875 2.327 0.221 0.266 0.412 0.314 0.735 0.125 1.412-0.832 2.875-0.791 4.324-0.112 0.346 0.161 0.518 0.075 0.723-0.185 0.537-0.685 0.711-1.487 0.721-2.321 0.027-2.004-1.661-3.614-3.734-3.607z"></path>
    <path fill="#a9aaac"
          d="M6.537 6.576c-1.304 1.324-2.567 2.625-3.849 3.897-0.24 0.239-0.146 0.365 0.042 0.549 0.538 0.522 1.063 1.057 1.594 1.588 0.946 0.946 0.935 0.934 1.916-0.012 0.364-0.351 0.566-0.691 0.53-1.235-0.055-0.94 0.224-1.87 0.787-2.625 0.117-0.165 0.287-0.306 0.054-0.526-0.46-0.436-0.742-0.995-1.075-1.635z"></path>
    <path fill="#a9aaac"
          d="M4.225 13.966c-0.756-0.706-1.489-1.44-2.196-2.195-0.343-0.365-0.48-0.2-0.659 0.125-0.17 0.299-0.259 0.638-0.259 0.982 0 1.092 0.898 1.99 1.99 1.99 0.020 0 0.040-0 0.061-0.001 0.333 0.009 0.661-0.075 0.949-0.241 0.338-0.169 0.476-0.322 0.115-0.66z"></path>
</svg>