<?xml version="1.0" encoding="utf-8"?>
<svg xmlns="http://www.w3.org/2000/svg" xmlns:xlink="http://www.w3.org/1999/xlink" id="client-hoster_button" width="16"
     height="16" viewBox="0 0 16 16" x="64" y="160">
    <path fill="#e6e6e6" d="M7.375 10.676h1.25v3.467h-1.25v-3.467z"></path>
    <path fill="#7289da"
          d="M13.801 7.289h-11.601c-0.593 0-1.074 0.479-1.074 1.068v1.924c0 0.59 0.481 1.069 1.074 1.069h11.602c0.593 0 1.074-0.478 1.074-1.069v-1.924c-0-0.59-0.481-1.069-1.074-1.069z"></path>
    <path fill="#7289da"
          d="M13.801 1.75h-11.601c-0.593 0-1.074 0.478-1.074 1.069v1.923c0 0.59 0.481 1.069 1.074 1.069h11.602c0.593 0 1.074-0.479 1.074-1.069v-1.923c-0-0.59-0.481-1.069-1.074-1.069z"></path>
    <path fill="#e6e6e6" d="M1.125 13h13.75v1.25h-13.75v-1.25z"></path>
    <path fill="#fff"
          d="M13.586 4.487c0 0.141-0.114 0.255-0.256 0.255h-3.57c-0.142 0-0.256-0.114-0.256-0.255v-1.414c0-0.141 0.114-0.255 0.256-0.255h3.57c0.142 0 0.256 0.114 0.256 0.255v1.414z"></path>
    <path fill="#fff"
          d="M13.586 10.026c0 0.142-0.114 0.255-0.256 0.255h-3.569c-0.142 0-0.256-0.114-0.256-0.255v-1.414c0-0.141 0.114-0.255 0.256-0.255h3.569c0.142 0 0.256 0.114 0.256 0.255v1.414z"></path>
</svg>