<?xml version="1.0" encoding="utf-8"?>
<svg xmlns="http://www.w3.org/2000/svg" xmlns:xlink="http://www.w3.org/1999/xlink" id="client-icon-pack" width="16"
     height="16" viewBox="0 0 16 16" x="128" y="160">
    <path fill="#446181"
          d="M12.274 3.057v0.006c0-0.002 0-0.004 0-0.006s0 0 0 0zM12.281 3.092c-0.001-0.002-0.002-0.004-0.002-0.006v0.002c0.001 0.002 0.001 0.003 0.002 0.004v0zM12.328 2.915c-0.001-0.001-0.002-0.002-0.004-0.002h0.002c0.001 0 0.001 0.001 0.002 0.002zM12.35 2.961c-0.001-0.007-0.002-0.013-0.004-0.019 0.001 0.003 0.002 0.006 0.002 0.009s0.001 0.007 0.002 0.010zM12.354 2.989c0-0.006-0.002-0.012-0.003-0.018s0-0.006 0-0.009c0 0.003 0 0.006 0.002 0.010s0 0.012 0.001 0.018zM12.358 3.003v-0.002c0-0.001 0-0.001 0-0.002-0 0.001-0 0.002 0 0.003zM12.473 2.772c-0.011-0.002-0.022-0.002-0.033-0.002-0.003-0-0.006-0-0.008 0 0.014-0.002 0.028-0.001 0.042 0.002v0zM12.48 2.774v0zM12.485 2.776l-0.004-0.002 0.004 0.002h-0zM12.487 2.776v0zM12.495 2.781v0zM12.722 2.806c-0 0.001-0 0.002 0 0.003v-0.003zM12.732 2.924c-0.002 0-0.003 0-0.005 0h0.005zM12.731 2.788c0.001-0.001 0.002-0.003 0.003-0.004-0.001 0.001-0.002 0.003-0.003 0.004v0zM12.741 2.776l-0.002 0.002c0.001-0.001 0.001-0.002 0.002-0.002v0zM12.748 3.295c0 0.004-0.002 0.008-0.003 0.012-0-0.001-0-0.001 0-0.002l0.003-0.009zM12.75 2.918h-0.002c-0.002 0 0 0 0 0h0.002zM12.746 2.883c-0.002-0.003-0.003-0.006-0.005-0.008v0.002c0.002 0.002 0.004 0.004 0.005 0.007zM12.75 2.892c0-0.003-0.003-0.005-0.004-0.008 0.001 0.002 0.002 0.004 0.003 0.006s0 0 0 0c0 0 0.001 0.002 0.001 0.002zM12.74 3.344c0 0.002 0 0.003 0 0.004-0-0.001-0-0.002 0-0.003v-0.001zM12.742 3.361c0-0.001 0-0.001 0-0.002 0-0.002 0-0.003 0-0.005s-0-0.003 0-0.005 0 0.002 0 0.002c-0 0.003-0 0.006 0 0.009zM12.75 3.402c0-0.002 0-0.002 0-0.004v-0.002c-0.002-0.006-0.003-0.011-0.004-0.017v-0.005c-0-0.002-0-0.003 0-0.005s0 0.002 0 0.003c0.001 0.010 0.002 0.020 0.004 0.030zM12.752 2.897c0-0.002-0.002-0.003-0.002-0.005l0.002 0.003c0 0.001 0 0.001 0 0.002zM12.753 2.912c0.002-0.005 0.002-0.010 0-0.015 0.002 0.005 0.002 0.010 0 0.015zM12.753 3.283c-0.002 0.004-0.003 0.008-0.005 0.012 0.001-0.004 0.002-0.007 0.004-0.011l0.001-0.002zM12.756 3.416l-0.002-0.004c0-0.003-0.002-0.006-0.003-0.009 0.002 0.004 0.003 0.009 0.005 0.013zM12.762 2.755v0zM12.778 2.739l-0.005 0.005c0.002-0.002 0.003-0.003 0.005-0.005l0-0zM12.766 3.258c0.002-0.004 0.005-0.008 0.008-0.013 0-0.012-0.002-0.023-0.003-0.035 0 0.012 0.002 0.023 0.003 0.035l-0.008 0.012zM12.796 4.165v0zM12.951 4.144l-0.005 0.002h-0.003l0.003-0.002 0.005-0.001zM12.969 4.137l-0.007 0.003-0.004 0.002-0.004 0.002 0.009-0.004 0.007-0.003zM12.991 4.125h-0.002l-0.007 0.003-0.007 0.003 0.014-0.007 0.002 0zM13.018 4.111c-0.005 0.003-0.009 0.006-0.014 0.008l-0.012 0.006 0.012-0.007 0.014-0.008zM13.031 4.103l-0.014 0.008 0.014-0.008v0zM13.067 4.080l-0.017 0.011-0.004 0.003-0.014 0.008 0.014-0.009 0.020-0.013zM13.090 4.063l-0.003 0.003c-0.006 0.004-0.012 0.009-0.018 0.013l0.018-0.013 0.003-0.002zM13.113 4.045l-0.002 0.002-0.011 0.009h-0.002l-0.006 0.005 0.006-0.005 0.012-0.010c0.001 0 0.001 0 0.002 0zM13.116 3.518v0zM13.125 4.034l-0.002 0.002-0.005 0.004 0.005-0.004 0.002-0.002zM13.146 3.563c-0.001-0.002-0.001-0.003-0.002-0.005s-0.001-0.003-0.002-0.004c0.002 0.003 0.003 0.006 0.004 0.009v0zM13.15 3.571v-0.002c0 0.001 0 0.001 0 0.002zM13.169 3.653c0-0.001 0-0.002 0-0.003 0-0.004-0.002-0.009-0.002-0.013 0 0.004 0.002 0.009 0.002 0.013 0 0.001-0 0.002-0 0.003zM13.185 3.965c-0.002 0.003-0.004 0.007-0.006 0.010l0.006-0.010zM12.43 2.771h-0.006c0 0.001 0 0.001 0 0.002h0.003l0.002-0.002h0.003l-0.002-0zM3.071 4.754c-0.008-0.022-0.012-0.045-0.012-0.069-0 0.023 0.004 0.047 0.012 0.069zM3.084 4.815c0 0.007-0.001 0.014-0.003 0.021-0 0.001-0 0.003 0 0.004-0-0.001-0-0.003 0-0.004 0.002-0.007 0.003-0.014 0.003-0.021v0zM3.007 5.223c-0.002-0.008-0.005-0.016-0.007-0.024s0-0.024 0.002-0.036c0 0.012 0 0.024-0.002 0.036l0.007 0.024zM3.7 5.669c-0.019 0.004-0.038 0.008-0.057 0.010 0.019-0.003 0.038-0.006 0.057-0.010zM3.756 5.653c0.023-0.008 0.045-0.016 0.068-0.026-0.022 0.010-0.045 0.019-0.068 0.026v0zM12.053 3.566c-0.001 0.008-0.002 0.016-0.003 0.024l0.002-0.018 0.001-0.006zM12.057 3.542l-0.002 0.013v0.010c0-0.008 0.001-0.015 0.002-0.023v0zM12.076 3.461c-0.003 0.008-0.005 0.017-0.008 0.025l0.006-0.019c0.001-0.002 0.001-0.004 0.002-0.006v0zM12.094 3.412c-0.003 0.008-0.007 0.016-0.010 0.024 0.001-0.002 0.001-0.004 0.002-0.006 0.004-0.006 0.008-0.012 0.008-0.018zM12.274 3.067c-0-0.001-0-0.002 0-0.002s0 0 0 0.002v0.001zM12.274 3.057v0.006c0-0.002 0-0.004 0-0.006s0 0 0 0zM12.274 3.039c0 0.002 0 0.004 0 0.006v-0.002c0 0 0-0.002 0-0.003zM12.274 3.039c-0-0.001-0-0.001 0-0.002s0 0.002 0 0.002zM12.278 3.013c-0 0.003-0 0.006 0 0.008s0 0 0 0-0-0.006 0-0.008zM12.328 2.915c-0.001-0.001-0.002-0.002-0.004-0.002 0.001-0 0.002-0 0.003 0s0.001 0.001 0.001 0.002zM12.337 2.924c0 0 0 0 0 0zM12.424 2.772v0zM12.469 2.953l-0.002 0.002-0.004 0.003-0.002 0.002c-0.002 0.002-0.004 0.004-0.007 0.005l-0.005 0.003c-0.014 0.010-0.029 0.019-0.042 0.027l-0.009 0.006c-0.005 0.003-0.010 0.006-0.016 0.009 0.006-0.003 0.011-0.006 0.016-0.009s0.012-0.008 0.018-0.012 0.007-0.004 0.010-0.007l0.010-0.007 0.021-0.015 0.010-0.008zM12.489 2.935c-0.003 0.003-0.006 0.006-0.009 0.009l0.009-0.009zM12.465 2.753c-0.006 0.002-0.012 0.005-0.017 0.008l0.007-0.003 0.010-0.005zM12.512 2.906v0zM12.527 2.731l0.024-0.005c-0.016 0.003-0.032 0.007-0.047 0.012l0.023-0.007zM12.678 2.721v0zM12.679 2.721l0.023 0.003-0.018-0.002-0.005-0.001zM12.733 2.729l-0.031-0.005 0.018 0.003 0.013 0.002zM12.748 2.918c0 0 0 0 0 0zM12.746 2.883c-0.002-0.003-0.003-0.006-0.005-0.008v0.002c0.002 0.002 0.004 0.004 0.005 0.007zM12.752 2.897c0-0.002-0.002-0.003-0.002-0.005s-0.003-0.005-0.004-0.008c0.001 0.002 0.002 0.004 0.003 0.006s0 0 0 0c0 0 0.002 0.003 0.002 0.005s0.001 0.002 0.001 0.003v0zM12.753 2.912c0.002-0.005 0.002-0.010 0-0.015 0.002 0.005 0.002 0.010 0 0.015zM12.778 2.739l-0.033-0.008c0.011 0.002 0.022 0.005 0.033 0.008zM12.835 3.519l0.011 0.006c-0.003-0.002-0.008-0.004-0.011-0.006zM12.855 3.529v0zM12.865 3.531v0zM12.911 3.538h-0.020c-0.004 0-0.008 0-0.012-0.002 0.011 0.002 0.021 0.002 0.032 0.002zM12.94 3.534c-0.005 0.001-0.010 0.002-0.015 0.002h0.003l0.012-0.002zM13.116 3.518v0zM12 3.841c0 0 0 0.002 0 0.003-0-0.001-0-0.002 0-0.003zM12 3.841c-0-0.001-0-0.002 0-0.003v0.003zM12.002 3.822c-0.002 0.005-0.003 0.010-0.002 0.016-0-0.001-0-0.002 0-0.003-0-0.002-0-0.005 0-0.007s0.001-0.004 0.002-0.006zM12.002 3.85c-0.001-0.002-0.002-0.004-0.002-0.007v0c0 0.001 0 0.001 0 0.002 0 0.002 0.001 0.003 0.002 0.005v0zM12.003 3.82v0zM12.175 3.914v0zM12.214 3.951l-0.012-0.010-0.002-0.002 0.002 0.002 0.012 0.010zM12.235 3.969v0zM12.24 3.971v0zM12.259 3.984l-0.006-0.004-0.003-0.002 0.003 0.002 0.006 0.004zM12.287 4.002l-0.017-0.010c-0.004-0.002-0.008-0.005-0.011-0.007l0.011 0.007 0.017 0.011zM12.307 4.013l-0.018-0.010c0.006 0.003 0.012 0.007 0.018 0.010zM12.451 4.082l-0.006-0.003-0.020-0.009-0.008-0.004 0.008 0.003 0.020 0.009 0.006 0.003zM12.424 2.771c-0.013 0.029-0.043 0.046-0.074 0.041-0.002 0-0.007-0.010-0.005-0.013 0.017-0.038 0.052-0.024 0.082-0.026l-0.002-0.002zM12.236 2.867l0.014-0.023c0.017 0.027-0.004 0.020-0.018 0.020l0.003 0.003zM12.233 2.864l-0.008 0.024-0.015-0.012 0.026-0.009-0.003-0.003zM7.188 7.442l0.007 0.003c-0.002-0.001-0.004-0.002-0.006-0.002l-0.006-0.002 0.005 0.001zM7.475 7.795c0 0.002 0 0.003 0 0.005-0-0.004-0.001-0.007-0.002-0.011 0.001 0.002 0.001 0.004 0.002 0.006zM7.476 7.803c0 0.004 0 0.009 0 0.013 0-0.005 0-0.010 0-0.016s-0 0.002 0 0.003zM8.377 6.068v0zM8.383 6.232v0zM8.463 6.291c-0.021-0.017-0.044-0.034-0.068-0.050-0.004-0.003-0.008-0.006-0.012-0.009 0.004 0.003 0.008 0.006 0.012 0.009 0.024 0.016 0.047 0.033 0.068 0.050zM8.513 6.334c0.002 0.002 0.003 0.003 0.005 0.005-0.005-0.005-0.010-0.010-0.015-0.014l0.002 0.002 0.009 0.008zM8.572 6.399l-0.006-0.008c0.002 0.002 0.004 0.005 0.006 0.008zM8.572 6.399c0.003 0.004 0.006 0.007 0.008 0.011-0.001-0.001-0.002-0.003-0.003-0.004l-0.005-0.007zM8.635 7.183l-0.006-0.006-0.020-0.017-0.005-0.005-0.005-0.004-0.005-0.005 0.009 0.009 0.005 0.005 0.020 0.017 0.006 0.006c0 0-0-0 0 0zM8.645 7.191l-0.005-0.003-0.003-0.002c0.001 0.001 0.002 0.001 0.003 0.002l0.005 0.003zM8.656 7.197v0zM8.672 6.226c-0.002-0.002-0.004-0.004-0.006-0.006 0.002 0.001 0.003 0.003 0.004 0.004l0.002 0.002zM8.813 6.454c-0.003-0.008-0.006-0.015-0.009-0.023 0.002 0.003 0.003 0.006 0.004 0.010 0.002 0.004 0.003 0.009 0.005 0.013v0zM8.826 6.491c-0.002-0.006-0.003-0.011-0.006-0.017 0.002 0.004 0.003 0.007 0.004 0.011 0.001 0.002 0.001 0.004 0.002 0.006zM8.855 6.616c0-0.009-0.003-0.018-0.005-0.027-0.003-0.014-0.005-0.027-0.008-0.041 0.004 0.018 0.008 0.037 0.011 0.056 0.001 0.004 0.001 0.009 0.002 0.013zM8.857 6.628c0 0.004 0 0.008 0 0.012 0-0.006 0-0.012-0.002-0.018l0.002 0.006zM8.241 6.525l-0.005-0.004-0.009-0.007 0.009 0.007c0.002 0.001 0.004 0.003 0.005 0.004v0zM8.246 6.529c0.004 0.003 0.007 0.005 0.011 0.008s0 0 0 0l-0.011-0.008zM8.279 6.352v0zM8.313 6.875c-0.001 0.002-0.002 0.004-0.002 0.006s0 0 0 0.002c0 0.002 0 0 0-0.002s0-0.006 0.002-0.006zM8.449 6.472c-0.010-0.013-0.022-0.026-0.033-0.038l0.012 0.012c0.003 0.003 0.006 0.007 0.009 0.010l0.007 0.008c0.002 0.002 0.004 0.005 0.006 0.008v0zM8.462 6.489v0zM8.476 6.513c-0.004-0.007-0.008-0.014-0.013-0.021l0.009 0.014c0.002 0.002 0.003 0.005 0.004 0.007zM8.492 6.543c-0.002-0.003-0.003-0.006-0.004-0.009s-0.002-0.003-0.002-0.004c0.001 0.001 0.002 0.003 0.002 0.004 0.001 0.003 0.003 0.006 0.004 0.009zM8.503 6.569c-0.001-0.004-0.003-0.007-0.004-0.011-0.001-0.002-0.001-0.003-0.002-0.005s0 0 0-0.002c0.002 0.003 0.003 0.006 0.004 0.009-0.001 0.001 0.001 0.005 0.002 0.008zM8.492 6.913c0.002-0.004 0.004-0.008 0.006-0.013l-0.003 0.008c0 0.002-0.002 0.003-0.002 0.005l-0.002 0.003c0.001-0.001 0.001-0.002 0.002-0.003zM8.505 6.884c0 0.002 0 0.003 0 0.004s-0.001 0.003-0.002 0.005l0.002-0.005c0-0.001 0-0.003 0-0.004zM8.507 6.578c0.001 0.003 0.002 0.006 0.003 0.009l-0.003-0.008c-0.001-0.004-0.003-0.007-0.004-0.011 0.001 0.002 0.002 0.005 0.003 0.008 0 0.001 0 0.001 0.001 0.002zM8.514 6.598c-0 0.001-0 0.002 0 0.003 0-0.002-0.002-0.004-0.002-0.007v0.003c0 0 0.002 0.001 0.002 0.002zM8.518 6.61c-0.001-0.003-0.001-0.005-0.002-0.008-0-0.001-0-0.002 0-0.003 0 0.001 0 0.002 0 0.003s0 0.001 0 0.002 0.002 0.004 0.002 0.005zM8.522 6.625c0-0.004-0.002-0.008-0.004-0.013 0-0.001 0-0.001 0-0.002 0.002 0.005 0.003 0.010 0.004 0.015v0zM8.525 6.64l-0.003-0.013c0.002 0.007 0.003 0.013 0.004 0.020-0.001-0.003-0.001-0.005-0.002-0.007zM8.528 6.656c0 0.003 0 0.005 0 0.007 0-0.004 0-0.008-0.002-0.011s0-0.004 0-0.006c0.001 0.004 0.002 0.008 0.002 0.010zM8.536 6.711c0-0.007-0.002-0.014-0.002-0.022 0 0.005 0.002 0.011 0.002 0.017 0 0.002 0 0.004 0 0.005zM8.537 6.717c0-0.001 0-0.003 0-0.004v-0.002c0 0.002 0 0.004 0 0.006zM8.537 6.738l-0.003 0.021c-0 0.002-0 0.005 0 0.007 0-0.009 0.002-0.018 0.003-0.027zM6.684 7.449l-0.031 0.002h-0.046c0.012 0 0.025 0 0.037 0s0.027 0 0.041-0.003l-0.001 0zM6.813 7.429c-0.021 0.005-0.041 0.009-0.063 0.012l-0.031 0.004-0.031 0.003c0.022-0.002 0.043-0.005 0.065-0.008s0.038-0.008 0.060-0.012zM6.864 6.661v0zM6.896 7.406l-0.038 0.011-0.006 0.002c-0.013 0.003-0.027 0.007-0.040 0.010 0.028-0.006 0.057-0.013 0.085-0.022zM6.981 6.625v0zM7.123 6.557v0zM7.192 6.514v0zM7.322 7.341c0.012-0.001 0.025-0.002 0.037-0.002l-0.037 0.002-0.022-0.003c0.007 0.001 0.014 0.002 0.021 0.003zM7.469 7.341v0zM7.61 7.363v0zM7.99 7.513l0.008 0.005-0.013-0.008 0.005 0.003zM8.125 7.527l-0.002 0.002h-0.002l0.005-0.002zM8.138 7.516c-0.003 0.003-0.006 0.006-0.009 0.008l-0.005 0.003 0.005-0.004c0.003-0.002 0.006-0.005 0.009-0.008v0zM8.163 7.472c0.001-0.008 0.001-0.017 0-0.025 0.001 0.008 0.001 0.017 0 0.025zM10.719 1.745c-0.086 0.039-0.17 0.083-0.25 0.133-0.031 0.019-0.092 0.020-0.080 0.077 0.007 0.043 0.038 0.078 0.079 0.090 0.13 0.033 0.194 0.104 0.137 0.24-0.054 0.13-0.234 0.206-0.354 0.156-0.103-0.043-0.121-0.123-0.087-0.219 0.019-0.053 0.031-0.108-0.015-0.144s-0.085 0.015-0.125 0.035c-0.285 0.145-0.287 0.147-0.438-0.144-0.031-0.060-0.107-0.12-0.044-0.197s0.136-0.049 0.216-0.028c0.133 0.035 0.196-0.039 0.207-0.231-0.035-0.063-0.057-0.136-0.12-0.182-0.11-0.083-0.235-0.059-0.279 0.068-0.028 0.082-0.075 0.128-0.152 0.137-0.090 0.010-0.106-0.075-0.134-0.133-0.054-0.113-0.18-0.224-0.152-0.333 0.026-0.103 0.194-0.122 0.296-0.185 0.039-0.025 0.094-0.041 0.080-0.102s-0.031-0.112-0.101-0.125c-0.087-0.017-0.147-0.065-0.143-0.159 0.005-0.12 0.083-0.188 0.188-0.228 0.088-0.031 0.177-0.031 0.247 0.043 0.049 0.052 0.043 0.112 0.018 0.176s-0.025 0.125 0.035 0.171c0.055 0.042 0.099-0.006 0.143-0.027 0.29-0.142 0.292-0.144 0.441 0.142 0.078 0.148 0.174 0.287 0.228 0.447 0.068 0.121 0.131 0.245 0.206 0.361 0.062 0.085 0.039 0.124-0.048 0.161zM13.396 3.056c-0.037-0.075-0.071-0.098-0.111-0.144-0.254-0.296-0.681-0.381-1.029-0.203-0.357 0.184-0.541 0.606-0.424 0.978 0.097 0.357 0.342 0.56 0.693 0.617 0.337 0.055 0.623-0.067 0.821-0.347s0.221-0.59 0.049-0.9zM12.232 2.869v-0.004h0.004l0.014-0.021 0.004 0.007c0.001 0.002 0.001 0.003 0.002 0.005s0 0 0 0.002 0 0.001 0 0.002 0 0.002 0 0.002-0.001 0.001-0.002 0.002h-0.017l-0.002 0.002-0.004 0.002c-0.002 0.007-0.005 0.013-0.007 0.020l-0.014-0.012 0.021-0.006zM12.027 3.888l-0.006-0.007c-0.001-0.001-0.001-0.001-0.002-0.002l-0.003-0.004-0.003-0.004c-0-0.001-0-0.001 0-0.002-0.001-0.002-0.002-0.004-0.003-0.006s-0.002-0.005-0.003-0.007c-0-0.001-0-0.001 0-0.002s-0-0.003 0-0.004c0-0.001 0-0.001 0-0.002s-0-0.002 0-0.002v-0.002c-0-0.001-0-0.002 0-0.003-0-0.002-0-0.005 0-0.007s0.001-0.003 0.002-0.005 0 0 0-0.002c0.001-0.002 0.002-0.004 0.003-0.006 0.002-0.003 0.004-0.006 0.007-0.008s0.004-0.004 0.007-0.006l0.003-0.003 0.002-0.002 0.009-0.006 0.010-0.006c0.009 0.025 0.035 0.040 0.061 0.034 0.004 0.007 0.008 0.014 0.012 0.021s0.008 0.013 0.012 0.020c0.007 0.011 0.015 0.021 0.023 0.031l0.003 0.004c0.002 0.003 0.005 0.006 0.007 0.008s0.005 0.006 0.007 0.008l0.002 0.003 0.011 0.011 0.013 0.013 0.002 0.002 0.012 0.010 0.004 0.003 0.010 0.008 0.003 0.002 0.003 0.002 0.004 0.003 0.008 0.006 0.003 0.002 0.006 0.004 0.011 0.007 0.017 0.010 0.018 0.010 0.019 0.010 0.006 0.003 0.013 0.007 0.010 0.005 0.049 0.022 0.006 0.003 0.003 0.002h0.002l0.008 0.003 0.020 0.008 0.006 0.003 0.008 0.003c0.036 0.016 0.072 0.031 0.107 0.049l0.007 0.003 0.013 0.007 0.015 0.008 0.022 0.012 0.022 0.013 0.012 0.008c0.008 0.005 0.017 0.011 0.025 0.017-0.281 0.011-0.482-0.12-0.652-0.313h0zM12.118 3.775c0.001-0.001 0.001-0.002 0.002-0.003h0.002l0.004-0.005-0.004 0.005-0.003 0.003zM13.199 3.925c0 0.001 0 0.001 0 0.002s0 0 0 0c-0 0.002-0.001 0.005-0.002 0.007 0 0.001 0 0.001 0 0.002-0.001 0.003-0.001 0.005-0.002 0.007s0 0 0 0c-0.001 0.002-0.002 0.004-0.003 0.006 0 0.001 0 0.002 0 0.003s0 0.002 0 0.002-0.002 0.003-0.002 0.004l-0.002 0.002c-0.002 0.003-0.004 0.007-0.006 0.010-0.005 0.007-0.010 0.013-0.015 0.019s-0.012 0.014-0.018 0.020c-0.005 0.005-0.010 0.010-0.015 0.014l-0.003 0.003-0.002 0.002-0.005 0.004-0.005 0.004c-0.001 0-0.001 0-0.002 0l-0.011 0.009h-0.002l-0.006 0.005-0.003 0.003-0.003 0.002c-0.006 0.004-0.012 0.009-0.018 0.013h-0.002l-0.017 0.011-0.004 0.002-0.014 0.008-0.014 0.008-0.014 0.008-0.012 0.006h-0.002l-0.007 0.003-0.007 0.003-0.007 0.003-0.007 0.003-0.004 0.002-0.004 0.002-0.005 0.002h-0.003l-0.005 0.002-0.020 0.007-0.009 0.003-0.008 0.002c-0.005 0.002-0.011 0.003-0.017 0.004l-0.013 0.002c-0.006 0.001-0.012 0.001-0.018 0.002h-0.034l-0.014-0.002h-0.025c-0.001 0-0.002 0-0.002 0h-0.002c-0.035-0.013-0.060-0.045-0.066-0.082-0.002-0.010-0.004-0.021-0.005-0.031-0.002-0.022-0.002-0.045 0-0.067 0.006-0.117-0.004-0.226-0.181-0.205-0.12 0.014-0.216-0.119-0.348-0.085-0.028-0.048-0.081-0.027-0.12-0.044 0.002-0.007 0.001-0.015-0.004-0.022 0-0.009 0-0.019 0.002-0.028 0 0 0-0.002 0-0.004l0.002-0.018v-0.006c0-0.003 0-0.005 0-0.008s0-0.002 0-0.002l0.002-0.013c0-0.004 0-0.008 0.002-0.013s0.002-0.012 0.003-0.017c0.001-0.006 0.004-0.018 0.006-0.027l0.006-0.019c0.001-0.002 0.001-0.004 0.002-0.006 0-0.004 0.003-0.008 0.004-0.013l0.005-0.012c0.001-0.002 0.001-0.004 0.002-0.006 0.002-0.006 0.005-0.012 0.008-0.018 0.031-0.066 0.078-0.123 0.138-0.165 0.053-0.038 0.083-0.076 0.047-0.156-0.001-0.001-0.001-0.003-0.002-0.004v-0.002c-0-0.001-0-0.002 0-0.002 0-0.004-0.002-0.007-0.002-0.011-0-0.002-0-0.004 0-0.005-0-0.001-0-0.001 0-0.002v-0.014c-0-0.001-0-0.002 0-0.004v-0.003c0 0 0-0.002 0-0.003s0 0 0 0c-0-0.001-0-0.002 0-0.003-0-0.002-0-0.004 0-0.007 0-0.001 0-0.002 0-0.002s0 0 0 0c-0-0.003-0-0.006 0-0.008-0-0.001-0-0.002 0-0.002 0-0.003 0.002-0.007 0.002-0.011s0.003-0.012 0.004-0.018c0-0.002 0-0.003 0-0.005 0.005-0.023 0.011-0.046 0.014-0.067h0.017c0.002 0 0.004 0.001 0.006 0.002s0.003 0.001 0.004 0.002l0.003 0.002 0.002 0.002 0.002 0.002c0.002 0.002 0.003 0.005 0.004 0.007v0.002c0.001 0.002 0.002 0.005 0.002 0.007s0.002 0.006 0.002 0.009c0 0.003 0 0.007 0.002 0.010s0 0.006 0 0.009c0 0.006 0.002 0.013 0.002 0.018s0 0.004 0 0.006v0.002c0 0.001 0 0.001 0 0.002v0.002l0.002 0.004c0.004 0.005 0.011 0.006 0.022 0.002 0.006-0.002 0.011-0.005 0.016-0.009l0.009-0.006 0.009-0.006c0.003-0.002 0.007-0.004 0.010-0.007l0.010-0.007c0.004-0.002 0.008-0.005 0.012-0.007l0.005-0.003 0.005-0.004h0.002l0.002-0.002 0.004-0.003 0.002-0.002c0.003-0.002 0.006-0.005 0.009-0.008l0.009-0.009c0.003-0.003 0.006-0.006 0.009-0.010s0.005-0.005 0.007-0.008c0.002-0.002 0.003-0.004 0.004-0.007l0.002-0.002c0-0.001 0-0.002 0-0.002 0.002-0.003 0.003-0.006 0.004-0.009s0.003-0.007 0.004-0.011v-0.003c0-0.004 0.002-0.007 0.002-0.011 0-0.001 0-0.002 0-0.003 0-0.004 0-0.008 0-0.012v-0.003c0-0.003 0-0.006 0-0.009s0 0 0-0.002c0-0.002 0-0.004 0-0.005-0-0.003-0.001-0.006-0.002-0.008s-0.002-0.005-0.002-0.007c-0.001-0.002-0.002-0.005-0.003-0.007-0-0.001-0.001-0.002-0.002-0.002-0.001-0.002-0.002-0.004-0.004-0.006-0.002-0.003-0.005-0.006-0.008-0.008l-0.003-0.003c-0.002-0.002-0.004-0.003-0.006-0.004s-0.005-0.003-0.008-0.004h-0.002c-0.002-0.001-0.004-0.002-0.006-0.002l-0.006-0.002c-0.011-0.002-0.022-0.002-0.033-0.002-0.003-0-0.006-0-0.008 0h-0.003l-0.002 0.002h-0.003c-0.002 0.002-0.003 0.004-0.004 0.006s-0.004 0.005-0.006 0.008c-0.002 0.003-0.004 0.005-0.007 0.007s-0.005 0.005-0.007 0.006c-0.002 0.002-0.005 0.004-0.008 0.005-0.001 0.001-0.003 0.002-0.004 0.002h-0.012c-0.003 0-0.006 0-0.009 0h-0.004c-0.002 0-0.003 0-0.005 0h-0.004c-0.001-0-0.001-0.001-0.002-0.002s-0-0.001 0-0.002-0-0.002 0-0.002c-0.001-0.002-0.001-0.004 0-0.007 0.017-0.038 0.049-0.026 0.078-0.026 0-0.001 0-0.001 0-0.002h0.006l0.013-0.007h0.002c0.006-0.003 0.011-0.006 0.017-0.008l0.010-0.004 0.007-0.003 0.022-0.008 0.024-0.007 0.024-0.005h0.002c0.008-0.002 0.017-0.003 0.025-0.004l0.026-0.002c0.021-0.001 0.042-0.001 0.063 0h0.016l0.018 0.002 0.018 0.003 0.012 0.002 0.011 0.002 0.011 0.002 0.023 0.005c-0.002 0.002-0.003 0.003-0.005 0.005l-0.016 0.015-0.010 0.010-0.006 0.006-0.002 0.002-0.003 0.004c-0.001 0.001-0.002 0.002-0.002 0.004v0.002c-0.001 0.002-0.003 0.004-0.004 0.007v0.002c-0.001 0.002-0.002 0.004-0.002 0.006s0 0 0 0v0.007c-0 0.001-0 0.002 0 0.003 0 0.012 0.004 0.024 0.010 0.035l0.004 0.006c0.002 0.002 0.003 0.004 0.004 0.007s0.002 0.003 0.003 0.005 0.004 0.006 0.005 0.008 0.003 0.005 0.004 0.008 0.002 0.003 0.002 0.005c0.002 0.005 0.002 0.010 0 0.015s0 0 0 0.002c0 0.002 0 0 0 0h-0.003l-0.005 0.002h-0.045c-0.002 0-0.004 0.001-0.005 0.002s-0.002 0.002-0.003 0.003c-0.010 0.016-0.007 0.038 0.008 0.050 0.035 0.033 0.059 0.076 0.068 0.123 0.002 0.011 0.004 0.022 0.006 0.034 0 0.006 0.002 0.012 0.002 0.017l0.002 0.017c0 0.006 0 0.013 0.002 0.019 0 0 0 0.003 0 0.004s-0 0.002 0 0.002v0.009c0 0.012 0.002 0.023 0.003 0.035l-0.008 0.012-0.005 0.009-0.005 0.009c0 0 0 0.002-0.002 0.003 0 0.001 0 0.002 0 0.003v0.002c-0.001 0.003-0.003 0.007-0.004 0.011l-0.003 0.009c-0 0.001-0 0.001 0 0.002s0 0 0 0c-0.002 0.008-0.003 0.016-0.004 0.024v0.014c-0 0.001-0 0.002 0 0.003s0 0.002 0 0.002v0.003c0 0.002 0 0.003 0 0.005 0 0.001 0 0.001 0 0.002v0.002c-0 0.001-0 0.001 0 0.002v0.014c0.001 0.006 0.003 0.012 0.004 0.017v0.006c0 0.003 0.002 0.006 0.003 0.009l0.002 0.004 0.002 0.005c0.002 0.005 0.004 0.009 0.007 0.013s0 0 0 0l0.002 0.003 0.004 0.007 0.007 0.011c0.002 0.004 0.005 0.007 0.007 0.011l0.002 0.003c0.002 0.002 0.004 0.005 0.006 0.008 0.001 0.001 0.002 0.002 0.002 0.003 0.002 0.003 0.004 0.006 0.006 0.008 0.003 0.004 0.007 0.008 0.011 0.012 0.007 0.007 0.015 0.013 0.024 0.018 0.003 0.002 0.007 0.004 0.010 0.006h0.002l0.006 0.002 0.005 0.002h0.005l0.010 0.002h0.002c0.004 0 0.008 0 0.012 0.002h0.038l0.012-0.002c0.008-0.002 0.016-0.004 0.025-0.006 0.013-0.004 0.025-0.008 0.037-0.013 0.020-0.009 0.042-0.014 0.065-0.015 0.004-0 0.008-0 0.012 0h0.007l0.006 0.002 0.005 0.002c0.003 0.001 0.006 0.002 0.008 0.004l0.008 0.005 0.002 0.002 0.006 0.006c0.002 0.002 0.004 0.005 0.006 0.007s0.004 0.005 0.005 0.008l0.003 0.006c0 0.002 0.002 0.003 0.002 0.004s0.002 0.003 0.002 0.004c0.001 0.002 0.002 0.003 0.002 0.005v0.002c0 0.001 0.001 0.003 0.002 0.004s0 0 0 0c0 0.001 0 0.001 0 0.002 0.001 0.002 0.002 0.005 0.002 0.007s0.002 0.005 0.002 0.008c0.001 0.003 0.001 0.006 0.002 0.008s0.002 0.007 0.002 0.010 0.002 0.007 0.002 0.010 0.003 0.014 0.004 0.021 0.002 0.009 0.002 0.013c0 0.001 0 0.002 0 0.003s0 0.002 0 0.003-0 0.004 0 0.007c0.015 0.080 0.007 0.163 0.028 0.246 0 0.001 0 0.003 0 0.004v0.003c0.002-0.001 0.004-0.001 0.006-0.001 0.015 0 0.027 0.012 0.027 0.027 0 0.012-0.008 0.023-0.020 0.026h0zM3.948 13.178c0-0.57-0.001-1.141-0.003-1.711 0.002 0.57 0.003 1.141 0.003 1.711zM4.098 9.604c0.083 0.023 0.166 0.044 0.25 0.066l-0.25-0.066c-0.016-0.004-0.032-0.008-0.048-0.011 0.016 0.003 0.032 0.006 0.048 0.011zM6.367 10.049l0.183-0.213-0.183 0.213c-0.007 0.008-0.013 0.014-0.020 0.021 0.007-0.007 0.014-0.014 0.020-0.021zM7.1 9.2c0.014-0.013 0.029-0.027 0.043-0.042-0.014 0.014-0.028 0.028-0.043 0.042v-0zM7.55 15.141c-0.069-0.025-0.138-0.050-0.205-0.075l0.205 0.075zM8.219 8.916c0.002 0.047 0.004 0.094 0.005 0.142-0.002-0.047-0.005-0.094-0.005-0.142zM8.239 8.622c-0.003 0.043-0.006 0.082-0.008 0.12 0.002-0.037 0.005-0.077 0.008-0.12l0 0zM11.241 9.742c-0.495 0.125-0.991 0.252-1.484 0.382-0.052 0.017-0.107 0.017-0.158 0 0.052 0.016 0.107 0.016 0.158 0 0.494-0.13 0.989-0.256 1.484-0.382zM8.528 5.518c0.094-0.097 0.188-0.195 0.281-0.293-0.094 0.098-0.187 0.195-0.281 0.293zM2.523 8.599c0.024-0.027 0.047-0.053 0.071-0.079l-0.070 0.079h-0zM3.247 7.775c0.019-0.023 0.039-0.046 0.059-0.068-0.020 0.022-0.039 0.045-0.059 0.068-0.029 0.035-0.057 0.069-0.087 0.103 0.029-0.034 0.058-0.069 0.086-0.103zM3.772 7.212c-0.009 0.007-0.017 0.014-0.024 0.022 0.007-0.008 0.015-0.016 0.024-0.022v0zM8.643 8.37v0zM9.522 8l-0.352 0.106c-0.049 0.015-0.098 0.028-0.148 0.041 0.050-0.013 0.099-0.027 0.148-0.041l0.353-0.106zM12.057 7.258c-0.013 0.002-0.027 0.004-0.040 0.008 0.013-0.004 0.026-0.006 0.040-0.008zM12.101 7.259c-0.015-0.003-0.029-0.003-0.044-0.002 0.015-0.002 0.030-0.002 0.044 0.002v0zM12.125 7.268c-0.008-0.004-0.016-0.006-0.025-0.008 0.009 0.002 0.017 0.004 0.025 0.008zM3.682 6.518l0.011 0.013-0.011-0.013-0.012-0.014 0.012 0.014zM6.031 4.273c0.004 0.002 0.008 0.004 0.011 0.007-0.003-0.002-0.007-0.004-0.011-0.006l-0.742 0.219 0.742-0.219zM7.469 5.55c0.013 0.013 0.024 0.026 0.035 0.040-0.011-0.014-0.023-0.028-0.035-0.040zM6.485 6.752h-0.003l-0.009 0.004-0.012 0.007 0.019-0.010 0.017-0.008-0.013 0.007zM6.51 6.741l-0.010 0.004c0.006-0.003 0.012-0.005 0.019-0.007-0.003 0.001-0.006 0.002-0.008 0.003v0zM6.567 6.727l-0.012 0.002 0.012-0.002c0.009 0 0.018-0.003 0.027-0.005l-0.027 0.004zM6.862 6.661c-0.027 0.007-0.054 0.012-0.083 0.017-0.018 0.003-0.036 0.007-0.053 0.011 0.018-0.004 0.035-0.008 0.053-0.011l0.021-0.004 0.021-0.004c0.011-0.002 0.023-0.005 0.034-0.008l0.007-0.002h0.002l-0.002-0zM6.911 6.648l-0.008 0.003c0.002-0.001 0.005-0.001 0.007-0.002l0.005-0.002-0.004 0.001zM7.036 6.601c0.003-0.001 0.007-0.003 0.010-0.004h0.002l0.003-0.002-0.016 0.006zM6.979 6.625l-0.038 0.013 0.008-0.003h0.003l0.027-0.010h0.002l-0.002-0.001zM7.122 6.558v0zM7.154 6.54l0.003-0.002 0.026-0.017-0.030 0.018zM7.19 6.517l0.004-0.003 0.014-0.009-0.018 0.012zM7.214 6.501l0.008-0.005 0.016-0.012c-0.009 0.005-0.017 0.011-0.025 0.016l0.002 0.001zM7.285 6.448l-0.005 0.004c0.002-0.001 0.004-0.002 0.005-0.004v-0zM8.342 6.143c-0-0-0-0.001 0-0.002v0.002zM8.342 6.141l0.002-0.005c-0.001 0.002-0.001 0.004-0.002 0.006v-0.001zM8.377 6.068v0zM8.391 6.055l-0.003 0.002c0.001-0.001 0.002-0.002 0.003-0.002v0zM8.396 6.052l-0.003 0.002 0.002-0.002 0.001-0zM8.409 6.048h-0.005c0.002-0 0.004-0 0.005 0zM8.428 6.048c0.003 0 0.005 0.001 0.008 0.002-0.005-0.002-0.010-0.003-0.015-0.003h0.002c0.002 0 0.003 0.001 0.005 0.001v0zM8.672 6.226c-0.002-0.002-0.004-0.004-0.006-0.006 0.002 0.001 0.003 0.003 0.004 0.004l0.002 0.002zM8.813 6.454c-0.003-0.008-0.006-0.015-0.009-0.023 0.002 0.003 0.003 0.006 0.004 0.010 0.002 0.004 0.003 0.009 0.005 0.013v0zM8.826 6.491c-0.002-0.006-0.003-0.011-0.006-0.017 0.002 0.004 0.003 0.007 0.004 0.011 0.001 0.002 0.001 0.004 0.002 0.006zM8.853 6.603c0 0.006 0.002 0.012 0.002 0.018v-0.006c0-0.009-0.003-0.018-0.005-0.027-0.003-0.014-0.005-0.027-0.008-0.041 0.004 0.019 0.007 0.037 0.010 0.056zM8.857 6.628c0 0.004 0 0.008 0 0.012 0-0.006 0-0.012-0.002-0.018l0.002 0.006zM8.865 6.727v-0.004c-0 0.001-0 0.003 0 0.004zM6.884 7.505l0.029-0.007-0.12 0.029c0.031-0.008 0.061-0.015 0.090-0.022zM7.026 7.467l0.018-0.005-0.017 0.006c-0.018 0.006-0.037 0.011-0.056 0.016 0.018-0.005 0.037-0.010 0.056-0.016zM7.188 7.442v0zM7.299 7.637v0zM7.304 7.64v0zM7.304 7.641l0.005 0.003h-0.002l-0.003-0.003zM7.311 7.646l0.012 0.008-0.012-0.008h0zM7.451 7.745c0.001 0.002 0.003 0.003 0.004 0.005s0 0 0 0l-0.004-0.005zM7.476 7.803c0 0.004 0 0.009 0 0.013 0-0.005 0-0.010 0-0.016-0-0.004-0.001-0.007-0.002-0.011 0 0.002 0 0.004 0 0.006s0.001 0.005 0.002 0.008zM8.201 6.473c0 0 0-0.002 0-0.003s0 0 0 0v-0.002c-0 0.002-0 0.003 0 0.005zM8.202 6.457c-0 0.001-0 0.001 0 0.002s0 0 0 0v-0.002zM8.203 6.481c-0-0.001-0-0.002 0-0.003s0 0 0-0.002 0-0.001 0-0.002-0-0.002 0-0.003c0 0.002 0.001 0.005 0.002 0.007-0.001 0-0.001 0.001-0.002 0.002v0zM8.202 6.457c-0-0.002-0-0.004 0-0.006-0 0.002-0 0.003 0 0.005v0.001zM8.208 6.436c-0.001 0.003-0.002 0.007-0.003 0.010-0.001 0.002-0.001 0.003-0.002 0.005 0-0.003 0.001-0.005 0.002-0.008l0.003-0.008zM8.205 6.487c-0 0.001-0 0.001 0 0.002-0-0.001-0-0.001 0-0.002s-0-0.002 0-0.003c-0 0.001-0 0.002 0 0.003v0zM8.21 6.496l-0.002-0.002c-0-0.001-0-0.001 0-0.002 0 0.001 0.001 0.002 0.002 0.003-0 0-0 0.001-0 0.001zM8.219 6.415l0.006-0.010-0.011 0.020c0.002-0.003 0.003-0.007 0.005-0.010v0zM8.247 6.37c-0.004 0.005-0.008 0.010-0.011 0.016l-0.009 0.014 0.008-0.014c0.003-0.006 0.007-0.011 0.012-0.016zM8.279 6.352v0zM8.302 6.581c-0.001-0.001-0.002-0.002-0.003-0.003-0.003-0.004-0.007-0.008-0.010-0.012 0.004 0.004 0.007 0.008 0.011 0.012l0.003 0.003zM8.31 6.88v0.002c0 0.002 0 0 0-0.002zM8.328 6.618c0.002 0.003 0.004 0.007 0.006 0.010-0.002-0.003-0.004-0.007-0.006-0.010zM8.336 6.633l-0.002-0.004v0.002c0.001 0 0.001 0.001 0.002 0.002v0zM8.35 6.77c0-0.007 0.003-0.013 0.004-0.020 0 0.005-0.002 0.010-0.002 0.015s-0.001 0.003-0.001 0.005zM8.348 6.781c0.001-0.003 0.002-0.007 0.002-0.011 0 0.007-0.003 0.014-0.005 0.021 0.001-0.004 0.002-0.007 0.002-0.010zM8.338 6.813c0.003-0.008 0.005-0.015 0.007-0.022 0 0.003-0.002 0.007-0.003 0.011l-0.004 0.012zM8.344 6.656c0 0.001 0 0.003 0 0.004 0-0.002 0-0.003-0.002-0.005s0.002-0.001 0.002 0.001zM8.351 6.674c-0.001-0.003-0.001-0.005-0.002-0.008 0 0.002 0 0.003 0.002 0.005s0 0.002 0.001 0.003zM8.354 6.694c0 0.002 0 0.004 0 0.006 0-0.001 0-0.002 0-0.003s0-0.002 0-0.003zM8.356 6.715v0.004c0-0.005 0-0.010 0-0.015-0 0.004 0 0.008 0 0.011zM8.354 6.75c0-0.005 0-0.010 0-0.015 0 0.003 0 0.006 0 0.009s-0 0.004 0 0.007v0zM8.355 6.735c0-0.005 0-0.010 0-0.015 0.001 0.005 0 0.010 0 0.015zM8.537 6.738l-0.003 0.021c-0 0.002-0 0.005 0 0.007 0-0.009 0.002-0.018 0.003-0.027zM6.838 3.752c-0.013 0-0.026 0.001-0.038 0.003l-0.029 0.003c0.022-0.003 0.045-0.005 0.067-0.006v0zM6.919 3.75h-0.028c-0.018 0-0.036 0-0.053 0h0.081zM7.227 3.847c-0.001-0.009-0.003-0.018-0.005-0.027 0.003 0.009 0.005 0.018 0.005 0.027v0zM7.367 4.153c-0.003 0.003-0.006 0.006-0.009 0.009l0.009-0.009zM7.439 4.072c-0.004 0.007-0.008 0.013-0.013 0.019 0.005-0.006 0.009-0.013 0.013-0.019zM7.441 3.935c-0.002-0.005-0.003-0.010-0.003-0.015 0 0.005 0.001 0.010 0.003 0.015zM7.458 4.004v0.004c0 0.003 0 0.005 0 0.008-0-0.004 0-0.008 0-0.012zM7.463 3.883c0.006-0.004 0.012-0.006 0.019-0.008-0.007 0.002-0.013 0.005-0.019 0.008zM7.506 3.872l-0.013 0.002-0.011 0.002c0.004-0.001 0.007-0.002 0.011-0.002s0.008-0.001 0.013-0.001v0zM7.623 4.337c-0.013 0.007-0.027 0.014-0.042 0.021l0.042-0.021zM7.824 4.163c-0.008 0.013-0.016 0.025-0.025 0.037 0.009-0.012 0.018-0.024 0.025-0.037zM7.906 4.039c-0.005 0.002-0.010 0.005-0.015 0.009 0.004-0.004 0.010-0.007 0.015-0.009v0zM8.246 4.274l-0.020-0.018c-0.018-0.016-0.036-0.031-0.054-0.045 0.018 0.014 0.037 0.029 0.054 0.045 0.007 0.006 0.013 0.012 0.020 0.018zM8.258 2.678c-0.176-0.163-0.424-0.204-0.625-0.1 0.199-0.104 0.448-0.063 0.625 0.1 0.006 0.005 0.012 0.011 0.017 0.016-0.005-0.007-0.011-0.011-0.017-0.017zM8.234 3.384c0.004 0.016 0.003 0.033-0.002 0.049 0.005-0.016 0.006-0.033 0.002-0.049h-0zM8.234 3.231c0.001 0.004 0.001 0.009 0 0.013 0.001-0.004 0.001-0.009 0.001-0.013h-0.001zM8.203 3.481c0.005-0.005 0.010-0.011 0.014-0.017-0.004 0.006-0.009 0.012-0.014 0.018l0.001-0.001zM8.175 3.506c0.010-0.008 0.019-0.016 0.027-0.025-0.009 0.009-0.018 0.018-0.028 0.026l0.001-0.001zM8.165 3.514c-0.039 0.030-0.077 0.062-0.113 0.096 0.037-0.033 0.073-0.067 0.113-0.096 0.004-0.003 0.007-0.005 0.011-0.008l-0.011 0.008zM7.522 2.658c-0.072 0.169-0.152 0.333-0.241 0.493l0.004 0.018c0-0.006-0.002-0.012-0.003-0.018 0.089-0.16 0.17-0.325 0.242-0.493 0.011-0.019 0.026-0.035 0.045-0.045-0.020 0.010-0.036 0.025-0.047 0.045v0zM7.34 4.393c-0.025 0.013-0.023-0.040-0.039-0.063l0.031-0.027c0.027 0.029 0.034 0.076 0.008 0.089zM7.581 4.357c-0.028 0.031-0.078 0.033-0.089 0.011-0.014-0.028 0.040-0.025 0.058-0.043l0.016 0.016 0.005 0.005 0.010 0.011zM8.232 3.433c-0 0.002-0.001 0.003-0.002 0.005-0.001 0.003-0.002 0.006-0.004 0.009s-0.003 0.006-0.005 0.009l-0.005 0.007c-0.004 0.006-0.009 0.012-0.014 0.017-0.008 0.009-0.017 0.017-0.027 0.025-0.003 0.003-0.007 0.006-0.011 0.008-0.040 0.029-0.076 0.063-0.113 0.096s-0.074 0.065-0.114 0.094c-0.062 0.046-0.137 0.072-0.215 0.073-0.007 0-0.015 0-0.022 0h-0.004l-0.017-0.002c-0.001 0-0.003 0-0.004 0h-0.006l-0.019-0.004c-0.011-0.003-0.021-0.006-0.031-0.010-0.007-0.003-0.014-0.006-0.022-0.009s-0.012-0.006-0.018-0.009c-0.003-0.001-0.005-0.003-0.008-0.004-0.005-0.003-0.011-0.007-0.016-0.010-0.002-0.001-0.003-0.002-0.004-0.003-0.006-0.004-0.011-0.008-0.017-0.013l-0.005-0.004-0.016-0.015-0.002-0.002c-0.006-0.006-0.012-0.013-0.018-0.019s-0.011-0.014-0.017-0.022c-0.005-0.008-0.010-0.016-0.015-0.024s-0.009-0.017-0.013-0.026c-0.004-0.009-0.007-0.016-0.010-0.025-0.001-0.002-0.002-0.004-0.002-0.006-0.003-0.007-0.005-0.013-0.007-0.021 0-0.002-0.002-0.005-0.003-0.008-0.003-0.009-0.005-0.019-0.007-0.029 0-0.002 0-0.005-0.002-0.007-0.008-0.038-0.018-0.075-0.027-0.113-0.002-0.006-0.003-0.012-0.004-0.018s-0.002-0.006-0.002-0.009-0.002-0.009-0.003-0.013c-0-0.002-0-0.004 0-0.006-0.002-0.008-0.004-0.017-0.005-0.026l-0.002-0.011c-0.003-0.017-0.005-0.034-0.007-0.052v-0.042c-0-0.014 0.001-0.028 0.002-0.042 0-0.004 0-0.008 0.002-0.013s0.002-0.012 0.003-0.018c0.001-0.006 0.003-0.013 0.004-0.020s0.003-0.010 0.004-0.016c0.002-0.005 0.003-0.010 0.005-0.016l0.056 0.004 0.005 0.005c0.018 0.020 0.027 0.017 0.031 0 0-0.003 0-0.006 0-0.009v-0.002c-0.002-0.012-0.003-0.025-0.003-0.037 0-0.006 0-0.012 0-0.017s0-0.002 0-0.003c0-0.006 0.001-0.011 0.002-0.017s0.002-0.012 0.003-0.018 0.006-0.024 0.010-0.036l0.007-0.018c0.005-0.012 0.010-0.023 0.016-0.034 0.001-0.002 0.002-0.003 0.003-0.005 0.004-0.007 0.008-0.014 0.013-0.021s0.005-0.008 0.008-0.012c0.003-0.004 0.006-0.007 0.009-0.011 0.007-0.009 0.015-0.016 0.023-0.023 0.003-0.002 0.005-0.005 0.008-0.007s0.008-0.006 0.012-0.008c0.004-0.003 0.007-0.005 0.012-0.007l0.006-0.003c0.006-0.003 0.012-0.006 0.018-0.007l0.012-0.003c0.002-0 0.003-0 0.005 0l0.012-0.002c0.005-0 0.010-0 0.015 0h0.024c0.007 0.001 0.014 0.003 0.020 0.005 0.005 0.002 0.010 0.003 0.014 0.006s0.010 0.005 0.015 0.007c0.004 0.002 0.008 0.005 0.012 0.007 0.006 0.004 0.012 0.009 0.017 0.013 0.003 0.002 0.006 0.005 0.008 0.008l0.008 0.008c0.004 0.004 0.008 0.009 0.012 0.014s0.008 0.010 0.011 0.016c0.009 0.014 0.018 0.027 0.029 0.040 0.005 0.007 0.010 0.013 0.015 0.019s0.010 0.012 0.015 0.018c0.005 0.006 0.014 0.016 0.022 0.024s0.014 0.015 0.022 0.022c0.008 0.007 0.016 0.015 0.025 0.022s0.012 0.010 0.018 0.015c0.022 0.019 0.046 0.036 0.070 0.051 0.007 0.005 0.014 0.009 0.021 0.013s0.014 0.008 0.022 0.012c0.008 0.004 0.023 0.012 0.034 0.018 0.017 0.008 0.034 0.016 0.052 0.024l0.009 0.004 0.016 0.008c0.007 0.004 0.014 0.008 0.021 0.013 0.004 0.003 0.007 0.006 0.011 0.009l0.005 0.005c0.002 0.002 0.003 0.003 0.004 0.005s0.003 0.005 0.005 0.007c0.001 0.001 0.002 0.002 0.002 0.004s0.001 0.002 0.002 0.004 0.002 0.005 0.002 0.008c0 0.001 0 0.003 0 0.004 0.001 0.004 0.001 0.009 0 0.013s-0.002 0.008-0.003 0.012c0 0.002-0.002 0.003-0.002 0.005s-0.002 0.004-0.003 0.006c-0.001 0.002-0.002 0.004-0.003 0.006-0.003 0.005-0.006 0.009-0.009 0.013l-0.006 0.007-0.007 0.007-0.008 0.008c0.008 0.009 0.014 0.018 0.021 0.028l0.005 0.008c0.002 0.004 0.005 0.008 0.007 0.013s0.003 0.008 0.005 0.013c0.001 0.003 0.002 0.006 0.002 0.008 0 0.002 0 0.004 0 0.005 0.004 0.016 0.004 0.033-0.001 0.049zM7.438 3.091l-0.056-0.005c0.024-0.044 0.041-0.034 0.056 0.005zM7.475 3.083v0.002c0 0.003 0 0.006 0 0.009-0.003 0.017-0.012 0.021-0.031 0l0.031-0.012v0zM14.094 8.631c-0.478-0.484-0.927-0.998-1.431-1.456-0.156-0.143-0.17-0.241-0.021-0.383 0.102-0.096 0.188-0.205 0.284-0.307 0.358-0.381 0.702-0.774 1.048-1.165 0.139-0.156 0.102-0.292-0.102-0.351-1.371-0.4-2.743-0.8-4.115-1.2-0.111-0.031-0.189-0.007-0.269 0.069-0.063 0.059-0.315 0.344-0.398 0.435-0.108 0.503-0.16 0.638-0.622 0.889-0.267 0.145-0.551 0.235-0.861 0.223-0.094-0.003-0.188 0-0.283-0.002 0.003 0.007 0.006 0.014 0.010 0.020 0.003 0.005 0.006 0.010 0.009 0.015s0.006 0.008 0.009 0.013c0.019 0.024 0.040 0.047 0.063 0.067 0.012 0.011 0.025 0.023 0.037 0.036 0.005 0.005 0.010 0.010 0.015 0.015 0.013 0.013 0.024 0.026 0.035 0.040 0.005 0.006 0.010 0.013 0.014 0.020l0.003 0.004c0.002 0.003 0.004 0.006 0.006 0.009s0.006 0.009 0.008 0.014l-0.225 0.063-0.667 0.183c-0.111 0.031-0.223 0.060-0.334 0.090l-1.667 0.45c-0.222 0.061-0.444 0.122-0.666 0.183-0.010 0.003-0.019 0.005-0.028 0.007s-0.018 0.004-0.027 0.005c-0.008 0.002-0.017 0.003-0.025 0.003s-0.016 0-0.024 0c-0.006 0-0.013 0-0.019 0h-0.008l-0.012-0.002h-0.004c-0.007-0.001-0.014-0.003-0.021-0.005s-0.013-0.004-0.020-0.007c-0.006-0.003-0.012-0.005-0.018-0.008l-0.004-0.002c-0.006-0.003-0.011-0.007-0.016-0.010-0.003-0.002-0.006-0.004-0.009-0.007l-0.009-0.007c-0.006-0.005-0.012-0.011-0.018-0.016l-0.022-0.023-0.011-0.013-0.012-0.014c-0.028-0.033-0.056-0.067-0.085-0.099-0.033-0.037-0.068-0.074-0.102-0.11s-0.069-0.072-0.103-0.108c-0.034-0.036-0.069-0.072-0.103-0.109 0.051-0.065 0.13-0.085 0.198-0.12 0.12-0.063 0.241-0.125 0.361-0.188 0.362-0.188 0.723-0.375 1.085-0.563 0.323-0.169 0.419-0.359 0.367-0.715v0l0.742-0.219c-0.024-0.147-0.048-0.294-0.071-0.441-0.041 0.010-0.082 0.019-0.122 0.031-0.262 0.074-0.525 0.145-0.785 0.223-0.127 0.038-0.252 0.009-0.375-0.006-0.082-0.010-0.081-0.125-0.118-0.188-0.101-0.176-0.255-0.289-0.434-0.363-0.543-0.224-1.139 0.158-1.179 0.752-0.006 0.085-0.007 0.121-0.118 0.117-0.217-0.008-0.417 0.078-0.503 0.284-0.070 0.166-0.172 0.235-0.336 0.273s-0.196 0.188-0.088 0.316c0.046 0.057 0.097 0.11 0.152 0.159 0.063 0.052 0.068 0.111 0.048 0.181-0.056 0.439 0.21 0.721 0.654 0.69 0.041-0.003 0.082 0.002 0.123 0.003 0.125 0.183 0.291 0.33 0.441 0.49 0.076 0.082 0.083 0.143 0.003 0.226-0.152 0.159-0.296 0.327-0.443 0.491-0.316 0.348-0.638 0.703-0.956 1.057-0.12 0.134-0.105 0.281 0.044 0.332 0.375 0.128 0.755 0.242 1.133 0.362 0.066 0.026 0.134 0.048 0.203 0.066 0.138 0.028 0.184 0.094 0.183 0.245-0.003 1.438 0.006 2.877 0.006 4.315 0 0.168 0.061 0.255 0.219 0.313 1.333 0.491 2.664 0.982 3.99 1.489 0.198 0.076 0.356 0.069 0.548-0.003 1.305-0.488 2.614-0.965 3.922-1.445 0.277-0.102 0.276-0.105 0.272-0.394-0.023-1.428-0.046-2.855-0.068-4.283-0.002-0.101 0.030-0.143 0.128-0.171l1.482-0.456c0.159-0.056 0.234-0.193 0.114-0.312zM2.794 5.019c0-0.426 0.351-0.777 0.777-0.777s0.777 0.351 0.777 0.777c0 0.426-0.351 0.777-0.777 0.777s-0.777-0.351-0.777-0.777zM8.528 5.519c0.094-0.098 0.188-0.194 0.281-0.292s0.188-0.196 0.279-0.294l0.564-0.597c0.005-0.005 0.010-0.010 0.014-0.015l0.014-0.015 0.015-0.014 0.009-0.008 0.006-0.004h0.002l0.009-0.006 0.008-0.004 0.007-0.003 0.007-0.002 0.008-0.002h0.008c0.022-0.003 0.045-0 0.066 0.007 0.29 0.086 0.58 0.171 0.87 0.256l0.692 0.198 1.922 0.562c0.018 0.007 0.037 0.016 0.054 0.025l-0.39 0.438c-0.129 0.146-0.258 0.29-0.387 0.433-0.034 0.038-0.068 0.076-0.103 0.114-0.069 0.076-0.138 0.151-0.206 0.227-0.034 0.038-0.068 0.077-0.102 0.115-0.005 0.005-0.009 0.010-0.013 0.015-0.008 0.009-0.017 0.017-0.027 0.024-0.004 0.003-0.009 0.006-0.013 0.009s-0.009 0.005-0.014 0.007c-0.005 0.002-0.009 0.004-0.014 0.005-0.031 0.007-0.062 0.005-0.092-0.006-0.572-0.169-1.145-0.338-1.719-0.506s-1.147-0.335-1.719-0.5c-0.141-0.042-0.123-0.079-0.038-0.168v0.001zM8.339 6.161c-0-0.002-0-0.005 0-0.007-0-0.001-0-0.001 0-0.002s-0-0.002 0-0.003 0-0.002 0-0.003v-0.002l0.002-0.005c0-0.004 0.002-0.008 0.004-0.012 0.001-0.002 0.001-0.004 0.002-0.006s0.001-0.004 0.002-0.005l0.002-0.004c0.003-0.006 0.006-0.013 0.010-0.019 0.001-0.002 0.002-0.004 0.003-0.006s0.002-0.003 0.003-0.005c-0-0.001-0-0.001 0-0.002s0.002-0.003 0.003-0.004c0.001-0.001 0.001-0.002 0.002-0.003l0.002-0.002 0.002-0.002 0.004-0.004 0.002-0.002 0.002-0.002 0.003-0.002h0.002c0.001-0 0.002-0 0.003 0h0.011c0.001-0 0.002-0 0.003 0h0.003c0.005 0 0.010 0.002 0.015 0.003l0.012 0.006 0.007 0.004 0.002 0.002 0.003 0.002 0.004 0.003 0.004 0.003 0.015 0.010 0.009 0.006c0.013 0.008 0.027 0.016 0.039 0.025s0.023 0.015 0.034 0.024l0.005 0.004c0.011 0.008 0.022 0.016 0.031 0.025l0.014 0.012 0.018 0.016 0.009 0.008c0.003 0.003 0.006 0.005 0.008 0.008l0.012 0.013c0.002 0.002 0.004 0.004 0.006 0.006l0.006 0.007 0.012 0.013 0.011 0.013c0.008 0.009 0.015 0.018 0.022 0.028s0.014 0.019 0.020 0.029c0.007 0.010 0.012 0.020 0.018 0.030s0.012 0.020 0.017 0.031c0.005 0.011 0.011 0.021 0.015 0.031s0.007 0.015 0.010 0.023c0.003 0.008 0.006 0.015 0.009 0.023v0.002l0.002 0.005 0.004 0.011c0.002 0.005 0.004 0.011 0.006 0.017s0.003 0.011 0.005 0.017c0.002 0.006 0.003 0.012 0.005 0.018-0 0.002-0 0.003 0 0.005 0 0.003 0.002 0.006 0.002 0.009s0 0 0 0c-0 0.001-0 0.002 0 0.003s0 0 0 0v0.002c0.003 0.013 0.005 0.027 0.008 0.041 0.002 0.009 0.003 0.018 0.005 0.027v0.006c0 0.006 0.002 0.012 0.002 0.018l0.003 0.026v0.063c0.003 0.142-0.039 0.282-0.118 0.4-0.022 0.033-0.045 0.073-0.080 0.068h-0.004l-0.006-0.002-0.005-0.002c-0.002-0.001-0.004-0.002-0.005-0.003s-0.003-0.002-0.005-0.003l-0.003-0.002-0.002-0.002-0.006-0.005-0.029-0.026-0.005-0.004-0.004-0.005c-0.002-0.002-0.003-0.003-0.004-0.005l-0.004-0.005v-0.002c-0.001-0.001-0.002-0.003-0.002-0.004s-0.002-0.003-0.002-0.005c-0.003-0.006-0.005-0.012-0.005-0.019-0-0.003-0-0.005 0-0.008 0.001-0.020 0.007-0.040 0.018-0.057 0.003-0.005 0.005-0.009 0.008-0.014 0.001-0.002 0.002-0.003 0.003-0.005l0.003-0.005c0.007-0.013 0.014-0.026 0.020-0.039 0.003-0.007 0.007-0.014 0.009-0.021s0.004-0.008 0.006-0.013c0-0.001 0-0.001 0-0.002 0.004-0.009 0.008-0.018 0.011-0.027s0.005-0.014 0.007-0.021l0.007-0.021c0.002-0.007 0.004-0.014 0.006-0.021s0.003-0.013 0.005-0.020c0.002-0.007 0.002-0.007 0.002-0.010s0.002-0.011 0.003-0.016c0.001-0.005 0.002-0.010 0.002-0.014s0.002-0.013 0.003-0.020c0.001-0.007 0.002-0.013 0.002-0.020 0-0.005 0-0.010 0-0.015s0-0.010 0-0.015v-0.009c0-0.009 0-0.019 0-0.028-0-0.001-0-0.002 0-0.003v-0.003c0-0.011-0.002-0.022-0.003-0.031s-0.003-0.019-0.005-0.029c-0.003-0.013-0.006-0.027-0.010-0.040-0.002-0.007-0.004-0.014-0.007-0.022s-0.005-0.014-0.008-0.021c-0.003-0.007-0.004-0.010-0.006-0.014s-0.007-0.015-0.011-0.022c-0.004-0.008-0.004-0.009-0.007-0.013s0 0 0-0.002v-0.002c-0.003-0.005-0.006-0.010-0.009-0.015l-0.003-0.004c-0.001-0.002-0.002-0.003-0.003-0.004l-0.002-0.004c-0.004-0.007-0.009-0.014-0.014-0.021l-0.010-0.014-0.002-0.003c-0.001-0.001-0.002-0.003-0.003-0.004l-0.005-0.007-0.008-0.009c-0.002-0.003-0.005-0.006-0.007-0.008s-0.009-0.010-0.013-0.015c-0.005-0.005-0.013-0.014-0.021-0.022l-0.005-0.005c-0.002 0-0.003-0.003-0.005-0.005l-0.009-0.008-0.002-0.002-0.012-0.011-0.007-0.006c-0.006-0.006-0.013-0.011-0.020-0.017-0.021-0.017-0.044-0.034-0.068-0.050-0.004-0.003-0.008-0.006-0.012-0.009h-0.002l-0.006-0.005c-0.002-0.002-0.004-0.003-0.006-0.005s-0.005-0.004-0.007-0.007l-0.003-0.003-0.004-0.004-0.002-0.003-0.002-0.002c-0.002-0.003-0.004-0.006-0.006-0.010s-0.003-0.006-0.004-0.010c-0.001-0.003-0.002-0.006-0.002-0.008-0-0.002-0-0.004 0-0.006s-0-0.002 0-0.003l0.015-0.018zM2.731 8.668l-0.207-0.068 0.070-0.079c0.023-0.026 0.047-0.053 0.070-0.078l0.139-0.156 0.091-0.102c0.061-0.068 0.12-0.136 0.179-0.204 0.030-0.034 0.059-0.068 0.088-0.103s0.058-0.068 0.087-0.103c0.019-0.023 0.039-0.046 0.059-0.068l0.031-0.033c0.021-0.022 0.041-0.044 0.063-0.065 0.063-0.066 0.128-0.13 0.192-0.196l0.027-0.029c0.015-0.016 0.029-0.031 0.044-0.048l0.004-0.005c0.009-0.010 0.018-0.021 0.027-0.031 0.015-0.017 0.029-0.034 0.043-0.051 0.004-0.005 0.008-0.009 0.012-0.014s0.008-0.008 0.012-0.012l0.006-0.005 0.006-0.005 0.009-0.007 0.009-0.005 0.005-0.003 0.005-0.002c0.003-0.002 0.007-0.003 0.010-0.004s0 0 0 0c0.016-0.004 0.032-0.005 0.048-0.003 0.006 0.001 0.013 0.002 0.019 0.003l0.018 0.005c1.107 0.354 2.215 0.706 3.324 1.054l0.007 0.002 0.007 0.002 0.015 0.006 0.008 0.003 0.031 0.012-0.673 0.796-0.107 0.12c-0.036 0.040-0.072 0.080-0.107 0.12l-0.053 0.060c-0.036 0.040-0.071 0.081-0.106 0.121l-0.052 0.063c-0.021 0.027-0.048 0.049-0.079 0.063-0.006 0.003-0.013 0.005-0.019 0.006-0.005 0.002-0.010 0.003-0.016 0.003s0 0 0 0c-0.006 0-0.013 0-0.019 0h-0.016c-0.011-0.001-0.021-0.002-0.031-0.005l-0.018-0.004-3.262-0.951zM7.461 7.758c0.001 0.002 0.002 0.004 0.003 0.006l0.003 0.005c0 0.001 0 0.001 0 0.002s0.001 0.003 0.002 0.004l0.002 0.005v0.002c0 0 0 0.001 0 0.002v0.004c0.001 0.004 0.002 0.007 0.002 0.011 0 0.005 0 0.010 0 0.016 0 0.003 0 0.006 0 0.008s0 0.006-0.002 0.009c0 0.001 0 0.002 0 0.003-0.002 0.012-0.007 0.022-0.015 0.031-0.003 0.004-0.007 0.007-0.011 0.010s-0.009 0.005-0.014 0.007c-0.004 0.002-0.008 0.003-0.012 0.005-0.016 0.005-0.031 0.007-0.048 0.010-0.314 0.067-0.226 0.131-0.425-0.152l-0.036-0.051c-0.010-0.013-0.020-0.028-0.029-0.042l-0.008-0.011-0.013-0.018c-0.002-0.003-0.004-0.006-0.006-0.009l-0.032-0.045-0.003-0.004-0.027-0.038 0.061-0.015 0.029-0.007 0.029-0.007c0.020-0.004 0.038-0.009 0.057-0.014s0.037-0.010 0.056-0.016l0.017-0.006c0.012-0.004 0.025-0.008 0.037-0.011l0.014-0.004 0.009-0.002h0.012c0.007-0.002 0.014-0.003 0.021-0.003h0.033c0.004 0 0.009 0.001 0.013 0.002l0.006 0.002c0.002 0 0.004 0.001 0.006 0.002 0.003 0.001 0.006 0.002 0.009 0.004s0.002 0 0.003 0c0.006 0.003 0.012 0.007 0.017 0.012 0.003 0.003 0.007 0.007 0.009 0.010s0.005 0.007 0.007 0.010c0.002 0.003 0.004 0.006 0.005 0.009s0 0 0 0c0.002 0.004 0.004 0.007 0.005 0.011 0.001 0.003 0.002 0.005 0.003 0.008s0.002 0.005 0.003 0.008 0.004 0.015 0.006 0.024c0 0 0 0.003 0 0.003 0.002 0.012 0.004 0.025 0.005 0.039 0 0.003 0 0.006 0.002 0.009s0 0 0 0.002c0 0.002 0 0 0 0.002 0.004 0.013 0.012 0.025 0.023 0.034l0.005 0.004h0.002l0.003 0.003h0.003l0.012 0.008c0.030 0.015 0.058 0.031 0.086 0.050l0.013 0.011 0.006 0.006c0.002 0.002 0.004 0.004 0.006 0.006s0.004 0.004 0.006 0.006l0.008 0.008c0.001 0.001 0.002 0.003 0.003 0.004l0.003 0.005c0.007 0.004 0.013 0.009 0.017 0.015zM7.768 8.917l-0.006 6.302-0.553-0.202-1.359-0.507c-0.182-0.068-0.364-0.136-0.546-0.203l-0.141-0.053-0.035-0.013c-0.212-0.079-0.425-0.157-0.637-0.236l-0.405-0.149c-0.005-0.002-0.010-0.004-0.015-0.006-0.010-0.004-0.019-0.009-0.027-0.013-0.011-0.006-0.021-0.012-0.031-0.020-0.004-0.003-0.009-0.007-0.013-0.011-0.008-0.007-0.015-0.016-0.021-0.025-0.003-0.004-0.006-0.009-0.008-0.013-0-0.001-0-0.001 0-0.002-0.002-0.004-0.004-0.008-0.006-0.013-0.002-0.003-0.003-0.007-0.004-0.010s-0.002-0.006-0.003-0.008c0-0.004-0.002-0.008-0.003-0.012s-0.002-0.008-0.002-0.012c-0.001-0.004-0.002-0.008-0.002-0.012-0.001-0.009-0.002-0.019-0.003-0.029v-0.492c0-0.57-0.001-1.141-0.003-1.711-0.002-0.578-0.005-1.155-0.009-1.732v-0.054c0-0.008 0-0.009 0.002-0.014s0-0.007 0-0.009l0.002-0.009 0.002-0.008c0-0.002 0.002-0.005 0.002-0.008 0.002-0.004 0.004-0.009 0.006-0.013s0.005-0.008 0.008-0.011l0.006-0.006c0.004-0.003 0.007-0.005 0.012-0.007l0.007-0.002h0.002c0.002-0 0.005-0 0.007 0s0.004-0 0.006 0c0.016-0.001 0.033-0 0.049 0.003s0.032 0.006 0.048 0.011l0.125 0.031c0.042 0.011 0.083 0.022 0.125 0.033l0.25 0.065 0.25 0.064 0.25 0.063c0.334 0.085 0.668 0.169 1 0.257 0.031 0.008 0.062 0.013 0.094 0.014 0.006 0 0.013 0 0.019 0 0.008-0 0.015-0.001 0.022-0.003s0.013-0.003 0.020-0.005c0.006-0.002 0.013-0.004 0.019-0.007s0.012-0.005 0.017-0.008l0.004-0.002c0.005-0.003 0.010-0.006 0.015-0.009s0.010-0.007 0.015-0.011 0.013-0.011 0.020-0.018c0.007-0.006 0.013-0.013 0.020-0.021l0.183-0.213 0.366-0.424 0.183-0.212c0.015-0.014 0.029-0.028 0.043-0.042 0.028-0.028 0.056-0.057 0.083-0.086 0.082-0.088 0.159-0.182 0.239-0.279 0.040-0.048 0.081-0.098 0.123-0.148 0.056-0.067 0.115-0.133 0.179-0.201l0.007 0.468zM8.163 7.472l-0.002 0.008c-0.002 0.005-0.004 0.010-0.006 0.015l-0.004 0.007c-0.004 0.005-0.008 0.010-0.012 0.014-0.003 0.003-0.006 0.006-0.009 0.008l-0.005 0.003-0.002 0.002h-0.005c-0.002 0.002-0.005 0.003-0.008 0.004l-0.007 0.003c-0.004 0.002-0.009 0.003-0.014 0.004-0.002 0-0.004 0-0.006 0h-0.025l-0.008-0.002-0.007-0.002h-0.002l-0.008-0.003-0.008-0.004c-0.005-0.002-0.011-0.005-0.016-0.008l-0.008-0.005-0.008-0.005-0.005-0.003-0.010-0.007c-0.010-0.006-0.021-0.012-0.031-0.018l-0.065-0.031c-0.022-0.009-0.043-0.019-0.066-0.028-0.044-0.018-0.088-0.033-0.134-0.047l-0.034-0.009c-0.008-0.002-0.015-0.004-0.023-0.006h-0.002l-0.007-0.002h-0.024l-0.014-0.003-0.011-0.002h-0.002c-0.002-0-0.003-0-0.005 0l-0.018-0.003-0.035-0.005h-0.034l-0.022-0.002h-0.007c-0.006-0-0.011-0-0.017 0h-0.069l-0.037 0.002-0.022-0.003-0.021-0.003c-0.014-0.001-0.028-0.002-0.042-0.002-0.083 0.003-0.165 0.018-0.244 0.044l-0.084 0.025-0.014 0.004-0.038 0.011-0.006 0.002c-0.013 0.003-0.027 0.007-0.040 0.010-0.021 0.005-0.041 0.009-0.063 0.012l-0.031 0.004-0.031 0.003h-0.078c-0.004 0-0.009 0-0.013 0s-0.010 0-0.015 0h-0.009l-0.013-0.002h-0.028l-0.011-0.002h-0.008l-0.014-0.003-0.018-0.006c-0.012-0.004-0.023-0.008-0.034-0.013s-0.022-0.011-0.033-0.017c-0.011-0.007-0.022-0.014-0.031-0.022-0.011-0.008-0.021-0.017-0.031-0.027-0.115-0.109-0.147-0.292-0.049-0.421 0.013-0.017 0.026-0.034 0.039-0.050l0.014-0.016 0.010-0.011c0.006-0.007 0.012-0.014 0.018-0.021l0.015-0.015c0.004-0.004 0.009-0.008 0.013-0.012 0.001-0.001 0.002-0.002 0.003-0.003 0.004-0.004 0.009-0.008 0.013-0.011l0.005-0.004c0.005-0.003 0.009-0.007 0.014-0.010s0.012-0.008 0.018-0.012l0.012-0.007 0.007-0.003h0.005l0.013-0.006h0.002l0.010-0.004c0.003-0.001 0.006-0.002 0.008-0.003l0.005-0.002h0.003c0.004-0.001 0.008-0.002 0.012-0.003 0.001-0 0.003-0 0.004 0l0.012-0.003 0.012-0.002c0.009 0 0.018-0.003 0.027-0.005 0.018-0.003 0.036-0.008 0.053-0.012l0.053-0.014 0.027-0.007c0.018-0.004 0.035-0.008 0.053-0.011l0.021-0.004 0.021-0.004c0.011-0.002 0.023-0.005 0.034-0.008l0.007-0.002h0.006l0.012-0.003 0.015-0.004h0.006c0.002-0.001 0.005-0.001 0.007-0.002h0.007l0.022-0.007 0.008-0.003h0.003l0.027-0.010h0.002l0.006-0.002 0.031-0.013 0.016-0.007c0.003-0.001 0.007-0.003 0.010-0.004h0.002l0.003-0.002c0.012-0.005 0.023-0.011 0.034-0.017l0.003-0.002c0.005-0.003 0.011-0.005 0.016-0.008l0.010-0.006h0.007c0.009-0.005 0.017-0.010 0.026-0.015l0.003-0.002 0.026-0.017 0.003-0.002 0.004-0.003 0.014-0.009 0.007-0.005 0.008-0.005 0.016-0.012 0.015-0.011 0.018-0.014 0.004-0.003 0.004-0.003c0.002-0.001 0.004-0.002 0.005-0.004 0.006-0.005 0.012-0.009 0.018-0.014l0.002-0.002c0.012-0.010 0.025-0.021 0.037-0.031s0.023-0.021 0.035-0.031l0.026-0.025c0.006-0.006 0.013-0.012 0.019-0.019l0.018-0.019c0.002-0.002 0.004-0.004 0.006-0.006l0.031-0.033c0.015-0.016 0.029-0.032 0.043-0.048s0.028-0.031 0.042-0.049 0.027-0.033 0.041-0.050c0.005-0.006 0.009-0.011 0.013-0.018l0.006-0.009c0.002-0.003 0.004-0.007 0.006-0.010s0.004-0.007 0.006-0.010l0.012-0.019 0.007-0.009c0.004-0.006 0.009-0.011 0.014-0.016 0.003-0.003 0.005-0.005 0.008-0.008l0.008-0.005c0.002-0.002 0.004-0.003 0.007-0.004l0.005-0.002 0.005-0.002 0.005-0.002 0.008-0.002c0.004-0 0.008-0 0.012 0s0.010-0 0.014 0c0.087 0.013 0.079 0.1 0.097 0.162 0.006 0.020 0.011 0.039 0.016 0.060 0.004 0.016 0.008 0.031 0.012 0.047l0.027-0.003c0.005 0.019 0.011 0.039 0.017 0.058 0.003 0.010 0.006 0.019 0.010 0.029l0.011 0.028 0.002 0.004c0 0.003 0.003 0.006 0.004 0.009 0.002 0.005 0.004 0.009 0.007 0.013 0 0.003 0.003 0.006 0.004 0.009 0.006 0.011 0.012 0.021 0.018 0.031 0.003 0.004 0.006 0.008 0.009 0.013l0.007 0.009 0.008 0.010c0.003 0.004 0.006 0.008 0.009 0.011 0.005 0.006 0.011 0.012 0.017 0.018s0.011 0.011 0.017 0.017l0.021 0.017 0.014 0.010c0.005 0.003 0.009 0.007 0.014 0.011 0.002 0.001 0.003 0.003 0.005 0.004 0.004 0.004 0.008 0.007 0.012 0.012 0.002 0.002 0.004 0.004 0.005 0.006 0.003 0.003 0.005 0.006 0.008 0.010 0.002 0.002 0.004 0.004 0.005 0.007 0.003 0.004 0.006 0.009 0.008 0.013s0 0 0 0c0 0 0.004 0.007 0.006 0.010 0.004 0.007 0.007 0.015 0.010 0.023 0.001 0.003 0.002 0.006 0.003 0.008s0.002 0.006 0.002 0.008c0.002 0.007 0.004 0.014 0.005 0.022 0 0.005 0.002 0.010 0.002 0.015v0.003c0 0.005 0 0.010 0 0.015v0.003c0 0.011-0.001 0.023-0.003 0.034-0.001 0.007-0.003 0.015-0.005 0.022-0.003 0.011-0.007 0.021-0.012 0.031-0.081 0.167-0.029 0.319 0.012 0.48 0.005 0.017 0.011 0.034 0.018 0.050 0.002 0.005 0.004 0.010 0.006 0.015s0.004 0.010 0.005 0.016c0.002 0.005 0.002 0.007 0.002 0.010s0.002 0.007 0.002 0.010c0.001 0.003 0 0.007 0 0.010 0.002 0.009 0.003 0.018 0.002 0.027v0zM8.21 6.496c-0-0.001-0-0.001 0-0.002s0 0 0 0c-0-0.001-0-0.001 0-0.002s0 0 0-0.002-0-0.001 0-0.002-0-0.002 0-0.003 0 0 0-0.002c0-0.002 0 0 0 0s-0-0.001 0-0.002 0 0 0 0c0-0 0-0.001 0-0.002s0-0.001 0-0.002-0-0.002 0-0.003 0-0.002 0-0.003 0 0 0 0v-0.002c-0-0.001-0-0.002 0-0.003s0 0 0 0c-0-0.002-0-0.003 0-0.005s0.001-0.003 0.002-0.005c-0-0.001-0-0.002 0-0.003l0.003-0.008 0.005-0.010c0.002-0.003 0.003-0.007 0.005-0.010l0.006-0.010 0.003-0.005 0.009-0.014c0.003-0.006 0.007-0.011 0.011-0.016 0.001-0.001 0.002-0.003 0.004-0.004s0.002-0.002 0.003-0.003h0.002l0.002-0.002h0.018c0.004-0.001 0.009-0.001 0.013 0l0.007 0.002h0.002l0.007 0.003 0.005 0.002 0.006 0.003h0.002c0.011 0.006 0.023 0.014 0.033 0.021l0.004 0.003 0.020 0.014c0.013 0.010 0.025 0.020 0.037 0.031l0.012 0.012c0.003 0.003 0.006 0.007 0.009 0.010l0.007 0.008c0.002 0.002 0.004 0.005 0.006 0.007l0.007 0.010 0.006 0.007 0.009 0.014c0.001 0.002 0.003 0.005 0.004 0.007 0.003 0.005 0.006 0.010 0.008 0.015 0 0.002 0.002 0.003 0.002 0.004 0 0.003 0.003 0.006 0.004 0.009 0.001 0.002 0.002 0.003 0.002 0.005s0 0 0 0.002v0.003c0.001 0.002 0.002 0.003 0.002 0.005s0 0.002 0 0.003c0 0.003 0.002 0.006 0.003 0.008s0.002 0.005 0.003 0.008c-0 0-0 0.001 0 0.002s0 0 0 0.002l0.003 0.008c0 0.001 0 0.003 0 0.004s0 0.001 0 0.002 0 0 0 0v0.004c-0 0.001-0 0.002 0 0.003s-0 0.002 0 0.003 0 0.001 0 0.002 0 0.003 0 0.004v0.002c0 0.001 0 0.001 0 0.002 0.002 0.004 0.003 0.008 0.004 0.013l0.003 0.013c0 0.002 0 0.004 0.002 0.006s0 0.004 0 0.006v0.011c0 0.003 0 0.002 0 0.003 0 0.002 0 0.005 0 0.007s0 0.005 0 0.008c0 0.002 0 0.005 0 0.007 0 0.005 0.002 0.011 0.002 0.017 0 0.002 0 0.003 0 0.005v0.002c0 0.001 0 0.003 0 0.004s0 0.002 0 0.003 0 0.002 0 0.003 0 0.005 0 0.007c0 0.001 0 0.002 0 0.003s0 0.003 0 0.004c0 0.009-0.002 0.018-0.004 0.027s-0.002 0.013-0.003 0.019c-0.001 0.006-0.002 0.013-0.003 0.019s0 0.005 0 0.007c-0 0.001-0 0.003 0 0.004 0 0.004-0.002 0.008-0.002 0.011s0 0.004 0 0.005c-0.002 0.010-0.005 0.021-0.008 0.031-0.002 0.007-0.005 0.014-0.007 0.022 0 0.002 0 0.003 0 0.004l-0.002 0.005c-0.001 0.003-0.002 0.005-0.003 0.008l-0.003 0.008c0 0.002-0.002 0.003-0.002 0.005s-0.001 0.002-0.002 0.003v0.002c-0.001 0.002-0.001 0.003-0.002 0.004l-0.004 0.008c0 0.003-0.002 0.005-0.004 0.008-0.018 0.031-0.046 0.061-0.076 0.055-0.002-0-0.004-0.001-0.006-0.002h-0.002c-0.005-0.002-0.010-0.005-0.015-0.008l-0.011-0.008h-0.002l-0.004-0.003-0.011-0.008c-0.002-0.002-0.005-0.003-0.007-0.005l-0.006-0.004h-0.002c-0.003-0.003-0.006-0.005-0.009-0.008s-0.007-0.007-0.010-0.011c-0.003-0.004-0.005-0.008-0.007-0.013s-0.003-0.008-0.003-0.012c-0-0.003-0-0.006 0-0.008-0-0.001-0-0.002 0-0.003s-0-0.003 0-0.005 0-0.002 0-0.003c-0-0.001-0-0.003 0-0.004s0 0 0-0.002c0.001-0.010 0.009-0.018 0.019-0.018-0-0.001-0-0.002 0-0.003 0.001-0.003 0.002-0.006 0.004-0.009 0.006-0.012 0.012-0.024 0.017-0.037 0.002-0.004 0.003-0.008 0.004-0.011l0.004-0.011c0-0.004 0.002-0.007 0.003-0.011 0.001-0.002 0.001-0.003 0.002-0.005s0-0.003 0-0.005 0.002-0.010 0.003-0.015c0.001-0.005 0.002-0.010 0.002-0.015-0-0.002-0-0.004 0-0.006v-0.029c0-0.003 0-0.007 0-0.010-0-0.001-0-0.003 0-0.004s0-0.002 0-0.003c0-0.004 0-0.007-0.002-0.011-0-0.003-0.001-0.007-0.002-0.010s0 0 0-0.002c0-0.002 0-0.002 0-0.003s0-0.003-0.002-0.005l-0.002-0.007c0-0.001 0-0.003 0-0.004s0 0 0 0c-0.002-0.004-0.003-0.009-0.005-0.013-0.001-0.002-0.002-0.005-0.003-0.007 0-0.001 0-0.001 0-0.002v-0.002c-0.002-0.003-0.003-0.006-0.005-0.009l-0.005-0.009-0.014-0.022-0.004-0.005c0-0 0-0.001 0-0.002s-0.002-0.003-0.003-0.004l-0.002-0.003-0.003-0.003c-0.003-0.004-0.007-0.008-0.010-0.012l-0.012-0.012h-0.002c-0.006-0.005-0.012-0.010-0.018-0.015l-0.010-0.008-0.005-0.004-0.005-0.004-0.009-0.007c-0.005-0.004-0.010-0.009-0.014-0.014-0.002-0.002-0.004-0.004-0.006-0.006v0zM11.934 13.827c-0.015 0.014-0.032 0.025-0.050 0.034-0.010 0.005-0.022 0.010-0.035 0.014-1.157 0.42-2.313 0.845-3.467 1.274-0.010 0.004-0.020 0.007-0.029 0.010-0.027 0.011-0.056 0.015-0.085 0.011-0.005-0.002-0.010-0.004-0.015-0.007l-0.007-0.006c-0.004-0.004-0.007-0.009-0.009-0.013l-0.004-0.009c0-0.003-0.002-0.006-0.003-0.010-0.003-0.013-0.005-0.026-0.005-0.039v-5.982c0-0.016 0-0.031 0-0.047 0-0.047-0.003-0.094-0.005-0.142 0.004-0.056 0.008-0.112 0.012-0.175 0-0.019 0.002-0.038 0.004-0.058s0.003-0.040 0.004-0.063c0.027 0.028 0.052 0.054 0.077 0.081l0.209 0.22c0.322 0.373 0.645 0.747 0.969 1.12 0.028 0.035 0.065 0.062 0.106 0.079 0.006 0.002 0.012 0.004 0.018 0.006 0.012 0.003 0.025 0.005 0.037 0.006 0.035 0.002 0.070-0.001 0.104-0.011l0.458-0.119c0.094-0.024 0.188-0.049 0.281-0.073l1.238-0.314c0.104-0.027 0.148-0.038 0.167-0.005 0.009 0.022 0.014 0.046 0.013 0.070 0 0.022 0.002 0.049 0.002 0.081 0.019 1.307 0.038 2.614 0.059 3.922-0.001 0.067-0.010 0.111-0.045 0.144v0zM12.581 8.915c-0.167 0.048-0.334 0.094-0.502 0.139l-0.168 0.045c-0.112 0.030-0.224 0.059-0.337 0.088l-0.337 0.086-0.675 0.171c-0.224 0.057-0.449 0.115-0.673 0.174l-0.021 0.005c-0.012 0.003-0.025 0.005-0.037 0.006-0.010 0.001-0.021 0.001-0.031 0-0.004-0-0.009-0.001-0.013-0.002s-0.009-0.002-0.013-0.003h-0.004l-0.010-0.003-0.012-0.005-0.012-0.006-0.003-0.002c-0.003-0.002-0.007-0.004-0.011-0.007l-0.012-0.009c-0.009-0.007-0.017-0.015-0.026-0.024l-0.018-0.020c-0.038-0.045-0.076-0.089-0.115-0.133l-0.047-0.054c-0.025-0.028-0.049-0.057-0.074-0.085l-0.079-0.090-0.080-0.090-0.080-0.089-0.161-0.182c-0.033-0.045-0.068-0.089-0.103-0.133-0.018-0.022-0.036-0.043-0.054-0.065s-0.037-0.043-0.056-0.063c-0.019-0.020-0.038-0.043-0.057-0.063l-0.058-0.063-0.059-0.064-0.060-0.065 0.024-0.013 0.018-0.014c0.015-0.007 0.030-0.014 0.044-0.021l0.031-0.013 0.024-0.010 0.027-0.010 0.029-0.009c0.018-0.006 0.037-0.012 0.055-0.018 0.012-0.004 0.025-0.008 0.037-0.011 0.025-0.008 0.049-0.014 0.074-0.022l0.074-0.020c0.050-0.013 0.099-0.026 0.148-0.041l0.351-0.107 0.353-0.105 2.142-0.63c0.013-0.004 0.026-0.006 0.040-0.008 0.015-0.002 0.030-0.001 0.044 0.002 0.009 0.002 0.017 0.005 0.025 0.008 0.005 0.002 0.009 0.005 0.013 0.008s0.008 0.005 0.011 0.008c0.004 0.003 0.008 0.007 0.012 0.010l0.012 0.012c0.411 0.434 0.825 0.865 1.238 1.298 0.006 0.006 0.005 0.018 0.010 0.035l-0.842 0.277zM5.164 4.228c-0.058-0.053-0.126-0.093-0.201-0.117-0.090-0.034-0.187-0.043-0.281-0.025-0.007-0.005-0.015-0.008-0.016-0.018-0.014-0.103-0.076-0.183-0.129-0.265-0.062-0.090-0.143-0.166-0.237-0.223-0.296-0.197-0.728-0.183-1.011 0.036-0.244 0.178-0.381 0.469-0.361 0.77 0 0.029-0.004 0.036-0.034 0.031-0.176-0.033-0.357 0.018-0.49 0.138-0.18 0.157-0.249 0.409-0.172 0.636 0.015 0.044 0.043 0.080 0.056 0.125-0.156 0.109-0.249 0.287-0.249 0.478 0 0.133 0.046 0.263 0.129 0.366 0.178 0.224 0.494 0.289 0.746 0.152 0.706-0.375 1.413-0.748 2.12-1.119 0.027-0.014 0.052-0.030 0.077-0.048 0.154-0.111 0.246-0.29 0.246-0.48 0-0.166-0.070-0.325-0.194-0.437v0zM4.127 5.25c0.016 0.073 0.031 0.146 0.047 0.219 0.009 0.042-0.006 0.058-0.045 0.042-0.028-0.014-0.062-0.005-0.078 0.022-0.116 0.128-0.282 0.201-0.455 0.201-0.156 0-0.306-0.059-0.42-0.166-0.138-0.127-0.21-0.311-0.195-0.498 0.002-0.048 0.018-0.057 0.063-0.043 0.077 0.024 0.077 0.024 0.079 0.106 0.006 0.257 0.218 0.465 0.475 0.465 0.041 0 0.082-0.005 0.121-0.016 0.033-0.008 0.064-0.021 0.094-0.038 0.037-0.018 0.070-0.041 0.101-0.067 0.014-0.013 0.019-0.018-0.003-0.028-0.043-0.019-0.045-0.036-0.011-0.067 0.055-0.050 0.111-0.1 0.166-0.149 0.034-0.031 0.053-0.025 0.063 0.019zM4.242 5.091c-0.003 0.022-0.017 0.031-0.039 0.025l-0.007-0.002c-0.088-0.024-0.088-0.024-0.094-0.133-0.005-0.113-0.053-0.219-0.135-0.298-0.070-0.073-0.164-0.12-0.264-0.133-0.138-0.033-0.348 0.044-0.426 0.156 0.020 0.015 0.050 0.012 0.066 0.035 0 0.017-0.008 0.033-0.022 0.042-0.054 0.049-0.108 0.098-0.163 0.145-0.013 0.011-0.024 0.031-0.044 0.024-0.018-0.010-0.028-0.030-0.027-0.051-0.014-0.070-0.028-0.14-0.042-0.21-0.008-0.041 0.007-0.056 0.046-0.041 0.030 0.011 0.044 0.002 0.064-0.020 0.163-0.183 0.365-0.256 0.608-0.212 0.068 0.016 0.133 0.040 0.194 0.073 0.084 0.054 0.155 0.126 0.206 0.211 0.070 0.117 0.098 0.255 0.079 0.391v-0.003zM7.3 4.253c0.014-0.037 0.043-0.057 0.063-0.082 0.025-0.031 0.055-0.060 0.083-0.090 0.005-0.004 0.008-0.011 0.008-0.018s-0.003-0.013-0.008-0.018c-0.017-0.026-0.028-0.054-0.034-0.084-0.005-0.016 0.002-0.033 0.017-0.041 0.035-0.024 0.081-0.026 0.119-0.007 0.015 0.007 0.031 0.013 0.048 0.019 0.034 0.015 0.058 0.047 0.063 0.084 0.004 0.014-0.007 0.021-0.016 0.027-0.020 0.015-0.042 0.027-0.066 0.035-0.029 0.008-0.036 0.026-0.035 0.053 0.003 0.058 0.003 0.116 0.006 0.174 0.003 0.023-0.010 0.046-0.031 0.056-0.037 0.021-0.075 0.038-0.116 0.051-0.015 0.007-0.033 0.001-0.040-0.014-0.023-0.038-0.043-0.077-0.060-0.118-0.004-0.009-0.004-0.019 0.001-0.027zM9.291 4.031c0.023-0.108 0.032-0.218 0.027-0.328-0.006-0.3-0.091-0.593-0.248-0.849-0.046-0.077-0.098-0.149-0.156-0.217-0.271-0.313-0.61-0.513-1.019-0.573-0.642-0.094-1.176 0.113-1.597 0.608-0.066 0.075-0.121 0.16-0.164 0.25-0.062 0.108-0.111 0.224-0.144 0.344-0.046 0.156-0.070 0.318-0.070 0.481 0 0.932 0.767 1.698 1.698 1.698 0.712 0 1.352-0.448 1.596-1.117 0.034-0.097 0.060-0.197 0.078-0.298zM7.295 3.053c0.009-0.020 0.028-0.033 0.050-0.034 0.023 0 0.031-0.010 0.035-0.031 0.018-0.079 0.043-0.155 0.075-0.229 0.039-0.089 0.112-0.159 0.203-0.193 0.118-0.046 0.249-0.047 0.368-0.003 0.098 0.031 0.186 0.087 0.256 0.163 0.102 0.106 0.136 0.261 0.088 0.4-0.021 0.068-0.049 0.134-0.083 0.196-0.010 0.019-0.013 0.031 0.006 0.048 0.017 0.016 0.024 0.040 0.016 0.063-0.011 0.066-0.050 0.125-0.107 0.162-0.014 0.010-0.028 0.021-0.042 0.031-0.039 0.033-0.078 0.067-0.116 0.1-0.051 0.045-0.108 0.082-0.169 0.111-0.209 0.097-0.425 0.015-0.517-0.198-0.037-0.095-0.060-0.194-0.069-0.295 0-0.030-0.006-0.060-0.019-0.088-0.024-0.067-0.015-0.142 0.025-0.202v-0.001zM7.535 4.132c0.003 0.059 0.003 0.119 0.007 0.178 0.003 0.024-0.010 0.047-0.031 0.057-0.038 0.021-0.077 0.039-0.118 0.052-0.015 0.007-0.034 0.001-0.041-0.014-0.024-0.039-0.045-0.079-0.063-0.121-0.005-0.009-0.005-0.019-0.002-0.028 0.014-0.038 0.044-0.058 0.065-0.085 0.026-0.031 0.056-0.063 0.085-0.092 0.005-0.005 0.008-0.011 0.008-0.018s-0.003-0.014-0.008-0.018c-0.017-0.026-0.029-0.055-0.035-0.086-0.005-0.016 0.002-0.034 0.017-0.042 0.036-0.024 0.083-0.027 0.122-0.008 0.016 0.007 0.032 0.014 0.049 0.019 0.034 0.016 0.058 0.048 0.063 0.086 0.004 0.014-0.007 0.021-0.017 0.028-0.020 0.016-0.043 0.028-0.068 0.036-0.026 0.008-0.033 0.027-0.031 0.055l-0-0.001zM8.296 4.854c-0.031 0.067-0.11 0.097-0.178 0.068l-1.637-0.601c-0.009-0.003-0.018-0.006-0.026-0.010-0.083-0.036-0.105-0.085-0.074-0.171 0.022-0.075 0.055-0.147 0.098-0.212 0.059-0.086 0.155-0.14 0.259-0.146 0.156-0.011 0.309 0.005 0.464 0.014 0.018 0 0.029 0.007 0.018 0.028-0.076 0.148-0.042 0.296 0.005 0.443 0.022 0.068 0.054 0.132 0.094 0.191 0.013 0.019 0.028 0.031 0.052 0.024 0.183-0.056 0.339-0.149 0.449-0.31 0.021-0.034 0.036-0.071 0.044-0.11 0.007-0.022 0.018-0.022 0.031-0.010 0.121 0.098 0.253 0.181 0.365 0.291 0.099 0.098 0.12 0.215 0.090 0.344-0.012 0.058-0.031 0.114-0.057 0.167v-0zM7.366 3.406c0.004 0.059 0.015 0.118 0.034 0.174 0.044 0.136 0.172 0.229 0.315 0.229 0.059 0 0.117-0.016 0.168-0.046 0.053-0.035 0.103-0.075 0.149-0.12 0.044-0.044 0.092-0.083 0.143-0.118 0.036-0.025 0.061-0.063 0.068-0.107 0.005-0.017-0.002-0.037-0.017-0.046s-0.028 0.002-0.041 0.010-0.016 0.023-0.037 0.017c0.030-0.045 0.056-0.092 0.081-0.14 0.012-0.022 0.010-0.036-0.016-0.046-0.041-0.017-0.081-0.037-0.12-0.057-0.143-0.074-0.26-0.173-0.331-0.321-0.012-0.030-0.043-0.047-0.074-0.042-0.116 0.005-0.213 0.094-0.228 0.21-0.005 0.045-0.014 0.089-0.027 0.132-0.012-0.007-0.009-0.016-0.011-0.023-0.004-0.018-0.006-0.040-0.031-0.042s-0.037 0.016-0.046 0.036c-0.015 0.031-0.019 0.066-0.012 0.099 0.018 0.066 0.029 0.133 0.035 0.201z"></path>
</svg>