<?xml version="1.0" encoding="utf-8"?>
<svg xmlns="http://www.w3.org/2000/svg" xmlns:xlink="http://www.w3.org/1999/xlink" id="client-iconsview" width="16"
     height="16" viewBox="0 0 16 16" x="160" y="160">
    <path fill="#ccc"
          d="M6.523 8.625c0.471 0 0.852 0.382 0.852 0.852v4.545c0 0.471-0.381 0.852-0.852 0.852h-4.545c-0.471 0-0.852-0.381-0.852-0.852v-4.545c0-0.471 0.381-0.852 0.852-0.852h4.545z"></path>
    <path fill="#e6e6e6"
          d="M14.023 1.125c0.471 0 0.852 0.381 0.852 0.853v4.545c0 0.471-0.381 0.853-0.852 0.853h-4.545c-0.471 0-0.853-0.381-0.853-0.853v-4.545c0-0.471 0.381-0.853 0.852-0.853h4.545z"></path>
    <path fill="#f2f2f2"
          d="M14.023 8.625c0.471 0 0.852 0.382 0.852 0.852v4.545c0 0.471-0.381 0.852-0.852 0.852h-4.545c-0.471 0-0.852-0.381-0.852-0.852v-4.545c0-0.471 0.381-0.852 0.852-0.852h4.545z"></path>
    <path fill="#7289da"
          d="M6.523 1.125c0.471 0 0.852 0.381 0.852 0.853v4.545c0 0.471-0.381 0.853-0.852 0.853h-4.545c-0.471 0-0.852-0.381-0.852-0.852v-4.545c0-0.471 0.381-0.853 0.852-0.853h4.545z"></path>
</svg>