<?xml version="1.0" encoding="utf-8"?>
<svg xmlns="http://www.w3.org/2000/svg" xmlns:xlink="http://www.w3.org/1999/xlink" id="client-kick_server" width="16"
     height="16" viewBox="0 0 16 16" x="32" y="192">
    <path fill="#7289da"
          d="M14.5 8.687c-0.125-0.114-0.133-0.244-0.172-0.375-0.285-0.886-0.809-1.237-1.744-1.088-0.602 0.098-1.195 0.265-1.789 0.411-0.75 0.188-1.509 0.375-2.293 0.179-1.327-0.379-2.367-1.032-2.662-2.522-0.125-0.598-0.463-0.651-0.939-0.274-0.13 0.098-0.25 0.209-0.359 0.33-0.709 0.829-1.615 1.345-2.636 1.695-0.805 0.276-0.956 0.577-0.635 1.382 0.333 0.783 0.584 1.598 0.75 2.432 0.041 1.375 0.822 2.474 1.428 3.635 0.139 0.266 0.329 0.294 0.611 0.182 0.986-0.39 1.981-0.75 2.976-1.125 0.185-0.069 0.351-0.145 0.357-0.363 0.022-0.881 0.655-0.963 1.284-0.875 1.6 0.196 2.944-0.463 4.286-1.168 0.598-0.314 1.183-0.654 1.625-1.179 0.421-0.502 0.4-0.832-0.089-1.28z"></path>
    <path fill="#c90709"
          d="M8.392 5.534c0.67 0.184 1.25 0.435 1.896 0.294 0.27-0.059 0.549-0.125 0.579-0.469s-0.194-0.484-0.461-0.589c-0.386-0.152-0.781-0.282-1.16-0.451-0.707-0.317-1.018-0.784-0.986-1.435 0.034-0.665 0.486-1.24 1.125-1.429 0.791-0.266 1.599-0.236 2.4-0.034 0.635 0.161 0.214 0.625 0.209 0.922-0.008 0.467-0.322 0.125-0.489 0.099-0.409-0.070-0.813-0.212-1.23-0.086-0.25 0.074-0.485 0.196-0.49 0.5 0 0.261 0.185 0.406 0.412 0.493 0.389 0.147 0.785 0.274 1.168 0.435 0.773 0.324 1.076 0.779 1.045 1.519-0.019 0.688-0.488 1.287-1.151 1.47-0.875 0.272-1.768 0.207-2.65 0-0.231-0.056-0.351-0.186-0.296-0.452 0.043-0.253 0.050-0.503 0.080-0.786z"></path>
</svg>