<?xml version="1.0" encoding="utf-8"?>
<svg xmlns="http://www.w3.org/2000/svg" xmlns:xlink="http://www.w3.org/1999/xlink" id="client-loading_image" width="16"
     height="16" viewBox="0 0 16 16" x="96" y="192">
    <path fill="#a9aaac"
          d="M1.13 10.956c0-0.483 0.392-0.875 0.875-0.875h12c0.483 0 0.875 0.392 0.875 0.875v1.125c0 0.483-0.392 0.875-0.875 0.875h-12c-0.483 0-0.875-0.392-0.875-0.875v-1.125z"></path>
    <path fill="#7289da"
          d="M1.13 10.956c0-0.483 0.392-0.875 0.875-0.875h7.75c0.483 0 0.875 0.392 0.875 0.875v1.125c0 0.483-0.392 0.875-0.875 0.875h-7.75c-0.483 0-0.875-0.392-0.875-0.875v-1.125z"></path>
    <path fill="#a9aaac" d="M1.119 3.082h0.446v1.827h0.857v0.379h-1.302v-2.206z"></path>
    <path fill="#a9aaac"
          d="M3.641 3.044c0.162 0 0.309 0.026 0.439 0.079s0.242 0.128 0.333 0.226c0.092 0.098 0.162 0.216 0.212 0.356s0.074 0.296 0.074 0.471c0 0.177-0.026 0.336-0.077 0.477s-0.124 0.262-0.218 0.362c-0.094 0.1-0.208 0.177-0.341 0.231s-0.283 0.081-0.447 0.081c-0.162 0-0.31-0.026-0.443-0.079s-0.245-0.129-0.338-0.228-0.164-0.219-0.215-0.359c-0.051-0.14-0.076-0.298-0.076-0.473 0-0.367 0.096-0.649 0.288-0.847s0.462-0.297 0.809-0.297zM3.614 3.389c-0.089 0-0.17 0.019-0.242 0.057s-0.136 0.092-0.189 0.161c-0.053 0.070-0.094 0.154-0.122 0.253s-0.043 0.209-0.043 0.329c0 0.12 0.014 0.229 0.043 0.327s0.070 0.181 0.124 0.25c0.054 0.068 0.118 0.122 0.192 0.16s0.157 0.057 0.25 0.057c0.089 0 0.17-0.019 0.243-0.059s0.136-0.093 0.188-0.163c0.053-0.070 0.094-0.153 0.124-0.251s0.044-0.206 0.044-0.324c0-0.122-0.014-0.233-0.043-0.332s-0.070-0.183-0.124-0.251-0.118-0.121-0.193-0.158c-0.075-0.037-0.159-0.055-0.252-0.055z"></path>
    <path fill="#a9aaac"
          d="M7.096 5.289h-0.484l-0.193-0.509h-0.92l-0.193 0.509h-0.458l0.866-2.206h0.503l0.879 2.206zM6.116 3.929c-0.013-0.034-0.026-0.073-0.041-0.119s-0.029-0.092-0.043-0.139c-0.014-0.047-0.027-0.092-0.040-0.134s-0.022-0.078-0.029-0.107h-0.006c-0.008 0.030-0.019 0.065-0.032 0.107s-0.027 0.087-0.043 0.134c-0.016 0.047-0.031 0.094-0.046 0.139s-0.029 0.085-0.041 0.119l-0.183 0.515h0.686l-0.183-0.515z"></path>
    <path fill="#a9aaac"
          d="M7.997 3.082c0.185 0 0.358 0.019 0.517 0.058s0.297 0.103 0.414 0.191c0.117 0.089 0.208 0.204 0.274 0.345s0.098 0.314 0.098 0.518c0 0.194-0.034 0.36-0.101 0.498s-0.16 0.251-0.277 0.34c-0.117 0.088-0.254 0.153-0.412 0.194s-0.329 0.062-0.512 0.062h-0.604v-2.206l0.604-0zM7.839 4.95h0.117c0.122 0 0.237-0.013 0.345-0.040s0.201-0.069 0.28-0.128c0.079-0.059 0.142-0.137 0.188-0.234s0.070-0.216 0.070-0.357c0-0.147-0.023-0.27-0.070-0.368s-0.109-0.176-0.188-0.236c-0.079-0.059-0.172-0.1-0.28-0.123s-0.222-0.035-0.345-0.035h-0.117v1.52z"></path>
    <path fill="#a9aaac" d="M9.716 3.082h0.446v2.206h-0.446v-2.206z"></path>
    <path fill="#a9aaac"
          d="M12.131 3.082h0.402v2.206h-0.563l-0.566-1.081c-0.030-0.055-0.060-0.114-0.090-0.179s-0.061-0.127-0.090-0.19-0.056-0.121-0.081-0.175c-0.024-0.055-0.044-0.1-0.058-0.136h-0.006c0.002 0.034 0.004 0.082 0.006 0.144s0.004 0.129 0.005 0.201c0.001 0.072 0.002 0.142 0.003 0.212s0.002 0.128 0.002 0.174v1.030h-0.402v-2.206h0.595l0.556 1.090c0.021 0.040 0.045 0.088 0.073 0.145s0.055 0.116 0.084 0.177c0.028 0.061 0.055 0.121 0.081 0.179s0.046 0.106 0.063 0.144h0.006c-0.002-0.040-0.004-0.094-0.006-0.163s-0.004-0.142-0.006-0.22c-0.002-0.078-0.004-0.155-0.005-0.231s-0.002-0.141-0.002-0.196v-0.926z"></path>
    <path fill="#a9aaac"
          d="M14.78 3.54c-0.068-0.036-0.154-0.065-0.258-0.088s-0.214-0.035-0.328-0.035c-0.118 0-0.225 0.018-0.32 0.054s-0.176 0.086-0.242 0.151c-0.067 0.065-0.118 0.145-0.155 0.24s-0.055 0.2-0.055 0.315c0 0.114 0.017 0.218 0.051 0.312s0.083 0.175 0.148 0.241 0.144 0.118 0.239 0.155c0.095 0.037 0.204 0.055 0.327 0.055 0.046 0 0.092-0.003 0.138-0.008s0.086-0.013 0.122-0.024v-0.547h-0.471v-0.354h0.895v1.185c-0.12 0.042-0.242 0.072-0.367 0.090s-0.25 0.027-0.376 0.027c-0.169 0-0.325-0.026-0.47-0.077s-0.269-0.126-0.374-0.224-0.188-0.217-0.247-0.357c-0.059-0.14-0.088-0.299-0.088-0.476 0-0.171 0.030-0.325 0.088-0.463s0.143-0.256 0.251-0.352c0.108-0.097 0.24-0.171 0.393-0.223s0.327-0.078 0.518-0.078c0.11 0 0.217 0.006 0.321 0.019s0.202 0.035 0.292 0.066l-0.031 0.395z"></path>
    <path fill="#a9aaac" d="M1.131 6.134h0.621v3.073h-0.621v-3.073z"></path>
    <path fill="#a9aaac"
          d="M3.967 7.6c0.041 0.129 0.086 0.277 0.134 0.445s0.090 0.323 0.125 0.467h0.009c0.041-0.144 0.087-0.299 0.136-0.467s0.096-0.316 0.136-0.445l0.493-1.466h0.964v3.073h-0.594v-1.501c0-0.073 0-0.157 0-0.251s0.001-0.191 0.002-0.293c0.001-0.101 0.003-0.202 0.004-0.301s0.004-0.194 0.007-0.282h-0.009c-0.024 0.073-0.048 0.154-0.075 0.242s-0.054 0.176-0.082 0.264c-0.028 0.088-0.054 0.172-0.079 0.251s-0.046 0.147-0.064 0.203l-0.594 1.669h-0.555l-0.572-1.651c-0.012-0.035-0.031-0.094-0.057-0.176s-0.055-0.173-0.086-0.273c-0.031-0.1-0.060-0.197-0.088-0.293s-0.051-0.174-0.068-0.236h-0.009c0.003 0.088 0.005 0.182 0.007 0.282s0.003 0.2 0.004 0.301c0.002 0.101 0.002 0.199 0.002 0.293v1.752h-0.568v-3.073h0.995l0.479 1.466z"></path>
    <path fill="#a9aaac"
          d="M9.492 9.207h-0.674l-0.268-0.709h-1.281l-0.269 0.709h-0.638l1.206-3.073h0.7l1.224 3.073zM8.127 7.314c-0.018-0.047-0.037-0.102-0.057-0.165s-0.040-0.128-0.059-0.194c-0.019-0.066-0.037-0.128-0.055-0.187s-0.031-0.109-0.040-0.15h-0.009c-0.012 0.041-0.027 0.091-0.044 0.15s-0.037 0.121-0.060 0.187c-0.022 0.066-0.043 0.131-0.064 0.194s-0.040 0.118-0.057 0.165l-0.255 0.718h0.955l-0.255-0.718z"></path>
    <path fill="#a9aaac"
          d="M12.253 6.772c-0.094-0.050-0.214-0.091-0.36-0.123s-0.298-0.048-0.457-0.048c-0.165 0-0.313 0.025-0.446 0.075s-0.245 0.12-0.337 0.211c-0.093 0.091-0.165 0.202-0.216 0.334s-0.077 0.278-0.077 0.439c0 0.158 0.024 0.303 0.071 0.435s0.116 0.244 0.205 0.336c0.090 0.092 0.201 0.164 0.334 0.215s0.284 0.077 0.455 0.077c0.065 0 0.129-0.004 0.192-0.011s0.12-0.018 0.17-0.033v-0.762h-0.656v-0.493h1.246v1.651c-0.167 0.059-0.338 0.101-0.511 0.125s-0.348 0.038-0.524 0.038c-0.235 0-0.453-0.036-0.654-0.108s-0.375-0.176-0.522-0.313c-0.147-0.137-0.261-0.302-0.343-0.498s-0.123-0.416-0.123-0.663c0-0.238 0.041-0.453 0.123-0.645s0.199-0.356 0.35-0.491c0.151-0.135 0.334-0.239 0.548-0.31s0.455-0.108 0.722-0.108c0.153 0 0.302 0.009 0.447 0.026s0.281 0.048 0.407 0.092l-0.044 0.55z"></path>
    <path fill="#a9aaac"
          d="M13.050 6.134h1.818v0.515h-1.206v0.736h1.11v0.497h-1.11v0.81h1.22v0.515h-1.832v-3.073h-0z"></path>
</svg>