<?xml version="1.0" encoding="utf-8"?>
<svg xmlns="http://www.w3.org/2000/svg" xmlns:xlink="http://www.w3.org/1999/xlink" id="client-music" width="16"
     height="16" viewBox="0 0 16 16" x="320" y="192">
    <path fill="#7289da"
          d="M14.477 1.728c-3.092 2.093-5.2-0.883-7.191-0.581-1.334 0.202-1.301 1.126-1.301 3.371 0 0.426 0 6.783 0 6.783-0.47-0.221-1.041-0.35-1.657-0.35-1.606 0-2.908 0.879-2.908 1.961 0 1.084 1.302 1.962 2.908 1.962 1.597 0 2.892-0.867 2.907-1.943l0.001-0v-9.268c0 0 0-0.068 0-0.138 1.182-0.479 2.669 1.397 5.386 1.087 2.623-0.299 1.856-2.884 1.856-2.884z"></path>
</svg>