<?xml version="1.0" encoding="utf-8"?>
<svg xmlns="http://www.w3.org/2000/svg" xmlns:xlink="http://www.w3.org/1999/xlink" id="client-on_whisperlist" width="16"
     height="16" viewBox="0 0 16 16" x="448" y="192">
    <path fill="#c90b0e" d="M11.994 8.006c0 2.209-1.791 4-4 4s-4-1.791-4-4c0-2.209 1.791-4 4-4s4 1.791 4 4z"></path>
    <path fill="#000"
          d="M11.418 7.301c-0.001 0.378-0.092 0.75-0.267 1.086-0.582-0.865-1.708-1.455-3.001-1.455-1.42 0-2.637 0.705-3.157 1.712-0.272-0.395-0.419-0.863-0.423-1.343 0-1.544 1.532-2.798 3.424-2.798s3.424 1.254 3.424 2.798v0z"></path>
    <path fill="#000"
          d="M5.079 9.348c0.002-0.301 0.081-0.596 0.23-0.857 0.494 0.684 1.455 1.145 2.553 1.145 1.209 0 2.245-0.557 2.691-1.352 0.229 0.307 0.354 0.68 0.356 1.064 0 1.22-1.305 2.209-2.915 2.209s-2.915-0.99-2.915-2.209z"></path>
</svg>