<?xml version="1.0" encoding="utf-8"?>
<svg xmlns="http://www.w3.org/2000/svg" xmlns:xlink="http://www.w3.org/1999/xlink" id="client-output_muted" width="16"
     height="16" viewBox="0 0 16 16" x="480" y="192">
    <path fill="#000" d="M8.428 5.776v-0.018h-0.104c0.035 0.005 0.070 0.010 0.104 0.018z"></path>
    <path fill="#7289da" d="M14.247 11.263c0.145-0.357 0.266-0.721 0.361-1.093l-0.726 0.726 0.365 0.366z"></path>
    <path fill="#7289da"
          d="M12.054 5.758c-0.023-0.059-0.045-0.119-0.069-0.178-0.318-0.766-0.778-1.446-1.367-2.022-0.212-0.208-0.552-0.204-0.759 0.008s-0.204 0.552 0.008 0.76c0.424 0.415 0.767 0.896 1.022 1.433 0.037 0.077 0.072 0.156 0.105 0.236 0.194 0.463 0.318 0.95 0.371 1.452l0.927-0.928c-0.063-0.258-0.142-0.511-0.237-0.76z"></path>
    <path fill="#7289da"
          d="M14.582 5.758c-0.101-0.38-0.227-0.753-0.381-1.116-0.444-1.052-1.075-1.992-1.875-2.792-0.21-0.21-0.55-0.21-0.76-0s-0.21 0.55-0 0.76c0.701 0.702 1.255 1.527 1.645 2.451 0.097 0.229 0.181 0.461 0.255 0.698 0.010 0.032 0.018 0.065 0.027 0.097 0.043-0.003 0.085-0.006 0.129-0.006 0.408 0 0.789 0.151 1.081 0.422-0.034-0.173-0.076-0.343-0.121-0.513z"></path>
    <path fill="#a9aaac"
          d="M8.428 1.125l-3.525 3.708v6.332l1.339 1.409c0.022-0.025 0.043-0.050 0.067-0.074l1.604-1.609-1.682-1.705c-0.3-0.303-0.466-0.702-0.466-1.125 0-0.424 0.166-0.825 0.47-1.129l0.732-0.732c0.243-0.242 0.554-0.394 0.891-0.442 0.076-0.011 0.154-0.018 0.232-0.018s0.156 0.008 0.233 0.018h0.104v-4.633z"></path>
    <path fill="#a9aaac"
          d="M2.183 4.833c-0.298 0-0.549 0.105-0.752 0.314-0.172 0.176-0.271 0.38-0.298 0.611-0.005 0.044-0.009 0.088-0.009 0.133v4.215c0 0.286 0.102 0.535 0.306 0.743 0.203 0.21 0.454 0.315 0.752 0.315h1.646v-6.332h-1.646z"></path>
    <path fill="#c90709"
          d="M12.364 10.896l2.356 2.363c0.104 0.103 0.156 0.226 0.156 0.369s-0.052 0.263-0.156 0.361l-0.73 0.731c-0.098 0.104-0.22 0.155-0.366 0.155s-0.267-0.052-0.365-0.155l-2.362-2.355-2.363 2.355c-0.099 0.104-0.22 0.155-0.366 0.155s-0.266-0.052-0.365-0.155l-0.731-0.731c-0.104-0.098-0.155-0.219-0.155-0.361s0.052-0.265 0.155-0.369l2.356-2.363-2.431-2.465c-0.104-0.104-0.155-0.227-0.155-0.369s0.051-0.265 0.155-0.369l0.731-0.731c0.099-0.098 0.22-0.148 0.365-0.148s0.267 0.049 0.366 0.148l2.438 2.473 2.362-2.364c0.099-0.098 0.221-0.148 0.365-0.148s0.268 0.049 0.366 0.148l0.73 0.731c0.104 0.104 0.156 0.227 0.156 0.369s-0.052 0.265-0.156 0.369l-2.355 2.355z"></path>
</svg>