<?xml version="1.0" encoding="utf-8"?>
<svg xmlns="http://www.w3.org/2000/svg" xmlns:xlink="http://www.w3.org/1999/xlink" id="client-permission_client"
     width="16" height="16" viewBox="0 0 16 16" x="32" y="224">
    <path fill="#7289da"
          d="M8.671 13.048l0.134-1.416c-0.232-0.39-0.378-0.872-0.378-1.47 0-0.527 0.139-1.023 0.399-1.457-0.039-0.081-0.074-0.165-0.104-0.25-0.095-0.031-0.188-0.066-0.28-0.112-0.022-0.011-0.050-0.027-0.081-0.044-0.258-0.156-0.773-0.547-0.769-0.681 0.002-0.009 0.006-0.018 0.013-0.026 0.498-0.54 0.719-0.708 0.978-1.346l0.083-0.203 0.185-0.095c0.153-0.079 0.356-0.381 0.466-0.882 0.063-0.285 0.076-0.573 0.036-0.79-0.029-0.156-0.077-0.237-0.111-0.261l-0.216-0.151-0.032-0.278c-0.167-1.458-1.002-2.461-2.492-2.461-0 0-0 0-0 0s-0 0-0 0c-1.491 0-2.325 1.003-2.493 2.461l-0.032 0.278-0.216 0.151c-0.035 0.024-0.082 0.106-0.111 0.261-0.040 0.217-0.027 0.505 0.036 0.79 0.111 0.5 0.314 0.803 0.467 0.882l0.185 0.095 0.083 0.203c0.259 0.638 0.481 0.806 0.978 1.346 0.007 0.008 0.010 0.017 0.013 0.026 0.003 0.134-0.512 0.525-0.77 0.681-0.030 0.018-0.058 0.033-0.080 0.044-0.171 0.086-0.345 0.134-0.527 0.186-0.509 0.142-1.085 0.305-1.786 1.371-0.526 0.803-0.768 3.558-0.798 4.974h7.084l0.030-0.422c0.033-0.474 0.067-0.937 0.111-1.404z"></path>
    <path fill="#c90709"
          d="M13.947 7.103c-0.422-0.184-1.027-0.314-1.589-0.314-0.454 0-0.972 0.206-0.972 0.638 0 0.465 0.508 0.649 1.491 1.005 1.265 0.454 1.675 0.962 1.675 1.816 0 0.573-0.303 1.103-0.789 1.394 0.443 0.313 0.638 0.757 0.638 1.243 0 1.254-1.081 1.989-2.507 1.989-0.703 0-1.46-0.129-2.087-0.335 0.033-0.465 0.065-0.919 0.108-1.373 0.497 0.227 1.286 0.411 1.816 0.411 0.595 0 1.070-0.15 1.070-0.616s-0.529-0.616-1.524-1.005c-1.167-0.443-1.6-0.951-1.6-1.794 0-0.552 0.271-1.059 0.8-1.394-0.454-0.335-0.67-0.745-0.67-1.275 0-1.254 1.146-1.935 2.497-1.935 0.605 0 1.264 0.097 1.805 0.227l-0.162 1.319zM11.376 9.276c-0.217 0.173-0.336 0.432-0.336 0.659 0 0.595 0.832 0.833 1.805 1.2 0.217-0.151 0.336-0.378 0.336-0.627 0-0.411-0.206-0.605-1.113-0.962-0.227-0.086-0.465-0.174-0.691-0.27z"></path>
</svg>