<?xml version="1.0" encoding="utf-8"?>
<svg xmlns="http://www.w3.org/2000/svg" xmlns:xlink="http://www.w3.org/1999/xlink" id="client-permission_server_groups"
     width="16" height="16" viewBox="0 0 16 16" x="96" y="224">
    <path fill="#fff"
          d="M12.813 1.125h-3.832l-0.060 0.488-0.103 0.84-0.34 2.769-0.020 0.153c0.671 0.603 1.128 1.442 1.128 2.673 0 0.771-0.248 1.514-0.686 2.125 0.288 0.493 0.444 1.058 0.46 1.668 0.001 0.033 0.003 0.065 0.003 0.098 0 0.078-0.002 0.154-0.006 0.23h3.456c0.587 0 1.063-0.476 1.063-1.063v-8.919c0-0.587-0.476-1.063-1.063-1.063z"></path>
    <path fill="#e6e6e6"
          d="M11.402 13.801v-1.756h-1.074v1.757c0 0-1.217 0-1.414 0-0.213 0.403-0.498 0.764-0.845 1.074h6.806v-1.074l-3.473-0z"></path>
    <path fill="#7289da"
          d="M12.813 1.125h-3.832l-0.060 0.488-0.103 0.84h3.518c0.138 0 0.25 0.112 0.25 0.25v1.43c0 0.138-0.112 0.25-0.25 0.25h-3.756l-0.103 0.839-0.020 0.153c0.671 0.603 1.128 1.441 1.128 2.673 0 0.771-0.248 1.514-0.686 2.125 0.288 0.493 0.444 1.058 0.46 1.668 0.001 0.033 0.003 0.065 0.003 0.098 0 0.078-0.002 0.154-0.006 0.23h3.456c0.587 0 1.063-0.476 1.063-1.063v-8.919c0-0.587-0.476-1.063-1.063-1.063z"></path>
    <path fill="#c90709"
          d="M7.441 3.407c-0.623-0.272-1.52-0.463-2.35-0.463-0.671 0-1.439 0.304-1.439 0.941 0 0.686 0.751 0.958 2.206 1.484 1.87 0.67 2.478 1.421 2.478 2.68 0 0.846-0.448 1.628-1.167 2.058 0.656 0.462 0.944 1.117 0.944 1.833 0 1.852-1.599 2.936-3.71 2.936-1.040 0-2.158-0.19-3.086-0.493 0.049-0.686 0.097-1.356 0.16-2.027 0.736 0.335 1.903 0.608 2.686 0.608 0.88 0 1.584-0.223 1.584-0.911 0-0.685-0.784-0.908-2.255-1.483-1.727-0.653-2.367-1.403-2.367-2.647 0-0.814 0.4-1.563 1.183-2.058-0.672-0.495-0.992-1.101-0.992-1.883 0-1.849 1.695-2.855 3.693-2.855 0.896 0 1.872 0.143 2.67 0.336l-0.239 1.946zM3.635 6.613c-0.32 0.255-0.496 0.638-0.496 0.973 0 0.878 1.231 1.228 2.671 1.771 0.317-0.223 0.494-0.56 0.494-0.925 0-0.607-0.303-0.893-1.646-1.42-0.335-0.127-0.687-0.255-1.023-0.398z"></path>
</svg>