<?xml version="1.0" encoding="utf-8"?>
<svg xmlns="http://www.w3.org/2000/svg" xmlns:xlink="http://www.w3.org/1999/xlink" id="client-player_off" width="16"
     height="16" viewBox="0 0 16 16" x="480" y="224">
    <path fill="#002f5d"
          d="M8 14.562c-3.619 0-6.563-2.944-6.563-6.562s2.944-6.562 6.563-6.562c3.619 0 6.563 2.944 6.563 6.562s-2.944 6.562-6.563 6.562z"></path>
    <path fill="#002f5d"
          d="M8 1.75c3.446 0 6.25 2.804 6.25 6.25s-2.804 6.25-6.25 6.25c-3.446 0-6.25-2.804-6.25-6.25s2.804-6.25 6.25-6.25zM8 1.125c-3.797 0-6.875 3.078-6.875 6.875s3.078 6.875 6.875 6.875c3.797 0 6.875-3.078 6.875-6.875s-3.078-6.875-6.875-6.875z"></path>
    <path fill="#000"
          d="M13.415 6.195c0 2.441-2.424 4.418-5.415 4.418s-5.414-1.977-5.414-4.418c0-2.439 2.423-4.418 5.414-4.418s5.415 1.979 5.415 4.418z"></path>
    <path fill="#000"
          d="M2.648 9.855c0-2.413 2.395-4.367 5.352-4.367s5.352 1.955 5.352 4.367c0 2.412-2.396 4.368-5.352 4.368s-5.352-1.956-5.352-4.368z"></path>
</svg>