<?xml version="1.0" encoding="utf-8"?>
<svg xmlns="http://www.w3.org/2000/svg" xmlns:xlink="http://www.w3.org/1999/xlink" id="client-player_whisper" width="16"
     height="16" viewBox="0 0 16 16" x="32" y="256">
    <path fill="#c90b0e"
          d="M14.875 8c0 3.797-3.078 6.875-6.875 6.875s-6.875-3.078-6.875-6.875c0-3.797 3.078-6.875 6.875-6.875s6.875 3.078 6.875 6.875z"></path>
    <path fill="#000"
          d="M13.885 6.789c-0.002 0.65-0.159 1.29-0.459 1.866-1-1.486-2.936-2.5-5.159-2.5-2.44 0-4.532 1.213-5.426 2.942-0.468-0.679-0.721-1.484-0.726-2.309 0-2.654 2.634-4.809 5.885-4.809s5.885 2.155 5.885 4.809z"></path>
    <path fill="#000"
          d="M2.99 10.308c0.003-0.517 0.139-1.024 0.395-1.474 0.849 1.176 2.5 1.969 4.388 1.969 2.078 0 3.859-0.957 4.625-2.324 0.394 0.528 0.609 1.169 0.613 1.829 0 2.096-2.242 3.798-5.010 3.798s-5.010-1.701-5.010-3.798z"></path>
</svg>