<?xml version="1.0" encoding="utf-8"?>
<svg xmlns="http://www.w3.org/2000/svg" xmlns:xlink="http://www.w3.org/1999/xlink" id="client-plugins" width="16"
     height="16" viewBox="0 0 16 16" x="64" y="256">
    <path fill="#a9aaac"
          d="M14.247 14.876c-0.087 0-0.175-0.018-0.259-0.056-5.147-2.345-9.869-0.699-11.42-0.158-0.611 0.213-1.052 0.367-1.341-0.094-0.105-0.168-0.222-0.508 0.18-0.91 0.795-0.795 3.623-3.572 3.623-3.572l0.88 0.888c0 0-1.782 1.742-2 1.96 2.386-0.634 6.339-1.19 10.597 0.75 0.314 0.143 0.453 0.514 0.31 0.828-0.105 0.23-0.332 0.366-0.569 0.366z"></path>
    <path fill="#7289da"
          d="M12.381 7.814l-4.198-4.197c-0.362-0.362-0.949-0.362-1.311-0l-2.073 3.122c-0.362 0.362-0.362 0.949 0 1.311l3.149 3.149c0.362 0.361 0.95 0.361 1.312 0l3.122-2.074c0.362-0.362 0.361-0.95-0-1.311z"></path>
    <path fill="#a9aaac"
          d="M12.325 2.32c0.27-0.27 0.27-0.708 0-0.978l-0.015-0.015c-0.27-0.27-0.707-0.27-0.977 0l-1.803 1.803 0.993 0.993 1.803-1.803z"></path>
    <path fill="#a9aaac"
          d="M14.671 4.666c0.27-0.27 0.27-0.708 0-0.978l-0.015-0.015c-0.27-0.27-0.707-0.27-0.978 0l-1.803 1.803 0.993 0.993 1.803-1.804z"></path>
</svg>