<?xml version="1.0" encoding="utf-8"?>
<svg xmlns="http://www.w3.org/2000/svg" xmlns:xlink="http://www.w3.org/1999/xlink" id="client-poke" width="16"
     height="16" viewBox="0 0 16 16" x="96" y="256">
    <path fill="#c90709"
          d="M8 1.125l1.674 2.833 3.187-0.819-0.819 3.187 2.833 1.674-2.833 1.674 0.819 3.187-3.187-0.819-1.674 2.833-1.674-2.833-3.187 0.819 0.819-3.187-2.833-1.674 2.833-1.674-0.819-3.187 3.187 0.819 1.674-2.833z"></path>
    <path fill="#fff"
          d="M7.187 5.26c0-0.108 0.039-0.199 0.112-0.272 0.073-0.075 0.164-0.113 0.272-0.113h0.859c0.107 0 0.198 0.038 0.272 0.114 0.073 0.077 0.11 0.167 0.11 0.271v2.807c0 0.108-0.037 0.199-0.11 0.273-0.074 0.075-0.165 0.113-0.272 0.113h-0.859c-0.108 0-0.199-0.037-0.272-0.113-0.073-0.074-0.112-0.165-0.112-0.273v-2.807h0z"></path>
    <path fill="#fff"
          d="M7.187 9.913c0-0.109 0.039-0.2 0.112-0.274s0.164-0.111 0.272-0.111h0.859c0.107 0 0.198 0.038 0.272 0.114 0.073 0.077 0.11 0.168 0.11 0.272v0.826c0 0.108-0.037 0.199-0.11 0.274-0.074 0.075-0.165 0.112-0.272 0.112h-0.859c-0.108 0-0.199-0.036-0.272-0.112s-0.112-0.165-0.112-0.274v-0.826h0z"></path>
</svg>