<?xml version="1.0" encoding="utf-8"?>
<svg xmlns="http://www.w3.org/2000/svg" xmlns:xlink="http://www.w3.org/1999/xlink" id="client-sound-pack" width="16"
     height="16" viewBox="0 0 16 16" x="160" y="288">
    <path fill="#7289da"
          d="M10.831 6.154c-0.146-0.131-0.204-0.276-0.202-0.471 0.007-0.764 0.003-1.529 0-2.293 0-0.208-0.063-0.386-0.271-0.476-0.215-0.094-0.4-0.036-0.564 0.119-0.123 0.116-0.247 0.23-0.375 0.34-0.775 0.676-1.612 1.255-2.558 1.669-0.522 0.229-1.069 0.36-1.64 0.346-0.986-0.025-1.971-0.003-2.957-0.007-0.213 0-0.393 0.080-0.486 0.289-0.042 0.096-0.125 0.122-0.214 0.139-0.775 0.138-1.336 0.834-1.306 1.621-0.014 0.146-0.005 0.294 0.027 0.438 0.133 0.64 0.447 1.133 1.117 1.303 0.199 0.051 0.355 0.102 0.466 0.299 0.099 0.177 0.313 0.171 0.498 0.171 0.98 0.002 1.961 0.001 2.941-0.002 0.257 0 0.513 0.029 0.763 0.087 0.735 0.166 1.393 0.505 2.021 0.909s1.189 0.879 1.739 1.375c0.156 0.141 0.33 0.181 0.525 0.098s0.263-0.247 0.277-0.443c0.005-0.068 0.003-0.137 0.003-0.206 0-0.727 0.002-1.455-0.005-2.182-0.002-0.156 0.049-0.287 0.154-0.382 0.213-0.191 0.388-0.4 0.492-0.67 0.144-0.375 0.211-0.754 0.091-1.148-0.062-0.374-0.258-0.676-0.535-0.923zM9.713 7.080c-0.003 1.075-0.006 2.149-0.009 3.224 0 0.094 0.022 0.214-0.063 0.257-0.076 0.040-0.142-0.069-0.207-0.118-0.777-0.594-1.597-1.111-2.525-1.438-0.207-0.076-0.42-0.138-0.636-0.184-0.145-0.029-0.2-0.107-0.198-0.253 0.004-0.379-0.002-0.758-0.004-1.138 0.031-0.419 0.031-0.419-0.379-0.419-0.923 0-1.846 0-2.769 0-0.074 0.002-0.147-0.003-0.22-0.014-0.198-0.037-0.301-0.166-0.288-0.352s0.132-0.315 0.322-0.32c0.412-0.013 0.824-0.013 1.235-0.013 0.385 0 0.77 0 1.156 0.005 1.027 0.015 1.953-0.309 2.844-0.793 0.563-0.307 1.098-0.664 1.596-1.068 0.080-0.064 0.125-0.031 0.139 0.060 0.003 0.042 0.003 0.083 0 0.125 0.002 0.813 0.004 1.625 0.005 2.438l-0.001 0.001z"></path>
    <path fill="#a9aaac"
          d="M5.983 12.002c-0.104-0.112-0.218-0.215-0.338-0.309-0.184-0.148-0.259-0.333-0.215-0.572 0.041-0.197 0.034-0.402-0.020-0.596-0.067-0.226-0.179-0.312-0.411-0.312l-1.946-0c-0.173 0-0.199 0.035-0.138 0.2 0.298 0.805 0.597 1.61 0.898 2.414 0.094 0.25 0.18 0.298 0.448 0.302 0.554 0.008 1.106-0.042 1.661-0.014 0.234 0.012 0.387-0.175 0.366-0.417-0.020-0.259-0.128-0.504-0.305-0.695z"></path>
    <path fill="#e6e6e6"
          d="M15.692 6.829c-0.008-0.057-0.013-0.114-0.026-0.17-0.23-1.019-0.755-1.854-1.566-2.51-0.11-0.089-0.188-0.084-0.273 0.033-0.134 0.183-0.277 0.358-0.42 0.534-0.067 0.083-0.059 0.144 0.024 0.213 0.622 0.51 1.050 1.144 1.233 1.934 0.086 0.483 0.079 0.978-0.023 1.458-0.163 0.745-0.565 1.341-1.145 1.824-0.15 0.125-0.152 0.174-0.031 0.326s0.235 0.298 0.35 0.448c0.119 0.156 0.168 0.165 0.32 0.039 0.585-0.485 1.036-1.071 1.313-1.781 0.139-0.358 0.213-0.729 0.266-1.113 0.056-0.411 0.049-0.828-0.021-1.237z"></path>
    <path fill="#e6e6e6"
          d="M13.692 6.798c-0.138-0.467-0.432-0.824-0.797-1.13-0.082-0.068-0.165-0.063-0.234 0.023-0.149 0.185-0.296 0.37-0.442 0.556-0.063 0.079-0.063 0.154 0.021 0.219 0.148 0.113 0.262 0.257 0.375 0.402 0.335 0.781 0.248 1.228-0.366 1.846-0.079 0.080-0.079 0.151-0.012 0.235 0.125 0.157 0.248 0.314 0.37 0.473 0.141 0.182 0.194 0.191 0.366 0.037 0.379-0.342 0.646-0.744 0.774-1.252 0.124-0.464 0.105-0.955-0.053-1.408v0z"></path>
</svg>