<?xml version="1.0" encoding="utf-8"?>
<svg xmlns="http://www.w3.org/2000/svg" xmlns:xlink="http://www.w3.org/1999/xlink" id="client-subscribe_mode" width="16"
     height="16" viewBox="0 0 16 16" x="224" y="288">
    <path fill="#fefefe"
          d="M3.298 7.849c0.498-1.692 2.172-2.751 3.999-2.537 0.657 0.077 1.303 0.185 1.897 0.502 0.832 0.443 1.417 1.069 1.557 2.037 0.014 1.332-0.793 2.066-1.912 2.505-1.405 0.551-2.806 0.489-4.139-0.256-0.869-0.487-1.393-1.219-1.403-2.251zM4.833 7.699c-0.171 1.324 0.713 2.423 2.053 2.553 1.189 0.115 2.269-0.841 2.357-2.086-0.985 0.403-1.436 0.273-1.981-0.564-0.096-0.655 0.043-1.221 0.697-1.581-1.369-0.678-2.886 0.18-3.126 1.677z"></path>
    <path fill="#7289da"
          d="M10.751 7.853c0.014 1.332-0.792 2.067-1.913 2.505-1.405 0.551-2.807 0.489-4.14-0.256-0.87-0.487-1.399-1.216-1.399-2.252 0.498-1.692 2.172-2.752 4-2.538 0.657 0.077 1.303 0.185 1.898 0.502 0.833 0.443 1.417 1.069 1.558 2.038h2.186c0.006-0.43 0.020-0.861 0.019-1.291 0-1.404-1.034-2.537-2.425-2.559-2.328-0.037-4.657-0.037-6.986 0-1.291 0.018-2.367 1.076-2.42 2.291-0.023 0.517 0.008 1.037 0.014 1.557-0.015 0.612-0.015 1.22-0.020 1.829-0.005 1.599 1.039 2.645 2.655 2.645 1.003 0 2.006 0.037 3.006-0.013 0.548-0.028 0.664 0.215 0.701 0.675 0.067 0.807-0.254 1.453-0.818 2.044 0.073 0.014 0.148 0.021 0.223 0.020 0.087-0.017 0.174-0.039 0.258-0.068 1.205-0.369 2.097-1.136 2.732-2.202 0.179-0.3 0.355-0.448 0.738-0.475 1.406-0.108 2.337-1.162 2.334-2.582 0-0.626-0.011-1.252-0.016-1.878z"></path>
    <path fill="#7289da"
          d="M7.26 7.604c-0.096-0.655 0.043-1.221 0.697-1.581-1.369-0.678-2.886 0.18-3.125 1.677-0.171 1.324 0.713 2.424 2.054 2.553 1.189 0.115 2.27-0.841 2.357-2.086-0.986 0.404-1.437 0.274-1.983-0.563z"></path>
    <path fill="#7289da"
          d="M13.11 1.013h-6.112c-1.213 0-2.199 0.972-2.249 2.188h5.665c1.912 0 3.468 1.576 3.468 3.514v1.692c0.865-0.32 1.484-1.159 1.484-2.145v-2.964c0-1.262-1.010-2.285-2.255-2.285z"></path>
</svg>