<?xml version="1.0" encoding="utf-8"?>
<svg xmlns="http://www.w3.org/2000/svg" xmlns:xlink="http://www.w3.org/1999/xlink" id="client-temp_server_password_add"
     width="16" height="16" viewBox="0 0 16 16" x="256" y="320">
    <path fill="#000" d="M7.999 15.375l-0-0-0 0h0.001z"></path>
    <path fill="#7289da"
          d="M8.088 12.803h-1.518c-0.491 0-0.949-0.193-1.288-0.542-0.332-0.341-0.515-0.789-0.515-1.262v-1.107c0-0.004 0.001-0.009 0.001-0.013-0.634-0.742-1.017-1.704-1.017-2.755 0-2.343 1.906-4.25 4.25-4.25 1.515 0 2.847 0.798 3.6 1.995 0.252 0.088 0.484 0.23 0.678 0.424 0.339 0.339 0.526 0.793 0.526 1.277v1.518h1.042c0.62-1.646 1.030-3.596 1.030-5.877-2.061 0-6.875-1.587-6.875-1.587s-4.814 1.587-6.875 1.587c0 9.247 6.737 13.075 6.873 13.163 0.016-0.011 0.127-0.075 0.309-0.194-0.142-0.261-0.219-0.555-0.219-0.859v-1.518z"></path>
    <path fill="#7289da"
          d="M6.571 8.088h0.984l-1.465-1.040c-0.282-0.2-0.348-0.59-0.148-0.871s0.59-0.348 0.871-0.148l1.275 0.904v-0.363c0-0.484 0.187-0.938 0.527-1.279 0.339-0.339 0.793-0.525 1.277-0.525h0.34c-0.583-0.552-1.369-0.892-2.233-0.892-1.792 0-3.25 1.458-3.25 3.25 0 0.587 0.157 1.138 0.431 1.614 0.036-0.043 0.073-0.085 0.113-0.124 0.34-0.339 0.793-0.526 1.277-0.526z"></path>
    <path fill="#fff"
          d="M8 2.875c-2.344 0-4.25 1.907-4.25 4.25 0 1.050 0.384 2.012 1.017 2.755 0.003-0.423 0.148-0.821 0.413-1.141-0.274-0.476-0.431-1.027-0.431-1.614 0-1.792 1.458-3.25 3.25-3.25 0.864 0 1.65 0.34 2.233 0.892h0.767c0.208 0 0.41 0.037 0.6 0.103-0.753-1.197-2.084-1.995-3.6-1.995z"></path>
    <path fill="#fff"
          d="M6.813 6.029c-0.282-0.2-0.672-0.134-0.871 0.148s-0.134 0.672 0.148 0.871l1.465 1.040h0.534v-1.155l-1.276-0.904z"></path>
    <path fill="#1ca037"
          d="M14.321 11.553h-2.768v2.768c0 0.155-0.053 0.287-0.16 0.393s-0.238 0.16-0.393 0.16h-1.107c-0.156 0-0.287-0.055-0.394-0.164s-0.16-0.24-0.16-0.389v-2.768h-2.768c-0.156 0-0.287-0.055-0.394-0.165s-0.16-0.239-0.16-0.389v-1.107c0-0.156 0.053-0.287 0.16-0.394s0.238-0.16 0.394-0.16h2.768v-2.768c0-0.156 0.053-0.287 0.16-0.394s0.238-0.16 0.394-0.16h1.107c0.156 0 0.287 0.053 0.393 0.16s0.16 0.238 0.16 0.394v2.768h2.768c0.155 0 0.287 0.054 0.393 0.16s0.16 0.238 0.16 0.394v1.107c0 0.15-0.053 0.279-0.16 0.389s-0.238 0.165-0.393 0.165z"></path>
</svg>