<?xml version="1.0" encoding="utf-8"?>
<svg xmlns="http://www.w3.org/2000/svg" xmlns:xlink="http://www.w3.org/1999/xlink" id="client-textformat_foreground"
     width="16" height="16" viewBox="0 0 16 16" x="352" y="320">
    <path d="M15.002 14.875h-3.014l-1.201-3.171h-5.733l-1.202 3.171h-2.855l5.398-13.75h3.131zM8.896 6.404c-0.079-0.21-0.164-0.455-0.257-0.739-0.091-0.282-0.18-0.571-0.264-0.866-0.086-0.297-0.168-0.575-0.247-0.838-0.079-0.261-0.138-0.486-0.178-0.668h-0.038c-0.053 0.183-0.119 0.407-0.197 0.668-0.079 0.263-0.168 0.542-0.266 0.838-0.098 0.295-0.194 0.583-0.285 0.866-0.093 0.284-0.178 0.529-0.257 0.739l-1.143 3.211h4.276z"></path>
</svg>