<?xml version="1.0" encoding="utf-8"?>
<svg xmlns="http://www.w3.org/2000/svg" xmlns:xlink="http://www.w3.org/1999/xlink" id="client-toggle_whisper" width="16"
     height="16" viewBox="0 0 16 16" x="0" y="352">
    <path fill="#c90709"
          d="M11.36 9.094c1.249 0 2.265 1.016 2.265 2.265s-1.016 2.266-2.265 2.266c-1.249 0-2.266-1.016-2.266-2.266s1.016-2.265 2.266-2.265zM11.36 7.844c-1.942 0-3.516 1.574-3.516 3.515s1.574 3.516 3.516 3.516c1.941 0 3.515-1.574 3.515-3.516s-1.574-3.515-3.515-3.515z"></path>
    <path fill="#c90709" d="M13.939 9.664l-4.276 4.275-0.884-0.884 4.276-4.276 0.884 0.884z"></path>
    <path fill="#a9aaac"
          d="M9.327 7.050l-0-5.925-3.497 3.679v6.282l0.799 0.841c-0.022-0.186-0.035-0.376-0.035-0.568-0-1.901 1.119-3.545 2.733-4.309z"></path>
    <path fill="#e6e6e6"
          d="M13.344 6.217c-0.229-0.551-0.56-1.041-0.983-1.455-0.164-0.16-0.38-0.248-0.608-0.248-0.237 0-0.459 0.093-0.622 0.262-0.163 0.166-0.252 0.386-0.249 0.619 0.003 0.232 0.096 0.449 0.261 0.612 0.179 0.175 0.33 0.374 0.453 0.593 0.73 0.036 1.417 0.237 2.025 0.566-0.057-0.326-0.149-0.644-0.277-0.949z"></path>
    <path fill="#a9aaac"
          d="M2.55 5.115c-0.203 0.208-0.304 0.454-0.304 0.739v4.182c0 0.284 0.101 0.531 0.304 0.737 0.202 0.209 0.45 0.313 0.746 0.313h1.633v-6.282h-1.633c-0.296 0-0.544 0.104-0.746 0.312z"></path>
</svg>