<?xml version="1.0" encoding="utf-8"?>
<svg xmlns="http://www.w3.org/2000/svg" xmlns:xlink="http://www.w3.org/1999/xlink" id="client-token" width="16"
     height="16" viewBox="0 0 16 16" x="32" y="352">
    <path fill="#ccc"
          d="M8.963 9.718l1.254-1.254 4.461 4.461c0.263 0.263 0.263 0.69-0 0.953l-0.301 0.301c-0.263 0.263-0.69 0.263-0.953 0l-4.461-4.461z"></path>
    <path fill="#7289da"
          d="M1.322 5.633c-0.263-0.263-0.263-0.69 0-0.953l2.858-2.858c0.263-0.263 0.689-0.263 0.953 0l4.566 4.566c0.263 0.263 0.263 0.689 0 0.952l-2.858 2.858c-0.263 0.264-0.69 0.264-0.953 0l-4.566-4.566zM5.59 4.776c0.227-0.227 0.227-0.595 0-0.821l-0.527-0.526c-0.227-0.227-0.594-0.227-0.821 0l-1.314 1.314c-0.227 0.227-0.227 0.595 0 0.821l0.526 0.526c0.227 0.227 0.594 0.227 0.821 0l1.314-1.314z"></path>
</svg>