<?xml version="1.0" encoding="utf-8"?>
<svg xmlns="http://www.w3.org/2000/svg" xmlns:xlink="http://www.w3.org/1999/xlink" id="client-virtualserver_edit"
     width="16" height="16" viewBox="0 0 16 16" x="384" y="352">
    <path fill="#e6e6e6"
          d="M6.818 13.801v-1.757h-1.074v1.757h-4.619v1.074h8.121c-0.246-0.33-0.429-0.692-0.547-1.074h-1.881z"></path>
    <path fill="#a9aaac"
          d="M11.188 2.453c0.138 0 0.25 0.112 0.25 0.25v1.43c0 0.138-0.112 0.25-0.25 0.25h-3.609l4.289 4.256c0.285-0.071 0.573-0.108 0.859-0.113v-6.338c0-0.587-0.476-1.063-1.063-1.063h-4.911c0.3 0.402 0.506 0.853 0.614 1.328h3.82z"></path>
    <path fill="#a9aaac"
          d="M8.588 12.169c0.017-0.108 0.037-0.217 0.064-0.325l-4.519-4.485c-0.285 0.071-0.574 0.108-0.86 0.114v3.633c0 0.587 0.476 1.063 1.063 1.063l4.253 0z"></path>
    <path fill="#fff"
          d="M11.438 4.133v-1.43c0-0.138-0.112-0.25-0.25-0.25h-3.82c0.125 0.548 0.122 1.128-0.019 1.701l0.23 0.229h3.609c0.138 0 0.25-0.112 0.25-0.25z"></path>
    <path fill="#7289da"
          d="M11.549 10.084l-5.65-5.606c0.499-0.966 0.421-2.079-0.381-2.875-0.559-0.554-2.686-0.473-2.686-0.473l-0.171 0.517 1.525 0.532c0 0 0.988 0.52-0.27 1.768s-1.699 0.185-1.699 0.185l-0.546-1.503-0.513 0.163c0 0-0.2 2.156 0.396 2.747 0.801 0.795 1.924 0.872 2.897 0.377l5.65 5.607c-0.499 0.966-0.421 2.081 0.38 2.875 0.559 0.555 2.687 0.475 2.687 0.475l0.171-0.517-1.525-0.532c0 0-0.988-0.521 0.27-1.769s1.699-0.185 1.699-0.185l0.546 1.503 0.514-0.163c0 0 0.197-2.156-0.398-2.747-0.801-0.794-1.922-0.872-2.896-0.377z"></path>
</svg>