<?xml version="1.0" encoding="utf-8"?>
<svg xmlns="http://www.w3.org/2000/svg" xmlns:xlink="http://www.w3.org/1999/xlink" id="client-warning_info" width="16"
     height="16" viewBox="0 0 16 16" x="0" y="384">
    <path fill="#7289da"
          d="M8.001 0.178c-4.337 0-7.853 3.516-7.853 7.853s3.516 7.853 7.853 7.853c4.336 0 7.852-3.516 7.852-7.853s-3.516-7.853-7.852-7.853z"></path>
    <path fill="#fff"
          d="M9.571 12.872c0 0.196-0.068 0.362-0.201 0.494-0.135 0.136-0.298 0.203-0.492 0.203h-1.756c-0.195 0-0.359-0.071-0.492-0.207-0.134-0.138-0.2-0.3-0.2-0.49v-4.565c0-0.196 0.067-0.361 0.2-0.495s0.297-0.201 0.492-0.201h1.756c0.194 0 0.357 0.067 0.492 0.201 0.133 0.134 0.201 0.299 0.201 0.495v4.565z"></path>
    <path fill="#fff"
          d="M9.571 4.934c0 0.201-0.068 0.37-0.201 0.506-0.135 0.138-0.298 0.208-0.492 0.208h-1.756c-0.195 0-0.359-0.071-0.492-0.212s-0.2-0.309-0.2-0.501v-1.731c0-0.2 0.067-0.369 0.2-0.505 0.133-0.138 0.297-0.206 0.492-0.206h1.756c0.194 0 0.357 0.067 0.492 0.206 0.133 0.137 0.201 0.305 0.201 0.505v1.731z"></path>
</svg>