<?xml version="1.0" encoding="UTF-8" standalone="no"?><!DOCTYPE svg PUBLIC "-//W3C//DTD SVG 1.1//EN" "http://www.w3.org/Graphics/SVG/1.1/DTD/svg11.dtd"><svg width="100%" height="100%" viewBox="0 0 32 32" version="1.1" xmlns="http://www.w3.org/2000/svg" xmlns:xlink="http://www.w3.org/1999/xlink" xml:space="preserve" xmlns:serif="http://www.serif.com/" style="fill-rule:evenodd;clip-rule:evenodd;stroke-linecap:round;stroke-linejoin:round;stroke-miterlimit:1.5;"><path d="M12.635,1.17l0.087,0.057l0.118,0.08l0.149,0.102l0.177,0.126l0.099,0.071l0.105,0.076l0.111,0.083l0.118,0.088l0.123,0.093l0.129,0.099l0.135,0.105l0.14,0.11l0.145,0.116l0.15,0.122l0.154,0.127l0.159,0.132l0.163,0.138l0.167,0.144l0.171,0.149l0.175,0.155l0.178,0.16l0.181,0.166l0.184,0.171l0.188,0.177l0.189,0.182l0.192,0.188l0.194,0.193l0.196,0.199l0.198,0.204l0.2,0.209l0.201,0.215l0.202,0.221l0.101,0.112l0.101,0.114l0.102,0.114l0.102,0.117l0.102,0.117l0.102,0.119l0.102,0.121l0.103,0.121l0.102,0.123l0.102,0.125l0.103,0.126l0.102,0.127l0.102,0.128l0.102,0.13l0.102,0.131l0.102,0.132l0.101,0.134l0.102,0.135l0.101,0.137l0.101,0.137l0.1,0.14l0.101,0.14l0.1,0.142l0.099,0.143l0.099,0.144l0.099,0.146l0.099,0.147l0.098,0.149l0.097,0.15l0.097,0.151l0.096,0.152l0.096,0.154l0.095,0.155l0.095,0.156l0.094,0.158l0.093,0.159l0.093,0.161l0.092,0.161l0.091,0.163l0.091,0.165l0.089,0.165l0.089,0.167l0.088,0.168l0.087,0.17l0.086,0.171l0.085,0.172l0.084,0.174l0.084,0.174l0.082,0.176l0.08,0.175l0.079,0.175l0.077,0.176l0.076,0.175l0.074,0.174l0.072,0.175l0.071,0.175l0.069,0.174l0.068,0.174l0.066,0.174l0.065,0.173l0.064,0.173l0.062,0.173l0.06,0.173l0.059,0.172l0.058,0.171l0.057,0.172l0.055,0.171l0.053,0.17l0.053,0.17l0.051,0.169l0.049,0.169l0.049,0.169l0.047,0.168l0.046,0.167l0.044,0.167l0.044,0.166l0.042,0.165l0.041,0.165l0.04,0.164l0.038,0.164l0.038,0.163l0.036,0.162l0.036,0.161l0.034,0.16l0.033,0.16l0.032,0.159l0.031,0.158l0.03,0.157l0.029,0.157l0.028,0.155l0.027,0.154l0.026,0.154l0.025,0.153l0.024,0.151l0.023,0.151l0.022,0.149l0.042,0.296l0.038,0.292l0.035,0.287l0.031,0.283l0.029,0.277l0.026,0.273l0.022,0.268l0.021,0.262l0.017,0.256l0.015,0.252l0.013,0.245l0.01,0.239l0.009,0.233l0.006,0.227l0.005,0.22l0.003,0.214l0.001,0.207l0,0.2l-0.002,0.193l-0.002,0.186l-0.004,0.178l-0.005,0.17l-0.005,0.163l-0.007,0.155l-0.007,0.146l-0.007,0.139l-0.008,0.13l-0.008,0.121l-0.015,0.216l-0.016,0.18l-0.013,0.142l-0.011,0.104l-0.01,0.084l-19.452,-6.855l7.081,-19.362l0.071,0.046Zm-5.865,18.709l17.264,6.084l0.003,-0.077l0.006,-0.156l0.004,-0.164l0.004,-0.171l0.002,-0.179l0.002,-0.186l0,-0.193l-0.001,-0.2l-0.003,-0.206l-0.004,-0.213l-0.007,-0.22l-0.008,-0.225l-0.01,-0.231l-0.012,-0.238l-0.015,-0.243l-0.017,-0.248l-0.019,-0.254l-0.022,-0.259l-0.025,-0.264l-0.028,-0.268l-0.031,-0.274l-0.033,-0.278l-0.037,-0.282l-0.041,-0.288l-0.021,-0.143l-0.023,-0.146l-0.023,-0.146l-0.024,-0.148l-0.025,-0.148l-0.026,-0.15l-0.027,-0.15l-0.028,-0.151l-0.029,-0.152l-0.03,-0.153l-0.031,-0.154l-0.032,-0.154l-0.033,-0.155l-0.034,-0.156l-0.035,-0.156l-0.036,-0.158l-0.038,-0.158l-0.038,-0.158l-0.04,-0.159l-0.041,-0.16l-0.041,-0.16l-0.044,-0.161l-0.044,-0.162l-0.045,-0.162l-0.047,-0.162l-0.048,-0.163l-0.049,-0.164l-0.051,-0.164l-0.051,-0.164l-0.053,-0.165l-0.055,-0.165l-0.055,-0.165l-0.057,-0.166l-0.059,-0.167l-0.059,-0.166l-0.061,-0.167l-0.063,-0.167l-0.064,-0.167l-0.065,-0.168l-0.067,-0.167l-0.068,-0.168l-0.07,-0.168l-0.071,-0.168l-0.073,-0.169l-0.074,-0.168l-0.076,-0.169l-0.077,-0.168l-0.079,-0.169l-0.08,-0.168l-0.081,-0.167l-0.082,-0.165l-0.082,-0.165l-0.084,-0.163l-0.085,-0.162l-0.085,-0.16l-0.086,-0.16l-0.087,-0.158l-0.088,-0.157l-0.089,-0.155l-0.089,-0.155l-0.09,-0.153l-0.09,-0.152l-0.091,-0.151l-0.092,-0.149l-0.093,-0.148l-0.092,-0.147l-0.094,-0.146l-0.094,-0.144l-0.094,-0.143l-0.095,-0.142l-0.096,-0.141l-0.095,-0.139l-0.096,-0.138l-0.097,-0.137l-0.097,-0.136l-0.097,-0.134l-0.097,-0.133l-0.098,-0.132l-0.098,-0.13l-0.098,-0.13l-0.098,-0.128l-0.099,-0.126l-0.098,-0.126l-0.099,-0.124l-0.099,-0.123l-0.099,-0.121l-0.099,-0.12l-0.099,-0.119l-0.098,-0.118l-0.099,-0.116l-0.099,-0.115l-0.099,-0.114l-0.098,-0.113l-0.099,-0.111l-0.098,-0.11l-0.097,-0.107l-0.196,-0.215l-0.195,-0.208l-0.193,-0.202l-0.191,-0.198l-0.19,-0.192l-0.188,-0.187l-0.186,-0.182l-0.183,-0.176l-0.181,-0.171l-0.179,-0.166l-0.175,-0.16l-0.172,-0.155l-0.169,-0.15l-0.165,-0.144l-0.162,-0.139l-0.157,-0.133l-0.154,-0.128l-0.149,-0.123l-0.144,-0.117l-0.14,-0.112l-0.135,-0.106l-0.129,-0.1l-0.124,-0.096l-0.062,-0.046l-6.284,17.184Z" style="fill:#ccd7e4;"/><path d="M12.379,1.211c0,0 6.084,3.996 9.616,11.483c3.533,7.488 2.75,14.724 2.75,14.724l-19.262,-6.932l6.896,-19.275Z" style="fill:#ccd7e4;stroke:#ccd7e4;stroke-width:1px;"/><path d="M12.637,0.127l0.099,0.012l0.097,0.022l0.094,0.031l0.091,0.041l0.086,0.049l0.076,0.049l0.096,0.064l0.128,0.085l0.157,0.109l0.185,0.131l0.105,0.075l0.11,0.08l0.116,0.086l0.123,0.092l0.128,0.097l0.134,0.103l0.14,0.109l0.145,0.114l0.15,0.12l0.155,0.126l0.16,0.131l0.165,0.137l0.168,0.143l0.173,0.148l0.177,0.154l0.18,0.16l0.184,0.165l0.187,0.171l0.19,0.177l0.193,0.182l0.196,0.188l0.198,0.194l0.2,0.199l0.203,0.205l0.204,0.211l0.206,0.216l0.207,0.222l0.208,0.226l0.105,0.117l0.105,0.117l0.105,0.119l0.105,0.12l0.105,0.121l0.106,0.123l0.105,0.124l0.106,0.126l0.106,0.127l0.105,0.129l0.106,0.13l0.106,0.131l0.105,0.133l0.106,0.134l0.105,0.135l0.105,0.137l0.105,0.138l0.105,0.14l0.105,0.141l0.104,0.143l0.104,0.144l0.104,0.145l0.103,0.147l0.104,0.148l0.102,0.149l0.103,0.151l0.101,0.152l0.102,0.154l0.101,0.155l0.1,0.157l0.1,0.158l0.099,0.159l0.099,0.161l0.098,0.162l0.098,0.163l0.096,0.165l0.096,0.166l0.096,0.168l0.094,0.169l0.094,0.171l0.093,0.172l0.092,0.173l0.091,0.174l0.091,0.177l0.089,0.177l0.089,0.179l0.087,0.18l0.087,0.182l0.085,0.182l0.083,0.182l0.082,0.182l0.08,0.182l0.079,0.182l0.077,0.181l0.075,0.181l0.073,0.181l0.072,0.181l0.071,0.181l0.068,0.18l0.068,0.18l0.066,0.179l0.064,0.18l0.063,0.178l0.061,0.179l0.06,0.178l0.058,0.177l0.057,0.177l0.056,0.177l0.054,0.176l0.053,0.176l0.051,0.175l0.05,0.174l0.049,0.174l0.048,0.173l0.046,0.173l0.045,0.172l0.044,0.171l0.042,0.17l0.041,0.17l0.04,0.169l0.039,0.168l0.038,0.168l0.036,0.167l0.036,0.166l0.034,0.165l0.033,0.164l0.032,0.163l0.031,0.163l0.03,0.161l0.029,0.161l0.027,0.159l0.027,0.159l0.026,0.158l0.025,0.156l0.024,0.156l0.023,0.156l0.043,0.304l0.039,0.301l0.036,0.297l0.033,0.291l0.03,0.287l0.026,0.282l0.024,0.276l0.021,0.271l0.018,0.265l0.016,0.259l0.013,0.254l0.011,0.247l0.008,0.241l0.007,0.234l0.005,0.228l0.003,0.221l0.001,0.215l0,0.207l-0.001,0.2l-0.003,0.192l-0.004,0.185l-0.005,0.177l-0.006,0.169l-0.006,0.161l-0.007,0.153l-0.008,0.145l-0.008,0.136l-0.008,0.129l-0.017,0.226l-0.016,0.191l-0.014,0.152l-0.013,0.115l-0.01,0.09l-0.017,0.098l-0.026,0.096l-0.036,0.093l-0.044,0.089l-0.054,0.084l-0.061,0.078l-0.069,0.072l-0.076,0.065l-0.081,0.057l-0.087,0.048l-0.092,0.039l-0.095,0.031l-0.097,0.02l-0.099,0.011l-0.099,0.001l-0.1,-0.009l-0.097,-0.019l-0.096,-0.028l-19.452,-6.855l-0.091,-0.037l-0.087,-0.046l-0.083,-0.055l-0.076,-0.063l-0.07,-0.069l-0.063,-0.077l-0.055,-0.082l-0.047,-0.087l-0.037,-0.092l-0.029,-0.094l-0.019,-0.097l-0.009,-0.099l0,-0.099l0.01,-0.098l0.02,-0.097l0.03,-0.094l7.081,-19.362l0.038,-0.092l0.048,-0.087l0.056,-0.082l0.064,-0.077l0.071,-0.069l0.078,-0.062l0.084,-0.054l0.088,-0.045l0.093,-0.037l0.095,-0.027l0.098,-0.017l0.1,-0.008l0.099,0.003Zm-7.154,20.359l19.452,6.855l0.01,-0.084l0.011,-0.104l0.013,-0.142l0.015,-0.18l0.016,-0.216l0.008,-0.122l0.008,-0.13l0.007,-0.138l0.007,-0.147l0.006,-0.155l0.006,-0.163l0.004,-0.17l0.004,-0.179l0.003,-0.185l0.001,-0.193l0,-0.2l-0.001,-0.207l-0.003,-0.214l-0.005,-0.221l-0.006,-0.227l-0.009,-0.233l-0.01,-0.239l-0.013,-0.246l-0.015,-0.251l-0.018,-0.257l-0.02,-0.262l-0.023,-0.268l-0.025,-0.273l-0.029,-0.277l-0.032,-0.283l-0.035,-0.287l-0.038,-0.292l-0.042,-0.296l-0.022,-0.15l-0.023,-0.15l-0.024,-0.152l-0.025,-0.153l-0.026,-0.153l-0.027,-0.155l-0.028,-0.155l-0.029,-0.157l-0.03,-0.157l-0.031,-0.158l-0.032,-0.159l-0.033,-0.16l-0.034,-0.16l-0.036,-0.161l-0.036,-0.163l-0.038,-0.162l-0.038,-0.164l-0.04,-0.164l-0.041,-0.165l-0.042,-0.165l-0.044,-0.167l-0.044,-0.166l-0.046,-0.168l-0.047,-0.168l-0.049,-0.168l-0.05,-0.169l-0.051,-0.17l-0.052,-0.17l-0.054,-0.17l-0.055,-0.171l-0.056,-0.171l-0.058,-0.172l-0.059,-0.172l-0.061,-0.173l-0.062,-0.173l-0.063,-0.173l-0.065,-0.173l-0.066,-0.174l-0.068,-0.174l-0.07,-0.174l-0.07,-0.175l-0.073,-0.174l-0.074,-0.175l-0.075,-0.175l-0.078,-0.176l-0.078,-0.175l-0.081,-0.175l-0.082,-0.176l-0.083,-0.174l-0.084,-0.174l-0.085,-0.172l-0.087,-0.171l-0.087,-0.17l-0.087,-0.168l-0.089,-0.167l-0.09,-0.165l-0.09,-0.165l-0.091,-0.163l-0.092,-0.161l-0.093,-0.161l-0.093,-0.159l-0.094,-0.157l-0.095,-0.157l-0.095,-0.155l-0.096,-0.154l-0.096,-0.152l-0.097,-0.151l-0.098,-0.15l-0.097,-0.148l-0.099,-0.147l-0.099,-0.146l-0.099,-0.145l-0.1,-0.143l-0.099,-0.141l-0.101,-0.141l-0.1,-0.139l-0.101,-0.138l-0.101,-0.136l-0.102,-0.135l-0.101,-0.134l-0.102,-0.132l-0.102,-0.131l-0.102,-0.13l-0.102,-0.128l-0.102,-0.127l-0.103,-0.126l-0.102,-0.124l-0.102,-0.123l-0.102,-0.122l-0.103,-0.12l-0.102,-0.119l-0.102,-0.118l-0.102,-0.116l-0.101,-0.115l-0.102,-0.114l-0.101,-0.112l-0.202,-0.22l-0.201,-0.215l-0.199,-0.209l-0.198,-0.204l-0.196,-0.199l-0.194,-0.193l-0.192,-0.187l-0.19,-0.182l-0.187,-0.177l-0.184,-0.171l-0.181,-0.166l-0.178,-0.16l-0.175,-0.155l-0.17,-0.149l-0.168,-0.143l-0.163,-0.138l-0.159,-0.133l-0.154,-0.127l-0.15,-0.121l-0.145,-0.116l-0.139,-0.11l-0.135,-0.105l-0.129,-0.099l-0.124,-0.093l-0.117,-0.088l-0.112,-0.082l-0.105,-0.077l-0.098,-0.071l-0.177,-0.125l-0.149,-0.102l-0.118,-0.08l-0.087,-0.057l-0.071,-0.046l-7.081,19.362Z" style="fill:#425f80;"/><path d="M24.745,27.418l-1.385,-0.289l-7.628,-11.479l-4.01,-13.186l0.657,-1.253c-1.264,0.222 -2.492,0.611 -3.651,1.158c-7.32,3.454 -10.396,12.337 -6.863,19.824c3.533,7.487 12.345,10.761 19.666,7.307c1.159,-0.547 2.24,-1.247 3.214,-2.082Z" style="fill:#ccd7e4;"/><ellipse cx="27" cy="30.5" rx="4.5" ry="1" style="fill:#be1515;stroke:#be1515;stroke-width:1px;"/><path d="M7.211,3.839c0,0 -2.356,7.897 1.136,15.296c3.491,7.399 10.18,11.029 10.18,11.029" style="fill:none;stroke:#819cbc;stroke-width:1px;"/><path d="M7.211,3.839c0,0 -2.205,7.826 1.286,15.225c3.492,7.399 10.934,10.673 10.934,10.673" style="fill:none;stroke:#819cbc;stroke-width:1px;"/><path d="M7.211,3.839c0,0 -1.451,7.47 2.04,14.869c3.491,7.399 11.084,10.602 11.084,10.602" style="fill:none;stroke:#819cbc;stroke-width:1px;"/><path d="M7.211,3.839c0,0 -1.301,7.399 2.191,14.798c3.491,7.399 11.838,10.246 11.838,10.246" style="fill:none;stroke:#819cbc;stroke-width:1px;"/><path d="M7.211,3.839c0,0 -0.547,7.044 2.944,14.442c3.492,7.399 11.989,10.176 11.989,10.176" style="fill:none;stroke:#819cbc;stroke-width:1px;"/><path d="M12.564,1.124c-1.237,0.208 -2.435,0.584 -3.565,1.117c-7.137,3.368 -10.064,12.181 -6.531,19.668c3.533,7.487 12.196,10.831 19.333,7.463c1.13,-0.533 2.182,-1.219 3.129,-2.041" style="fill:none;stroke:#425f80;stroke-width:2px;"/><path d="M10.537,1.515c-7.242,3.418 -10.247,12.262 -6.712,19.754c3.535,7.492 12.272,10.795 19.514,7.377" style="fill:none;stroke:#425f80;stroke-width:1.5px;"/><path d="M14.5,14.5c3.488,1.434 5.306,1.272 8,5.5c1.469,2.305 4.817,2.901 5,6.5l0,3l-1,0l0,-3c-1.116,-0.597 -1.948,-1.105 -2.887,-1.808l-3.113,-0.692" style="fill:#be1515;stroke:#be1515;stroke-width:1px;"/><path d="M15.391,12.388c2.338,-0.768 0.253,5.328 0.253,5.328" style="fill:none;stroke:#fff;stroke-width:0.5px;"/><path d="M12.564,1.124c0,0 -0.967,7.323 2.565,14.81c3.533,7.487 9.801,11.397 9.801,11.397" style="fill:none;stroke:#425f80;stroke-width:2px;"/><path d="M12.176,27.679l0.84,-0.464l2.208,-7.708l-0.473,-0.821l-5.252,-1.428l-0.841,0.464l-2.207,7.708l0.473,0.821l5.252,1.428Z" style="fill:#be1515;stroke:#fff;stroke-width:0.5px;"/><path d="M14.751,18.686l0.473,0.821l-2.208,7.708l-0.84,0.464l-5.252,-1.428l-0.473,-0.821l2.207,-7.708l0.841,-0.464l5.252,1.428Zm-5.246,-0.29l-1.976,6.902l0.055,0.096l4.463,1.214l0.122,-0.068l1.977,-6.901l-0.056,-0.097l-4.463,-1.213l-0.122,0.067Z" style="fill:#fff;"/><path d="M9.572,16.26l0.064,0.007l0.063,0.011l0.062,0.015l5.252,1.428l0.058,0.017l0.056,0.021l0.055,0.025l0.054,0.027l0.052,0.031l0.05,0.034l0.047,0.037l0.046,0.039l0.043,0.043l0.04,0.044l0.037,0.047l0.035,0.05l0.032,0.051l0.472,0.821l0.029,0.054l0.026,0.056l0.022,0.058l0.019,0.058l0.015,0.06l0.011,0.061l0.007,0.061l0.004,0.061l0,0.062l-0.004,0.062l-0.008,0.061l-0.011,0.06l-0.015,0.06l-2.208,7.708l-0.018,0.058l-0.022,0.056l-0.025,0.056l-0.029,0.053l-0.031,0.052l-0.035,0.049l-0.038,0.047l-0.04,0.045l-0.044,0.043l-0.045,0.04l-0.048,0.037l-0.051,0.034l-0.052,0.03l-0.84,0.464l-0.057,0.03l-0.059,0.025l-0.06,0.022l-0.062,0.017l-0.063,0.014l-0.063,0.01l-0.064,0.005l-0.064,0.002l-0.064,-0.003l-0.064,-0.007l-0.063,-0.01l-0.063,-0.015l-5.252,-1.428l-0.057,-0.018l-0.057,-0.021l-0.055,-0.024l-0.053,-0.028l-0.052,-0.031l-0.05,-0.033l-0.048,-0.037l-0.045,-0.04l-0.043,-0.042l-0.04,-0.045l-0.038,-0.047l-0.034,-0.049l-0.032,-0.051l-0.473,-0.821l-0.029,-0.055l-0.025,-0.056l-0.022,-0.057l-0.019,-0.059l-0.015,-0.06l-0.011,-0.06l-0.008,-0.061l-0.003,-0.062l0,-0.061l0.004,-0.062l0.007,-0.061l0.012,-0.061l0.015,-0.059l2.207,-7.709l0.019,-0.057l0.021,-0.057l0.026,-0.055l0.028,-0.053l0.032,-0.052l0.035,-0.05l0.038,-0.047l0.04,-0.045l0.043,-0.042l0.046,-0.04l0.048,-0.037l0.05,-0.034l0.052,-0.031l0.841,-0.464l0.057,-0.029l0.059,-0.025l0.06,-0.022l0.062,-0.018l0.062,-0.013l0.064,-0.01l0.064,-0.006l0.064,-0.001l0.064,0.002Zm-0.914,1.462l-2.207,7.708l0.473,0.821l5.252,1.428l0.84,-0.464l2.208,-7.708l-0.473,-0.821l-5.252,-1.428l-0.841,0.464Z"/><path d="M11.941,18.614c1.214,-5.626 3.45,-6.226 3.45,-6.226" style="fill:none;stroke:#fff;stroke-width:0.5px;"/></svg>