<?xml version="1.0" encoding="utf-8"?>
<svg xmlns="http://www.w3.org/2000/svg" xmlns:xlink="http://www.w3.org/1999/xlink" id="client-about" width="16"
     height="16" viewBox="0 0 16 16" x="96" y="0">
    <path fill="#7289da"
          d="M3 1.125c-1.036 0-1.875 0.839-1.875 1.875v10c0 1.036 0.84 1.875 1.875 1.875h10c1.036 0 1.875-0.839 1.875-1.875v-10c0-1.036-0.839-1.875-1.875-1.875h-10zM7.206 2.653h1.588c0.198 0 0.365 0.069 0.501 0.209s0.205 0.31 0.205 0.514v1.552c0 0.204-0.069 0.376-0.205 0.514-0.136 0.141-0.303 0.211-0.501 0.211h-1.588c-0.198 0-0.366-0.072-0.501-0.215s-0.204-0.312-0.204-0.51v-1.552c0-0.204 0.068-0.374 0.204-0.514s0.304-0.209 0.501-0.209zM7.206 7.063h1.588c0.198 0 0.365 0.067 0.501 0.203 0.136 0.135 0.205 0.3 0.205 0.498v5.098c0 0.197-0.069 0.364-0.205 0.497-0.136 0.136-0.303 0.204-0.501 0.204h-1.588c-0.198 0-0.366-0.070-0.501-0.208-0.136-0.139-0.204-0.303-0.204-0.493v-5.098c0-0.197 0.068-0.363 0.204-0.498 0.136-0.136 0.304-0.203 0.501-0.203z"></path>
</svg>