<?xml version="1.0" encoding="utf-8"?>
<svg xmlns="http://www.w3.org/2000/svg" xmlns:xlink="http://www.w3.org/1999/xlink" id="client-activate_microphone"
     width="16" height="16" viewBox="0 0 16 16" x="128" y="0">
    <path fill="#a9aaac"
          d="M1.706 14.29c0.774 0.775 2.029 0.775 2.805 0.002l-2.807-2.807c-0.773 0.775-0.773 2.030 0.002 2.805z"></path>
    <path fill="#a9aaac"
          d="M4.688 10.624l0.835-0.835c0.316-0.316 0.721-0.482 1.171-0.482s0.854 0.167 1.172 0.483l0.563 0.563 0.931-0.929c-0.614-0.242-1.188-0.608-1.684-1.104-0.499-0.499-0.868-1.079-1.109-1.698l-4.103 4.103 2.095 2.095c-0.231-0.291-0.354-0.641-0.354-1.025 0-0.45 0.167-0.855 0.483-1.172z"></path>
    <path fill="#7289da"
          d="M13.459 6.018c0.396 0 0.758 0.13 1.054 0.376 0.647-1.369 0.406-3.057-0.724-4.187-1.438-1.438-3.777-1.438-5.215 0s-1.438 3.777 0 5.215c0.513 0.513 1.14 0.841 1.801 0.989l1.912-1.909c0.312-0.312 0.728-0.484 1.172-0.484z"></path>
    <path fill="#1ca037"
          d="M14.705 8.919l-5.8 5.791c-0.112 0.112-0.278 0.165-0.497 0.159-0.2-0.006-0.353-0.059-0.459-0.159l-2.502-2.502c-0.112-0.112-0.168-0.25-0.168-0.412s0.056-0.3 0.168-0.412l0.834-0.834c0.112-0.112 0.25-0.169 0.412-0.169s0.3 0.056 0.412 0.169l1.321 1.321 4.62-4.61c0.112-0.112 0.25-0.169 0.412-0.169s0.3 0.056 0.412 0.169l0.834 0.824c0.112 0.119 0.169 0.258 0.169 0.417s-0.056 0.298-0.169 0.417z"></path>
</svg>