<?xml version="1.0" encoding="utf-8"?>
<svg xmlns="http://www.w3.org/2000/svg" xmlns:xlink="http://www.w3.org/1999/xlink" id="client-add" width="16"
     height="16" viewBox="0 0 16 16" x="160" y="0">
    <path fill="#1ca037"
          d="M14.715 6.985c-0.182-0.184-0.413-0.279-0.684-0.279h-4.737v-4.737c0-0.269-0.093-0.5-0.277-0.688-0.189-0.187-0.421-0.281-0.691-0.281h-0.648c-0.271 0-0.503 0.094-0.691 0.28-0.186 0.189-0.279 0.421-0.279 0.689v4.737h-4.735c-0.262 0-0.491 0.094-0.683 0.279s-0.288 0.418-0.288 0.691v0.648c0 0.277 0.096 0.509 0.285 0.691 0.181 0.184 0.413 0.278 0.685 0.278h4.736v4.736c0 0.259 0.093 0.489 0.276 0.682 0.193 0.193 0.425 0.289 0.694 0.289h0.648c0.268 0 0.501-0.095 0.69-0.283 0.185-0.189 0.279-0.42 0.279-0.688v-4.736h4.737c0.271 0 0.502-0.094 0.686-0.28 0.187-0.18 0.283-0.413 0.283-0.689v-0.648c0-0.276-0.096-0.509-0.285-0.691z"></path>
</svg>