<?xml version="1.0" encoding="utf-8"?>
<svg xmlns="http://www.w3.org/2000/svg" xmlns:xlink="http://www.w3.org/1999/xlink" id="client-add_folder" width="16"
     height="16" viewBox="0 0 16 16" x="224" y="0">
    <path fill="#7289da"
          d="M13.801 3.864h-5.693v-0.752c0-0.593-0.481-1.074-1.074-1.074h-4.834c-0.593 0-1.074 0.481-1.074 1.074v9.775c0 0.593 0.481 1.074 1.074 1.074h11.602c0.593 0 1.074-0.481 1.074-1.074v-7.949c-0-0.593-0.481-1.074-1.074-1.074z"></path>
    <path fill="#f2f2f2"
          d="M10.734 9.782h-1.953v1.953c0 0.109-0.038 0.203-0.113 0.278s-0.167 0.113-0.277 0.113h-0.781c-0.11 0-0.203-0.039-0.278-0.116s-0.113-0.168-0.113-0.275v-1.953h-1.953c-0.11 0-0.203-0.040-0.278-0.116s-0.113-0.167-0.113-0.274v-0.781c0-0.11 0.038-0.203 0.113-0.278s0.168-0.113 0.278-0.113h1.953v-1.953c0-0.11 0.038-0.203 0.113-0.278s0.168-0.113 0.278-0.113h0.781c0.11 0 0.202 0.038 0.277 0.113s0.113 0.168 0.113 0.278v1.953h1.953c0.109 0 0.203 0.039 0.278 0.113s0.113 0.168 0.113 0.278v0.781c0 0.107-0.038 0.198-0.113 0.274s-0.169 0.116-0.278 0.116z"></path>
</svg>