<?xml version="1.0" encoding="utf-8"?>
<svg xmlns="http://www.w3.org/2000/svg" xmlns:xlink="http://www.w3.org/1999/xlink" id="client-addon" width="16"
     height="16" viewBox="0 0 16 16" x="288" y="0">
    <path fill="#7289da"
          d="M11.98 12.488c0 0.133-0.073 0.11-0.149 0.11-1.006 0-2.011 0.002-3.017-0.003-0.148 0-0.205 0.037-0.195 0.193 0.008 0.125 0.012 0.25 0.031 0.375 0.029 0.21 0.102 0.378 0.291 0.521 0.59 0.444 0.594 1.188 0.015 1.646-0.538 0.428-1.154 0.512-1.803 0.323-0.276-0.081-0.537-0.203-0.743-0.427-0.438-0.475-0.411-1.107 0.087-1.516 0.176-0.145 0.372-0.274 0.444-0.5 0.055-0.171 0.090-0.35 0.058-0.534-0.018-0.106-0.094-0.076-0.156-0.076-0.88 0-1.76-0.004-2.64 0.002-0.141 0-0.181-0.033-0.179-0.178 0.007-0.958 0.006-1.917 0.002-2.875-0.006-0.098 0.040-0.193 0.121-0.25 0.436-0.341 1.099-0.236 1.408 0.227 0.227 0.341 0.539 0.551 0.952 0.488 0.493-0.076 0.819-0.396 1.005-0.851 0.138-0.333 0.189-0.696 0.149-1.055-0.063-0.365-0.19-0.703-0.439-0.986-0.373-0.422-0.981-0.493-1.409-0.201-0.137 0.094-0.235 0.236-0.322 0.38-0.037 0.063-0.097 0.109-0.168 0.128-0.307 0.094-0.617 0.143-0.922 0.016-0.237-0.099-0.385-0.202-0.379-0.536 0.018-0.994 0.012-1.989 0.003-2.984-0.002-0.167 0.049-0.193 0.2-0.192 0.9 0.007 1.801 0 2.701 0.007 0.138 0 0.212-0.050 0.267-0.164 0.166-0.344 0.13-0.691 0.037-1.041-0.018-0.069-0.086-0.087-0.136-0.122-0.261-0.181-0.476-0.397-0.547-0.719-0.087-0.397 0.063-0.719 0.347-0.987 0.642-0.605 1.877-0.607 2.527-0.009 0.557 0.513 0.497 1.231-0.142 1.681-0.386 0.277-0.509 0.803-0.287 1.224 0.054 0.099 0.119 0.138 0.235 0.137 0.869-0.005 1.738 0 2.607-0.004 0.1 0 0.147 0.012 0.147 0.132-0.004 1.393 0 2.785 0 4.178-0.001 0.021-0.003 0.042-0.006 0.063-0.001 1.459-0 2.921 0.007 4.381z"></path>
</svg>