<?xml version="1.0" encoding="utf-8"?>
<svg xmlns="http://www.w3.org/2000/svg" xmlns:xlink="http://www.w3.org/1999/xlink" id="client-addon-collection"
     width="16" height="16" viewBox="0 0 16 16" x="320" y="0">
    <path fill="#1ca037"
          d="M15.918 6.892c-0.088-0.666-0.264-1.317-0.526-1.936-0.451-1.097-1.11-2.054-1.993-2.845-1.985-1.774-4.306-2.447-6.914-1.956-2.367 0.446-4.174 1.758-5.4 3.837-0.874 1.481-1.213 3.091-1.040 4.805 0.006 0.054 0.013 0.108 0.020 0.161 0.145 1.261 0.545 2.435 1.276 3.473 1.86 2.644 4.413 3.857 7.628 3.509 2.352-0.254 4.212-1.424 5.583-3.357 0.321-0.462 0.595-0.956 0.817-1.473 0.325-0.736 0.481-1.518 0.582-2.313 0.091-0.637 0.046-1.273-0.032-1.905zM12.256 8.796c-0.103 0.121-0.234 0.161-0.392 0.161-0.912-0.003-1.823 0-2.734-0.005-0.143 0-0.193 0.028-0.191 0.184 0.007 0.907 0.003 1.814 0.002 2.721 0 0.348-0.124 0.471-0.476 0.471-0.327 0-0.655 0-0.982 0-0.293 0-0.429-0.138-0.43-0.434-0.002-0.923-0.005-1.847 0-2.77 0-0.134-0.032-0.173-0.17-0.172-0.917 0.007-1.833 0-2.75 0.007-0.166 0.002-0.292-0.043-0.396-0.164-0.039-0.102-0.058-0.21-0.055-0.32 0.003-0.339 0.006-0.678-0.002-1.016-0.005-0.226 0.11-0.397 0.384-0.395 0.295 0.002 0.59 0 0.884 0 0.633 0 1.266-0.005 1.901 0.003 0.158 0.002 0.212-0.028 0.21-0.203-0.011-0.902-0.006-1.803-0.006-2.705-0.002-0.054 0.001-0.109 0.008-0.163 0.032-0.201 0.1-0.288 0.302-0.3 0.414-0.028 0.829-0.027 1.242 0.002 0.23 0.017 0.336 0.171 0.336 0.421 0 0.913 0.003 1.825-0.005 2.738-0.002 0.158 0.027 0.213 0.202 0.211 0.9-0.010 1.801-0.005 2.702-0.005 0.345 0 0.471 0.129 0.471 0.476 0 0.306-0.002 0.613 0 0.918 0 0.114-0.019 0.228-0.056 0.336v0z"></path>
</svg>