<?xml version="1.0" encoding="utf-8"?>
<svg xmlns="http://www.w3.org/2000/svg" xmlns:xlink="http://www.w3.org/1999/xlink" id="client-apply" width="16"
     height="16" viewBox="0 0 16 16" x="352" y="0">
    <path fill="#1ca037"
          d="M2.539 8.041c0.169-0.168 0.369-0.255 0.6-0.25 0.228-0.002 0.427 0.082 0.595 0.25l1.924 1.924 6.608-6.608c0.168-0.168 0.366-0.251 0.595-0.253 0.233 0.001 0.432 0.083 0.601 0.251l0.458 0.458c0.169 0.169 0.25 0.37 0.25 0.604-0.006 0.232-0.089 0.431-0.251 0.592 0 0-7.421 7.421-7.534 7.534s-0.352 0.351-0.726 0.351c-0.374 0-0.622-0.247-0.726-0.351s-2.851-2.851-2.851-2.851c-0.168-0.168-0.251-0.367-0.25-0.595-0.004-0.231 0.082-0.431 0.25-0.599l0.458-0.458z"></path>
</svg>