<?xml version="1.0" encoding="utf-8"?>
<svg xmlns="http://www.w3.org/2000/svg" xmlns:xlink="http://www.w3.org/1999/xlink" id="client-arrow_right" width="16"
     height="16" viewBox="0 0 16 16" x="448" y="0">
    <path fill="#7289da"
          d="M8.001 0.178c-4.337 0-7.853 3.516-7.853 7.853s3.516 7.853 7.853 7.853c4.336 0 7.852-3.516 7.852-7.853s-3.516-7.853-7.852-7.853z"></path>
    <path fill="#0f0"
          d="M14.319 9.207c0 0.007-0.001 0.014-0.001 0.022 0 0.006 0.001 0.011 0 0.017-0.002 0.191-0.074 0.357-0.216 0.499l-3.895 3.895c-0.136 0.136-0.301 0.207-0.496 0.213-0.194 0.006-0.36-0.060-0.498-0.198l-1.242-1.242c-0.137-0.137-0.204-0.301-0.201-0.495 0.002-0.19 0.073-0.357 0.216-0.5l1.52-1.52h-7.112c-0.193 0-0.359-0.067-0.501-0.2s-0.212-0.297-0.212-0.492v-1.756c0-0.194 0.069-0.357 0.208-0.492 0.136-0.133 0.305-0.201 0.506-0.201l11.214-0c0.2 0 0.368 0.068 0.505 0.201 0.138 0.135 0.206 0.298 0.206 0.492z"></path>
    <path fill="#fff"
          d="M14.319 9.207c0 0.007-0.001 0.014-0.001 0.022 0 0.006 0.001 0.011 0 0.017-0.002 0.191-0.074 0.357-0.216 0.499l-3.895 3.895c-0.136 0.136-0.301 0.207-0.496 0.213-0.194 0.006-0.36-0.060-0.498-0.198l-1.242-1.242c-0.137-0.137-0.204-0.301-0.201-0.495 0.002-0.19 0.073-0.357 0.216-0.5l1.519-1.52-7.112-0c-0.024 0-0.048-0.001-0.071-0.003-0.17-0.014-0.315-0.081-0.435-0.198-0.099-0.097-0.162-0.208-0.19-0.334-0.006-0.028-0.011-0.056-0.014-0.085-0.002-0.020-0.003-0.041-0.003-0.062-0-0.003-0-0.007-0-0.010 0-0 0-0 0-0.001v-1.755c0-0.004 0-0.007 0-0.011 0-0.021 0.001-0.041 0.003-0.062 0.002-0.023 0.005-0.045 0.010-0.067 0.001-0.006 0.003-0.012 0.004-0.018 0.028-0.126 0.091-0.238 0.19-0.334 0.12-0.117 0.265-0.183 0.435-0.198 0.023-0.002 0.047-0.003 0.071-0.003l7.112-0-1.519-1.52c-0.142-0.142-0.213-0.31-0.216-0.5-0.002-0.193 0.064-0.357 0.201-0.495l1.242-1.242c0.138-0.138 0.304-0.203 0.498-0.198 0.195 0.006 0.36 0.077 0.496 0.213l3.895 3.895c0.141 0.141 0.213 0.308 0.216 0.499 0 0.006-0 0.011-0 0.017 0 0.007 0.001 0.014 0.001 0.022v0z"></path>
</svg>