<?xml version="1.0" encoding="utf-8"?>
<svg xmlns="http://www.w3.org/2000/svg" xmlns:xlink="http://www.w3.org/1999/xlink" id="client-arrow_up" width="16"
     height="16" viewBox="0 0 16 16" x="480" y="0">
    <path fill="#7289da"
          d="M8.001 0.178c-4.337 0-7.853 3.516-7.853 7.853s3.516 7.853 7.853 7.853c4.336 0 7.852-3.516 7.852-7.853s-3.516-7.853-7.852-7.853z"></path>
    <path fill="#0f0"
          d="M7.122 2.010c-0.007 0-0.014 0.001-0.022 0.001-0.006-0-0.011-0.001-0.017-0-0.191 0.002-0.357 0.074-0.499 0.216l-3.895 3.895c-0.136 0.136-0.207 0.301-0.213 0.496-0.006 0.194 0.060 0.36 0.198 0.498l1.242 1.242c0.137 0.137 0.301 0.204 0.495 0.201 0.19-0.002 0.357-0.073 0.5-0.216l1.52-1.52v7.112c0 0.193 0.067 0.359 0.2 0.501s0.297 0.212 0.492 0.212h1.756c0.194 0 0.357-0.069 0.492-0.208 0.133-0.136 0.201-0.305 0.201-0.506l0-6.254v-4.959c0-0.2-0.068-0.368-0.201-0.505-0.135-0.138-0.298-0.206-0.492-0.206h-1.756z"></path>
    <path fill="#fff"
          d="M7.122 2.010c-0.007 0-0.014 0.001-0.022 0.001-0.006-0-0.011-0.001-0.017-0-0.191 0.002-0.357 0.074-0.499 0.216l-3.895 3.895c-0.136 0.136-0.207 0.301-0.213 0.496-0.006 0.194 0.060 0.36 0.198 0.498l1.242 1.242c0.137 0.137 0.301 0.204 0.495 0.201 0.19-0.002 0.357-0.073 0.5-0.216l1.52-1.519v0.857l0 6.254c0 0.024 0.001 0.048 0.003 0.071 0.014 0.17 0.081 0.315 0.198 0.435 0.097 0.099 0.208 0.162 0.334 0.19 0.028 0.006 0.056 0.011 0.085 0.014 0.020 0.002 0.041 0.003 0.062 0.003 0.003 0 0.007 0 0.010 0 0 0 0 0 0.001 0h1.755c0.004 0 0.007-0 0.011-0 0.021-0 0.041-0.001 0.062-0.003 0.023-0.002 0.045-0.005 0.067-0.010 0.006-0.001 0.012-0.003 0.018-0.004 0.126-0.028 0.238-0.091 0.334-0.19 0.117-0.12 0.183-0.265 0.198-0.435 0.002-0.023 0.003-0.047 0.003-0.071l0-6.254v-0.857l1.52 1.519c0.142 0.142 0.31 0.213 0.5 0.216 0.193 0.002 0.357-0.064 0.495-0.201l1.242-1.242c0.138-0.138 0.203-0.304 0.198-0.498-0.006-0.195-0.077-0.36-0.213-0.496l-3.895-3.895c-0.141-0.141-0.308-0.213-0.499-0.216-0.006-0-0.011 0-0.017 0-0.007-0-0.014-0.001-0.022-0.001h-1.757z"></path>
</svg>