<?xml version="1.0" encoding="utf-8"?>
<svg xmlns="http://www.w3.org/2000/svg" xmlns:xlink="http://www.w3.org/1999/xlink" id="client-ban_client" width="16"
     height="16" viewBox="0 0 16 16" x="32" y="32">
    <path fill="#7289da"
          d="M6.235 11.359c0-1.375 0.586-2.615 1.52-3.485-0.117-0.106-0.201-0.202-0.2-0.256 0.002-0.009 0.006-0.018 0.013-0.026 0.498-0.54 0.719-0.708 0.978-1.346l0.083-0.203 0.185-0.095c0.153-0.079 0.356-0.381 0.466-0.882 0.063-0.285 0.076-0.573 0.036-0.79-0.029-0.156-0.077-0.237-0.111-0.261l-0.216-0.151-0.032-0.278c-0.167-1.458-1.002-2.461-2.492-2.461-0 0-0 0-0 0s-0 0-0 0c-1.491 0-2.325 1.003-2.493 2.461l-0.032 0.278-0.216 0.151c-0.035 0.024-0.082 0.106-0.111 0.261-0.040 0.217-0.027 0.505 0.036 0.79 0.111 0.5 0.314 0.803 0.467 0.882l0.185 0.095 0.083 0.203c0.259 0.638 0.481 0.806 0.978 1.346 0.007 0.008 0.010 0.017 0.013 0.026 0.003 0.134-0.512 0.525-0.77 0.681-0.030 0.018-0.058 0.033-0.080 0.044-0.171 0.086-0.345 0.134-0.527 0.186-0.509 0.142-1.085 0.305-1.786 1.371-0.526 0.803-0.768 3.558-0.798 4.975h6.376c-0.953-0.872-1.552-2.125-1.552-3.516z"></path>
    <path fill="#c90709"
          d="M11.089 8.834c1.401 0 2.54 1.14 2.54 2.541s-1.139 2.54-2.54 2.54c-1.401 0-2.54-1.139-2.54-2.54s1.14-2.541 2.54-2.541zM11.089 7.875c-1.933 0-3.5 1.568-3.5 3.5s1.567 3.5 3.5 3.5c1.933 0 3.5-1.567 3.5-3.5s-1.567-3.5-3.5-3.5z"></path>
    <path fill="#c90709" d="M9.091 14.070l-0.708-0.709 4.692-4.692 0.709 0.708-4.693 4.693z"></path>
</svg>