<?xml version="1.0" encoding="utf-8"?>
<svg xmlns="http://www.w3.org/2000/svg" xmlns:xlink="http://www.w3.org/1999/xlink" id="client-ban_list" width="16"
     height="16" viewBox="0 0 16 16" x="64" y="32">
    <path fill="#c90709"
          d="M10.884 7.714c1.748 0 3.169 1.422 3.169 3.17s-1.422 3.17-3.169 3.17c-1.748 0-3.17-1.422-3.17-3.169s1.422-3.17 3.17-3.17zM10.884 6.518c-2.411 0-4.366 1.955-4.366 4.366s1.955 4.366 4.366 4.366c2.411 0 4.366-1.955 4.366-4.366s-1.955-4.366-4.366-4.366z"></path>
    <path fill="#c90709" d="M13.361 7.508l0.884 0.884-5.853 5.853-0.884-0.884 5.853-5.853z"></path>
    <path fill="#a9aaac"
          d="M6.279 14.001h-3.654c-0.345 0-0.625-0.28-0.625-0.625v-10.751c0-0.345 0.28-0.625 0.625-0.625h9.059c0.345 0 0.625 0.28 0.625 0.625 0 0 0 1.933 0 2.883 0.44 0.117 0.859 0.286 1.25 0.502v-3.384c0-1.034-0.841-1.875-1.875-1.875h-9.059c-1.034 0-1.875 0.841-1.875 1.875v10.751c0 1.034 0.841 1.875 1.875 1.875h4.819c-0.449-0.354-0.843-0.776-1.165-1.25z"></path>
    <path fill="#a9aaac"
          d="M10.862 4.125c-0.113-0.115-0.271-0.187-0.445-0.187h-6.896c-0.345 0-0.625 0.28-0.625 0.625 0 0.17 0.068 0.323 0.178 0.436l-0.002 0.002c0.113 0.115 0.271 0.187 0.445 0.187h6.896c0.345 0 0.625-0.28 0.625-0.625 0-0.17-0.068-0.323-0.178-0.436l0.002-0.002z"></path>
    <path fill="#a9aaac"
          d="M2.895 8.001c0 0.345 0.28 0.625 0.625 0.625h2.282c0.201-0.451 0.46-0.871 0.769-1.25h-3.051c-0.345 0-0.625 0.28-0.625 0.625z"></path>
    <path fill="#a9aaac"
          d="M2.895 11.438c0 0.345 0.28 0.625 0.625 0.625h1.928c-0.082-0.38-0.127-0.775-0.127-1.179 0-0.024 0.002-0.047 0.002-0.071h-1.803c-0.345 0-0.625 0.28-0.625 0.625z"></path>
</svg>