<?xml version="1.0" encoding="utf-8"?>
<svg xmlns="http://www.w3.org/2000/svg" xmlns:xlink="http://www.w3.org/1999/xlink" id="client-bookmark_add_folder"
     width="16" height="16" viewBox="0 0 16 16" x="128" y="32">
    <path fill="#7289da"
          d="M9.865 3.408h-1.758v-0.752c0-0.593-0.481-1.074-1.074-1.074h-4.834c-0.593 0-1.074 0.481-1.074 1.074v9.775c0 0.593 0.481 1.074 1.074 1.074h7.666v-10.097z"></path>
    <path fill="#ccc"
          d="M13.801 3.408h-2.686v11.011l1.88-1.858 1.88 1.858v-9.936c0-0.593-0.481-1.074-1.074-1.074z"></path>
    <path fill="#e6e6e6"
          d="M7.961 9.193h-1.758v1.758c0 0.098-0.034 0.183-0.102 0.25s-0.151 0.102-0.25 0.102h-0.703c-0.099 0-0.183-0.036-0.25-0.104s-0.102-0.152-0.102-0.247v-1.758h-1.758c-0.099 0-0.183-0.036-0.25-0.105s-0.102-0.151-0.102-0.247v-0.703c0-0.099 0.034-0.183 0.102-0.25s0.151-0.102 0.25-0.102h1.758v-1.758c0-0.099 0.034-0.183 0.102-0.25s0.151-0.102 0.25-0.102h0.703c0.099 0 0.182 0.034 0.25 0.102s0.102 0.151 0.102 0.25v1.758h1.758c0.098 0 0.183 0.035 0.25 0.102s0.102 0.151 0.102 0.25v0.703c0 0.096-0.034 0.178-0.102 0.247s-0.152 0.105-0.25 0.105z"></path>
</svg>