<svg id="client-change_nickname" x="384" y="32" version="1.1" viewBox="0 0 16 16" xmlns="http://www.w3.org/2000/svg">
 <path d="m3.57 9.56-2.445 5.315 5.316-2.445c-.358-.566-.781-1.103-1.274-1.596s-1.03-.916-1.596-1.274z" fill="#7289da" style="fill:#fffffe"/>
 <path d="m14.875 3.687c0-.297-.104-.547-.313-.749l-1.498-1.501c-.203-.207-.452-.311-.751-.311s-.552.101-.759.302l-7.175 7.174c.447.293.877.624 1.284.992.129.117.256.237.381.362s.245.252.363.382c.369.407.699.836.992 1.284l7.175-7.175c.2-.207.301-.461.301-.76z" fill="#7289da" style="fill:#fffffe"/>
</svg>
