<?xml version="1.0" encoding="utf-8"?>
<svg xmlns="http://www.w3.org/2000/svg" xmlns:xlink="http://www.w3.org/1999/xlink" id="client-bookmark_duplicate"
     width="16" height="16" viewBox="0 0 16 16" x="160" y="32">
    <path fill="#7289da"
          d="M5.814 11.281v-1.094h-1.093c-0.467 0-0.904-0.184-1.228-0.516-0.317-0.324-0.491-0.752-0.491-1.203v-0.937c0-0.461 0.178-0.893 0.502-1.218 0.324-0.323 0.756-0.501 1.217-0.501h1.093v-1.093c0-0.461 0.178-0.894 0.503-1.218 0.286-0.285 0.656-0.457 1.057-0.493v-1.883h-6.25v13.75l3.125-2.233 3.125 2.233v-1.883c-0.405-0.037-0.78-0.213-1.066-0.506-0.318-0.324-0.493-0.752-0.493-1.205z"></path>
    <path fill="#a9aaac"
          d="M8.626 1.125v1.883c0.402 0.035 0.774 0.207 1.061 0.494 0.323 0.324 0.502 0.756 0.502 1.217v1.093h1.094c0.461 0 0.893 0.178 1.217 0.502s0.501 0.756 0.501 1.217v0.937c0 0.452-0.175 0.879-0.49 1.201-0.325 0.334-0.761 0.518-1.229 0.518h-1.094v1.094c0 0.461-0.178 0.893-0.502 1.217-0.287 0.287-0.659 0.459-1.061 0.494v1.883l3.125-2.233 3.125 2.233v-13.75h-6.25z"></path>
    <path fill="#1ca037"
          d="M11.283 8.938h-2.344v2.344c0 0.131-0.045 0.243-0.136 0.333s-0.201 0.136-0.333 0.136h-0.937c-0.132 0-0.243-0.047-0.333-0.139s-0.136-0.203-0.136-0.33v-2.344h-2.344c-0.132 0-0.243-0.047-0.333-0.139s-0.136-0.202-0.136-0.329v-0.937c0-0.132 0.045-0.243 0.135-0.333s0.202-0.136 0.333-0.136h2.344v-2.343c0-0.132 0.045-0.243 0.136-0.333s0.202-0.136 0.334-0.136h0.937c0.132 0 0.243 0.045 0.333 0.135s0.136 0.202 0.136 0.333v2.343h2.344c0.131 0 0.243 0.046 0.333 0.136s0.136 0.202 0.136 0.334v0.937c0 0.128-0.045 0.237-0.136 0.329s-0.202 0.139-0.333 0.139z"></path>
</svg>