<?xml version="1.0" encoding="utf-8"?>
<svg xmlns="http://www.w3.org/2000/svg" xmlns:xlink="http://www.w3.org/1999/xlink" id="client-browse-addon-online"
     width="16" height="16" viewBox="0 0 16 16" x="288" y="32">
    <path fill="#7289da"
          d="M14.578 11.637c0.367-0.636 0.649-1.306 0.806-2.025 0.125-0.573 0.238-1.151 0.209-1.741-0.014-0.276-0.025-0.554-0.047-0.83-0.041-0.463-0.131-0.919-0.268-1.363-0.003-0.026-0.007-0.052-0.014-0.077-0.208-0.675-0.511-1.318-0.9-1.908-0.439-0.68-0.987-1.282-1.623-1.781-1.78-1.391-3.794-1.911-6.021-1.55-1.435 0.233-2.699 0.853-3.783 1.822s-1.844 2.153-2.243 3.558c-0.525 1.845-0.336 3.823 0.531 5.535 1.769 3.443 5.805 5.016 9.421 3.668 0.113-0.042 0.168-0.014 0.242 0.062 0.445 0.46 0.994 0.705 1.63 0.722 0.813 0.021 1.49-0.271 1.993-0.932 0.316-0.414 0.514-0.866 0.508-1.394l-0.002-0.319c-0.029-0.441-0.195-0.829-0.445-1.188-0.031-0.046-0.087-0.082-0.082-0.149 0.046-0.024 0.063-0.071 0.087-0.111zM13.625 10.993c0.107-0.361 0.275-0.702 0.498-1.006 0.053-0.073 0.088-0.169 0.19-0.198 0.011 0.036 0.009 0.075-0.006 0.11-0.124 0.382-0.285 0.752-0.479 1.103-0.034 0.063-0.064 0.123-0.156 0.076-0.046-0.022-0.058-0.047-0.046-0.086zM12.957 4.788c0.031-0.048 0.084-0.040 0.13-0.031 0.104 0.019 0.201 0.065 0.281 0.134-0.105 0.027-0.191 0.052-0.278 0.072-0.052 0.017-0.11-0.006-0.137-0.053-0.023-0.037-0.022-0.085 0.004-0.121zM12.075 5.834c0.058-0.012 0.104-0.058 0.115-0.116 0.034-0.094 0.069-0.187 0.104-0.281 0.038-0.101 0.092-0.122 0.172-0.036 0.094 0.101 0.19 0.199 0.287 0.297 0.118 0.119 0.25 0.159 0.397 0.051 0.051-0.040 0.119-0.051 0.18-0.029 0.048 0.048 0.085 0.111 0.165 0.116 0.064 0.004 0.094 0.043 0.094 0.106 0.005 0.055-0.030 0.106-0.082 0.122-0.111 0.040-0.231 0.044-0.344 0.011-0.082-0.020-0.162-0.053-0.245-0.070s-0.182-0.044-0.241 0.031c-0.083 0.108-0.156 0.082-0.258 0.033-0.109-0.053-0.23-0.079-0.345-0.12-0.035-0.012-0.076-0.025-0.078-0.070-0.004-0.061 0.047-0.039 0.079-0.046zM10.911 5.293c-0.005-0.015-0.003-0.032 0.006-0.045 0.086-0.080 0.164-0.182 0.266-0.232 0.142-0.069 0.219-0.003 0.268 0.171 0.020 0.069 0.013 0.168 0.125 0.176 0.063 0.004 0.095-0.042 0.125-0.085 0.037-0.055-0.059-0.104-0.005-0.169 0.101 0.027 0.176 0.101 0.271 0.164-0.054 0.063-0.146 0.077-0.144 0.178 0 0.059-0.066 0.031-0.103 0.039-0.239 0.051-0.489 0.007-0.725 0.086-0.040 0.013-0.080 0.028-0.12 0.043-0.049 0.022-0.103 0.029-0.156 0.020 0.12-0.084 0.247-0.163 0.193-0.344zM11.518 3.531c-0.009-0.089 0.009-0.17 0.114-0.164 0.099 0.006 0.137 0.082 0.136 0.178-0.002 0.121-0.095 0.106-0.169 0.114-0.105 0.011-0.079-0.069-0.081-0.128zM4.486 3.189c0.043-0.080 0.118-0.122 0.192-0.156 0.137-0.063 0.281-0.112 0.424-0.168 0.055 0.020 0.109 0.042 0.163 0.059 0.067 0.021 0.077 0.068 0.028 0.103-0.201 0.142-0.316 0.387-0.566 0.466-0.059 0.018-0.137 0.083-0.183-0.007s-0.121-0.179-0.058-0.295v-0.001zM5.408 4.158c0.050-0.012 0.099-0.008 0.119 0.047s-0.006 0.082-0.063 0.103c-0.082 0.031-0.159 0.075-0.283 0.136 0.082-0.127 0.093-0.252 0.227-0.285l-0-0.001zM5.556 13.993c-2.237-0.954-3.607-2.621-4.088-5.008-0.055-0.272-0.104-0.55-0.1-0.831 0-0.056-0.020-0.125 0.060-0.143 0.063-0.017 0.131 0.012 0.162 0.070 0.146 0.215 0.333 0.398 0.417 0.661 0.059 0.183 0.236 0.297 0.432 0.344 0.087 0.021 0.121 0.067 0.136 0.15 0.044 0.208 0.045 0.423 0.004 0.632-0.068 0.319 0.022 0.601 0.247 0.835 0.157 0.166 0.303 0.343 0.438 0.528 0.179 0.242 0.384 0.453 0.669 0.573 0.135 0.057 0.234 0.165 0.313 0.287 0.536 0.838 1.168 1.581 2.048 2.081 0.016 0.009 0.027 0.028 0.063 0.066-0.275-0.050-0.544-0.133-0.8-0.245l-0-0.001zM2.172 7.877c-0.193-0.139-0.193-0.14-0.104-0.36 0.020-0.048 0.043-0.096 0.065-0.144 0.079 0.021 0.109 0.087 0.152 0.139s0.074 0.132 0.173 0.11c0.051-0.011 0.048 0.043 0.063 0.074 0.079 0.162 0.167 0.195 0.315 0.104 0.072-0.045 0.157-0.063 0.241-0.052 0.227 0.023 0.454 0.043 0.682 0.059 0.131 0.010 0.206 0.072 0.219 0.204 0.018 0.162 0.070 0.32 0.063 0.486-0.004 0.090-0.031 0.132-0.125 0.1-0.088-0.031-0.179-0.017-0.268-0.018-0.075 0.004-0.148-0.023-0.203-0.075-0.087-0.088-0.206-0.138-0.33-0.138-0.152 0-0.295 0.075-0.382 0.2-0.082 0.113-0.264 0.162-0.38 0.103-0.049-0.025-0.042-0.072-0.043-0.11-0.002-0.127 0-0.254 0.004-0.382 0.009-0.118-0.044-0.233-0.141-0.301v0zM10.211 13.116c-0.018 0.272-0.014 0.544 0.066 0.806 0.034 0.11-0.008 0.143-0.094 0.171-0.848 0.288-1.744 0.407-2.638 0.349-0.074-0.005-0.148-0.018-0.223-0.018-0.116 0-0.213-0.002-0.188-0.171 0.013-0.097-0.094-0.148-0.194-0.091s-0.169 0.031-0.237-0.046c-0.117-0.131-0.268-0.228-0.366-0.377-0.020-0.031-0.059-0.073-0.050-0.094 0.080-0.179 0.008-0.383 0.095-0.561 0.073-0.139 0.078-0.304 0.015-0.448-0.039-0.091-0.039-0.175 0.068-0.208 0.285-0.090 0.379-0.319 0.379-0.581-0.002-0.319 0.078-0.634 0.231-0.914 0.129-0.238 0.058-0.427-0.172-0.571-0.195-0.123-0.406-0.225-0.635-0.243-0.323-0.026-0.559-0.181-0.763-0.412-0.084-0.096-0.167-0.193-0.254-0.287-0.14-0.148-0.327-0.244-0.529-0.271-0.263-0.043-0.313-0.12-0.226-0.365 0.033-0.094 0.031-0.156-0.081-0.175-0.092-0.014-0.119-0.072-0.123-0.156-0.008-0.149-0.031-0.296-0.025-0.446 0.011-0.213-0.066-0.329-0.273-0.386-0.184-0.051-0.373-0.084-0.559-0.127-0.128-0.029-0.224-0.096-0.253-0.234-0.017-0.077-0.065-0.121-0.137-0.079-0.094 0.054-0.16 0.018-0.232-0.035-0.051-0.038-0.105-0.072-0.159-0.107-0.221-0.147-0.257-0.145-0.457 0.023-0.047 0.044-0.106 0.073-0.169 0.084-0.132 0.018-0.252 0.049-0.286 0.206-0.006 0.030-0.032 0.053-0.063 0.053-0.008 0-0.015-0.001-0.022-0.004-0.056-0.015-0.068-0.063-0.069-0.113-0.011-0.251 0.051-0.5 0.177-0.717 0.029-0.051 0.068-0.096 0.094-0.147 0.065-0.125 0.149-0.175 0.278-0.082 0.047 0.033 0.095 0.028 0.15 0.003 0.167-0.074 0.234-0.024 0.219 0.156-0.021 0.236 0.031 0.326 0.242 0.424 0.058 0.027 0.111 0.044 0.159-0.010s0.040-0.103 0.007-0.161c-0.164-0.294-0.017-0.735 0.298-0.883 0.057-0.026 0.109-0.060 0.156-0.101 0.072-0.032 0.134-0.083 0.179-0.147 0.183-0.237 0.335-0.513 0.68-0.558 0.086-0.011 0.141-0.098 0.188-0.165 0.071-0.104 0.154-0.128 0.27-0.097 0.102 0.032 0.212 0.022 0.307-0.027 0.139-0.071 0.293-0.116 0.432-0.188 0.12-0.063 0.274-0.108 0.409-0.091 0.237 0.031 0.306-0.029 0.324-0.272 0.005-0.053 0.014-0.105 0.027-0.156 0.034-0.141 0.046-0.262-0.043-0.406-0.147-0.239 0.003-0.637 0.25-0.76 0.391-0.195 0.393-0.195 0.281-0.62-0.027-0.104-0.025-0.193 0.099-0.224 0.111-0.028 0.221-0.201 0.339-0.010 0.018 0.026 0.045 0.045 0.076 0.053 0.060 0.021 0.148 0.004 0.154 0.105 0.006 0.114 0.034 0.224-0.082 0.318-0.184 0.148-0.231 0.354-0.159 0.576 0.078 0.243 0.32 0.286 0.497 0.107 0.281-0.284 0.634-0.445 1.018-0.527 0.394-0.084 0.598-0.304 0.52-0.656-0.016-0.058 0.006-0.121 0.055-0.156 0.086-0.067 0.064-0.122-0.021-0.17-0.412-0.231-0.836-0.337-1.29-0.125-0.067 0.038-0.152 0.026-0.207-0.028-0.011-0.011-0.023-0.022-0.035-0.031-0.301-0.216-0.271-0.219-0.533-0.034-0.125 0.089-0.248 0.194-0.432 0.17-0.116-0.015-0.152 0.134-0.255 0.192-0.019-0.122-0.077-0.16-0.181-0.086-0.048 0.034-0.102 0.028-0.154 0.015-0.178-0.041-0.364-0.025-0.531 0.048-0.245 0.099-0.51 0.154-0.729 0.313-0.048 0.035-0.097 0.035-0.122-0.014s0.024-0.063 0.063-0.084c0.745-0.407 1.561-0.669 2.404-0.771 0.469-0.063 0.944-0.074 1.415-0.034 0.716 0.065 1.416 0.246 2.074 0.535 0.203 0.090 0.41 0.176 0.597 0.292s0.344 0.264 0.521 0.402c-0.040 0.063-0.088 0.046-0.139 0.033-0.154-0.039-0.309-0.078-0.464-0.113-0.221-0.049-0.366 0.037-0.422 0.25-0.040 0.158-0.088 0.314-0.144 0.467-0.063 0.165 0.108 0.291 0.207 0.417 0.022 0.028 0.065 0.039 0.088 0.066 0.066 0.077 0.106 0.16 0.024 0.255s-0.166 0.099-0.26 0.014c-0.109-0.1-0.23-0.188-0.283-0.338-0.025-0.069-0.089-0.103-0.149-0.138-0.102-0.059-0.178-0.033-0.208 0.080-0.027 0.109-0.093 0.204-0.185 0.268-0.082 0.058-0.111 0.262-0.058 0.352 0.063 0.106 0.153 0.072 0.24 0.045 0.074-0.023 0.117-0.012 0.134 0.077 0.033 0.168 0.107 0.31 0.281 0.378 0.065 0.025 0.080 0.082 0.056 0.145-0.028 0.072-0.087 0.077-0.144 0.050-0.077-0.037-0.154-0.033-0.233-0.023-0.056 0.008-0.118 0.035-0.121 0.089-0.012 0.219-0.088 0.435 0.003 0.656 0.050 0.122 0.141 0.173 0.25 0.216-0.002 0.055-0.042 0.084-0.078 0.115-0.129 0.111-0.252 0.219-0.291 0.403-0.023 0.11-0.137 0.168-0.235 0.227-0.363 0.219-0.625 0.844-0.527 1.253 0.019 0.083 0.002 0.171-0.046 0.242-0.127 0.211-0.098 0.413 0.022 0.616 0.205 0.355 0.5 0.65 0.855 0.855 0.062 0.037 0.136 0.050 0.207 0.036 0.246-0.035 0.495-0.046 0.742-0.072 0.073-0.013 0.144-0.031 0.214-0.056 0.086-0.023 0.182-0.034 0.234 0.042 0.065 0.095 0.145 0.125 0.252 0.137 0.119 0.012 0.179 0.086 0.117 0.2-0.12 0.219-0.094 0.42 0.009 0.637 0.106 0.228 0.065 0.469 0 0.703-0.035 0.061-0.104 0.070-0.159 0.1-0.795 0.426-1.262 1.070-1.347 1.976zM12.642 14.988c-0.936 0-1.706-0.77-1.706-1.706s0.77-1.706 1.706-1.706c0.935 0 1.705 0.769 1.706 1.705 0 0 0 0.001 0 0.001 0 0.936-0.77 1.706-1.706 1.706 0 0 0 0-0-0z"></path>
    <path fill="#fff"
          d="M12.888 12.898c-0.053 0-0.063-0.016-0.061-0.063 0.002-0.276 0.002-0.551 0-0.827 0-0.076-0.031-0.122-0.102-0.127-0.125-0.008-0.25-0.008-0.375-0-0.061 0.004-0.081 0.031-0.091 0.091-0.002 0.016-0.003 0.033-0.002 0.049 0 0.272 0 0.545 0.002 0.817 0 0.053-0.016 0.063-0.063 0.063-0.191-0.003-0.383-0-0.574-0-0.089 0-0.178 0-0.268 0-0.083-0-0.117 0.052-0.116 0.119 0.002 0.102 0 0.205 0 0.307-0.001 0.033 0.005 0.066 0.017 0.097 0.031 0.033 0.075 0.050 0.12 0.045 0.277-0.002 0.554 0 0.831-0.002 0.042-0 0.052 0.011 0.052 0.052-0.002 0.279 0 0.557 0 0.836 0 0.089 0.042 0.131 0.13 0.131 0.099 0 0.198 0 0.297 0 0.106-0 0.144-0.037 0.144-0.142 0-0.274 0.002-0.547 0-0.822 0-0.047 0.014-0.056 0.058-0.056 0.276 0.002 0.551 0 0.826 0 0.045 0.003 0.089-0.015 0.118-0.049 0.011-0.033 0.017-0.067 0.017-0.101 0-0.094 0-0.185 0-0.277 0-0.105-0.038-0.144-0.143-0.144-0.273 0.001-0.545-0-0.818 0.003z"></path>
    <path fill="#1ca037"
          d="M15.088 12.941c-0.027-0.205-0.082-0.406-0.162-0.597-0.136-0.335-0.346-0.636-0.616-0.877-0.613-0.547-1.33-0.755-2.136-0.604-0.731 0.137-1.289 0.543-1.668 1.184-0.266 0.446-0.379 0.966-0.321 1.482 0.002 0.017 0.004 0.033 0.006 0.050 0.045 0.389 0.168 0.75 0.394 1.072 0.575 0.815 1.363 1.188 2.356 1.082 0.727-0.078 1.301-0.439 1.725-1.036 0.099-0.143 0.184-0.295 0.253-0.455 0.1-0.227 0.149-0.469 0.18-0.713 0.022-0.196 0.019-0.393-0.011-0.588zM12.931 14.472c0 0.107-0.039 0.145-0.147 0.145-0.101 0-0.202 0-0.303 0-0.091 0-0.133-0.043-0.133-0.134 0-0.285 0-0.57 0-0.854 0-0.041-0.010-0.053-0.053-0.053-0.283 0.002-0.566 0-0.849 0.002-0.046 0.004-0.092-0.015-0.123-0.051-0.012-0.031-0.018-0.065-0.017-0.098 0-0.105 0.002-0.209 0-0.313-0.002-0.069 0.034-0.123 0.118-0.122 0.091 0 0.182 0 0.273 0 0.196 0 0.391-0.002 0.587 0 0.049 0 0.066-0.009 0.065-0.063-0.004-0.278-0.002-0.556-0.002-0.834-0.001-0.017 0-0.034 0.002-0.050 0.010-0.063 0.031-0.089 0.094-0.094 0.128-0.009 0.256-0.009 0.384 0 0.071 0.005 0.104 0.053 0.104 0.13 0 0.281 0 0.563 0 0.844 0 0.049 0.008 0.066 0.063 0.065 0.278-0.003 0.556 0 0.834 0 0.107 0 0.145 0.039 0.145 0.147 0 0.094 0 0.188 0 0.283 0 0.035-0.005 0.070-0.017 0.104-0.030 0.035-0.075 0.053-0.121 0.050-0.281 0-0.563 0-0.844 0-0.044 0-0.059 0.009-0.059 0.057 0.001 0.278-0 0.558-0.001 0.838l-0.002 0.001z"></path>
</svg>