<?xml version="1.0" encoding="utf-8"?>
<svg xmlns="http://www.w3.org/2000/svg" xmlns:xlink="http://www.w3.org/1999/xlink" id="client-capture" width="16"
     height="16" viewBox="0 0 16 16" x="320" y="32">
    <path fill="#a9aaac"
          d="M1.707 14.293c0.775 0.775 2.030 0.776 2.806 0.002l-2.808-2.808c-0.774 0.776-0.773 2.031 0.002 2.806z"></path>
    <path fill="#a9aaac"
          d="M6.57 6.622l-4.105 4.105 2.808 2.808 4.105-4.105c-0.619-0.242-1.199-0.611-1.699-1.11s-0.869-1.079-1.11-1.698z"></path>
    <path fill="#7289da"
          d="M13.796 2.204c-1.439-1.438-3.779-1.438-5.218 0s-1.438 3.779 0 5.217c1.439 1.438 3.779 1.438 5.218 0s1.438-3.779 0-5.218z"></path>
</svg>