<svg id="client-channel_popout" version="1.1" viewBox="0 0 16 16" xmlns="http://www.w3.org/2000/svg">
 <g transform="scale(.66667)">
  <path d="m23.25 9c-.44 0-.87-.11-1.25-.31v5.31c0 .55-.45 1-1 1h-14c-.55 0-1-.45-1-1v-9h8.75l1.68-1.68-.62-.63c-.71-.71-.98-1.74-.7-2.69h-8.61c-1.38 0-2.5 1.12-2.5 2.5v12c0 1.38 1.12 2.5 2.5 2.5h15c1.38 0 2.5-1.12 2.5-2.5v-5.61c-.24.08-.5.11-.75.11z" fill="#a9aaac"/>
 </g>
 <g transform="scale(.66667)">
  <path d="m23.25 0h-5.5c-.303 0-.577.183-.693.463s-.052.603.163.817l2.043 2.043-4.97 4.97c-.391.391-.391 1.023 0 1.414s1.023.391 1.414 0l4.97-4.97 2.043 2.043c.143.144.335.22.53.22.097 0 .194-.019.287-.057.28-.116.463-.39.463-.693v-5.5c0-.414-.336-.75-.75-.75z" fill="#fff"/>
 </g>
 <g transform="scale(.66667)">
  <path d="m18 19v2c0 .55-.45 1-1 1h-14c-.55 0-1-.45-1-1v-13.95c-1.14.23-2 1.24-2 2.45v12c0 1.38 1.12 2.5 2.5 2.5h15c1.38 0 2.5-1.12 2.5-2.5v-2.5z" fill="#7289da"/>
 </g>
</svg>
