<?xml version="1.0" encoding="utf-8"?>
<svg xmlns="http://www.w3.org/2000/svg" xmlns:xlink="http://www.w3.org/1999/xlink" id="client-channel_create_sub"
     width="16" height="16" viewBox="0 0 16 16" x="32" y="64">
    <path fill="#1ca037"
          d="M7.324 6.752h-4.529c-0.922 0-1.67 0.748-1.67 1.67v2.168c0 0.923 0.748 1.67 1.67 1.67h2.471c0.146 0.383 0.295 1.165-0.494 1.86 1.441-0.268 2.118-1.396 2.34-1.86h0.212c0.922 0 1.67-0.748 1.67-1.67v-2.168c0-0.922-0.748-1.67-1.67-1.67z"></path>
    <path fill="#7289da"
          d="M12.559 1.88h-6.279c-1.279 0-2.316 1.037-2.316 2.316v1.482h3.36c1.513 0 2.745 1.231 2.745 2.744v2.168c0 0.475-0.123 0.921-0.337 1.311 1.515-0.559 2.265-1.822 2.533-2.383h0.294c1.279 0 2.316-1.037 2.316-2.316v-3.005c-0-1.279-1.037-2.316-2.316-2.316z"></path>
    <path fill="#fff"
          d="M6.892 10.023h-1.309v1.309c0 0.074-0.025 0.136-0.076 0.186s-0.112 0.076-0.186 0.076h-0.524c-0.074 0-0.136-0.026-0.186-0.078s-0.076-0.113-0.076-0.184v-1.309h-1.309c-0.074 0-0.136-0.026-0.186-0.078s-0.076-0.113-0.076-0.184v-0.524c0-0.074 0.025-0.136 0.076-0.186s0.112-0.076 0.186-0.076h1.309v-1.309c0-0.074 0.025-0.136 0.076-0.186s0.112-0.076 0.186-0.076h0.524c0.074 0 0.136 0.025 0.186 0.076s0.076 0.112 0.076 0.186v1.309h1.309c0.074 0 0.136 0.025 0.186 0.076s0.076 0.113 0.076 0.186v0.524c0 0.071-0.025 0.132-0.076 0.184s-0.112 0.078-0.186 0.078z"></path>
</svg>