<?xml version="1.0" encoding="utf-8"?>
<svg xmlns="http://www.w3.org/2000/svg" xmlns:xlink="http://www.w3.org/1999/xlink" id="client-channel_switch" width="16"
     height="16" viewBox="0 0 16 16" x="352" y="64">
    <path fill="#7289da"
          d="M11.956 1.563h-7.913c-1.612 0-2.918 1.307-2.918 2.918v3.787c0 1.612 1.307 2.918 2.918 2.918h4.317c0.254 0.67 0.515 2.036-0.863 3.249 2.518-0.468 3.701-2.439 4.088-3.249h0.371c1.612 0 2.918-1.306 2.918-2.918v-3.787c0-1.612-1.307-2.918-2.919-2.918z"></path>
    <path fill="#fff"
          d="M12.438 6.474l-4.119-3.36v2.312h-3.982c-0.147 0-0.271 0.051-0.372 0.152s-0.151 0.225-0.151 0.373v1.048c0 0.142 0.050 0.264 0.151 0.368s0.225 0.156 0.372 0.156h3.982v2.31l4.119-3.358z"></path>
</svg>