<?xml version="1.0" encoding="utf-8"?>
<svg xmlns="http://www.w3.org/2000/svg" xmlns:xlink="http://www.w3.org/1999/xlink" id="client-channel_expand_all"
     width="16" height="16" viewBox="0 0 16 16" x="160" y="64">
    <path fill="#7289da"
          d="M7.324 6.752h-4.529c-0.922 0-1.67 0.748-1.67 1.67v2.168c0 0.923 0.748 1.67 1.67 1.67h2.471c0.146 0.383 0.295 1.165-0.494 1.86 1.441-0.268 2.118-1.396 2.34-1.86h0.212c0.922 0 1.67-0.748 1.67-1.67v-2.168c0-0.922-0.748-1.67-1.67-1.67z"></path>
    <path fill="#a9aaac"
          d="M12.559 1.88h-6.279c-1.279 0-2.316 1.037-2.316 2.316v1.482h3.36c1.513 0 2.745 1.231 2.745 2.744v2.168c0 0.475-0.123 0.921-0.337 1.311 1.515-0.559 2.265-1.822 2.533-2.384h0.294c1.279 0 2.316-1.037 2.316-2.316v-3.005c0-1.279-1.037-2.316-2.316-2.316z"></path>
    <path fill="#fff"
          d="M5.063 11.027c-0.087 0-0.175-0.044-0.262-0.131l-1.751-1.775c-0.057-0.057-0.086-0.127-0.086-0.209s0.029-0.151 0.086-0.209l0.209-0.209c0.057-0.057 0.127-0.086 0.209-0.086s0.151 0.029 0.209 0.086l1.383 1.383 1.383-1.383c0.057-0.057 0.127-0.086 0.209-0.086s0.151 0.029 0.209 0.086l0.209 0.209c0.057 0.057 0.086 0.127 0.086 0.209s-0.029 0.151-0.086 0.209l-1.743 1.776c-0.087 0.087-0.175 0.131-0.262 0.131z"></path>
</svg>