<?xml version="1.0" encoding="utf-8"?>
<svg xmlns="http://www.w3.org/2000/svg" xmlns:xlink="http://www.w3.org/1999/xlink" id="client-changelog" width="16"
     height="16" viewBox="0 0 16 16" x="352" y="32">
    <path fill="#a9aaac"
          d="M12.258 2.801c0.501 0 0.909 0.408 0.909 0.909v9.076c0 0.502-0.408 0.909-0.909 0.909h-8.517c-0.502 0-0.909-0.408-0.909-0.909v-9.076c0-0.835 0.408-0.909 0.909-0.909h8.517zM12.258 1.622h-8.517c-1.153 0-2.088 0.935-2.088 2.088v9.076c0 1.153 0.935 2.088 2.088 2.088h8.517c1.153 0 2.088-0.935 2.088-2.088v-9.076c-0-1.153-0.935-2.088-2.088-2.088z"></path>
    <path fill="#7289da"
          d="M10.772 3.105c0 0.14-0.113 0.253-0.253 0.253h-5.037c-0.14 0-0.253-0.114-0.253-0.253v-1.726c0-0.14 0.113-0.253 0.253-0.253h5.037c0.14 0 0.253 0.113 0.253 0.253v1.726z"></path>
    <path fill="#a9aaac"
          d="M11.636 6.031h-7.271c-0.345 0-0.625-0.28-0.625-0.625s0.28-0.625 0.625-0.625h7.271c0.345 0 0.625 0.28 0.625 0.625s-0.28 0.625-0.625 0.625z"></path>
    <path fill="#a9aaac"
          d="M11.636 12.156h-7.271c-0.345 0-0.625-0.28-0.625-0.625s0.28-0.625 0.625-0.625h7.271c0.345 0 0.625 0.28 0.625 0.625s-0.28 0.625-0.625 0.625z"></path>
    <path fill="#a9aaac"
          d="M11.636 9.094h-7.271c-0.345 0-0.625-0.28-0.625-0.625s0.28-0.625 0.625-0.625h7.271c0.345 0 0.625 0.28 0.625 0.625s-0.28 0.625-0.625 0.625z"></path>
</svg>