<?xml version="1.0" encoding="utf-8"?>
<svg id="client-channel_popin" version="1.1" viewBox="0 0 16 16" xmlns="http://www.w3.org/2000/svg">
    <g transform="matrix(.66666 0 0 .66666 0 .00016666)">
        <path d="m23.707.293c-.391-.391-1.023-.391-1.414 0l-4.97 4.97-2.043-2.043c-.214-.215-.537-.279-.817-.163s-.463.39-.463.693v5.5c0 .414.336.75.75.75h5.5c.303 0 .577-.183.693-.463s.052-.603-.163-.817l-2.043-2.043 4.97-4.97c.391-.391.391-1.023 0-1.414z" fill="#fff"/>
    </g>
    <g transform="matrix(.66666 0 0 .66666 0 .00016666)">
        <path d="m18 19v2c0 .55-.45 1-1 1h-14c-.55 0-1-.45-1-1v-13.95c-1.14.23-2 1.24-2 2.45v12c0 1.38 1.12 2.5 2.5 2.5h15c1.38 0 2.5-1.12 2.5-2.5v-2.5z" fill="#ccc"/>
    </g>
    <g transform="matrix(.66666 0 0 .66666 0 .00016666)">
        <path d="m22 6.25v.87l.19.19c.79.79 1.03 1.96.6 2.99-.18.43-.45.79-.79 1.06v2.64c0 .55-.45 1-1 1h-14c-.55 0-1-.45-1-1v-9h6v-1.25c0-1.12.67-2.11 1.7-2.54s2.21-.19 3 .6l.62.62 2.44-2.43h-13.26c-1.38 0-2.5 1.12-2.5 2.5v12c0 1.38 1.12 2.5 2.5 2.5h15c1.38 0 2.5-1.12 2.5-2.5v-10.26z" fill="#7289da"/>
    </g>
</svg>
