<?xml version="1.0" encoding="utf-8"?>
<svg xmlns="http://www.w3.org/2000/svg" xmlns:xlink="http://www.w3.org/1999/xlink" id="client-channel_delete" width="16"
     height="16" viewBox="0 0 16 16" x="96" y="64">
    <path fill="#7289da"
          d="M11.956 1.563h-7.913c-1.612 0-2.918 1.307-2.918 2.919v3.787c0 1.612 1.307 2.918 2.918 2.918h4.317c0.254 0.67 0.515 2.036-0.863 3.249 2.518-0.468 3.701-2.439 4.088-3.249h0.371c1.612 0 2.918-1.306 2.918-2.918v-3.787c0-1.612-1.307-2.918-2.919-2.918z"></path>
    <path fill="#c90709"
          d="M10.865 4.768l-1.588 1.588 1.588 1.588c0.089 0.089 0.134 0.195 0.134 0.318s-0.045 0.228-0.134 0.318l-0.635 0.635c-0.089 0.089-0.196 0.133-0.32 0.132s-0.229-0.045-0.315-0.132l-1.588-1.588-1.588 1.588c-0.089 0.089-0.196 0.133-0.32 0.132s-0.229-0.045-0.315-0.132l-0.635-0.635c-0.089-0.089-0.134-0.195-0.134-0.318s0.045-0.228 0.134-0.318l1.588-1.588-1.588-1.588c-0.089-0.089-0.134-0.195-0.134-0.318s0.045-0.228 0.134-0.317l0.635-0.635c0.089-0.089 0.195-0.134 0.317-0.134s0.228 0.045 0.318 0.134l1.588 1.588 1.588-1.588c0.089-0.089 0.195-0.134 0.318-0.134s0.228 0.045 0.318 0.134l0.635 0.635c0.086 0.086 0.13 0.191 0.132 0.315s-0.042 0.231-0.132 0.32z"></path>
</svg>