<?xml version="1.0" encoding="utf-8"?>
<svg xmlns="http://www.w3.org/2000/svg" xmlns:xlink="http://www.w3.org/1999/xlink" id="client-channel_commander"
     width="16" height="16" viewBox="0 0 16 16" x="480" y="32">
    <path fill="#7289da"
          d="M11.956 1.563h-7.913c-1.612 0-2.918 1.307-2.918 2.918v3.787c0 1.612 1.307 2.918 2.918 2.918h4.317c0.254 0.67 0.515 2.036-0.863 3.249 2.518-0.468 3.701-2.439 4.088-3.249h0.371c1.612 0 2.918-1.306 2.918-2.918v-3.787c0-1.612-1.307-2.918-2.919-2.918z"></path>
    <path fill="#f2e617" d="M7.604 3.542l1.637 2.813-1.637 2.813h1.738l1.637-2.813-1.637-2.813h-1.738z"></path>
    <path fill="#f2e617" d="M10.552 9.167l1.637-2.813-1.637-2.813h1.738l1.637 2.813-1.637 2.813h-1.738z"></path>
    <path fill="#f2e617"
          d="M5 3.542l0.914 1.851 2.043 0.297-1.479 1.441 0.349 2.035-1.828-0.961-1.828 0.961 0.349-2.035-1.478-1.441 2.043-0.297 0.914-1.851z"></path>
</svg>