<?xml version="1.0" encoding="utf-8"?>
<svg xmlns="http://www.w3.org/2000/svg" xmlns:xlink="http://www.w3.org/1999/xlink" id="client-channel_yellow_subscribed"
     width="16" height="16" viewBox="0 0 16 16" x="448" y="64">
    <path fill="#afa201"
          d="M14.875 8.269c0 1.612-1.307 2.918-2.919 2.918h-7.913c-1.612 0-2.918-1.306-2.918-2.918v-3.787c0-1.612 1.307-2.918 2.918-2.918h7.913c1.612 0 2.918 1.307 2.918 2.918v3.787z"></path>
    <path fill="#afa201"
          d="M11.736 10.837c0 0-1.048 3.008-4.238 3.6 1.914-1.686 0.666-3.666 0.666-3.666l3.573 0.066z"></path>
    <path fill="#fff"
          d="M11.109 5.114l-3.896 3.89c-0.075 0.075-0.187 0.111-0.333 0.107-0.134-0.004-0.237-0.040-0.308-0.107l-1.681-1.681c-0.075-0.075-0.113-0.168-0.113-0.277s0.038-0.201 0.113-0.277l0.56-0.56c0.075-0.075 0.168-0.113 0.277-0.113s0.201 0.038 0.277 0.113l0.888 0.888 3.103-3.097c0.075-0.075 0.168-0.113 0.277-0.113s0.201 0.038 0.277 0.113l0.56 0.554c0.075 0.080 0.113 0.173 0.113 0.28s-0.038 0.2-0.113 0.28z"></path>
</svg>