<svg version="1.1" viewBox="0 0 16 16" xmlns="http://www.w3.org/2000/svg">
 <g transform="scale(.03125)">
  <path d="m256 0c-141.16 0-256 114.84-256 256s114.84 256 256 256 256-114.84 256-256-114.84-256-256-256zm0 468.73c-117.3 0-212.73-95.431-212.73-212.73s95.431-212.73 212.73-212.73 212.73 95.431 212.73 212.73-95.431 212.73-212.73 212.73z"/>
 </g>
 <g transform="scale(.03125)">
  <path d="m372.1 248.07h-100.96v-150.89c0-11.948-9.686-21.634-21.634-21.634s-21.634 9.686-21.634 21.634v172.52c0 11.948 9.686 21.634 21.634 21.634.244 0 .48-.029.721-.036.241.009.477.036.721.036h121.15c11.948 0 21.634-9.686 21.634-21.634s-9.686-21.633-21.634-21.633z"/>
 </g>
</svg>
