<svg version="1.1" viewBox="0 0 16 16" xmlns="http://www.w3.org/2000/svg">
 <g transform="translate(0 2.0645)">
  <g transform="matrix(.03125 0 0 .03125 0 -2.0645)">
   <path d="m66.065 313.81c-36.43 0-66.065 29.636-66.065 66.065s29.635 66.065 66.065 66.065 66.065-29.635 66.065-66.065-29.636-66.065-66.065-66.065zm0 99.097c-18.217 0-33.032-14.815-33.032-33.032s14.815-33.032 33.032-33.032 33.032 14.815 33.032 33.032-14.815 33.032-33.032 33.032z"/>
  </g>
  <g transform="matrix(.03125 0 0 .03125 0 -2.0645)">
   <path d="m176.17 126.62c-36.429 0-66.065 29.635-66.065 66.065s29.635 66.065 66.065 66.065 66.065-29.635 66.065-66.065-29.636-66.065-66.065-66.065zm0 99.096c-18.217 0-33.032-14.815-33.032-33.032s14.815-33.032 33.032-33.032 33.032 14.815 33.032 33.032-14.815 33.032-33.032 33.032z"/>
  </g>
  <g transform="matrix(.03125 0 0 .03125 0 -2.0645)">
   <path d="m341.33 286.28c-36.429 0-66.065 29.635-66.065 66.065 0 36.429 29.635 66.065 66.065 66.065s66.065-29.635 66.065-66.065-29.636-66.065-66.065-66.065zm0 99.096c-18.217 0-33.032-14.815-33.032-33.032s14.815-33.032 33.032-33.032 33.032 14.815 33.032 33.032c.001 18.217-14.814 33.032-33.032 33.032z"/>
  </g>
  <g transform="matrix(.03125 0 0 .03125 0 -2.0645)">
   <path d="m445.94 66.065c-36.429 0-66.065 29.635-66.065 66.065s29.635 66.065 66.065 66.065 66.065-29.637 66.065-66.066-29.635-66.064-66.065-66.064zm0 99.096c-18.217 0-33.032-14.815-33.032-33.032s14.815-33.032 33.032-33.032 33.032 14.815 33.032 33.032-14.814 33.032-33.032 33.032z"/>
  </g>
  <g transform="matrix(.03125 0 0 .03125 0 -2.0645)">
   <rect transform="matrix(.5547 -.8321 .8321 .5547 -184.26 228.28)" x="61.58" y="269.76" width="119.1" height="33.034"/>
  </g>
  <g transform="matrix(.03125 0 0 .03125 0 -2.0645)">
   <rect transform="matrix(.6402 -.7682 .7682 .6402 -116.26 296.81)" x="242.21" y="208.02" width="33.032" height="129"/>
  </g>
  <g transform="matrix(.03125 0 0 .03125 0 -2.0645)">
   <rect transform="matrix(.4672 -.8842 .8842 .4672 -2.9392 473.57)" x="319.55" y="222.71" width="143.81" height="33.028"/>
  </g>
 </g>
</svg>
