<svg enable-background="new 0 0 512 512" version="1.1" viewBox="0 0 16 16" xmlns="http://www.w3.org/2000/svg">
 <path d="m13.656 2.3444c-3.1256-3.1256-8.1851-3.1261-11.311 0-3.1257 3.1256-3.1261 8.1851 0 11.311 3.1256 3.1256 8.1851 3.1261 11.311 0 3.1257-3.1256 3.1261-8.1851 0-11.311zm-.33429 10.171c-.3737-.33417-.77344-.62989-1.1948-.88475.27849-.962.44348-2.0206.48248-3.121h2.3515c-.10632 1.4833-.67623 2.8747-1.6392 4.0058zm-12.282-4.0058h2.3515c.039 1.1004.20399 2.159.48249 3.121-.42135.25486-.82108.55058-1.1948.88475-.96297-1.1311-1.5328-2.5225-1.6392-4.0058zm1.6392-5.0252c.3737.33416.77343.62989 1.1948.88475-.27849.96199-.44349 2.0206-.48248 3.121h-2.3515c.10636-1.4832.67623-2.8746 1.6392-4.0058zm4.8116.9901c-.83126-.0594-1.6328-.26419-2.3758-.60195.43214-1.1128 1.2288-2.4475 2.3758-2.7783zm0 1.0213v1.9944h-3.0795c.0353-.93087.16718-1.8247.38653-2.6426.8444.36914 1.7525.58958 2.693.64819zm0 3.0138v1.9944c-.94045.0586-1.8486.27905-2.693.64819-.21935-.81787-.35125-1.7117-.38653-2.6426zm0 3.0157v3.3802c-1.1469-.33076-1.9436-1.6653-2.3758-2.7782.74305-.33776 1.5446-.5425 2.3758-.60195zm1.0194 0c.83126.0595 1.6328.26419 2.3758.60195-.43218 1.1128-1.2288 2.4475-2.3758 2.7782zm0-1.0213v-1.9944h3.0795c-.0353.93087-.16718 1.8247-.38653 2.6426-.84441-.36914-1.7525-.58958-2.693-.64819zm0-3.0138v-1.9944c.94045-.0586 1.8486-.27905 2.693-.64819.21935.81786.35124 1.7117.38653 2.6426zm0-3.0157v-3.3802c1.147.33076 1.9437 1.6654 2.3758 2.7783-.74305.33773-1.5446.54247-2.3758.60192zm2.2894-2.8713c.65244.28571 1.2611.67311 1.8068 1.1538-.25973.229-.53379.43664-.81996.62234-.25414-.62924-.57878-1.2407-.98682-1.7761zm-6.585 1.7761c-.28617-.1857-.5602-.39334-.81995-.62234.54565-.48067 1.1543-.86807 1.8068-1.1538-.40805.53544-.73269 1.1469-.98683 1.7761zm4e-5 9.2412c.2541.62921.57881 1.2407.98682 1.7761-.65244-.28571-1.2611-.67311-1.8068-1.1538.25972-.229.53378-.43665.81996-.62234zm7.5718 0c.28617.18569.56023.39334.81996.62231-.54565.48067-1.1543.86807-1.8068 1.1538.40801-.53531.73268-1.1468.98682-1.7761zm.82314-5.1303c-.039-1.1004-.20399-2.1591-.48248-3.121.42134-.25486.82105-.55059 1.1948-.88475.96296 1.1311 1.5328 2.5225 1.6392 4.0058z" style="stroke-width:.031224"/>
</svg>
