<?xml version="1.0" encoding="utf-8"?>
<svg xmlns="http://www.w3.org/2000/svg" xmlns:xlink="http://www.w3.org/1999/xlink" id="client-close_button" width="16"
     height="16" viewBox="0 0 16 16" x="64" y="96">
    <path fill="#a9aaac"
          d="M13.36 3.125c0.177 0.177 0.268 0.387 0.264 0.631 0.001 0.24-0.087 0.449-0.264 0.626l-3.62 3.62 3.619 3.619c0.177 0.176 0.264 0.386 0.266 0.624-0.001 0.246-0.087 0.456-0.264 0.633l-0.482 0.482c-0.178 0.178-0.389 0.263-0.636 0.263-0.244-0.007-0.453-0.094-0.623-0.264l-3.618-3.619-3.618 3.619c-0.177 0.177-0.387 0.267-0.627 0.265-0.244 0.004-0.454-0.086-0.631-0.264l-0.482-0.482c-0.178-0.178-0.265-0.392-0.261-0.634 0.004-0.246 0.090-0.452 0.262-0.624l3.618-3.619-3.619-3.62c-0.177-0.177-0.265-0.386-0.268-0.627 0.002-0.245 0.090-0.453 0.268-0.63l0.483-0.482c0.177-0.178 0.385-0.266 0.629-0.268 0.24 0.003 0.45 0.091 0.627 0.268l3.619 3.62 3.62-3.62c0.176-0.176 0.386-0.265 0.626-0.263 0.243-0.005 0.453 0.086 0.631 0.264l0.482 0.482z"></path>
</svg>