<?xml version="1.0" encoding="utf-8"?>
<svg xmlns="http://www.w3.org/2000/svg" xmlns:xlink="http://www.w3.org/1999/xlink" id="client-complaint_list" width="16"
     height="16" viewBox="0 0 16 16" x="96" y="96">
    <path fill="#c90709"
          d="M15.139 14.243l-4.27-7.393c-0.115-0.199-0.328-0.322-0.558-0.322s-0.443 0.123-0.558 0.322l-4.293 7.434c-0.115 0.2-0.115 0.445 0 0.644 0.115 0.201 0.328 0.323 0.558 0.323h8.585c0.001-0 0.002-0 0.002 0 0.356 0 0.644-0.288 0.644-0.644 0-0.134-0.042-0.259-0.111-0.364z"></path>
    <path fill="#a9aaac"
          d="M4.225 14.001h-1.6c-0.345 0-0.625-0.28-0.625-0.625v-10.751c0-0.345 0.28-0.625 0.625-0.625h9.059c0.345 0 0.625 0.28 0.625 0.625 0 0 0 2.388 0 4.219l1.25 2.164v-6.383c0-1.034-0.841-1.875-1.875-1.875h-9.059c-1.034 0-1.875 0.841-1.875 1.875v10.751c0 1.034 0.841 1.875 1.875 1.875h1.614c-0.145-0.402-0.151-0.844-0.014-1.25z"></path>
    <path fill="#a9aaac"
          d="M10.862 4.125c-0.113-0.115-0.271-0.187-0.445-0.187h-6.896c-0.345 0-0.625 0.28-0.625 0.625 0 0.17 0.068 0.323 0.178 0.436l-0.002 0.002c0.113 0.115 0.271 0.187 0.445 0.187h6.896c0.345 0 0.625-0.28 0.625-0.625 0-0.17-0.068-0.323-0.178-0.436l0.002-0.002z"></path>
    <path fill="#a9aaac"
          d="M2.895 8.001c0 0.345 0.28 0.625 0.625 0.625h3.765l0.722-1.25h-4.486c-0.345 0-0.625 0.28-0.625 0.625z"></path>
    <path fill="#a9aaac"
          d="M2.895 11.438c0 0.345 0.28 0.625 0.625 0.625h1.78l0.722-1.25h-2.502c-0.345 0-0.625 0.28-0.625 0.625z"></path>
    <path fill="#fff"
          d="M9.556 9.12c0-0.1 0.034-0.185 0.103-0.253 0.069-0.069 0.153-0.104 0.253-0.104h0.8c0.1 0 0.184 0.036 0.253 0.106s0.103 0.154 0.103 0.251v2.59c0 0.1-0.034 0.184-0.103 0.253s-0.153 0.103-0.253 0.103h-0.8c-0.1 0-0.184-0.034-0.253-0.103s-0.103-0.152-0.103-0.253v-2.59z"></path>
    <path fill="#fff"
          d="M9.556 13.12c0-0.1 0.034-0.185 0.103-0.253 0.069-0.069 0.153-0.104 0.253-0.104h0.8c0.1 0 0.184 0.036 0.253 0.106s0.103 0.154 0.103 0.251v0.763c0 0.1-0.034 0.184-0.103 0.253s-0.153 0.103-0.253 0.103h-0.8c-0.1 0-0.184-0.034-0.253-0.103s-0.103-0.152-0.103-0.253v-0.763z"></path>
</svg>