<?xml version="1.0" encoding="utf-8"?>
<svg xmlns="http://www.w3.org/2000/svg" xmlns:xlink="http://www.w3.org/1999/xlink" id="client-conflict-icon" width="16"
     height="16" viewBox="0 0 16 16" x="128" y="96">
    <path fill="#7289da"
          d="M15.745 13.035c0.003-1.733-0.002-3.466-0.003-5.199 0.002-0.060 0.006-0.119 0.006-0.179 0-1.842-0.001-3.684-0.002-5.526-0.001-1.074-0.808-1.882-1.882-1.882h-11.804c-0.982 0.002-1.812 0.837-1.812 1.815 0 1.744-0.001 3.488-0.002 5.232 0 0.060 0.004 0.12 0.007 0.179-0.002 2.181-0.014 4.361 0.002 6.54 0.006 0.935 0.85 1.731 1.793 1.732 3.967 0.003 7.934 0.003 11.901 0 0.864 0 1.633-0.669 1.77-1.521 0.064-0.396 0.027-0.794 0.028-1.191zM7.975 13.813c-0.708-0.001-1.289-0.584-1.289-1.292s0.583-1.292 1.292-1.292c0.704 0 1.286 0.576 1.292 1.281 0 0.004 0 0.007 0 0.010 0 0.709-0.584 1.293-1.293 1.293-0 0-0.001 0-0.002 0v0zM9.462 3.737c-0.048 0.563-0.101 1.125-0.161 1.685-0.069 0.632-0.111 1.266-0.188 1.897-0.020 0.17-0.061 0.344-0.034 0.518-0.044 0.46-0.102 0.919-0.131 1.38-0.039 0.619-0.431 1.075-1.086 1.033-0.291-0.018-0.622-0.255-0.75-0.534-0.156-0.338-0.114-0.698-0.159-1.048-0.046-0.367-0.069-0.737-0.104-1.106-0.005-0.019-0.015-0.038-0.027-0.054 0-0.495-0.067-0.984-0.122-1.474-0.034-0.296-0.057-0.598-0.071-0.898-0.018-0.358-0.063-0.715-0.090-1.073-0.029-0.368-0.053-0.731 0.125-1.081 0.21-0.414 0.53-0.67 0.976-0.763 0.723-0.151 1.469 0.237 1.741 0.864 0.094 0.215 0.1 0.433 0.081 0.654v0.002z"></path>
</svg>