<?xml version="1.0" encoding="utf-8"?>
<svg xmlns="http://www.w3.org/2000/svg" xmlns:xlink="http://www.w3.org/1999/xlink" id="client-connect" width="16"
     height="16" viewBox="0 0 16 16" x="160" y="96">
    <path fill="#e6e6e6" d="M7.464 11.697h1.074v3.467h-1.074v-3.467z"></path>
    <path fill="#e6e6e6" d="M0.749 14.178h14.502v1.069h-14.502v-1.069z"></path>
    <path fill="#7289da" d="M4.257 9.527h-3.506v1.53c0 0.63 0.507 1.141 1.133 1.141h2.373v-2.671z"></path>
    <path fill="#7289da"
          d="M5.615 12.198h8.503c0.626 0 1.133-0.511 1.133-1.141v-2.429c0-0.63-0.507-1.141-1.133-1.141h-3.615l-4.888 4.711z"></path>
    <path fill="#fff"
          d="M10.357 11.182h3.264c0.15 0 0.27-0.121 0.27-0.272v-2.134c0-0.151-0.12-0.272-0.27-0.272h-3.264c-0.15 0-0.27 0.121-0.27 0.272v2.134c0 0.151 0.12 0.272 0.27 0.272z"></path>
    <path fill="#7289da" d="M4.257 2.385v-1.632h-2.373c-0.625 0-1.133 0.511-1.133 1.141v1.531h3.506v-1.040z"></path>
    <path fill="#7289da"
          d="M15.251 4.323v-2.429c0-0.63-0.507-1.141-1.133-1.141h-8.503l4.887 4.711h3.616c0.626 0 1.133-0.511 1.133-1.141z"></path>
    <path fill="#fff"
          d="M13.621 1.77h-3.264c-0.149 0-0.27 0.122-0.27 0.272v2.134c0 0.15 0.121 0.272 0.27 0.272h3.264c0.15 0 0.27-0.122 0.27-0.272v-2.134c0-0.15-0.121-0.272-0.27-0.272z"></path>
    <path fill="#1ca037" d="M9.751 6.476l-4.244-4.091v2.29h-4.756v3.601h4.756v2.29l4.244-4.090z"></path>
</svg>