<?xml version="1.0" encoding="utf-8"?>
<svg xmlns="http://www.w3.org/2000/svg" xmlns:xlink="http://www.w3.org/1999/xlink" id="client-contact" width="16"
     height="16" viewBox="0 0 16 16" x="192" y="96">
    <path fill="#ccc"
          d="M3.703 14.852c0.004-0.171 0.099-4.206 0.974-5.541 0.851-1.296 1.649-1.608 2.391-1.815l0.006-0.002c0.040-0.011 0.077-0.022 0.112-0.032-0.129-0.183-0.251-0.394-0.371-0.665-0.53-0.38-0.758-1.086-0.85-1.498-0.094-0.425-0.109-0.858-0.043-1.219 0.061-0.327 0.185-0.59 0.37-0.787 0.050-0.341 0.131-0.66 0.24-0.954-0.361-0.144-0.797-0.215-1.319-0.183v0c-0.002 0-0.003-0-0.005-0-2.319-0.145-2.962 1.757-2.771 3.009 0.184 1.209 0.284 2.361-0.123 2.724 0.352 0.178 0.603-0.092 0.78-0.212-0.058 0.772-0.938 1.062-0.938 1.062 0.398 0.394 1.594 0.328 2.026-0.065-0.045 0.248-0.153 0.624-0.398 0.748-0.542 0.273-1.036 0-1.919 1.342-0.688 1.045-0.74 4.111-0.74 4.111h2.578l0-0.023z"></path>
    <path fill="#7289da"
          d="M12.297 8.529c-0.185-0.052-0.358-0.101-0.527-0.186-0.224-0.113-0.94-0.641-0.838-0.751 0.519-0.562 0.719-0.71 0.979-1.347l0.082-0.202 0.183-0.095c0.153-0.080 0.357-0.383 0.466-0.881 0.063-0.285 0.076-0.573 0.036-0.789-0.030-0.155-0.077-0.237-0.112-0.262l-0.213-0.152-0.033-0.276c-0.165-1.459-1-2.462-2.489-2.462-1.491 0-2.326 1.003-2.492 2.461l-0.032 0.278-0.216 0.151c-0.035 0.024-0.082 0.106-0.112 0.261-0.040 0.217-0.027 0.505 0.036 0.79 0.111 0.5 0.314 0.803 0.467 0.882l0.185 0.095 0.083 0.203c0.259 0.638 0.481 0.806 0.978 1.346 0.133 0.145-0.613 0.637-0.838 0.751-0.171 0.086-0.345 0.134-0.527 0.186-0.509 0.142-1.085 0.305-1.786 1.371-0.526 0.803-0.768 3.558-0.798 4.975h10.098c-0.015-1.001-0.188-4.053-0.792-4.974-0.699-1.066-1.276-1.229-1.785-1.371z"></path>
</svg>