<?xml version="1.0" encoding="utf-8"?>
<svg xmlns="http://www.w3.org/2000/svg" xmlns:xlink="http://www.w3.org/1999/xlink" id="client-default_for_all_bookmarks"
     width="16" height="16" viewBox="0 0 16 16" x="320" y="96">
    <path fill="#7289da"
          d="M4.029 11.801c0-0.491 0.19-0.951 0.535-1.296l0.321-0.321v-9.058h-3.76v13.75l1.88-1.858 1.88 1.858v-1.457l-0.321-0.321c-0.345-0.345-0.535-0.805-0.535-1.296z"></path>
    <path fill="#ccc"
          d="M13.459 5.847c0.49 0 0.949 0.189 1.293 0.532l0.123 0.121v-5.375h-3.76v6.302l1.047-1.045c0.345-0.345 0.805-0.535 1.296-0.535z"></path>
    <path fill="#b3b3b3"
          d="M7.99 9.671l0.438 0.438 1.452-1.449v-7.535h-3.76v8.103c0.183-0.060 0.375-0.092 0.574-0.092 0.49 0 0.95 0.19 1.296 0.535z"></path>
    <path fill="#1ca037"
          d="M14.705 8.924l-5.8 5.791c-0.112 0.112-0.278 0.165-0.497 0.159-0.2-0.006-0.353-0.059-0.459-0.159l-2.502-2.502c-0.112-0.112-0.168-0.25-0.168-0.412s0.056-0.3 0.168-0.412l0.834-0.834c0.112-0.112 0.25-0.169 0.412-0.169s0.3 0.056 0.412 0.169l1.321 1.321 4.62-4.61c0.112-0.112 0.25-0.169 0.412-0.169s0.3 0.056 0.412 0.169l0.834 0.824c0.112 0.119 0.169 0.258 0.169 0.417s-0.056 0.298-0.169 0.417z"></path>
</svg>