<?xml version="1.0" encoding="utf-8"?>
<svg xmlns="http://www.w3.org/2000/svg" xmlns:xlink="http://www.w3.org/1999/xlink" id="client-delete" width="16"
     height="16" viewBox="0 0 16 16" x="352" y="96">
    <path fill="#c90709"
          d="M13.658 2.855c0.187 0.187 0.283 0.409 0.278 0.666 0.001 0.254-0.092 0.474-0.278 0.661l-3.821 3.821 3.82 3.82c0.186 0.186 0.279 0.407 0.28 0.659-0.001 0.259-0.092 0.481-0.279 0.668l-0.509 0.509c-0.187 0.187-0.41 0.278-0.671 0.278-0.258-0.007-0.478-0.099-0.658-0.278l-3.819-3.82-3.819 3.82c-0.187 0.186-0.409 0.281-0.662 0.279-0.257 0.005-0.479-0.091-0.667-0.278l-0.509-0.509c-0.188-0.187-0.28-0.413-0.276-0.669 0.005-0.259 0.094-0.477 0.277-0.659l3.819-3.82-3.821-3.821c-0.187-0.187-0.28-0.408-0.282-0.662 0.002-0.258 0.095-0.478 0.283-0.665l0.509-0.509c0.187-0.188 0.406-0.281 0.664-0.282 0.254 0.003 0.475 0.096 0.662 0.282l3.821 3.821 3.821-3.821c0.186-0.186 0.407-0.279 0.661-0.278 0.257-0.005 0.478 0.090 0.665 0.278l0.509 0.509z"></path>
</svg>