<?xml version="1.0" encoding="utf-8"?>
<svg xmlns="http://www.w3.org/2000/svg" xmlns:xlink="http://www.w3.org/1999/xlink" id="client-delete_avatar" width="16"
     height="16" viewBox="0 0 16 16" x="384" y="96">
    <path fill="#c90709"
          d="M9.177 7.997l1.886 1.893c0.084 0.087 0.124 0.184 0.124 0.299 0 0.112-0.040 0.212-0.124 0.287l-0.585 0.587c-0.078 0.084-0.178 0.125-0.293 0.125s-0.215-0.040-0.293-0.125l-1.893-1.889-1.893 1.889c-0.079 0.084-0.176 0.125-0.293 0.125s-0.213-0.040-0.293-0.125l-0.585-0.587c-0.082-0.076-0.125-0.175-0.125-0.287 0-0.115 0.042-0.212 0.125-0.299l1.886-1.893-1.886-1.888c-0.082-0.084-0.125-0.182-0.125-0.296 0-0.115 0.042-0.214 0.125-0.296l0.585-0.586c0.079-0.080 0.176-0.119 0.293-0.119s0.213 0.039 0.293 0.119l1.893 1.894 1.893-1.894c0.078-0.080 0.178-0.119 0.293-0.119s0.215 0.039 0.293 0.119l0.585 0.586c0.084 0.082 0.124 0.181 0.124 0.296 0 0.114-0.040 0.212-0.124 0.296l-1.886 1.888z"></path>
    <path fill="#7289da"
          d="M13 2.375c0.345 0 0.625 0.28 0.625 0.625v10c0 0.345-0.28 0.625-0.625 0.625h-10c-0.345 0-0.625-0.28-0.625-0.625v-10c0-0.345 0.28-0.625 0.625-0.625h10zM13 1.125h-10c-1.036 0-1.875 0.84-1.875 1.875v10c0 1.036 0.84 1.875 1.875 1.875h10c1.036 0 1.875-0.839 1.875-1.875v-10c0-1.036-0.839-1.875-1.875-1.875z"></path>
</svg>