<?xml version="1.0" encoding="utf-8"?>
<svg xmlns="http://www.w3.org/2000/svg" xmlns:xlink="http://www.w3.org/1999/xlink" id="client-disconnect" width="16"
     height="16" viewBox="0 0 16 16" x="416" y="96">
    <path fill="#e6e6e6" d="M7.464 11.697h1.074v3.467h-1.074v-3.467z"></path>
    <path fill="#e6e6e6" d="M0.749 14.178h14.502v1.069h-14.502v-1.069z"></path>
    <path fill="#7289da"
          d="M0.809 8.269c-0.037 0.113-0.058 0.234-0.058 0.36v2.429c0 0.63 0.507 1.141 1.133 1.141h3.003l-4.078-3.93z"></path>
    <path fill="#7289da"
          d="M11.001 8.504h2.62c0.15 0 0.27 0.121 0.27 0.272v2.134c0 0.151-0.12 0.272-0.27 0.272h-3.264c-0.15 0-0.27-0.121-0.27-0.272v-1.383h-3.842v2.671h7.873c0.626 0 1.133-0.511 1.133-1.141v-2.429c0-0.63-0.507-1.141-1.133-1.141h-3.117v1.016z"></path>
    <path fill="#7289da"
          d="M6.245 3.426h3.842v-1.384c0-0.15 0.121-0.272 0.27-0.272h3.264c0.15 0 0.27 0.122 0.27 0.272v2.134c0 0.15-0.121 0.272-0.27 0.272h-2.62v1.016h3.117c0.626 0 1.133-0.511 1.133-1.141v-2.429c0-0.63-0.507-1.141-1.133-1.141h-7.873v2.672z"></path>
    <path fill="#7289da"
          d="M4.887 0.754h-3.003c-0.625 0-1.133 0.511-1.133 1.141v2.429c0 0.126 0.021 0.247 0.059 0.361l4.077-3.93z"></path>
    <path fill="#fff"
          d="M13.621 1.77h-3.264c-0.149 0-0.27 0.122-0.27 0.272v1.385h0.914v1.022h2.62c0.15 0 0.27-0.122 0.27-0.272v-2.134c0-0.15-0.121-0.272-0.27-0.272z"></path>
    <path fill="#c90709" d="M0.751 6.476l4.244-4.091v2.29h4.756v3.601h-4.756v2.29l-4.244-4.090z"></path>
    <path fill="#fff"
          d="M13.621 8.504h-2.62v1.024h-0.914v1.383c0 0.151 0.12 0.272 0.27 0.272h3.264c0.15 0 0.27-0.121 0.27-0.272v-2.134c0-0.151-0.12-0.272-0.27-0.272z"></path>
</svg>