<svg version="1.1" viewBox="0 0 16 16" xmlns="http://www.w3.org/2000/svg">
 <g transform="matrix(.016149 0 0 .016149 -.16723 .74664)">
  <path d="m535.92 431.52-398.04-398.04a25 25 0 00-35.355 0l-84.845 84.845a25 25 90 000 35.355l277.84 277.84a24.996 24.996 90.005 01-.003 35.353l-277.84 277.75a24.996 24.996 90.005 00-.0028 35.353l84.845 84.845a25.003 25.003.0033054 0035.357.002l398.04-397.95a24.997 24.997 90.003 00.002-35.353z" style="fill:#646568"/>
  <path transform="translate(113.18)" d="m447.22 33.478-84.845 84.845a25 25 90 000 35.355l277.84 277.84a24.996 24.996 90.005 01-.003 35.353l-277.84 277.75a24.996 24.996 90.005 00-.003 35.353l84.845 84.845a25.003 25.003.0033054 0035.357.002l398.04-397.95a24.997 24.997 90.003 00.002-35.353l-398.04-398.04a25 25 0 00-35.355 0z" style="fill:#646568"/>
 </g>
</svg>
