<?xml version="1.0" encoding="utf-8"?>
<svg xmlns="http://www.w3.org/2000/svg" xmlns:xlink="http://www.w3.org/1999/xlink" id="client-download" width="16"
     height="16" viewBox="0 0 16 16" x="480" y="96">
    <path fill="#a9aaac"
          d="M3.723 12.269h8.565v-2.287h2.6v2.516l-0 0.025-0.001 0.030-0.001 0.029-0.001 0.028-0.002 0.029-0.002 0.029-0.002 0.029-0.002 0.029-0.003 0.027-0.003 0.029-0.004 0.028-0.004 0.028-0.004 0.029-0.004 0.027-0.005 0.028-0.005 0.027-0.005 0.028-0.006 0.028-0.006 0.027-0.006 0.028-0.007 0.027-0.007 0.027-0.007 0.027-0.007 0.027-0.008 0.027-0.008 0.027-0.008 0.026-0.008 0.026-0.009 0.027-0.009 0.026-0.009 0.026-0.010 0.026-0.010 0.026-0.011 0.026-0.011 0.025-0.011 0.025-0.011 0.026-0.011 0.025-0.012 0.025-0.012 0.025-0.012 0.025-0.013 0.025-0.012 0.024-0.013 0.025-0.014 0.025-0.014 0.024-0.014 0.024-0.014 0.024-0.014 0.023-0.015 0.024-0.015 0.024-0.015 0.023-0.016 0.023-0.016 0.022-0.016 0.023-0.017 0.023-0.017 0.022-0.017 0.021-0.017 0.022-0.018 0.021-0.018 0.021-0.018 0.021-0.019 0.021-0.018 0.020-0.019 0.021-0.019 0.020-0.019 0.020-0.020 0.020-0.020 0.020-0.020 0.019-0.020 0.019-0.021 0.019-0.021 0.019-0.021 0.018-0.021 0.018-0.022 0.018-0.023 0.018-0.022 0.017-0.022 0.017-0.023 0.017-0.023 0.017-0.023 0.016-0.023 0.016-0.024 0.016-0.024 0.016-0.024 0.015-0.024 0.015-0.024 0.015-0.024 0.014-0.025 0.014-0.025 0.014-0.025 0.014-0.026 0.013-0.026 0.013-0.026 0.013-0.027 0.013-0.026 0.012-0.027 0.012-0.027 0.012-0.027 0.011-0.026 0.010-0.028 0.011-0.027 0.010-0.028 0.010-0.029 0.009-0.027 0.009-0.028 0.009-0.029 0.008-0.030 0.008-0.028 0.007-0.029 0.007-0.030 0.007-0.029 0.006-0.029 0.006-0.029 0.005-0.030 0.005-0.030 0.005-0.030 0.004-0.031 0.004-0.030 0.004-0.029 0.003-0.031 0.003-0.031 0.002-0.030 0.002-0.031 0.002-0.031 0.001-0.031 0.001-0.026 0-9.58-0.030-0.030-0.005-0.029-0.005-0.029-0.006-0.029-0.006-0.030-0.007-0.029-0.007-0.028-0.007-0.030-0.008-0.029-0.008-0.028-0.008-0.028-0.009-0.029-0.009-0.028-0.010-0.027-0.010-0.028-0.011-0.027-0.011-0.026-0.011-0.027-0.012-0.027-0.012-0.026-0.012-0.027-0.013-0.026-0.013-0.026-0.013-0.026-0.013-0.025-0.013-0.026-0.014-0.025-0.015-0.024-0.014-0.024-0.014-0.025-0.015-0.024-0.015-0.024-0.016-0.024-0.016-0.023-0.016-0.022-0.016-0.023-0.017-0.023-0.017-0.021-0.017-0.022-0.018-0.023-0.018-0.021-0.018-0.021-0.018-0.021-0.018-0.021-0.019-0.021-0.019-0.020-0.019-0.020-0.019-0.020-0.020-0.020-0.020-0.019-0.020-0.019-0.020-0.018-0.020-0.019-0.021-0.019-0.021-0.018-0.021-0.017-0.020-0.018-0.022-0.018-0.022-0.017-0.022-0.016-0.022-0.016-0.022-0.016-0.023-0.016-0.023-0.016-0.023-0.016-0.023-0.015-0.023-0.015-0.024-0.015-0.024-0.014-0.023-0.014-0.024-0.014-0.024-0.014-0.025-0.013-0.024-0.013-0.024-0.013-0.025-0.012-0.025-0.012-0.025-0.012-0.025-0.011-0.025-0.011-0.025-0.011-0.026-0.011-0.026-0.010-0.026-0.010-0.025-0.010-0.026-0.010-0.026-0.009-0.026-0.009-0.026-0.009-0.026-0.008-0.027-0.008-0.027-0.008-0.027-0.007-0.026-0.007-0.027-0.007-0.028-0.006-0.027-0.006-0.027-0.006-0.028-0.006-0.027-0.005-0.027-0.005-0.028-0.005-0.028-0.004-0.028-0.004-0.028-0.004-0.028-0.003-0.028-0.003-0.028-0.003-0.029-0.002-0.028-0.002-0.029-0.002-0.029-0.002-0.028-0.001-0.030-0.001-0.029-0-0.028-0-0.025v-2.517h2.6v2.287z"></path>
    <path fill="#7289da"
          d="M4.766 5.863l3.358 4.119 3.359-4.119h-2.060v-3.798c0.001-0.257-0.090-0.475-0.27-0.661-0.178-0.184-0.403-0.278-0.668-0.278l-0.72-0c-0.265 0-0.489 0.090-0.668 0.274-0.181 0.178-0.27 0.402-0.271 0.666v3.797l-2.061 0z"></path>
</svg>