<?xml version="1.0" encoding="utf-8"?>
<svg xmlns="http://www.w3.org/2000/svg" xmlns:xlink="http://www.w3.org/1999/xlink" id="client-emoticon" width="16"
     height="16" viewBox="0 0 16 16" x="64" y="128">
    <path fill="#a9aaac"
          d="M14.893 7.727c-0.109-3.625-3.191-6.641-6.925-6.614-3.749-0.060-7.019 3.175-6.857 7.178 0.15 3.606 3.243 6.719 7.139 6.594 3.636-0.125 6.761-3.241 6.644-7.157zM7.986 13.602c-5.324 1.599-2.662 0.799 0 0z"></path>
    <path fill="#333"
          d="M10.48 9.428c-1.661 1.491-3.465 1.5-5.125 0.011-0.345-0.305-0.69-0.453-1.034-0.079s-0.14 0.727 0.174 1.024c0.96 0.912 2.094 1.406 3.431 1.401 1.281-0.011 2.508-0.524 3.416-1.426 0.32-0.326 0.463-0.674 0.115-1.030s-0.661-0.185-0.978 0.099z"></path>
    <path fill="#333"
          d="M5.81 7.259c0.002 0 0.004 0 0.006 0 0.501 0 0.914-0.412 0.914-0.914 0-0.013-0-0.026-0.001-0.039 0-0.002 0-0.004 0-0.006 0-0.521-0.428-0.949-0.949-0.949s-0.949 0.428-0.949 0.949c0 0.023 0.001 0.046 0.003 0.069 0.029 0.558 0.412 0.907 0.976 0.89z"></path>
    <path fill="#333"
          d="M10.231 7.259c0.012 0 0.024 0.001 0.037 0.001 0.495 0 0.902-0.407 0.902-0.902 0-0.010-0-0.021-0.001-0.031-0.003-0.516-0.418-0.943-0.934-0.96-0.006-0-0.011-0-0.017-0-0.522 0-0.951 0.429-0.951 0.951 0 0.011 0 0.022 0.001 0.034 0.001 0.499 0.412 0.909 0.911 0.909 0.017 0 0.034-0 0.051-0.001v0z"></path>
</svg>