<?xml version="1.0" encoding="utf-8"?>
<svg xmlns="http://www.w3.org/2000/svg" xmlns:xlink="http://www.w3.org/1999/xlink" id="client-error" width="16"
     height="16" viewBox="0 0 16 16" x="96" y="128">
    <path fill="#c90709"
          d="M14.721 12.67l-5.946-10.294c-0.16-0.276-0.456-0.448-0.777-0.448s-0.616 0.172-0.776 0.448l-5.977 10.351c-0.16 0.279-0.16 0.62 0 0.897 0.16 0.28 0.457 0.45 0.777 0.45h11.954c0.001-0 0.002-0 0.003 0 0.495 0 0.897-0.401 0.897-0.896 0-0.187-0.058-0.361-0.154-0.507z"></path>
    <path fill="#fff"
          d="M7.063 5.916c0-0.123 0.043-0.228 0.128-0.311 0.085-0.085 0.19-0.128 0.313-0.128h0.993c0.123 0 0.229 0.044 0.314 0.13s0.128 0.19 0.128 0.309v3.193c0 0.124-0.043 0.227-0.128 0.311-0.085 0.085-0.19 0.127-0.314 0.127h-0.993c-0.123 0-0.228-0.042-0.313-0.127-0.085-0.084-0.128-0.188-0.128-0.311v-3.193z"></path>
    <path fill="#fff"
          d="M7.063 10.848c0-0.123 0.043-0.228 0.128-0.312 0.085-0.085 0.19-0.128 0.313-0.128h0.993c0.123 0 0.229 0.044 0.314 0.13s0.128 0.19 0.128 0.309v0.94c0 0.124-0.043 0.227-0.128 0.312s-0.19 0.127-0.314 0.127h-0.993c-0.123 0-0.228-0.042-0.313-0.127s-0.128-0.188-0.128-0.312v-0.941z"></path>
</svg>