<?xml version="1.0" encoding="utf-8"?>
<svg xmlns="http://www.w3.org/2000/svg" xmlns:xlink="http://www.w3.org/1999/xlink" id="client-file_refresh" width="16"
     height="16" viewBox="0 0 16 16" x="160" y="128">
    <path fill="#7289da"
          d="M13.801 3.864h-5.693v-0.752c0-0.593-0.481-1.074-1.074-1.074h-4.834c-0.593 0-1.074 0.481-1.074 1.074v9.775c0 0.593 0.481 1.074 1.074 1.074h11.602c0.593 0 1.074-0.481 1.074-1.074v-7.949c-0-0.593-0.481-1.074-1.074-1.074z"></path>
    <path fill="#f2f2f2"
          d="M8.026 11.624c-1.431 0-2.595-1.165-2.595-2.596s1.165-2.595 2.595-2.595c0.615 0 1.179 0.215 1.621 0.572l-1.285 1.113 3.388 0.501-0.007-3.426-1.191 1.030c-0.667-0.603-1.553-0.973-2.526-0.973-2.086 0-3.776 1.692-3.776 3.778 0 2.085 1.69 3.775 3.776 3.775 1.636 0 3.029-1.040 3.552-2.493l-1.206-0.18c-0.414 0.88-1.309 1.494-2.346 1.494z"></path>
</svg>