<?xml version="1.0" encoding="utf-8"?>
<svg xmlns="http://www.w3.org/2000/svg" xmlns:xlink="http://www.w3.org/1999/xlink" id="client-filetransfer" width="16"
     height="16" viewBox="0 0 16 16" x="192" y="128">
    <path fill="#7289da"
          d="M13.801 3.864h-5.693v-0.752c0-0.593-0.481-1.074-1.074-1.074h-4.834c-0.593 0-1.074 0.481-1.074 1.074v9.775c0 0.593 0.481 1.074 1.074 1.074h11.602c0.593 0 1.074-0.481 1.074-1.074v-7.949c-0-0.593-0.481-1.074-1.074-1.074z"></path>
    <path fill="#f2f2f2"
          d="M10.997 5.987l-2.435 2.985h1.676v2.886c0 0.107 0.037 0.197 0.11 0.27s0.162 0.11 0.27 0.11h0.759c0.103 0 0.192-0.037 0.267-0.11s0.113-0.163 0.113-0.27v-2.886h1.674l-2.434-2.985z"></path>
    <path fill="#f2f2f2"
          d="M5.003 12.237l2.435-2.985h-1.676v-2.886c0-0.106-0.037-0.197-0.11-0.269s-0.162-0.11-0.27-0.11h-0.759c-0.103 0-0.192 0.037-0.267 0.11s-0.113 0.163-0.113 0.269v2.886h-1.674l2.434 2.985z"></path>
</svg>