<?xml version="1.0" encoding="utf-8"?>
<svg xmlns="http://www.w3.org/2000/svg" xmlns:xlink="http://www.w3.org/1999/xlink" id="client-find" width="16"
     height="16" viewBox="0 0 16 16" x="224" y="128">
    <path fill="#7289da"
          d="M10.043 2.611c1.845 0 3.346 1.501 3.346 3.345s-1.501 3.345-3.346 3.345c-1.843 0-3.344-1.501-3.344-3.345s1.501-3.345 3.344-3.345zM10.043 1.125c-2.666 0-4.831 2.163-4.831 4.831 0 2.666 2.165 4.832 4.831 4.832 2.668 0 4.832-2.166 4.832-4.832 0-2.668-2.163-4.831-4.832-4.831z"></path>
    <path fill="#a9aaac"
          d="M4.926 9.236l-3.524 3.524c-0.182 0.181-0.272 0.399-0.277 0.659-0.004 0.256 0.088 0.482 0.276 0.669l0.509 0.509c0.188 0.187 0.41 0.283 0.667 0.278 0.253 0.002 0.475-0.093 0.662-0.279l3.523-3.523c-0.735-0.473-1.362-1.101-1.835-1.836z"></path>
</svg>