<svg version="1.1" viewBox="0 0 16 16" xmlns="http://www.w3.org/2000/svg">
 <g transform="translate(7.5 7.5)">
  <path d="m-7.5-6.8599v5.9699a.64.64 0 00.64.64h1.1887a.64.64 0 00.64-.64v-3.5013a.64.64 0 01.64-.64h3.5013a.64.64 0 00.64-.64v-1.1887a.64.64 0 00-.64-.64h-5.9699a.64.64 0 00-.64.64z" style="color-rendering:auto;color:#000000;dominant-baseline:auto;fill:#a9aaac;font-feature-settings:normal;font-variant-alternates:normal;font-variant-caps:normal;font-variant-east-asian:normal;font-variant-ligatures:normal;font-variant-numeric:normal;font-variant-position:normal;font-variation-settings:normal;image-rendering:auto;inline-size:0;isolation:auto;mix-blend-mode:normal;shape-margin:0;shape-padding:0;shape-rendering:auto;solid-color:#000000;stop-color:#000000;stroke-width:16;text-decoration-color:#000000;text-decoration-line:none;text-decoration-style:solid;text-indent:0;text-orientation:mixed;text-transform:none;white-space:normal"/>
  <path d="m8.5-6.8599v5.9699a.64.64 0 01-.64.64h-1.1887a.64.64 0 01-.64-.64v-3.5013a.64.64 0 00-.64-.64h-3.5013a.64.64 0 01-.64-.64v-1.1887a.64.64 0 01.64-.64h5.9699a.64.64 0 01.64.64z" style="color-rendering:auto;color:#000000;dominant-baseline:auto;fill:#a9aaac;font-feature-settings:normal;font-variant-alternates:normal;font-variant-caps:normal;font-variant-east-asian:normal;font-variant-ligatures:normal;font-variant-numeric:normal;font-variant-position:normal;font-variation-settings:normal;image-rendering:auto;inline-size:0;isolation:auto;mix-blend-mode:normal;shape-margin:0;shape-padding:0;shape-rendering:auto;solid-color:#000000;stop-color:#000000;stroke-width:16;text-decoration-color:#000000;text-decoration-line:none;text-decoration-style:solid;text-indent:0;text-orientation:mixed;text-transform:none;white-space:normal"/>
  <path d="m-7.5 7.86v-5.9701a.64.64 0 01.64-.64h1.1887a.64.64 0 01.64.64v3.5013a.64.64 0 00.64.64h3.5013a.64.64 0 01.64.64v1.1887a.64.64 0 01-.64.64h-5.9699a.64.64 0 01-.64-.64z" style="color-rendering:auto;color:#000000;dominant-baseline:auto;fill:#a9aaac;font-feature-settings:normal;font-variant-alternates:normal;font-variant-caps:normal;font-variant-east-asian:normal;font-variant-ligatures:normal;font-variant-numeric:normal;font-variant-position:normal;font-variation-settings:normal;image-rendering:auto;inline-size:0;isolation:auto;mix-blend-mode:normal;shape-margin:0;shape-padding:0;shape-rendering:auto;solid-color:#000000;stop-color:#000000;stroke-width:16;text-decoration-color:#000000;text-decoration-line:none;text-decoration-style:solid;text-indent:0;text-orientation:mixed;text-transform:none;white-space:normal"/>
  <path d="m8.5 7.86v-5.9701a.64.64 0 00-.64-.64h-1.1887a.64.64 0 00-.64.64v3.5013a.64.64 0 01-.64.64h-3.5013a.64.64 0 00-.64.64v1.1887a.64.64 0 00.64.64h5.9701a.64.64 0 00.64-.64z" style="color-rendering:auto;color:#000000;dominant-baseline:auto;fill:#a9aaac;font-feature-settings:normal;font-variant-alternates:normal;font-variant-caps:normal;font-variant-east-asian:normal;font-variant-ligatures:normal;font-variant-numeric:normal;font-variant-position:normal;font-variation-settings:normal;image-rendering:auto;inline-size:0;isolation:auto;mix-blend-mode:normal;shape-margin:0;shape-padding:0;shape-rendering:auto;solid-color:#000000;stop-color:#000000;stroke-width:16;text-decoration-color:#000000;text-decoration-line:none;text-decoration-style:solid;text-indent:0;text-orientation:mixed;text-transform:none;white-space:normal"/>
 </g>
</svg>
