<svg version="1.1" viewBox="0 0 16 16" xmlns="http://www.w3.org/2000/svg">
 <style type="text/css">.st0{fill:#666666;}</style>
 <g transform="matrix(.25 0 0 .25 -.1 -.1)">
  <g id="Icon-Pencil" transform="translate(179,382)">
   <path class="st0" d="m-168.2-328 3.7-14.9 22.7-22.7 11.2 11.2-22.7 22.7zm6.3-13.5-2.4 9.6 9.6-2.4 20.2-20.2-7.2-7.2z"/>
   <path class="st0" d="m-155.7-332.6c-1-3.9-4-6.9-7.9-7.9l.7-2.8c4.9 1.2 8.7 5 9.9 9.9l-2.7.8"/>
   <polyline class="st0" points="-156 -338.1 -158 -340.2 -138.1 -360.1 -136.1 -358.1 -156 -338.1"/>
   <path class="st0" d="m-166.2-330 4.4-1.1c-.4-1.6-1.7-2.9-3.3-3.3l-1.1 4.4"/>
   <path class="st0" d="m-129.5-355.5-11.2-11.2 4.5-4.5.7.1c5.4.7 9.7 5 10.4 10.4l.1.7zm-7.1-11.2 7.2 7.2 1.4-1.4c-.8-3.6-3.6-6.4-7.2-7.2z"/>
  </g>
 </g>
</svg>
