<?xml version="1.0" encoding="utf-8"?>
<svg xmlns="http://www.w3.org/2000/svg" xmlns:xlink="http://www.w3.org/1999/xlink" id="client-group_200" width="16"
     height="16" viewBox="0 0 16 16" x="352" y="128">
    <path fill="#7289da"
          d="M7.452 14.689c-0.428-0.407-0.767-0.898-1.005-1.459-0.238-0.558-0.359-1.177-0.359-1.84 0-0.678 0.12-1.307 0.357-1.867 0.24-0.572 0.585-1.067 1.025-1.475 0.086-0.079 0.176-0.154 0.268-0.226-0.107-0.104-0.171-0.193-0.136-0.231 0.519-0.562 0.719-0.71 0.979-1.347l0.082-0.202 0.183-0.095c0.153-0.080 0.357-0.383 0.466-0.881 0.063-0.285 0.076-0.573 0.036-0.789-0.030-0.155-0.077-0.237-0.112-0.262l-0.213-0.152-0.033-0.276c-0.165-1.459-1-2.462-2.49-2.462s-2.325 1.003-2.492 2.461l-0.032 0.278-0.216 0.151c-0.035 0.024-0.082 0.106-0.111 0.261-0.040 0.217-0.027 0.505 0.036 0.79 0.111 0.5 0.314 0.803 0.467 0.882l0.185 0.095 0.083 0.203c0.259 0.638 0.481 0.806 0.978 1.346 0.133 0.145-0.613 0.637-0.838 0.751-0.171 0.086-0.345 0.134-0.527 0.186-0.509 0.142-1.085 0.305-1.786 1.371-0.526 0.803-0.768 3.558-0.798 4.974h6.216c-0.072-0.060-0.143-0.121-0.211-0.186z"></path>
    <path fill="#c90709"
          d="M10.912 7.893c0.536 0 1.027 0.084 1.473 0.253s0.829 0.404 1.152 0.706c0.323 0.303 0.573 0.672 0.75 1.108s0.266 0.917 0.266 1.444c0 0.518-0.088 0.991-0.266 1.419s-0.43 0.795-0.757 1.102c-0.327 0.307-0.719 0.541-1.173 0.706s-0.955 0.246-1.5 0.246c-0.545 0-1.046-0.085-1.5-0.253s-0.843-0.405-1.166-0.712c-0.323-0.307-0.575-0.674-0.757-1.101s-0.273-0.9-0.273-1.419c0-0.535 0.090-1.019 0.273-1.45s0.436-0.799 0.764-1.101c0.327-0.302 0.72-0.535 1.18-0.699s0.971-0.246 1.534-0.246zM10.858 9.175c-0.545 0-0.972 0.192-1.282 0.575-0.309 0.382-0.463 0.932-0.463 1.646 0 0.655 0.157 1.176 0.47 1.563s0.734 0.581 1.262 0.581c0.545 0 0.979-0.197 1.302-0.588s0.484-0.932 0.484-1.621c0-0.688-0.157-1.22-0.471-1.595s-0.747-0.562-1.302-0.562z"></path>
</svg>