<?xml version="1.0" encoding="utf-8"?>
<svg xmlns="http://www.w3.org/2000/svg" xmlns:xlink="http://www.w3.org/1999/xlink" id="client-group_300" width="16"
     height="16" viewBox="0 0 16 16" x="384" y="128">
    <path fill="#7289da"
          d="M8.436 14.45l0.095-1.373 0.107-1.537 0.359 0.161c-0.296-0.361-0.591-0.929-0.591-1.763 0-0.496 0.108-0.952 0.322-1.357 0.019-0.036 0.040-0.071 0.060-0.107-0.119-0.036-0.234-0.077-0.347-0.134-0.224-0.113-0.94-0.641-0.838-0.751 0.519-0.562 0.719-0.71 0.979-1.347l0.082-0.202 0.183-0.095c0.153-0.080 0.357-0.383 0.466-0.881 0.063-0.285 0.076-0.573 0.036-0.789-0.030-0.155-0.077-0.237-0.112-0.262l-0.213-0.152-0.033-0.276c-0.165-1.459-1-2.462-2.489-2.462s-2.325 1.003-2.492 2.461l-0.032 0.278-0.216 0.151c-0.035 0.024-0.082 0.106-0.111 0.261-0.040 0.217-0.027 0.505 0.036 0.79 0.111 0.5 0.314 0.803 0.467 0.882l0.185 0.095 0.083 0.203c0.259 0.638 0.481 0.806 0.978 1.346 0.133 0.145-0.613 0.637-0.838 0.751-0.171 0.086-0.345 0.134-0.527 0.186-0.509 0.142-1.085 0.305-1.786 1.371-0.526 0.803-0.768 3.558-0.798 4.974h6.959l0.030-0.425z"></path>
    <path fill="#c90709"
          d="M9.603 13.152c0.345 0.155 0.684 0.27 1.016 0.343s0.652 0.11 0.961 0.11c0.309 0 0.577-0.058 0.805-0.175s0.341-0.296 0.341-0.537c0-0.113-0.020-0.211-0.061-0.299-0.041-0.086-0.112-0.168-0.211-0.246s-0.239-0.153-0.416-0.226c-0.177-0.074-0.407-0.158-0.689-0.253-0.672-0.216-1.152-0.469-1.439-0.758s-0.43-0.68-0.43-1.172c0-0.319 0.065-0.605 0.198-0.855s0.32-0.464 0.566-0.641c0.245-0.177 0.539-0.313 0.88-0.408s0.72-0.142 1.139-0.142c0.736 0 1.373 0.104 1.909 0.311l-0.15 1.295c-0.582-0.25-1.141-0.375-1.677-0.375-0.31 0-0.563 0.061-0.764 0.181s-0.3 0.294-0.3 0.518c0 0.112 0.020 0.209 0.061 0.291s0.109 0.155 0.205 0.221c0.095 0.064 0.227 0.13 0.396 0.194 0.168 0.065 0.375 0.136 0.621 0.214 0.309 0.095 0.586 0.201 0.832 0.317s0.454 0.252 0.627 0.409c0.173 0.155 0.304 0.336 0.395 0.544 0.091 0.207 0.136 0.453 0.136 0.739 0 0.345-0.071 0.649-0.211 0.913-0.141 0.263-0.337 0.485-0.586 0.667s-0.552 0.317-0.907 0.408c-0.355 0.091-0.746 0.136-1.173 0.136-0.382 0-0.753-0.028-1.111-0.085s-0.712-0.144-1.057-0.265l0.095-1.373z"></path>
</svg>