<?xml version="1.0" encoding="utf-8"?>
<svg xmlns="http://www.w3.org/2000/svg" xmlns:xlink="http://www.w3.org/1999/xlink" id="client-hotkeys" width="16"
     height="16" viewBox="0 0 16 16" x="96" y="160">
    <path fill="#7289da"
          d="M11.75 10.688c0 0.586-0.476 1.062-1.062 1.062h-8.5c-0.587 0-1.063-0.476-1.063-1.062v-8.501c0-0.587 0.476-1.062 1.063-1.062h8.5c0.586 0 1.062 0.476 1.062 1.062v8.501z"></path>
    <path fill="#a9aaac"
          d="M13.814 4.25h-0.814v6.438c0 1.275-1.037 2.312-2.312 2.312h-6.438v0.813c0 0.585 0.476 1.062 1.063 1.062h8.501c0.584 0 1.061-0.476 1.061-1.062v-8.501c0-0.587-0.476-1.063-1.061-1.063z"></path>
    <path fill="#fff"
          d="M6.431 5.235l-0.809 4.044h-1.544l-1.153-5.684h1.295l0.808 4.095 0.68-4.095h1.494l0.711 4.095 0.801-4.095h1.235l-1.116 5.684h-1.537l-0.865-4.044z"></path>
</svg>