<?xml version="1.0" encoding="utf-8"?>
<svg xmlns="http://www.w3.org/2000/svg" xmlns:xlink="http://www.w3.org/1999/xlink" id="client-iconviewer" width="16"
     height="16" viewBox="0 0 16 16" x="192" y="160">
    <path fill="#7289da"
          d="M13 1.125h-10c-1.036 0-1.875 0.84-1.875 1.875v10c0 1.036 0.84 1.875 1.875 1.875h10c1.036 0 1.875-0.839 1.875-1.875v-10c0-1.036-0.839-1.875-1.875-1.875z"></path>
    <path fill="#fff"
          d="M13 7.999c0 2.008-2.238 3.637-5 3.637s-5-1.63-5-3.637c0-2.009 2.238-3.636 5-3.636s5 1.627 5 3.636zM8 5.002c-1.651 0-2.987 1.341-2.987 2.998 0 1.654 1.336 2.997 2.987 2.997 1.649 0 2.987-1.342 2.987-2.997 0-1.657-1.337-2.998-2.987-2.998z"></path>
    <path fill="#fff"
          d="M11.187 7.103c0 0.849-0.684 1.539-1.526 1.539-0.847 0-1.53-0.69-1.53-1.539 0-0.85 0.684-1.539 1.53-1.539 0.842 0 1.526 0.689 1.526 1.539z"></path>
</svg>