<?xml version="1.0" encoding="utf-8"?>
<svg xmlns="http://www.w3.org/2000/svg" xmlns:xlink="http://www.w3.org/1999/xlink" id="client-identity_manager"
     width="16" height="16" viewBox="0 0 16 16" x="320" y="160">
    <path fill="#e6e6e6"
          d="M11.605 3.684c0.128 0.169 0.242 0.398 0.301 0.709 0.079 0.422 0.024 0.835-0.035 1.105-0.127 0.581-0.379 1.043-0.724 1.336-0.001 0.003-0.003 0.005-0.004 0.008 0.519 0.2 1.089 0.563 1.663 1.44 0.334 0.508 0.531 1.373 0.649 2.219h1.42c-0.010-0.682-0.128-2.764-0.541-3.391-0.476-0.727-0.868-0.838-1.217-0.936-0.125-0.033-0.243-0.068-0.358-0.128-0.153-0.075-0.642-0.436-0.572-0.509 0.353-0.384 0.491-0.485 0.668-0.92l0.055-0.137 0.126-0.065c0.103-0.054 0.242-0.261 0.317-0.602 0.043-0.194 0.053-0.39 0.026-0.538-0.020-0.105-0.053-0.162-0.077-0.178l-0.144-0.104-0.024-0.189c-0.112-0.994-0.681-1.678-1.697-1.678-0.46 0-0.828 0.141-1.105 0.387 0.656 0.477 1.109 1.228 1.273 2.172z"></path>
    <path fill="#7289da"
          d="M7.277 9.683c-0.151-0.042-0.293-0.082-0.43-0.153-0.184-0.092-0.77-0.524-0.688-0.612 0.425-0.46 0.59-0.581 0.802-1.104l0.066-0.164 0.151-0.078c0.123-0.065 0.293-0.313 0.381-0.722 0.050-0.233 0.062-0.468 0.028-0.646-0.024-0.126-0.061-0.194-0.091-0.213l-0.173-0.125-0.027-0.226c-0.136-1.194-0.819-2.014-2.038-2.014s-1.903 0.82-2.040 2.014l-0.025 0.227-0.178 0.125c-0.028 0.020-0.067 0.086-0.091 0.213-0.033 0.178-0.022 0.413 0.028 0.646 0.092 0.41 0.257 0.657 0.383 0.721l0.15 0.078 0.069 0.166c0.211 0.521 0.393 0.659 0.8 1.102 0.109 0.117-0.501 0.52-0.686 0.612-0.139 0.072-0.282 0.112-0.431 0.153-0.416 0.117-0.888 0.25-1.461 1.123-0.43 0.656-0.628 2.912-0.653 4.070h8.262c-0.012-0.819-0.153-3.317-0.649-4.070-0.571-0.872-1.043-1.006-1.461-1.123z"></path>
    <path fill="#ccc"
          d="M8.502 5.24c0.135 0.173 0.255 0.41 0.315 0.734 0.081 0.43 0.026 0.856-0.036 1.141-0.132 0.606-0.395 1.086-0.755 1.385-0.015 0.033-0.030 0.064-0.045 0.095 0.559 0.202 1.177 0.571 1.801 1.524 0.397 0.603 0.61 1.698 0.724 2.695h1.855c-0.011-0.774-0.145-3.133-0.613-3.844-0.54-0.823-0.984-0.95-1.38-1.061-0.143-0.038-0.276-0.077-0.406-0.145-0.173-0.086-0.727-0.494-0.649-0.577 0.401-0.435 0.556-0.55 0.757-1.043l0.062-0.155 0.143-0.074c0.117-0.061 0.275-0.296 0.36-0.682 0.048-0.22 0.059-0.442 0.028-0.61-0.023-0.119-0.059-0.183-0.087-0.202l-0.164-0.118-0.026-0.214c-0.128-1.127-0.773-1.902-1.924-1.902-0.65 0-1.139 0.247-1.465 0.664 0.78 0.485 1.321 1.317 1.504 2.388z"></path>
</svg>