<?xml version="1.0" encoding="utf-8"?>
<svg xmlns="http://www.w3.org/2000/svg" xmlns:xlink="http://www.w3.org/1999/xlink" id="client-identity_export"
     width="16" height="16" viewBox="0 0 16 16" x="256" y="160">
    <path fill="#7289da"
          d="M7.721 14.844c-2.076 0-4.030 0-5.982 0-0.295 0-0.417-0.084-0.394-0.389 0.097-1.265 0.155-2.537 0.479-3.769 0.295-1.125 0.98-1.906 2.141-2.217 0.221-0.059 0.433-0.146 0.631-0.259 0.761-0.436 0.772-0.521 0.206-1.194-0.375-0.441-0.631-0.96-0.962-1.429-0.356-0.5-0.535-1.176 0.016-1.779 0.119-0.125 0.084-0.396 0.125-0.598 0.308-1.357 1.143-2.078 2.414-2.084 1.295-0.005 2.115 0.688 2.446 2.044 0.084 0.337 0.144 0.66 0.345 1 0.296 0.5 0.125 1.186-0.306 1.617-0.48 0.478-0.869 1.040-1.145 1.659-0.29 0.703-0.826 1.203-1.104 1.887-0.821 2.034-0.434 3.814 1.090 5.509z"></path>
    <path fill="#1ca037"
          d="M12.198 12.945l0.576-3.235-3.179 0.549c-0.075 0.139 0 0.194 0.053 0.25 0.76 0.818 0.76 0.818-0.015 1.592-0.352 0.354-0.719 0.695-1.055 1.063-0.25 0.271-0.375 0.206-0.543-0.084-0.75-1.291-0.524-3.091 0.557-4.216s2.887-1.375 4.25-0.606c1.411 0.784 2.114 2.441 1.695 4-0.386 1.495-1.723 2.564-3.266 2.611-0.646 0.027-1.288-0.116-1.863-0.414-0.304-0.16-0.402-0.29-0.098-0.572 0.535-0.492 1.051-1.009 1.545-1.544 0.25-0.276 0.429-0.25 0.625 0.024 0.171 0.234 0.346 0.465 0.519 0.697l0.197-0.115z"></path>
</svg>