<svg width="16" height="16" enable-background="new 0 0 512.418 512.418" fill="#7289da" version="1.1" viewBox="0 0 16 16" xmlns="http://www.w3.org/2000/svg">
 <path d="m13.667 2.3463c-3.1281-3.1282-8.1918-3.1287-11.32 0-3.1282 3.1282-3.1287 8.1918 0 11.32 3.1281 3.1282 8.1917 3.1286 11.32 0 3.1282-3.1282 3.1287-8.1918 0-11.32zm-.33456 10.179c-.374-.33444-.77407-.6304-1.1958-.88547.27872-.96278.44384-2.0222.48287-3.1236h2.3534c-.10641 1.4845-.67678 2.877-1.6405 4.009zm-12.292-4.009h2.3534c.039 1.1013.20416 2.1608.48288 3.1236-.42169.25507-.82175.55103-1.1958.88547-.96375-1.132-1.5341-2.5246-1.6405-4.009zm1.6406-5.0293c.374.33444.77406.63041 1.1958.88547-.27872.96279-.44384 2.0223-.48288 3.1236h-2.3534c.10643-1.4844.67678-2.877 1.6406-4.009zm4.8155.99091c-.83193-.0595-1.6341-.26441-2.3778-.60244.4325-1.1137 1.2298-2.4495 2.3778-2.7805zm0 1.0221v1.996h-3.082c.0353-.93163.16731-1.8262.38684-2.6448.8451.36944 1.754.59006 2.6952.64872zm0 3.0162v1.996c-.94122.0587-1.8501.27928-2.6952.64872-.21953-.81853-.35153-1.7131-.38684-2.6448zm0 3.0182v3.3829c-1.1479-.33103-1.9452-1.6667-2.3778-2.7805.74366-.33803 1.5458-.54293 2.3778-.60243zm1.0202 0c.83194.0595 1.6341.2644 2.3777.60243-.43253 1.1138-1.2298 2.4495-2.3777 2.7805zm0-1.0221v-1.996h3.082c-.0353.93162-.16732 1.8262-.38685 2.6448-.84509-.36944-1.754-.59006-2.6952-.64872zm0-3.0162v-1.996c.94122-.0587 1.8501-.27928 2.6952-.64872.21953.81853.35153 1.7131.38685 2.6448zm0-3.0182v-3.3829c1.1479.33103 1.9452 1.6668 2.3777 2.7805-.74365.338-1.5458.54291-2.3777.60241zm2.2912-2.8737c.65297.28594 1.2622.67366 1.8083 1.1547-.25994.22919-.53422.437-.82063.62285-.25434-.62975-.57925-1.2418-.98763-1.7776zm-6.5903 1.7776c-.28641-.18585-.56066-.39366-.82063-.62285.54609-.48106 1.1553-.86878 1.8082-1.1547-.40837.53588-.73328 1.1479-.98762 1.7776zm3e-5 9.2487c.25431.62972.57928 1.2418.98762 1.7776-.65297-.28593-1.2622-.67365-1.8082-1.1547.25994-.22919.53422-.43701.82063-.62285zm7.5779 0c.28641.18584.56069.39366.82063.62281-.5461.48107-1.1553.86879-1.8083 1.1547.40835-.53575.73329-1.1478.98763-1.7775zm.82381-5.1344c-.039-1.1013-.20415-2.1608-.48287-3.1236.42169-.25507.82172-.55104 1.1958-.88547.96375 1.132 1.5341 2.5246 1.6405 4.009z" style="stroke-width:.03125"/>
</svg>
