<?xml version="1.0" encoding="utf-8"?>
<svg xmlns="http://www.w3.org/2000/svg" xmlns:xlink="http://www.w3.org/1999/xlink" id="client-info" width="16"
     height="16" viewBox="0 0 16 16" x="352" y="160">
    <path fill="#a9aaac"
          d="M14.875 4.742c0 0.59-0.481 1.069-1.074 1.069h-11.601c-0.593 0-1.074-0.478-1.074-1.069v-1.923c0-0.59 0.481-1.069 1.074-1.069h11.602c0.593 0 1.074 0.478 1.074 1.069v1.923h-0z"></path>
    <path fill="#fff"
          d="M13.586 4.487c0 0.141-0.114 0.255-0.256 0.255h-3.57c-0.142 0-0.256-0.114-0.256-0.255v-1.414c0-0.141 0.114-0.255 0.256-0.255h3.57c0.142 0 0.256 0.114 0.256 0.255v1.414z"></path>
    <path fill="#ccc"
          d="M7.771 7.289h-5.572c-0.593 0-1.074 0.478-1.074 1.069v1.924c0 0.59 0.481 1.069 1.074 1.069h4.247c-0.035-0.232-0.053-0.47-0.053-0.712 0-1.304 0.527-2.488 1.379-3.349z"></path>
    <path fill="#e6e6e6"
          d="M7.933 14.143c-0.203-0.187-0.39-0.392-0.558-0.612-0.129-0.169-0.247-0.346-0.353-0.531h-5.897v1.25h6.93c-0.041-0.035-0.082-0.070-0.121-0.107z"></path>
    <path fill="#7289da"
          d="M14.875 10.638c0 1.942-1.574 3.516-3.516 3.516s-3.516-1.574-3.516-3.516c0-1.942 1.574-3.516 3.516-3.516s3.516 1.574 3.516 3.516z"></path>
    <path fill="#fff"
          d="M12.115 13.020c0 0.1-0.034 0.185-0.103 0.253-0.069 0.069-0.153 0.104-0.253 0.104h-0.8c-0.1 0-0.184-0.036-0.253-0.106s-0.103-0.154-0.103-0.251v-2.59c0-0.1 0.034-0.184 0.103-0.253s0.153-0.103 0.253-0.103h0.8c0.1 0 0.184 0.034 0.253 0.103s0.103 0.152 0.103 0.253v2.59z"></path>
    <path fill="#fff"
          d="M12.115 9.020c0 0.1-0.034 0.185-0.103 0.253-0.069 0.069-0.153 0.104-0.253 0.104h-0.8c-0.1 0-0.184-0.036-0.253-0.106s-0.103-0.154-0.103-0.251v-0.763c0-0.1 0.034-0.184 0.103-0.253s0.153-0.103 0.253-0.103h0.8c0.1 0 0.184 0.034 0.253 0.103s0.103 0.152 0.103 0.253v0.763z"></path>
</svg>