<?xml version="1.0" encoding="utf-8"?>
<svg xmlns="http://www.w3.org/2000/svg" xmlns:xlink="http://www.w3.org/1999/xlink" id="client-input_muted_local"
     width="16" height="16" viewBox="0 0 16 16" x="416" y="160">
    <path fill="#7289da"
          d="M6.368 14.858c-1.65 0-3.23-0.006-4.81 0-0.302 0-0.387-0.096-0.385-0.391-0.007-1.289 0.176-2.573 0.544-3.809 0.203-0.654 0.625-1.166 1.134-1.613 1.292-1.125 1.4-1.75 0.476-3.209-0.688-1.085-0.625-2.175-0.085-3.26 0.625-1.25 1.964-1.726 3.486-1.304 1.138 0.316 1.816 1.343 1.743 2.691-0.021 0.388 0.261 0.589 0.415 0.867 0.31 0.56 0.175 0.92-0.446 0.866-1.155-0.1-1.75 0.655-2.34 1.396-0.5 0.625-0.423 1.451 0.135 2.051 0.454 0.491 0.918 0.965 1.4 1.428 0.229 0.22 0.259 0.375 0.010 0.604-0.375 0.335-0.711 0.701-1.064 1.055-0.866 0.865-0.934 1.511-0.213 2.626z"></path>
    <path fill="#c90709"
          d="M8.010 6.762c0.22 0.032 0.419 0.146 0.557 0.32 0.656 0.669 1.344 1.309 1.97 2 0.274 0.303 0.4 0.211 0.625-0.018 0.625-0.644 1.269-1.264 1.893-1.906 0.344-0.354 0.665-0.388 1.010-0.015 0.14 0.158 0.288 0.307 0.445 0.449 0.455 0.396 0.393 0.761-0.019 1.155-0.616 0.59-1.2 1.215-1.819 1.803-0.25 0.238-0.277 0.385-0.011 0.64 0.645 0.625 1.25 1.28 1.887 1.909 0.352 0.348 0.386 0.666 0.010 1-0.031 0.027-0.060 0.057-0.089 0.088-0.887 0.908-0.887 0.908-1.797 0-0.516-0.511-1.037-1.016-1.537-1.549-0.211-0.225-0.346-0.209-0.55 0-0.579 0.6-1.172 1.184-1.762 1.771-0.634 0.633-0.764 0.625-1.415-0.020-0.074-0.074-0.143-0.154-0.221-0.22-0.457-0.387-0.419-0.742 0.010-1.144 0.625-0.584 1.194-1.223 1.824-1.799 0.32-0.293 0.264-0.457-0.016-0.725-0.647-0.617-1.25-1.283-1.896-1.901-0.433-0.414-0.414-0.776 0.020-1.151 0.289-0.247 0.486-0.629 0.883-0.686z"></path>
    <path fill="#e6e6e6"
          d="M14.76 6.197c-0.387-0.144-0.678-0.36-1.043-0.344-0.224 0.010-0.242-0.181-0.297-0.335-0.371-1.061-0.968-2.029-1.75-2.836-0.269-0.276-0.35-0.584-0.044-0.875 0.277-0.259 0.586-0.185 0.83 0.069 1.162 1.192 1.962 2.691 2.304 4.321v0z"></path>
    <path fill="#ececec"
          d="M11.441 7.535c-0.168-1.237-0.72-2.39-1.578-3.298-0.2-0.215-0.154-0.516 0.079-0.726s0.5-0.194 0.728 0.018c0.807 0.727 1.371 1.685 1.614 2.744 0.124 0.559-0.554 0.688-0.842 1.263z"></path>
    <path fill="#e6e6e6"
          d="M14.607 10.288c-0.106 0.428-0.082 0.729-0.363 0.885-0.034 0.019-0.242-0.145-0.25-0.23-0.010-0.334 0.273-0.431 0.613-0.655z"></path>
</svg>