<?xml version="1.0" encoding="utf-8"?>
<svg xmlns="http://www.w3.org/2000/svg" xmlns:xlink="http://www.w3.org/1999/xlink" id="client-input_muted" width="16"
     height="16" viewBox="0 0 16 16" x="384" y="160">
    <path fill="#c90709"
          d="M12.364 10.892l2.355 2.364c0.104 0.103 0.156 0.226 0.156 0.369s-0.052 0.263-0.156 0.361l-0.73 0.731c-0.098 0.104-0.22 0.155-0.366 0.155s-0.267-0.052-0.365-0.155l-2.362-2.356-2.363 2.356c-0.098 0.104-0.22 0.155-0.365 0.155s-0.267-0.052-0.365-0.155l-0.731-0.731c-0.104-0.098-0.155-0.219-0.155-0.361s0.051-0.266 0.155-0.369l2.355-2.364-2.431-2.465c-0.104-0.104-0.155-0.227-0.155-0.37s0.051-0.265 0.155-0.369l0.731-0.731c0.099-0.098 0.22-0.148 0.365-0.148s0.267 0.049 0.366 0.148l2.438 2.474 2.362-2.364c0.099-0.098 0.221-0.148 0.365-0.148s0.268 0.049 0.366 0.148l0.73 0.731c0.104 0.104 0.156 0.227 0.156 0.369s-0.052 0.266-0.156 0.37l-2.355 2.357z"></path>
    <path fill="#7289da"
          d="M9.216 6.196l0.003 0.003 0.003 0.003 1.678 1.703 1.707-1.708c0.298-0.297 0.697-0.461 1.123-0.461 0.34 0 0.662 0.105 0.929 0.297 0.433-1.206 0.203-2.756-0.869-3.829-1.438-1.438-3.777-1.438-5.215 0-0.972 0.973-1.286 2.358-0.943 3.597 0.147-0.044 0.302-0.067 0.461-0.067 0.426-0 0.825 0.164 1.124 0.461z"></path>
    <path fill="#a9aaac"
          d="M1.706 14.293c0.774 0.775 2.029 0.776 2.805 0.002l-2.807-2.808c-0.773 0.776-0.773 2.031 0.002 2.806z"></path>
    <path fill="#a9aaac"
          d="M7.914 10.888l-1.681-1.706c-0.3-0.303-0.466-0.702-0.466-1.125 0-0.35 0.115-0.682 0.324-0.959l-3.627 3.629 2.807 2.808 2.643-2.647z"></path>
</svg>