<?xml version="1.0" encoding="utf-8"?>
<svg xmlns="http://www.w3.org/2000/svg" xmlns:xlink="http://www.w3.org/1999/xlink" id="client-kick_channel" width="16"
     height="16" viewBox="0 0 16 16" x="0" y="192">
    <path fill="#7289da"
          d="M14.51 7.785c-0.125-0.115-0.133-0.25-0.172-0.375-0.285-0.891-0.81-1.25-1.75-1.094-0.604 0.098-1.196 0.266-1.791 0.414-0.756 0.189-1.51 0.375-2.296 0.18-1.326-0.385-2.365-1.043-2.664-2.543-0.125-0.601-0.464-0.655-0.94-0.275-0.13 0.099-0.25 0.21-0.359 0.332-0.709 0.834-1.616 1.353-2.639 1.7-0.808 0.284-0.959 0.586-0.639 1.396 0.333 0.788 0.584 1.608 0.75 2.448 0.040 1.389 0.822 2.489 1.429 3.656 0.139 0.269 0.329 0.295 0.611 0.182 0.987-0.393 1.984-0.761 2.981-1.125 0.185-0.069 0.353-0.145 0.357-0.365 0.022-0.887 0.656-0.969 1.285-0.886 1.607 0.209 2.953-0.46 4.296-1.169 0.599-0.316 1.184-0.659 1.625-1.186 0.424-0.509 0.404-0.848-0.085-1.291z"></path>
    <path fill="#c90709"
          d="M11.242 5.666c-2.2 0-3.509-1.54-3-3.52 0.286-1.1 1.269-1.896 2.511-2.021 0.326-0.023 0.654-0.023 0.98 0 0.714 0.033 0.75 0.109 0.669 0.801-0.044 0.36-0.166 0.39-0.5 0.335-1.026-0.171-1.766 0.189-2.033 0.944-0.234 0.636-0.195 1.26 0.244 1.795 0.489 0.596 1.165 0.596 1.859 0.5 0.159-0.021 0.459-0.272 0.45 0.096-0.009 0.322 0.405 0.779-0.205 0.986-0.32 0.112-0.649 0.074-0.975 0.084z"></path>
</svg>