<?xml version="1.0" encoding="utf-8"?>
<svg xmlns="http://www.w3.org/2000/svg" xmlns:xlink="http://www.w3.org/1999/xlink" id="client-listview" width="16"
     height="16" viewBox="0 0 16 16" x="64" y="192">
    <path fill="#a9aaac"
          d="M10.022 3.938h-6.502c-0.345 0-0.625 0.28-0.625 0.625s0.28 0.625 0.625 0.625h5.221c0.301-0.555 0.741-0.982 1.281-1.25z"></path>
    <path fill="#a9aaac"
          d="M3.52 10.813c-0.345 0-0.625 0.28-0.625 0.625s0.28 0.625 0.625 0.625h3.197c0.113-0.495 0.263-0.942 0.463-1.25h-3.66z"></path>
    <path fill="#a9aaac"
          d="M8.093 8.112l-0.001-0.004c-0.041-0.189-0.079-0.45-0.070-0.733h-4.502c-0.345 0-0.625 0.28-0.625 0.625s0.28 0.625 0.625 0.625h4.734c-0.065-0.157-0.119-0.327-0.16-0.51l-0.001-0.004z"></path>
    <path fill="#a9aaac"
          d="M6.44 14h-3.815c-0.198 0-0.372-0.094-0.486-0.237-0.086-0.107-0.139-0.241-0.139-0.388v-10.75c0-0.345 0.28-0.625 0.625-0.625h9.061c0.302 0 0.554 0.214 0.612 0.499 0.008 0.041 0.013 0.083 0.013 0.126v1.104c0.481 0.129 0.903 0.37 1.25 0.7v-1.804c0-0.084-0.008-0.167-0.018-0.248-0.105-0.792-0.705-1.43-1.479-1.588-0.028-0.006-0.057-0.008-0.085-0.013-0.095-0.015-0.193-0.025-0.292-0.025h-9.061c-1.034 0-1.875 0.841-1.875 1.875v10.75c0 0.065 0.003 0.128 0.010 0.191 0.096 0.944 0.896 1.684 1.865 1.684h3.75l0-0.027c0.004-0.191 0.018-0.655 0.064-1.223z"></path>
    <path fill="#7289da"
          d="M13.303 10.458c-0.139-0.039-0.268-0.076-0.397-0.141-0.169-0.085-0.711-0.484-0.633-0.566 0.391-0.425 0.543-0.536 0.739-1.018l0.061-0.152 0.139-0.072c0.114-0.060 0.269-0.289 0.351-0.666 0.048-0.215 0.058-0.432 0.028-0.596-0.022-0.117-0.057-0.179-0.085-0.197l-0.16-0.115-0.026-0.209c-0.124-1.101-0.755-1.859-1.879-1.859-1.126 0-1.757 0.757-1.883 1.858l-0.023 0.21-0.164 0.115c-0.026 0.019-0.062 0.080-0.084 0.197-0.030 0.164-0.021 0.381 0.026 0.596 0.084 0.378 0.237 0.607 0.353 0.666l0.139 0.072 0.063 0.153c0.195 0.481 0.362 0.608 0.738 1.017 0.101 0.109-0.462 0.48-0.633 0.566-0.129 0.066-0.261 0.102-0.398 0.141-0.384 0.107-0.82 0.231-1.349 1.035-0.397 0.607-0.579 2.688-0.602 3.757h7.625c-0.011-0.756-0.142-3.061-0.599-3.757-0.527-0.804-0.962-0.928-1.348-1.035z"></path>
</svg>