<?xml version="1.0" encoding="utf-8"?>
<svg xmlns="http://www.w3.org/2000/svg" xmlns:xlink="http://www.w3.org/1999/xlink" id="client-message_info" width="16"
     height="16" viewBox="0 0 16 16" x="160" y="192">
    <path fill="#7289da"
          d="M8 4c-3.279 0-5.938 2.659-5.938 5.937s2.659 5.938 5.938 5.938c3.279 0 5.937-2.658 5.937-5.938s-2.658-5.937-5.937-5.937z"></path>
    <path fill="#fff"
          d="M9.188 13.598c0 0.149-0.052 0.274-0.152 0.373-0.102 0.103-0.225 0.154-0.372 0.154h-1.328c-0.147 0-0.271-0.053-0.372-0.156-0.101-0.104-0.152-0.227-0.152-0.371v-3.452c0-0.148 0.051-0.273 0.152-0.374s0.224-0.152 0.372-0.152h1.328c0.147 0 0.27 0.051 0.372 0.152 0.1 0.101 0.152 0.226 0.152 0.374v3.452h-0z"></path>
    <path fill="#fff"
          d="M9.188 7.596c0 0.152-0.052 0.279-0.152 0.382-0.102 0.105-0.225 0.157-0.372 0.157h-1.328c-0.147 0-0.271-0.054-0.372-0.16s-0.152-0.233-0.152-0.379v-1.309c0-0.151 0.051-0.279 0.152-0.382 0.101-0.105 0.224-0.156 0.372-0.156h1.328c0.147 0 0.27 0.051 0.372 0.156 0.1 0.103 0.152 0.231 0.152 0.382v1.309h-0z"></path>
</svg>