<?xml version="1.0" encoding="utf-8"?>
<svg xmlns="http://www.w3.org/2000/svg" xmlns:xlink="http://www.w3.org/1999/xlink" id="client-messages" width="16"
     height="16" viewBox="0 0 16 16" x="224" y="192">
    <path fill="#7289da"
          d="M11.956 1.563h-7.913c-1.612 0-2.918 1.307-2.918 2.918v3.787c0 1.612 1.307 2.918 2.918 2.918h4.317c0.254 0.67 0.515 2.036-0.863 3.249 2.518-0.468 3.701-2.439 4.088-3.249h0.371c1.612 0 2.918-1.306 2.918-2.918v-3.787c0-1.612-1.307-2.918-2.919-2.918z"></path>
    <path fill="#fff"
          d="M12.706 8.604c-0.096 0.017-0.207 0.025-0.334 0.025-0.246 0-0.469-0.039-0.668-0.117s-0.371-0.189-0.513-0.333c-0.142-0.144-0.252-0.318-0.329-0.524s-0.115-0.435-0.115-0.689c0-0.262 0.042-0.498 0.127-0.708s0.2-0.387 0.346-0.533c0.146-0.146 0.316-0.257 0.51-0.333s0.4-0.114 0.619-0.114c0.123 0 0.233 0.006 0.331 0.019s0.193 0.036 0.285 0.070l-0.058 0.647c-0.069-0.034-0.14-0.059-0.213-0.076s-0.157-0.025-0.253-0.025c-0.146 0-0.274 0.028-0.383 0.083s-0.202 0.129-0.277 0.222c-0.075 0.093-0.132 0.202-0.17 0.327s-0.057 0.259-0.057 0.403c0 0.148 0.017 0.285 0.052 0.409s0.089 0.234 0.164 0.327c0.075 0.093 0.169 0.165 0.282 0.216s0.249 0.076 0.406 0.076c0.088 0 0.173-0.008 0.253-0.026s0.164-0.046 0.248-0.089l0.040 0.667c-0.1 0.034-0.198 0.059-0.294 0.076z"></path>
    <path fill="#fff"
          d="M10.232 7.623c-0.060 0.214-0.145 0.397-0.256 0.549s-0.247 0.272-0.406 0.359c-0.159 0.087-0.339 0.13-0.539 0.13-0.226 0-0.421-0.053-0.582-0.159s-0.292-0.254-0.392-0.445h-0.011c0 0.093-0.002 0.188-0.006 0.286s-0.010 0.178-0.017 0.241h-0.715c0.011-0.135 0.019-0.289 0.023-0.46s0.006-0.344 0.006-0.517v-3.821h0.761v1.126c0 0.161-0.001 0.321-0.003 0.481s-0.007 0.302-0.014 0.424h0.012c0.111-0.189 0.251-0.332 0.418-0.431s0.36-0.148 0.579-0.148c0.188 0 0.359 0.041 0.513 0.124s0.283 0.199 0.389 0.349c0.106 0.15 0.187 0.328 0.245 0.533s0.086 0.431 0.086 0.676c-0 0.254-0.030 0.488-0.089 0.702zM8.84 5.894c-0.111 0-0.212 0.027-0.302 0.080s-0.168 0.128-0.233 0.224c-0.065 0.096-0.115 0.207-0.15 0.335s-0.052 0.268-0.052 0.421c0 0.153 0.017 0.294 0.052 0.422s0.084 0.238 0.147 0.332c0.063 0.094 0.14 0.167 0.23 0.22s0.191 0.080 0.302 0.080c0.223 0 0.396-0.099 0.519-0.297s0.184-0.452 0.184-0.763c0-0.315-0.059-0.569-0.176-0.763s-0.291-0.291-0.521-0.291z"></path>
    <path fill="#fff"
          d="M5.965 8.585l-0.351-1.022h-1.677l-0.352 1.022h-0.835l1.579-4.431h0.916l1.602 4.431h-0.881zM4.986 5.617c-0.027-0.091-0.053-0.184-0.078-0.279s-0.049-0.185-0.072-0.27c-0.023-0.085-0.040-0.157-0.052-0.216h-0.011c-0.015 0.059-0.035 0.131-0.058 0.216s-0.049 0.175-0.078 0.27c-0.029 0.095-0.057 0.188-0.084 0.279s-0.052 0.17-0.075 0.238l-0.334 1.035h1.25l-0.334-1.035c-0.023-0.067-0.048-0.147-0.075-0.238z"></path>
</svg>