<svg version="1.1" viewBox="0 0 10.165 16" xmlns="http://www.w3.org/2000/svg">
 <defs>
  <clipPath>
   <path d="m1e4 0h-1e4v1e4h1e4v-1e4m-5943.8 8689.6c-213.71 0-405.54-93.27-537.3-241.21-113.23-127.12-182.11-294.58-182.11-478.21v-3963.2c0-397.32 322.08-719.41 719.41-719.41h1887.5c397.33 0 719.42 322.09 719.42 719.41v3963.2c0 187.84-72.06 358.81-189.95 486.93-131.49 142.89-319.99 232.49-529.47 232.49h-1887.5m2225-2462.5h-264.44c-23.1 48.63-36.03 103.04-36.03 160.47 0 181.5 129.1 332.79 300.47 367.21v-527.68m-494.82 0h-677.21c-23.1 48.64-36.02 103.04-36.02 160.47 0 206.89 167.73 374.62 374.62 374.62 206.91 0 374.62-167.73 374.62-374.62 0-57.43-12.92-111.83-36.01-160.47m-907.57 0h-677.21c-23.09 48.64-36.01 103.04-36.01 160.47 0 206.89 167.72 374.62 374.62 374.62 206.89 0 374.62-167.73 374.62-374.62 0-57.43-12.92-111.83-36.02-160.47m-907.64 0h-252.37v1743.1c0 53.67 12.93 104.25 35.31 149.35 47.97 96.64 140.65 167.31 250.94 184.22 1.46-13.35 2.21-26.91 2.21-40.65 0-177.2-123.17-325.29-288.46-364.27v-502.08c33.37 172.71 185.17 303.2 367.63 303.2 206.89 0 374.62-167.72 374.62-374.61 0-206.9-167.73-374.62-374.62-374.62-182.46 0-334.26 130.49-367.63 303.19v-502.08c165.29-38.96 288.46-187.06 288.46-364.26 0-57.46-12.95-111.86-36.09-160.47m1930.4 723.62c-206.9 0-374.61 167.72-374.61 374.62 0 206.89 167.71 374.61 374.61 374.61 206.89 0 374.61-167.72 374.61-374.61 0-206.9-167.72-374.62-374.61-374.62m-907.58 0c-206.88 0-374.61 167.72-374.61 374.62 0 206.89 167.73 374.61 374.61 374.61 206.9 0 374.63-167.72 374.63-374.61 0-206.9-167.73-374.62-374.63-374.62m453.79 937.76c-206.89 0-374.62 167.73-374.62 374.62 0 15.08.91 29.94 2.67 44.54h743.91c1.75-14.6 2.66-29.46 2.66-44.54 0-206.89-167.71-374.62-374.62-374.62m-907.56 0c-206.9 0-374.62 167.73-374.62 374.62 0 15.08.9 29.94 2.66 44.54h743.91c1.76-14.6 2.67-29.46 2.67-44.54 0-206.89-167.73-374.62-374.62-374.62m1741 7.4c-171.37 34.42-300.47 185.71-300.47 367.22 0 14.29.81 28.39 2.38 42.26 110.79-12.93 205.34-79.77 256.72-173.49 26.34-48.05 41.37-103.13 41.37-161.69v-74.3"/>
  </clipPath>
  <clipPath id="clipPath42">
   <path d="m6016.8 6227.1h-230.38c23.09 48.64 36.01 103.04 36.01 160.47 0 206.89-167.71 374.62-374.62 374.62-206.89 0-374.62-167.73-374.62-374.62 0-57.43 12.92-111.83 36.02-160.47h-230.36c23.1 48.64 36.02 103.04 36.02 160.47 0 206.89-167.73 374.62-374.62 374.62-206.9 0-374.62-167.73-374.62-374.62 0-57.43 12.92-111.83 36.01-160.47h-230.43c23.14 48.61 36.09 103.01 36.09 160.47 0 177.2-123.17 325.3-288.46 364.26v502.08c33.37-172.7 185.17-303.19 367.63-303.19 206.89 0 374.62 167.72 374.62 374.62 0 206.89-167.73 374.61-374.62 374.61-182.46 0-334.26-130.49-367.63-303.2v502.08c165.29 38.98 288.46 187.07 288.46 364.27 0 13.74-.75 27.3-2.21 40.65 16.7 2.56 33.8 3.89 51.21 3.89h111.99c-1.76-14.6-2.66-29.46-2.66-44.54 0-206.89 167.72-374.62 374.62-374.62 206.89 0 374.62 167.73 374.62 374.62 0 15.08-.91 29.94-2.67 44.54h163.66c-1.76-14.6-2.67-29.46-2.67-44.54 0-206.89 167.73-374.62 374.62-374.62 206.91 0 374.62 167.73 374.62 374.62 0 15.08-.91 29.94-2.66 44.54h124.03c13.31 0 26.44-.78 39.35-2.28-1.57-13.87-2.38-27.97-2.38-42.26 0-181.51 129.1-332.8 300.47-367.22v-1141.1c-171.37-34.42-300.47-185.71-300.47-367.21 0-57.43 12.93-111.84 36.03-160.47m-115.2 1472.8c-206.9 0-374.61-167.72-374.61-374.61 0-206.9 167.71-374.62 374.61-374.62 206.89 0 374.61 167.72 374.61 374.62 0 206.89-167.72 374.61-374.61 374.61m-907.58 0c-206.88 0-374.61-167.72-374.61-374.61 0-206.9 167.73-374.62 374.61-374.62 206.9 0 374.63 167.72 374.63 374.62 0 206.89-167.73 374.61-374.63 374.61"/>
  </clipPath>
 </defs>
 <g transform="matrix(1.3333 0 0 -1.3333 -661.58 674.67)" style="stroke-width:.99975">
  <g transform="matrix(.0016262 0 0 .0016262 491.87 491.87)" style="stroke-width:9.9975">
   <g style="stroke-width:9.9975"/>
   <path d="m6281.2 6563.5v-336.35h-2562.4v1743.1c0 53.67 12.93 104.25 35.31 149.35 55.23 111.27 169.75 188.11 302.15 188.11h1887.5c127.52 0 238.7-71.13 296.07-175.77 26.34-48.05 41.37-103.13 41.37-161.69v-1406.7m192.03 1893.7c-131.49 142.89-319.99 232.49-529.47 232.49h-1887.5c-213.71 0-405.54-93.27-537.3-241.21-113.23-127.12-182.11-294.58-182.11-478.21v-3963.2c0-397.32 322.08-719.41 719.41-719.41h1887.5c397.33 0 719.42 322.09 719.42 719.41v3963.2c0 187.84-72.06 358.81-189.95 486.93" style="fill:#7289da"/>
   <path d="m6888.8 6026.3h-4.6v-2389.2c0-450.14-364.91-815.04-815.05-815.04h-2138.4c-450.12 0-815.03 364.9-815.03 815.03v2389.2h-4.6c-251.43 0-455.26-203.82-455.26-455.26v-2091.9c0-619.63 502.3-1121.9 1121.9-1121.9h781.45v-478.83h-554.15c-310.59 0-562.35-251.77-562.35-562.36v-5.68h3114.5v5.68c0 310.59-251.79 562.36-562.37 562.36h-554.14v478.83h781.44c619.63 0 1121.9 502.3 1121.9 1121.9v2091.9c0 251.44-203.82 455.26-455.26 455.26" style="fill:#7289da"/>
   <g style="stroke-width:9.9975">
    <g clip-path="url(#clipPath42)" style="stroke-width:9.9975">
     <path d="m6016.8 6227.1h-230.38c23.09 48.64 36.01 103.04 36.01 160.47 0 206.89-167.71 374.62-374.62 374.62-206.89 0-374.62-167.73-374.62-374.62 0-57.43 12.92-111.83 36.02-160.47h-230.36c23.1 48.64 36.02 103.04 36.02 160.47 0 206.89-167.73 374.62-374.62 374.62-206.9 0-374.62-167.73-374.62-374.62 0-57.43 12.92-111.83 36.01-160.47h-230.43c23.14 48.61 36.09 103.01 36.09 160.47 0 177.2-123.17 325.3-288.46 364.26v502.08c33.37-172.7 185.17-303.19 367.63-303.19 206.89 0 374.62 167.72 374.62 374.62 0 206.89-167.73 374.61-374.62 374.61-182.46 0-334.26-130.49-367.63-303.2v502.08c165.29 38.98 288.46 187.07 288.46 364.27 0 13.74-.75 27.3-2.21 40.65 16.7 2.56 33.8 3.89 51.21 3.89h111.99c-1.76-14.6-2.66-29.46-2.66-44.54 0-206.89 167.72-374.62 374.62-374.62 206.89 0 374.62 167.73 374.62 374.62 0 15.08-.91 29.94-2.67 44.54h163.66c-1.76-14.6-2.67-29.46-2.67-44.54 0-206.89 167.73-374.62 374.62-374.62 206.91 0 374.62 167.73 374.62 374.62 0 15.08-.91 29.94-2.66 44.54h124.03c13.31 0 26.44-.78 39.35-2.28-1.57-13.87-2.38-27.97-2.38-42.26 0-181.51 129.1-332.8 300.47-367.22v-1141.1c-171.37-34.42-300.47-185.71-300.47-367.21 0-57.43 12.93-111.84 36.03-160.47m-115.2 1472.8c-206.9 0-374.61-167.72-374.61-374.61 0-206.9 167.71-374.62 374.61-374.62 206.89 0 374.61 167.72 374.61 374.62 0 206.89-167.72 374.61-374.61 374.61m-907.58 0c-206.88 0-374.61-167.72-374.61-374.61 0-206.9 167.73-374.62 374.61-374.62 206.9 0 374.63 167.72 374.63 374.62 0 206.89-167.73 374.61-374.63 374.61" style="fill:#ccc"/>
    </g>
   </g>
   <path d="m6281.2 5879.8h-2562.4v143.48c111.69 26.34 204.15 102.5 252.37 203.8h230.43c60.12-126.6 189.15-214.15 338.61-214.15s278.49 87.55 338.6 214.15h230.36c60.11-126.6 189.14-214.15 338.6-214.15 149.47 0 278.5 87.55 338.61 214.15h230.38c49.9-105.08 147.29-183.22 264.44-206.74v-140.54m0 874.96v1141.1-1141.1m-2276.2 1549c-6.08 55.61-24.47 107.47-52.18 153.05h267.13c-27.01-44.55-45.22-95.05-51.75-149.16h-111.99c-17.41 0-34.51-1.33-51.21-3.89m1978.1 1.61c-12.91 1.5-26.04 2.28-39.35 2.28h-124.03c-6.52 54.11-24.73 104.61-51.75 149.16h266.97c-27.37-45.16-45.61-96.47-51.84-151.44m-907.29 2.28h-163.66c-6.52 54.11-24.73 104.61-51.75 149.16h267.16c-27.02-44.55-45.23-95.05-51.75-149.16" style="fill:#7289da"/>
   <path d="m5043.9 3891-211.6 376.82 211.6 376.8-211.6 376.81 211.6 376.83-118.8 211.54c-443.67 334.93-1110 69.17-1145.4-542.46-34.61-597.4 711.68-1068.5 1189.8-1308.9l74.44 132.52" style="fill:#fff"/>
   <path d="m6220.3 5067.3c-35.91 620-720.11 884.62-1163.5 528.38l110.9-197.46-211.62-376.83 211.62-376.81-211.62-376.8 211.62-376.82-48.87-87.02c476.15 251.6 1134 701.64 1101.5 1263.4" style="fill:#fff"/>
  </g>
 </g>
</svg>
