<svg id="client-close_button" x="64" y="96" version="1.1" viewBox="0 0 16 16" xmlns="http://www.w3.org/2000/svg">
 <path d="m14.255 12.773c0 .25032-.08415.46316-.25951.63286-.169.17041-.37901.25597-.62932.25597-4.2298-.000225-6.8177.000177-10.599.000707-.25032 0-.46245-.08485-.63074-.25597-.17536-.16971-.26022-.38184-.25951-.63286v-.68165c0-.25173.089803-.46457.26375-.63286.17678-.17112.38325-.25597.6265-.25597 12.936.02215-2.3743.0084 10.601-.000707.2489 0 .46033.08556.62862.25668.17536.16829.25951.38113.25951.63286v.68165z" fill="#a9aaac"/>
</svg>
