<?xml version="1.0" encoding="utf-8"?>
<svg xmlns="http://www.w3.org/2000/svg" xmlns:xlink="http://www.w3.org/1999/xlink"
     id="client-move_client_to_own_channel" width="16" height="16" viewBox="0 0 16 16" x="288" y="192">
    <path fill="#7289da"
          d="M6.774 13.815c-0.484 0-0.934-0.19-1.268-0.533-0.326-0.335-0.506-0.775-0.506-1.24v-1.048c0-0.477 0.184-0.923 0.518-1.257 0.334-0.333 0.78-0.517 1.256-0.517h2.732v-0.323c-0.31-0.211-0.595-0.292-0.861-0.367-0.185-0.052-0.358-0.101-0.527-0.186-0.224-0.113-0.94-0.641-0.838-0.751 0.519-0.562 0.719-0.71 0.979-1.347l0.082-0.202 0.183-0.095c0.153-0.080 0.357-0.383 0.466-0.881 0.063-0.285 0.076-0.573 0.036-0.789-0.030-0.155-0.077-0.237-0.112-0.262l-0.213-0.152-0.033-0.276c-0.165-1.459-1-2.462-2.489-2.462-1.491 0-2.326 1.003-2.493 2.461l-0.032 0.278-0.216 0.151c-0.035 0.024-0.082 0.106-0.111 0.261-0.040 0.217-0.027 0.505 0.036 0.79 0.111 0.5 0.314 0.803 0.467 0.882l0.185 0.095 0.083 0.203c0.259 0.638 0.481 0.806 0.978 1.346 0.133 0.145-0.613 0.637-0.838 0.751-0.171 0.086-0.345 0.134-0.527 0.186-0.509 0.142-1.085 0.305-1.786 1.371-0.526 0.803-0.768 3.558-0.798 4.975h8.381v-1.060h-2.732z"></path>
    <path fill="#1ca037"
          d="M14.875 11.517l-4.119-3.36v2.312h-3.982c-0.147 0-0.271 0.050-0.372 0.151s-0.151 0.225-0.151 0.373v1.048c0 0.142 0.050 0.264 0.152 0.368s0.225 0.155 0.372 0.155h3.982v2.31l4.119-3.358z"></path>
</svg>