<?xml version="1.0" encoding="utf-8"?>
<svg xmlns="http://www.w3.org/2000/svg" xmlns:xlink="http://www.w3.org/1999/xlink" id="client-new_chat" width="16"
     height="16" viewBox="0 0 16 16" x="352" y="192">
    <path fill="#c90709"
          d="M3.343 7.998l-2.416-4.596 5.119 0.877 3.622-3.717 0.748 5.139 4.656 2.297-4.656 2.297-0.748 5.141-3.622-3.72-5.119 0.876 2.416-4.594z"></path>
    <path fill="#fff"
          d="M7.808 10.625l-0.022-1.219-1.798-0.582-0.731 0.975-0.896-0.289 3.23-4.205 0.982 0.317 0.181 5.308-0.945-0.305zM7.788 7.102c0.002-0.107 0.006-0.216 0.013-0.327s0.012-0.216 0.017-0.314c0.004-0.099 0.011-0.182 0.019-0.25l-0.012-0.004c-0.037 0.058-0.083 0.129-0.137 0.212s-0.113 0.17-0.177 0.263c-0.064 0.092-0.126 0.182-0.187 0.27s-0.115 0.165-0.163 0.229l-0.717 0.995 1.34 0.434 0.002-1.226c-0.002-0.080-0.001-0.174 0.002-0.281z"></path>
</svg>