<?xml version="1.0" encoding="utf-8"?>
<svg xmlns="http://www.w3.org/2000/svg" xmlns:xlink="http://www.w3.org/1999/xlink" id="client-notifications" width="16"
     height="16" viewBox="0 0 16 16" x="384" y="192">
    <path fill="#7289da"
          d="M11.956 1.563h-7.913c-1.612 0-2.918 1.307-2.918 2.918v3.787c0 1.612 1.307 2.918 2.918 2.918h4.317c0.254 0.67 0.515 2.036-0.863 3.249 2.518-0.468 3.701-2.439 4.088-3.249h0.371c1.612 0 2.918-1.306 2.918-2.918v-3.787c0-1.612-1.307-2.918-2.919-2.918z"></path>
    <path fill="#fff"
          d="M8.938 9.234c0 0.121-0.043 0.223-0.128 0.305-0.085 0.084-0.19 0.126-0.313 0.126h-0.993c-0.124 0-0.229-0.043-0.314-0.128s-0.128-0.186-0.128-0.303v-3.134c0-0.121 0.043-0.223 0.128-0.306s0.19-0.125 0.314-0.125h0.993c0.124 0 0.228 0.041 0.313 0.125s0.128 0.185 0.128 0.306v3.134z"></path>
    <path fill="#fff"
          d="M8.938 4.394c0 0.121-0.043 0.223-0.128 0.306-0.085 0.083-0.19 0.125-0.313 0.125h-0.993c-0.124 0-0.229-0.043-0.314-0.128s-0.128-0.186-0.128-0.303v-0.923c0-0.121 0.043-0.223 0.128-0.306s0.19-0.125 0.314-0.125h0.993c0.124 0 0.228 0.041 0.313 0.125s0.128 0.184 0.128 0.306v0.924z"></path>
</svg>