<?xml version="1.0" encoding="utf-8"?>
<svg xmlns="http://www.w3.org/2000/svg" xmlns:xlink="http://www.w3.org/1999/xlink" id="client-offline_messages"
     width="16" height="16" viewBox="0 0 16 16" x="416" y="192">
    <path fill="#7289da"
          d="M14.76 3.52c-0.159-0.403-0.472-0.728-0.867-0.902-0.202-0.089-0.424-0.139-0.658-0.139h-10.47c-0.234 0-0.456 0.050-0.658 0.139-0.395 0.174-0.708 0.499-0.867 0.901-0.073 0.186-0.115 0.388-0.115 0.6v7.761c0 0.225 0.046 0.439 0.128 0.634 0.169 0.4 0.492 0.72 0.894 0.884 0.191 0.078 0.399 0.122 0.618 0.122h10.471c0.219 0 0.427-0.044 0.618-0.122 0.402-0.164 0.726-0.483 0.894-0.884 0.082-0.195 0.128-0.409 0.128-0.634v-7.761c0-0.212-0.041-0.414-0.115-0.599zM13.625 11.107l-2.813-3.53 2.813-2.89v6.42zM12.812 3.73l-4.811 4.943-4.811-4.943h9.623zM2.375 11.106v-6.42l2.813 2.89-2.813 3.53zM3.046 12.27l3.021-3.791 1.485 1.526c0.118 0.121 0.279 0.189 0.448 0.189s0.33-0.068 0.448-0.189l1.485-1.526 3.021 3.791h-9.908z"></path>
</svg>