<?xml version="1.0" encoding="utf-8"?>
<svg xmlns="http://www.w3.org/2000/svg" xmlns:xlink="http://www.w3.org/1999/xlink" id="client-permission_channel"
     width="16" height="16" viewBox="0 0 16 16" x="0" y="224">
    <path fill="#7289da"
          d="M11.956 1.563h-7.913c-1.612 0-2.918 1.307-2.918 2.918v3.787c0 1.612 1.307 2.918 2.918 2.918h4.317c0.254 0.67 0.515 2.036-0.863 3.249 2.518-0.468 3.701-2.439 4.088-3.249h0.371c1.612 0 2.918-1.306 2.918-2.918v-3.787c0-1.612-1.307-2.918-2.919-2.918z"></path>
    <path fill="#fff"
          d="M9.409 4.112c-0.325-0.138-0.79-0.236-1.222-0.236-0.349 0-0.748 0.155-0.748 0.48 0 0.349 0.391 0.487 1.147 0.755 0.974 0.341 1.289 0.723 1.289 1.364 0 0.431-0.233 0.828-0.607 1.047 0.341 0.236 0.491 0.569 0.491 0.934 0 0.942-0.831 1.494-1.928 1.494-0.541 0-1.123-0.098-1.605-0.252 0.025-0.349 0.050-0.69 0.083-1.032 0.382 0.171 0.989 0.308 1.397 0.308 0.458 0 0.823-0.113 0.823-0.463s-0.407-0.463-1.172-0.755c-0.898-0.333-1.231-0.715-1.231-1.348 0-0.414 0.208-0.795 0.615-1.048-0.349-0.251-0.516-0.56-0.516-0.958 0-0.942 0.881-1.454 1.921-1.454 0.466 0 0.972 0.073 1.388 0.171l-0.125 0.991zM7.431 5.745c-0.167 0.13-0.258 0.325-0.258 0.495 0 0.447 0.641 0.626 1.388 0.901 0.167-0.114 0.258-0.284 0.258-0.471 0-0.309-0.159-0.454-0.856-0.723-0.175-0.065-0.358-0.13-0.532-0.203z"></path>
</svg>