<?xml version="1.0" encoding="utf-8"?>
<svg xmlns="http://www.w3.org/2000/svg" xmlns:xlink="http://www.w3.org/1999/xlink" id="client-permission_overview"
     width="16" height="16" viewBox="0 0 16 16" x="64" y="224">
    <path fill="#7289da"
          d="M14.875 13c0 1.036-0.839 1.875-1.875 1.875h-10c-1.036 0-1.875-0.839-1.875-1.875v-10c0-1.036 0.84-1.875 1.875-1.875h10c1.036 0 1.875 0.84 1.875 1.875v10z"></path>
    <path fill="#fff"
          d="M10.067 4.617c-0.475-0.207-1.159-0.354-1.793-0.354-0.512 0-1.098 0.232-1.098 0.719 0 0.524 0.573 0.731 1.683 1.133 1.426 0.511 1.89 1.085 1.89 2.046 0 0.646-0.341 1.243-0.89 1.572 0.5 0.353 0.72 0.852 0.72 1.4 0 1.414-1.22 2.242-2.829 2.242-0.793 0-1.646-0.145-2.354-0.377 0.037-0.525 0.074-1.036 0.122-1.548 0.561 0.256 1.451 0.463 2.048 0.463 0.671 0 1.208-0.17 1.208-0.695 0-0.523-0.598-0.693-1.72-1.133-1.318-0.499-1.806-1.072-1.806-2.021 0-0.622 0.305-1.194 0.903-1.572-0.512-0.377-0.756-0.84-0.756-1.437 0-1.413 1.293-2.18 2.817-2.18 0.684 0 1.428 0.109 2.037 0.256l-0.183 1.486zM7.165 7.066c-0.244 0.195-0.378 0.487-0.378 0.743 0 0.67 0.939 0.937 2.037 1.352 0.242-0.169 0.377-0.427 0.377-0.706 0-0.463-0.232-0.682-1.256-1.085-0.256-0.097-0.524-0.194-0.78-0.304z"></path>
</svg>