<?xml version="1.0" encoding="utf-8"?>
<svg xmlns="http://www.w3.org/2000/svg" xmlns:xlink="http://www.w3.org/1999/xlink" id="client-phoneticsnickname"
     width="16" height="16" viewBox="0 0 16 16" x="128" y="224">
    <path fill="#7289da" d="M1.125 14.375v-12.75h2.909v1.049h-1.657v10.652h1.657v1.049h-2.909z"></path>
    <path fill="#a9aaac"
          d="M4.89 4.523c0.533-0.228 1.435-0.523 2.721-0.523 2.469 0 3.951 1.62 3.951 4.011 0 2.375-1.434 4.239-3.787 4.239-2.636 0-3.338-2.257-3.338-3.696 0-0.3 0.020-0.527 0.052-0.673h5.675c-0.036-1.95-1.239-2.753-2.753-2.753-1.038 0-1.671 0.181-2.256 0.409l-0.265-1.015zM5.856 8.912c-0.016 0.901 0.384 2.308 2.035 2.308 1.519 0 2.136-1.31 2.252-2.308h-4.287z"></path>
    <path fill="#7289da" d="M14.875 1.625v12.75h-2.909v-1.049h1.657v-10.652h-1.657v-1.049h2.909z"></path>
</svg>