<?xml version="1.0" encoding="utf-8"?>
<svg xmlns="http://www.w3.org/2000/svg" xmlns:xlink="http://www.w3.org/1999/xlink" id="client-ping_calculating"
     width="16" height="16" viewBox="0 0 16 16" x="288" y="224">
    <path fill="#a9aaac"
          d="M9.106 12.206c-0.61-0.608-1.602-0.608-2.212 0-0.609 0.61-0.609 1.602 0 2.212 0.609 0.608 1.601 0.608 2.212 0 0.608-0.61 0.608-1.602 0-2.213z"></path>
    <path fill="#a9aaac"
          d="M12.314 4.439c0.549 0.21 1.086 0.46 1.605 0.753l0.956-1.656c-4.003-3.215-9.749-3.215-13.75 0l0.956 1.656c0.523-0.295 1.063-0.546 1.616-0.757 2.752-1.105 5.866-1.103 8.617 0.004z"></path>
    <path fill="#a9aaac"
          d="M4.297 9.030l1.083 1.875c1.721-0.399 3.52-0.399 5.241 0l1.082-1.875c-2.374-0.907-5.032-0.907-7.406 0z"></path>
    <path fill="#a9aaac"
          d="M12.329 7.946l0.952-1.649c-3.226-1.929-7.336-1.929-10.562 0l0.952 1.649c2.763-1.118 5.895-1.118 8.658 0z"></path>
</svg>