<?xml version="1.0" encoding="utf-8"?>
<svg xmlns="http://www.w3.org/2000/svg" xmlns:xlink="http://www.w3.org/1999/xlink" id="client-player_chat" width="16"
     height="16" viewBox="0 0 16 16" x="384" y="224">
    <path fill="#7289da"
          d="M1.125 5.795v3.787c0 1.612 1.307 2.918 2.919 2.918h0.371c0.387 0.81 1.57 2.782 4.088 3.249-1.378-1.214-1.117-2.579-0.863-3.249h4.317c1.612 0 2.918-1.306 2.918-2.918v-3.787c0-1.612-1.307-2.918-2.918-2.918h-7.913c-1.612 0-2.919 1.307-2.919 2.918z"></path>
    <path fill="#fff"
          d="M9.78 11.136l-0.536-1.586h-2.558l-0.536 1.586h-1.275l2.408-6.875h1.398l2.444 6.875h-1.345zM8.286 6.53c-0.042-0.141-0.081-0.286-0.119-0.434s-0.075-0.287-0.11-0.418c-0.036-0.131-0.061-0.243-0.080-0.335h-0.017c-0.023 0.092-0.053 0.203-0.087 0.335-0.036 0.131-0.075 0.271-0.119 0.418s-0.086 0.293-0.128 0.434c-0.041 0.141-0.079 0.264-0.114 0.369l-0.509 1.607h1.907l-0.509-1.607c-0.036-0.104-0.074-0.227-0.114-0.369z"></path>
</svg>