<?xml version="1.0" encoding="utf-8"?>
<svg xmlns="http://www.w3.org/2000/svg" xmlns:xlink="http://www.w3.org/1999/xlink" id="client-present" width="16"
     height="16" viewBox="0 0 16 16" x="128" y="256">
    <path fill="#1ca037"
          d="M14.875 13.757c0 0.593-0.481 1.074-1.074 1.074h-11.601c-0.593 0-1.074-0.481-1.074-1.074v-6.016c0-0.593 0.481-1.074 1.074-1.074h11.602c0.593 0 1.074 0.481 1.074 1.074v6.016h-0z"></path>
    <path fill="#a9aaac" d="M8 2.493l2.636 3.089h1.13l-3.766-4.413-3.766 4.413h1.13l2.636-3.089z"></path>
    <path fill="#fff"
          d="M11.109 9.302l-3.896 3.89c-0.075 0.075-0.187 0.111-0.333 0.107-0.134-0.004-0.237-0.040-0.308-0.107l-1.681-1.681c-0.075-0.075-0.113-0.168-0.113-0.277s0.038-0.201 0.113-0.277l0.56-0.56c0.075-0.075 0.168-0.113 0.277-0.113s0.201 0.038 0.277 0.113l0.888 0.887 3.103-3.097c0.075-0.075 0.168-0.113 0.277-0.113s0.201 0.038 0.277 0.113l0.56 0.554c0.075 0.080 0.113 0.173 0.113 0.28s-0.038 0.2-0.113 0.28z"></path>
</svg>