<?xml version="1.0" encoding="utf-8"?>
<svg xmlns="http://www.w3.org/2000/svg" xmlns:xlink="http://www.w3.org/1999/xlink" id="client-refresh" width="16"
     height="16" viewBox="0 0 16 16" x="224" y="256">
    <path fill="#7289da"
          d="M8.046 12.742c-2.585 0-4.688-2.1-4.688-4.688 0-2.585 2.103-4.688 4.688-4.688 1.109 0 2.129 0.386 2.931 1.034l-2.322 2.009 6.122 0.906-0.013-6.191-2.156 1.86c-1.2-1.089-2.8-1.759-4.562-1.759-3.768 0-6.822 3.059-6.822 6.827 0 3.769 3.054 6.821 6.822 6.821 2.958 0 5.473-1.88 6.415-4.502l-2.177-0.33c-0.743 1.594-2.365 2.7-4.238 2.7z"></path>
</svg>