<?xml version="1.0" encoding="utf-8"?>
<svg xmlns="http://www.w3.org/2000/svg" xmlns:xlink="http://www.w3.org/1999/xlink" id="client-register" width="16"
     height="16" viewBox="0 0 16 16" x="256" y="256">
    <path fill="#ccc"
          d="M5.456 5.422c0-0.716 0.25-1.325 0.749-1.826s1.1-0.752 1.802-0.752c0.703 0 1.3 0.251 1.796 0.752 0.494 0.501 0.742 1.11 0.742 1.826v0.665h1.695v-0.665c0-0.779-0.189-1.497-0.57-2.155-0.38-0.658-0.893-1.179-1.543-1.564s-1.359-0.578-2.128-0.578c-0.768 0-1.478 0.193-2.127 0.578s-1.164 0.906-1.544 1.564c-0.38 0.658-0.57 1.376-0.57 2.155v0.665h1.697v-0.665h0z"></path>
    <path fill="#7289da"
          d="M2.721 7.162h10.563c0.155 0.034 0.291 0.109 0.408 0.228 0.164 0.166 0.245 0.369 0.245 0.611v6.015c0 0.241-0.082 0.445-0.245 0.611s-0.364 0.249-0.603 0.249h-10.178c-0.23 0-0.429-0.083-0.596-0.249s-0.252-0.37-0.252-0.611v-6.015c0-0.242 0.084-0.445 0.252-0.611 0.12-0.118 0.255-0.194 0.407-0.228z"></path>
    <path fill="#fff"
          d="M8.928 9.244c0-0.345-0.28-0.625-0.625-0.625h-0.607c-0.345 0-0.625 0.28-0.625 0.625v3.49c0 0.345 0.28 0.625 0.625 0.625h0.607c0.345 0 0.625-0.28 0.625-0.625v-3.49z"></path>
</svg>