<?xml version="1.0" encoding="utf-8"?>
<svg xmlns="http://www.w3.org/2000/svg" xmlns:xlink="http://www.w3.org/1999/xlink" id="client-reload" width="16"
     height="16" viewBox="0 0 16 16" x="288" y="256">
    <path fill="#7289da"
          d="M15.67 6.242c-0.474 0.829-0.95 1.657-1.428 2.483-0.268 0.466-0.536 0.931-0.804 1.397-0.224 0.388-0.57 0.391-0.791 0.006-0.655-1.136-1.31-2.272-1.963-3.41-0.094-0.162-0.189-0.324-0.281-0.487-0.186-0.336-0.009-0.638 0.373-0.641 0.226-0.002 0.452-0.003 0.678-0.005 0.003 0 0.007-0.007 0.012-0.013 0.004-0.069-0.074-0.102-0.082-0.166-0.196-0.242-0.38-0.493-0.607-0.709-0.701-0.664-1.516-1.091-2.478-1.242-1.248-0.195-2.375 0.088-3.406 0.802-0.392 0.271-0.697 0.625-1.004 0.981-0.281 0.394-0.523 0.813-0.67 1.276-0.897 2.829 0.883 5.498 3.481 6.006 0.731 0.143 1.459 0.121 2.168-0.107 0.335-0.107 0.613-0.065 0.887 0.154 0.362 0.288 0.742 0.553 1.112 0.83 0.475 0.355 0.415 0.966-0.118 1.225-4.246 2.067-9.395-0.476-10.342-5.102-0.212-1.030-0.208-2.094 0.012-3.123 0.084-0.411 0.214-0.811 0.386-1.193 0.267-0.687 0.648-1.324 1.125-1.886 1.156-1.38 2.616-2.257 4.391-2.557 2.156-0.364 4.107 0.15 5.827 1.502 0.969 0.762 1.688 1.725 2.175 2.858 0.029 0.068 0.049 0.141 0.073 0.211 0.044 0.226 0.181 0.29 0.402 0.262 0.164-0.021 0.333-0.005 0.5-0.004 0.39 0.002 0.568 0.308 0.373 0.65z"></path>
</svg>