<?xml version="1.0" encoding="utf-8"?>
<svg xmlns="http://www.w3.org/2000/svg" xmlns:xlink="http://www.w3.org/1999/xlink" id="client-send_complaint" width="16"
     height="16" viewBox="0 0 16 16" x="448" y="256">
    <path fill="#c90709"
          d="M14.786 12.715l-3.405-5.894c-0.091-0.159-0.261-0.257-0.444-0.257s-0.353 0.098-0.444 0.257l-3.423 5.928c-0.091 0.158-0.091 0.355 0 0.512 0.091 0.161 0.261 0.259 0.445 0.259h6.846c0.001-0 0.002-0 0.002 0 0.284 0 0.513-0.23 0.513-0.514 0-0.108-0.034-0.208-0.089-0.292z"></path>
    <path fill="#fff"
          d="M11.541 12.43c0 0.078-0.028 0.146-0.083 0.2s-0.122 0.084-0.2 0.084h-0.638c-0.080 0-0.148-0.029-0.203-0.084s-0.081-0.122-0.081-0.2v-0.609c0-0.082 0.027-0.148 0.081-0.202 0.055-0.055 0.123-0.082 0.203-0.082h0.638c0.079 0 0.145 0.028 0.2 0.085 0.055 0.055 0.083 0.122 0.083 0.2v0.608z"></path>
    <path fill="#fff"
          d="M11.541 10.696c0 0.080-0.028 0.147-0.083 0.202s-0.122 0.082-0.2 0.082h-0.638c-0.080 0-0.148-0.027-0.203-0.082s-0.081-0.122-0.081-0.202v-2.066c0-0.079 0.027-0.148 0.081-0.201s0.123-0.083 0.203-0.083h0.638c0.079 0 0.145 0.029 0.2 0.084s0.083 0.122 0.083 0.2v2.066z"></path>
    <path fill="#7289da"
          d="M5.912 12.27h-2.865l3.021-3.791 1.27 1.305 0.649-1.125-4.798-4.929h9.623l-1.569 1.612c0.435 0.077 0.828 0.315 1.096 0.666l1.286-1.322v3.52l1.25 2.164v-6.25c0-0.212-0.042-0.414-0.115-0.599-0.159-0.403-0.472-0.728-0.867-0.902-0.202-0.089-0.424-0.139-0.658-0.139h-10.47c-0.234 0-0.456 0.050-0.658 0.139-0.395 0.174-0.708 0.499-0.867 0.901-0.073 0.186-0.115 0.388-0.115 0.6v7.761c0 0.225 0.046 0.439 0.128 0.634 0.169 0.4 0.492 0.72 0.894 0.884 0.191 0.078 0.399 0.122 0.618 0.122h3.063c-0.125-0.41-0.097-0.856 0.084-1.25zM2.375 11.106v-6.42l2.813 2.89-2.813 3.53z"></path>
</svg>