<?xml version="1.0" encoding="utf-8"?>
<svg xmlns="http://www.w3.org/2000/svg" xmlns:xlink="http://www.w3.org/1999/xlink" id="client-server_log" width="16"
     height="16" viewBox="0 0 16 16" x="0" y="288">
    <path fill="#a9aaac"
          d="M11.041 5.188h-7.271c-0.345 0-0.625-0.28-0.625-0.625s0.28-0.625 0.625-0.625h7.271c0.345 0 0.625 0.28 0.625 0.625s-0.28 0.625-0.625 0.625z"></path>
    <path fill="#a9aaac"
          d="M2.875 14.001c-0.345 0-0.625-0.28-0.625-0.625v-10.751c0-0.345 0.28-0.625 0.625-0.625h9.059c0.345 0 0.625 0.28 0.625 0.625v2.586h1.25v-2.586c0-1.034-0.841-1.875-1.875-1.875h-9.059c-1.034 0-1.875 0.841-1.875 1.875v10.751c0 1.034 0.841 1.875 1.875 1.875h2.125v-1.25h-2.125z"></path>
    <path fill="#a9aaac"
          d="M5 7.375h-1.23c-0.345 0-0.625 0.28-0.625 0.625s0.28 0.625 0.625 0.625h1.233c-0.001-0.021-0.003-0.041-0.003-0.062v-1.188z"></path>
    <path fill="#a9aaac"
          d="M5.023 10.813h-1.253c-0.345 0-0.625 0.28-0.625 0.625s0.28 0.625 0.625 0.625h1.23v-0.955c0-0.1 0.009-0.198 0.024-0.295z"></path>
    <path fill="#e6e6e6" d="M10 10.861h1.25v4.315h-1.25v-4.314z"></path>
    <path fill="#7289da"
          d="M15 8.373c0 0.376-0.306 0.68-0.684 0.68h-7.383c-0.378 0-0.684-0.305-0.684-0.68v-1.224c0-0.376 0.306-0.68 0.684-0.68h7.383c0.377 0 0.684 0.304 0.684 0.68v1.224h-0z"></path>
    <path fill="#7289da"
          d="M15 12.023c0 0.376-0.306 0.68-0.684 0.68h-7.383c-0.378 0-0.684-0.304-0.684-0.68v-1.224c0-0.376 0.306-0.68 0.684-0.68h7.383c0.377 0 0.684 0.305 0.684 0.68v1.224h-0z"></path>
    <path fill="#e6e6e6" d="M6.25 14.001h8.75v1.25h-8.75v-1.25z"></path>
    <path fill="#fff"
          d="M14.18 11.861c0 0.090-0.073 0.162-0.163 0.162h-2.271c-0.091 0-0.163-0.072-0.163-0.162v-0.899c0-0.090 0.073-0.162 0.163-0.162h2.271c0.091 0 0.163 0.072 0.163 0.162v0.899z"></path>
    <path fill="#fff"
          d="M14.18 8.211c0 0.090-0.073 0.162-0.163 0.162h-2.271c-0.090 0-0.163-0.073-0.163-0.162v-0.9c0-0.090 0.073-0.162 0.163-0.162h2.271c0.090 0 0.163 0.073 0.163 0.162v0.9z"></path>
</svg>