<?xml version="1.0" encoding="utf-8"?>
<svg xmlns="http://www.w3.org/2000/svg" xmlns:xlink="http://www.w3.org/1999/xlink" id="client-server_query" width="16"
     height="16" viewBox="0 0 16 16" x="32" y="288">
    <path fill="#a9aaac" d="M1.125 12.89h13.75v1.25h-13.75v-1.25z"></path>
    <path fill="#a9aaac" d="M5.328 7.562l4.309 5.504-1.201 0.691-4.809-6.195z"></path>
    <path fill="#7289da"
          d="M4.642 2.89c0.678 0 1.31 0.116 1.881 0.346 0.591 0.241 1.1 0.587 1.512 1.031 0.408 0.438 0.724 0.966 0.943 1.575 0.009 0.026 0.017 0.053 0.026 0.079h4.796c0.593 0 1.074-0.479 1.074-1.069v-1.923c0-0.59-0.481-1.069-1.074-1.069h-11.601c-0.593 0-1.074 0.478-1.074 1.069v1.322c0.008-0.009 0.016-0.019 0.025-0.027 0.858-0.884 2.032-1.333 3.492-1.333zM10.004 3.183c0-0.141 0.114-0.255 0.256-0.255h3.070c0.142 0 0.256 0.114 0.256 0.255v1.414c0 0.141-0.114 0.255-0.256 0.255h-3.070c-0.142 0-0.256-0.114-0.256-0.255v-1.414z"></path>
    <path fill="#fff"
          d="M10.26 4.852h3.070c0.142 0 0.256-0.114 0.256-0.255v-1.414c0-0.141-0.114-0.255-0.256-0.255h-3.070c-0.142 0-0.256 0.114-0.256 0.255v1.414c0 0.141 0.114 0.255 0.256 0.255z"></path>
    <path fill="#7289da"
          d="M9.286 7.768c0-0.125-0.004-0.247-0.011-0.369h4.526c0.593 0 1.074 0.478 1.074 1.068v1.924c0 0.59-0.481 1.069-1.074 1.069l-3.604-0.001-1.272-1.634c0.013-0.032 0.026-0.064 0.038-0.097 0.215-0.586 0.323-1.245 0.323-1.961z"></path>
    <path fill="#a9aaac"
          d="M4.642 4.14c0.519 0 0.991 0.085 1.41 0.254 0.417 0.17 0.776 0.41 1.069 0.725s0.52 0.694 0.68 1.141c0.158 0.445 0.236 0.949 0.236 1.508 0 0.569-0.082 1.080-0.247 1.531-0.166 0.454-0.398 0.841-0.699 1.161-0.3 0.322-0.667 0.567-1.097 0.741-0.427 0.174-0.906 0.257-1.433 0.257-0.519 0-0.992-0.083-1.418-0.251-0.425-0.169-0.787-0.411-1.084-0.732-0.297-0.316-0.527-0.702-0.691-1.149-0.162-0.449-0.243-0.955-0.243-1.516 0-1.176 0.308-2.082 0.922-2.717 0.615-0.634 1.48-0.953 2.594-0.953zM4.556 5.246c-0.285 0-0.545 0.060-0.776 0.182-0.234 0.122-0.436 0.294-0.607 0.517-0.169 0.224-0.298 0.495-0.39 0.81-0.092 0.318-0.138 0.669-0.138 1.055s0.046 0.734 0.138 1.047c0.092 0.314 0.224 0.581 0.396 0.804 0.172 0.216 0.377 0.391 0.615 0.509 0.236 0.124 0.503 0.183 0.803 0.183 0.285 0 0.542-0.062 0.776-0.186 0.233-0.125 0.436-0.3 0.605-0.521 0.168-0.226 0.3-0.494 0.398-0.809 0.093-0.312 0.142-0.659 0.142-1.039 0-0.391-0.046-0.744-0.139-1.063s-0.222-0.588-0.394-0.807c-0.173-0.218-0.381-0.388-0.622-0.506-0.239-0.118-0.51-0.176-0.807-0.176z"></path>
    <path fill="#fff"
          d="M13.586 8.723c0-0.141-0.114-0.255-0.256-0.255h-3.069c-0.142 0-0.256 0.114-0.256 0.255v1.414c0 0.142 0.114 0.255 0.256 0.255h3.069c0.142 0 0.256-0.114 0.256-0.255v-1.414z"></path>
</svg>