<svg version="1.1" viewBox="0 0 16 16" xmlns="http://www.w3.org/2000/svg">
 <g transform="matrix(.03125 0 0 .03125 -3.5723e-5 0)" fill="#7289da">
  <circle cx="48" cy="304" r="24"/>
  <circle cx="192" cy="448" r="24"/>
  <circle cx="101" cy="395" r="24"/>
  <circle cx="48" cy="304" r="24"/>
  <path d="m216 448a24 24 0 10-24 24 24 24 0 0024-24"/>
  <circle cx="101" cy="395" r="24"/>
  <circle cx="48" cy="192" r="24"/>
  <circle cx="192" cy="48" r="24"/>
  <circle cx="101" cy="101" r="24"/>
  <circle cx="48" cy="192" r="24"/>
  <path d="m216 48a24 24 0 11-24-24 24 24 0 0124 24"/>
  <circle cx="101" cy="101" r="24"/>
  <path d="m311.99 472a24 24 0 01-6.433-47.123 185.51 185.51 0 0096.328-64.917 181.56 181.56 0 0038.113-111.96c0-81.5-55.349-154.25-134.6-176.92a24 24 0 0113.2-46.147 236.54 236.54 0 01121 82.086 230.51 230.51 0 01.276 282.28 233.82 233.82 0 01-121.42 81.812 24.04 24.04 0 01-6.463.888z"/>
  <path d="m456.03 488a24.512 24.512 0 01-2.679-.148l-144-16a24 24 0 01-20.474-30.278l40-144a24 24 0 1146.248 12.848l-32.454 116.84 115.98 12.886a24 24 0 01-2.621 47.854z"/>
 </g>
</svg>
