<?xml version="1.0" encoding="utf-8"?>
<svg xmlns="http://www.w3.org/2000/svg" xmlns:xlink="http://www.w3.org/1999/xlink" id="client-settings" width="16"
     height="16" viewBox="0 0 16 16" x="64" y="288">
    <path fill="#a9aaac"
          d="M1.124 1.125v13.751h6.029v-1.25h-4.779v-10.001h11.25v2.829h1.25v-3.454c0-0.006 0-0.011 0-0.017 0-1.028 0-1.858 0-1.858h-13.75z"></path>
    <path fill="#7289da"
          d="M10.329 7.805c0.164-0.026 0.325-0.040 0.484-0.040s0.32 0.013 0.484 0.040l0.984-1.024c0.027-0.027 0.067-0.036 0.123-0.028s0.112 0.030 0.171 0.067l0.849 0.548c0.058 0.037 0.104 0.082 0.139 0.135s0.049 0.095 0.044 0.127l-0.389 1.309c0.185 0.243 0.331 0.503 0.437 0.778l1.095 0.309c0.032 0.011 0.061 0.045 0.087 0.103s0.040 0.124 0.040 0.198v1.087c0 0.074-0.013 0.139-0.040 0.194s-0.056 0.088-0.087 0.099l-1.127 0.286c-0.1 0.233-0.238 0.463-0.413 0.69l0.397 1.302c0.005 0.037-0.009 0.082-0.044 0.135s-0.081 0.098-0.139 0.135l-0.849 0.548c-0.058 0.037-0.115 0.059-0.171 0.067s-0.097-0.001-0.123-0.028l-0.984-1.024c-0.164 0.026-0.325 0.040-0.484 0.040s-0.32-0.013-0.484-0.040l-0.984 1.024c-0.027 0.027-0.067 0.036-0.123 0.028s-0.112-0.030-0.171-0.068l-0.849-0.547c-0.058-0.037-0.104-0.082-0.139-0.135s-0.049-0.098-0.044-0.135l0.397-1.301c-0.191-0.238-0.339-0.497-0.444-0.778l-1.095-0.309c-0.032-0.011-0.061-0.045-0.087-0.103s-0.040-0.124-0.040-0.198v-1.087c0-0.074 0.013-0.14 0.040-0.198s0.056-0.090 0.087-0.095l1.127-0.286c0.101-0.238 0.238-0.468 0.413-0.69l-0.397-1.309c-0.005-0.037 0.009-0.081 0.043-0.131s0.081-0.094 0.139-0.131l0.849-0.548c0.058-0.037 0.115-0.060 0.17-0.067s0.097 0.001 0.123 0.028l0.984 1.023zM9.619 9.613c-0.333 0.329-0.498 0.729-0.498 1.199s0.166 0.87 0.498 1.2c0.332 0.329 0.731 0.493 1.198 0.493 0.468-0 0.866-0.165 1.195-0.493s0.493-0.729 0.493-1.2c0-0.47-0.165-0.87-0.493-1.199s-0.727-0.494-1.195-0.494c-0.467-0-0.866 0.165-1.198 0.494z"></path>
</svg>