<svg version="1.1" viewBox="0 0 16 16" xmlns="http://www.w3.org/2000/svg">
 <rect x="1.6235" y="2.6329" width="12.753" height="8.2576" style="fill:#7289da;stroke-width:.90236"/>
 <path d="m6.6655 11.347v2.0756c2.6689-4.9e-5 0 0 2.6689-4.9e-5v-2.0756" style="fill:#a9aaac;stroke-width:.17657"/>
 <path d="m9.3469 11.346h4.7143c.74418 0 1.347-.51289 1.347-1.1461v-6.8768c0-.63323-.60275-1.1461-1.3469-1.1461h-12.123c-.74421 0-1.347.51291-1.347 1.1461v6.8768c0 .63323.60275 1.1461 1.347 1.1461h4.7143" style="fill:#7289da;stroke-width:.029121"/>
 <g transform="matrix(.014589 0 0 .011594 4.2679 3.7957)" style="fill:#fff">
  <g style="fill:#fff">
   <path d="m506.21 179.01-146.18-146.18c-3.617-3.617-7.898-5.426-12.847-5.426s-9.233 1.809-12.847 5.426c-3.617 3.619-5.428 7.902-5.428 12.85v73.089h-63.953c-135.72 0-218.98 38.354-249.82 115.06-10.085 25.502-15.127 57.197-15.127 95.074 0 31.594 12.087 74.514 36.259 128.76.57 1.335 1.566 3.614 2.996 6.849 1.429 3.233 2.712 6.088 3.854 8.565 1.146 2.471 2.384 4.565 3.715 6.276 2.282 3.237 4.948 4.859 7.994 4.859 2.855 0 5.092-.951 6.711-2.854 1.615-1.902 2.424-4.284 2.424-7.132 0-1.718-.238-4.236-.715-7.569-.476-3.333-.715-5.564-.715-6.708-.953-12.938-1.429-24.653-1.429-35.114 0-19.223 1.668-36.449 4.996-51.675 3.333-15.229 7.948-28.407 13.85-39.543 5.901-11.14 13.512-20.745 22.841-28.835 9.325-8.09 19.364-14.702 30.118-19.842 10.756-5.141 23.413-9.186 37.974-12.135 14.56-2.95 29.215-4.997 43.968-6.14s31.455-1.711 50.109-1.711h63.953v73.091c0 4.948 1.807 9.232 5.421 12.847 3.62 3.613 7.901 5.424 12.847 5.424 4.948 0 9.232-1.811 12.854-5.424l146.18-146.18c3.617-3.617 5.424-7.898 5.424-12.847-.001-4.948-1.807-9.232-5.421-12.856z" style="fill:#fff"/>
  </g>
 </g>
 <path d="m3.4025 13.143h9.1951a.33073.33073 45 01.33073.33073v1.0364a.33073.33073 135 01-.33073.33073h-9.1951a.33073.33073 45 01-.33073-.33073v-1.0364a.33073.33073 135 01.33073-.33073z" style="fill:#a9aaac;stroke-width:1.1914"/>
</svg>
