<?xml version="1.0" encoding="utf-8"?>
<svg xmlns="http://www.w3.org/2000/svg" xmlns:xlink="http://www.w3.org/1999/xlink" id="client-sort_by_name" width="16"
     height="16" viewBox="0 0 16 16" x="96" y="288">
    <path fill="#a9aaac"
          d="M9.875 10.026h-1.884l-0.75-1.98h-3.579l-0.754 1.98h-1.783l3.372-8.589h1.956l3.421 8.589zM6.060 4.735c-0.050-0.129-0.103-0.282-0.161-0.461-0.056-0.176-0.111-0.356-0.165-0.541-0.051-0.185-0.103-0.357-0.154-0.524-0.048-0.162-0.085-0.305-0.111-0.418h-0.024c-0.034 0.114-0.076 0.256-0.122 0.418-0.051 0.167-0.108 0.339-0.168 0.524-0.062 0.186-0.121 0.365-0.179 0.541-0.056 0.178-0.111 0.332-0.159 0.461l-0.713 2.007h2.671l-0.715-2.008z"></path>
    <path fill="#7289da"
          d="M12.216 14.563l2.659-3.259-1.58-0v-9.451c0-0.117-0.040-0.214-0.12-0.294s-0.177-0.12-0.295-0.12h-1.329c-0.112 0-0.21 0.040-0.292 0.12s-0.123 0.178-0.123 0.294l-0 9.451-1.578-0 2.658 3.26z"></path>
</svg>