<?xml version="1.0" encoding="utf-8"?>
<svg xmlns="http://www.w3.org/2000/svg" xmlns:xlink="http://www.w3.org/1999/xlink" id="client-soundpack" width="16"
     height="16" viewBox="0 0 16 16" x="128" y="288">
    <path fill="#7289da"
          d="M13 1.125h-10c-1.036 0-1.875 0.84-1.875 1.875v10c0 1.036 0.84 1.875 1.875 1.875h10c1.036 0 1.875-0.839 1.875-1.875v-10c0-1.036-0.839-1.875-1.875-1.875z"></path>
    <path fill="#f2f2f2"
          d="M11.289 5.475c-2.113 0.231-2.409-1.168-3.329-0.811v7.013h-0c-0.012 0.802-1.019 1.448-2.26 1.448-1.249 0-2.261-0.654-2.261-1.463 0-0.807 1.012-1.462 2.261-1.462 0.479 0 0.923 0.096 1.289 0.261 0 0 0-4.739 0-5.057 0-1.674-0.025-2.362 1.012-2.513 1.548-0.225 2.327 1.993 4.732 0.433-0-0 0.596 1.927-1.443 2.15z"></path>
</svg>