<?xml version="1.0" encoding="utf-8"?>
<svg xmlns="http://www.w3.org/2000/svg" xmlns:xlink="http://www.w3.org/1999/xlink"
     id="client-subscribe_to_channel_family" width="16" height="16" viewBox="0 0 16 16" x="320" y="288">
    <path fill="#a9aaac"
          d="M12.589 1.125h-6.195c-1.229 0-2.228 0.972-2.279 2.188h5.741c1.938 0 3.515 1.576 3.515 3.514v1.692c0.877-0.32 1.504-1.159 1.504-2.145v-2.964c0-1.262-1.024-2.285-2.286-2.285z"></path>
    <path fill="#7289da"
          d="M9.857 4.496h-6.379c-1.299 0-2.352 1.054-2.352 2.353v3.052c0 1.3 1.053 2.354 2.352 2.354h3.481c0.205 0.54 0.416 1.64-0.695 2.62 2.030-0.377 2.984-1.965 3.296-2.62h0.298c1.3 0 2.354-1.053 2.354-2.354v-3.052c0-1.299-1.054-2.353-2.354-2.353z"></path>
    <path fill="#fff"
          d="M9.682 7.133l-3.778 3.773c-0.074 0.072-0.181 0.105-0.323 0.103-0.13-0.005-0.23-0.037-0.299-0.103l-1.63-1.63c-0.074-0.075-0.11-0.163-0.11-0.269 0-0.104 0.036-0.195 0.11-0.268l0.544-0.543c0.072-0.073 0.162-0.111 0.268-0.111 0.106 0 0.196 0.038 0.269 0.111l0.861 0.861 3.008-3.003c0.075-0.074 0.164-0.111 0.27-0.111s0.195 0.037 0.268 0.111l0.543 0.536c0.075 0.077 0.11 0.168 0.11 0.271s-0.036 0.195-0.11 0.273z"></path>
</svg>