<?xml version="1.0" encoding="utf-8"?>
<svg xmlns="http://www.w3.org/2000/svg" xmlns:xlink="http://www.w3.org/1999/xlink" id="client-subscribe_to_all_channels"
     width="16" height="16" viewBox="0 0 16 16" x="256" y="288">
    <path fill="#7289da"
          d="M12.213 6.722c-0.040-1.218-1.040-2.204-2.259-2.225-2.184-0.027-4.369-0.027-6.554 0-1.306 0.018-2.265 1.026-2.272 2.328-0.009 0.978-0.006 1.956-0.008 2.934 0 1.536 0.925 2.481 2.474 2.5 0.958 0.012 1.915 0.024 2.875-0.008 0.409-0.014 0.551 0.16 0.604 0.52 0.117 0.813-0.235 1.447-0.854 2.125 1.451-0.293 2.417-1.039 3.101-2.162 0.19-0.313 0.375-0.47 0.765-0.5 1.166-0.078 2.095-1.035 2.139-2.203 0.036-1.102 0.029-2.206-0.011-3.309zM9.534 7.303c-1.167 1.153-2.333 2.308-3.5 3.464-0.296 0.293-0.55 0.414-0.894 0.009-0.429-0.486-0.89-0.943-1.38-1.369-0.329-0.297-0.311-0.549-0.014-0.834s0.58-0.729 1.086-0.32c0.256 0.206 0.5 0.625 0.732 0.625 0.375-0.020 0.594-0.475 0.875-0.75 0.639-0.625 1.263-1.269 1.895-1.901 0.19-0.19 0.395-0.447 0.69-0.266 0.312 0.192 0.57 0.46 0.75 0.779 0.014 0.215-0.076 0.425-0.241 0.564z"></path>
    <path fill="#fff"
          d="M9.787 6.735c0.014 0.219-0.080 0.431-0.25 0.569-1.167 1.153-2.333 2.308-3.5 3.464-0.296 0.293-0.55 0.414-0.894 0.009-0.43-0.486-0.892-0.944-1.383-1.369-0.329-0.297-0.311-0.549-0.014-0.834s0.58-0.729 1.086-0.32c0.256 0.206 0.5 0.625 0.732 0.625 0.375-0.020 0.594-0.475 0.875-0.75 0.639-0.625 1.263-1.269 1.895-1.901 0.19-0.19 0.395-0.447 0.69-0.266 0.315 0.189 0.577 0.455 0.761 0.774v0z"></path>
    <path fill="#a9aaac"
          d="M13.352 8.456c0-0.529 0-1.045 0-1.56-0.009-2.044-1.511-3.555-3.544-3.559-1.729 0-3.459-0.015-5.188 0.009-0.476 0.006-0.579-0.14-0.451-0.575 0.267-0.973 1.156-1.655 2.165-1.661 2.104-0.008 4.208-0.008 6.313 0 0.007 0 0.013-0 0.020-0 1.209 0 2.204 0.995 2.204 2.204 0 0.004 0 0.008 0 0.013 0.012 1.042 0.012 2.083 0 3.125 0.002 0.931-0.622 1.755-1.519 2.005v0z"></path>
</svg>