<?xml version="1.0" encoding="utf-8"?>
<svg xmlns="http://www.w3.org/2000/svg" xmlns:xlink="http://www.w3.org/1999/xlink" id="client-switch_standard"
     width="16" height="16" viewBox="0 0 16 16" x="384" y="288">
    <path fill="#a9aaac"
          d="M10.963 6.739c1.132 0.585 2.42 0.478 3.352-0.463 0.649-0.655 0.555-3.149 0.555-3.149l-0.606-0.201-0.623 1.788c0 0-0.609 1.158-2.072-0.316s-0.217-1.992-0.217-1.992l1.762-0.64-0.191-0.602c0 0-2.526-0.234-3.218 0.464-0.932 0.939-1.021 2.257-0.44 3.398l-2.407 2.407 1.706 1.706 2.399-2.399z"></path>
    <path fill="#7289da"
          d="M1.738 8.845l-0.613 6.031 6.029-0.612-1.857-1.858 2.383-2.383-1.706-1.706-2.383 2.383-1.853-1.854z"></path>
</svg>