<?xml version="1.0" encoding="utf-8"?>
<svg xmlns="http://www.w3.org/2000/svg" xmlns:xlink="http://www.w3.org/1999/xlink" id="client-sync-disable" width="16"
     height="16" viewBox="0 0 16 16" x="416" y="288">
    <path fill="#e6e6e6" opacity="0.4"
          d="M11.376 9.371c0 1.779-1.511 3.22-3.376 3.22s-3.376-1.442-3.376-3.22c0-1.779 1.511-3.22 3.376-3.22s3.376 1.442 3.376 3.22z"></path>
    <path fill="#a9aaac"
          d="M15.597 9.37c-0.115-0.317-0.295-0.606-0.529-0.848-0.29-0.307-0.616-0.548-1.027-0.663-0.017-0.031-0.041-0.063-0.026-0.101 0.153-0.418 0.078-0.848 0.042-1.269-0.040-0.473-0.226-0.909-0.453-1.325-0.733-1.344-2.406-2.158-3.922-1.896-1.351 0.234-2.329 0.971-2.924 2.208-0.054 0.113-0.087 0.131-0.192 0.050-0.64-0.487-1.36-0.637-2.142-0.46-1.002 0.228-1.768 1.066-1.936 2.077-0.031 0.196 0.003 0.392-0.038 0.584-1.284 0.165-2.455 1.383-2.15 2.975 0.271 1.418 1.49 2.081 2.537 2.079 3.442-0.007 6.885-0.008 10.328-0.002 0.13 0 0.259-0.009 0.387-0.027 1.496-0.206 2.622-1.752 2.046-3.383zM9.589 11.188c-0.086 0.309-0.172 0.617-0.262 0.925-0.052 0.179-0.14 0.208-0.255 0.071-0.104-0.123-0.194-0.128-0.344-0.074-0.288 0.104-0.592 0.157-0.899 0.157-1.125 0-2.133-0.717-2.501-1.781-0.278-0.801-0.17-1.566 0.259-2.289 0.105-0.177 0.181-0.183 0.323-0.041 0.246 0.246 0.246 0.246 0.087 0.563-0.59 1.177 0.086 2.614 1.371 2.906 0.142 0.034 0.288 0.049 0.433 0.043 0.175 0.005 0.35-0.013 0.52-0.054 0.081-0.020 0.109-0.031 0.044-0.114-0.125-0.156-0.099-0.227 0.091-0.276 0.311-0.079 0.621-0.158 0.932-0.236 0.195-0.049 0.254 0.008 0.2 0.201zM10.347 10.813c-0.056 0.080-0.125 0.082-0.197 0.016-0.008-0.007-0.014-0.015-0.022-0.022-0.287-0.267-0.287-0.268-0.090-0.697 0.21-0.457 0.237-0.922 0.084-1.406-0.136-0.429-0.37-0.779-0.74-1.037-0.458-0.402-1.414-0.531-1.939-0.26 0.047 0.097 0.166 0.146 0.18 0.264-0.031 0.079-0.102 0.098-0.171 0.115-0.304 0.077-0.609 0.154-0.914 0.226-0.071 0.017-0.158 0.076-0.216 0.003s-0.039-0.165 0-0.248c0.088-0.295 0.175-0.59 0.264-0.884 0.053-0.173 0.14-0.2 0.259-0.063 0.090 0.103 0.165 0.096 0.285 0.051 0.988-0.368 1.905-0.243 2.742 0.414 0.239 0.188 0.413 0.429 0.59 0.67 0.205 0.382 0.344 0.783 0.362 1.219 0.030 0.584-0.138 1.161-0.476 1.638v0z"></path>
</svg>