<?xml version="1.0" encoding="utf-8"?>
<svg xmlns="http://www.w3.org/2000/svg" xmlns:xlink="http://www.w3.org/1999/xlink" id="client-sync-icon" width="16"
     height="16" viewBox="0 0 16 16" x="480" y="288">
    <path fill="#a9aaac"
          d="M2.349 8.167c0.321-0.536 0.638-1.073 0.958-1.61 0.169-0.284 0.344-0.566 0.511-0.851 0.174-0.292 0.045-0.526-0.291-0.531-0.129-0.002-0.257-0.002-0.386-0.004-0.179-0.003-0.183-0.009-0.107-0.166 0.248-0.507 0.57-0.974 0.955-1.386 0.432-0.464 0.942-0.825 1.487-1.14 0.044-0.020 0.088-0.038 0.131-0.059 2.097-1.026 4.628-0.616 6.293 1.020 0.775 0.758 1.291 1.663 1.533 2.721 0.058 0.252 0.133 0.344 0.33 0.35 0.338 0.014 0.676 0.020 1.014 0.016 0.002 0 0.004 0 0.006 0 0.164 0 0.299-0.135 0.299-0.298 0-0.026-0.003-0.052-0.010-0.077-0.066-0.296-0.129-0.594-0.214-0.885-0.215-0.726-0.553-1.41-1-2.022-0.908-1.256-2.096-2.135-3.569-2.625-0.341-0.109-0.688-0.193-1.041-0.253-0.406-0.074-0.816-0.085-1.223-0.11-0.456-0.028-0.91 0.037-1.358 0.125-0.825 0.166-1.605 0.452-2.322 0.9-0.425 0.225-0.8 0.521-1.15 0.844-0.877 0.813-1.524 1.781-1.912 2.917-0.028 0.081-0.071 0.105-0.152 0.102-0.171-0.006-0.344-0.006-0.515-0.005-0.322 0-0.452 0.225-0.293 0.508 0.469 0.84 0.94 1.677 1.411 2.513 0.173 0.306 0.435 0.309 0.616 0.007z"></path>
    <path fill="#7289da"
          d="M15.663 10.627c-0.182-0.322-0.371-0.639-0.552-0.961-0.296-0.528-0.582-1.061-0.883-1.586-0.127-0.222-0.406-0.224-0.54-0.003-0.517 0.858-1.030 1.72-1.538 2.584-0.13 0.221 0.005 0.455 0.262 0.474 0.112 0.008 0.225 0.003 0.338 0.004 0.196 0.002 0.195 0 0.101 0.171-0.383 0.685-0.901 1.25-1.516 1.731-0.357 0.236-0.716 0.466-1.111 0.636-1.095 0.47-2.225 0.594-3.39 0.332-0.509-0.114-1-0.279-1.462-0.531-1.418-0.768-2.43-2.119-2.769-3.696-0.046-0.205-0.143-0.297-0.339-0.302-0.327-0.009-0.656-0.013-0.982-0.010-0.209 0.002-0.342 0.176-0.305 0.382 0.568 3.274 3.358 5.735 6.678 5.889 1.010 0.056 2.021-0.108 2.962-0.479 0.656-0.258 1.272-0.592 1.818-1.046 0.582-0.432 1.054-0.969 1.472-1.555 0.3-0.425 0.547-0.885 0.736-1.369 0.039-0.097 0.086-0.131 0.188-0.125 0.171 0.009 0.344 0.005 0.515 0.006 0.373 0.002 0.503-0.219 0.319-0.545z"></path>
</svg>