<?xml version="1.0" encoding="utf-8"?>
<svg xmlns="http://www.w3.org/2000/svg" xmlns:xlink="http://www.w3.org/1999/xlink" id="client-talk_power_request_cancel"
     width="16" height="16" viewBox="0 0 16 16" x="128" y="320">
    <path fill="#a9aaac"
          d="M6.164 12.399l-0.597-2.245h1.371l-0.832-0.843c-0.333-0.336-0.517-0.779-0.517-1.249 0-0.471 0.185-0.916 0.521-1.253l0.732-0.732c0.331-0.33 0.774-0.512 1.248-0.512 0.388 0 0.754 0.124 1.057 0.35v-1.788h-7.016c-0.282 0-0.522 0.099-0.716 0.299s-0.291 0.436-0.291 0.708v4.013c0 0.274 0.097 0.509 0.291 0.71 0.194 0.198 0.434 0.298 0.716 0.298h1.226l1.056 3.971c0.073 0.273 0.23 0.479 0.473 0.614s0.496 0.17 0.759 0.1l0.117-0.031c0.098-0.026 0.187-0.064 0.268-0.113-0.237-0.304-0.366-0.674-0.366-1.068 0-0.462 0.178-0.898 0.499-1.229z"></path>
    <path fill="#7289da"
          d="M12.375 6.185c0.318-0.317 0.739-0.495 1.19-0.51v-4.551l-3.158 2.453v3.582l0.493 0.5 1.474-1.475z"></path>
    <path fill="#c90709"
          d="M12.364 10.896l2.356 2.363c0.104 0.103 0.156 0.226 0.156 0.369s-0.052 0.263-0.156 0.361l-0.73 0.731c-0.098 0.104-0.22 0.155-0.366 0.155s-0.267-0.052-0.365-0.155l-2.362-2.355-2.363 2.355c-0.099 0.104-0.22 0.155-0.366 0.155s-0.266-0.052-0.365-0.155l-0.731-0.731c-0.104-0.098-0.155-0.219-0.155-0.361s0.052-0.265 0.155-0.369l2.356-2.363-2.431-2.465c-0.104-0.104-0.155-0.227-0.155-0.369s0.051-0.265 0.155-0.369l0.731-0.731c0.099-0.098 0.22-0.148 0.365-0.148s0.267 0.049 0.366 0.148l2.438 2.473 2.362-2.364c0.099-0.098 0.221-0.148 0.365-0.148s0.268 0.049 0.366 0.148l0.73 0.731c0.104 0.104 0.156 0.227 0.156 0.369s-0.052 0.265-0.156 0.369l-2.356 2.355z"></path>
</svg>