<?xml version="1.0" encoding="utf-8"?>
<svg xmlns="http://www.w3.org/2000/svg" xmlns:xlink="http://www.w3.org/1999/xlink"
     id="client-talk_power_revoke_all_grant_next" width="16" height="16" viewBox="0 0 16 16" x="192" y="320">
    <path fill="#a9aaac"
          d="M6.848 7.361l2.63-0.467v-2.769h-7.016c-0.282 0-0.522 0.099-0.716 0.299s-0.291 0.436-0.291 0.708v4.014c0 0.274 0.097 0.509 0.291 0.71 0.194 0.198 0.434 0.298 0.716 0.298h1.226l0.266 1.001c0.084-0.208 0.21-0.399 0.373-0.562l0.835-0.835c0.321-0.321 0.75-0.497 1.207-0.497s0.885 0.177 1.208 0.498l0.527 0.527 0.835-0.834-2.091-2.091z"></path>
    <path fill="#a9aaac"
          d="M4.745 14.125c0.073 0.273 0.23 0.479 0.473 0.614s0.496 0.17 0.759 0.1l0.117-0.031c0.009-0.002 0.017-0.005 0.026-0.008l-1.627-1.627 0.253 0.953z"></path>
    <path fill="#a9aaac" d="M13.896 1.125l-3.158 2.453v3.094l3.158-0.56v-4.986z"></path>
    <path fill="#7289da"
          d="M14.545 7.138l-5.375 0.954 1.361 1.361-2.428 2.423-1.321-1.321c-0.112-0.112-0.25-0.169-0.412-0.169s-0.3 0.056-0.412 0.169l-0.834 0.834c-0.112 0.113-0.168 0.25-0.168 0.412s0.056 0.3 0.168 0.412l2.502 2.502c0.106 0.1 0.259 0.153 0.459 0.159 0.219 0.006 0.384-0.047 0.497-0.159l3.609-3.603 1.401 1.401 0.954-5.375z"></path>
</svg>