<?xml version="1.0" encoding="utf-8"?>
<svg xmlns="http://www.w3.org/2000/svg" xmlns:xlink="http://www.w3.org/1999/xlink" id="client-talk_power_revoke"
     width="16" height="16" viewBox="0 0 16 16" x="160" y="320">
    <path fill="#c90709"
          d="M14.879 10.787c0 2.316-1.83 4.086-4.206 4.077-2.275-0.008-4.055-1.842-4.053-4.175 0-2.308 1.84-4.086 4.213-4.077 2.279 0.009 4.053 1.836 4.046 4.175zM11.979 8.275c-1.030-0.561-2.315-0.38-3.151 0.443-0.899 0.843-1.12 2.195-0.535 3.28l3.686-3.723zM13.174 9.38c-1.186 1.183-2.306 2.324-3.456 3.434-0.385 0.371-0.207 0.45 0.168 0.575 1.055 0.338 2.216 0.022 2.954-0.805 0.777-0.876 0.911-2.014 0.335-3.204v0z"></path>
    <path fill="#a9aaac"
          d="M9.203 4.567c0.037-0.361-0.125-0.459-0.466-0.452-1.082 0.019-2.165 0.006-3.25 0.006-1.103 0-2.206-0.008-3.309 0-0.607 0-1.014 0.346-1.029 0.94-0.035 1.375-0.036 2.75-0.014 4.125 0.011 0.578 0.397 0.908 0.95 0.953 0.424 0.040 0.961-0.199 1.242 0.125 0.259 0.3 0.276 0.81 0.396 1.23 0.056 0.2 0.098 0.404 0.152 0.604 0.189 0.701 0.351 1.411 0.579 2.1 0.214 0.644 0.915 0.866 1.546 0.545 0.563-0.286 0.65-0.707 0.276-1.329-1.665-2.769-0.393-6.334 2.394-7.457 0.418-0.169 0.598-0.388 0.534-0.829-0.024-0.186-0.025-0.374-0.002-0.56v0z"></path>
    <path fill="#a9aaac"
          d="M10.696 3.361c-0.146 0.114-0.297 0.215-0.291 0.442 0.011 0.456 0 0.914 0 1.375 0 0.19 0.044 0.329 0.27 0.324 1.040-0.022 1.99 0.304 2.929 0.827v-5.218l-2.908 2.249z"></path>
</svg>