<?xml version="1.0" encoding="utf-8"?>
<svg xmlns="http://www.w3.org/2000/svg" xmlns:xlink="http://www.w3.org/1999/xlink" id="client-talk_power_request"
     width="16" height="16" viewBox="0 0 16 16" x="96" y="320">
    <path fill="#a9aaac"
          d="M6.259 10.207c0.286 1.091 0.591 2.189 0.857 3.296 0.2 0.831-0.359 1.441-1.207 1.363-0.535-0.050-0.798-0.387-0.925-0.875-0.295-1.125-0.605-2.25-0.883-3.375-0.093-0.363-0.243-0.537-0.634-0.481-0.228 0.019-0.458 0.019-0.686 0-0.64-0.020-1.030-0.356-1.041-0.992-0.022-1.333-0.019-2.667 0.010-4 0.014-0.668 0.409-1.019 1.083-1.020 2.167-0.007 4.333-0.007 6.5 0 0.185 0 0.443-0.096 0.463 0.25 0.016 0.279-0.030 0.449-0.367 0.521-0.625 0.134-1.435 0.171-1.776 0.64s0.064 1.226 0.107 1.864c0.032 0.537 0.166 1.070 0.204 1.607 0.029 0.414 0.189 0.383 0.456 0.215 0.117-0.085 0.244-0.156 0.379-0.21 0.325-0.102 0.676-0.565 0.919-0.33 0.271 0.264 0.085 0.789 0.086 1.2 0 0.325-0.274 0.25-0.465 0.25-1 0.012-2 0.016-3 0.025-0.013 0.005-0.029 0.023-0.079 0.053z"></path>
    <path fill="#1ca037"
          d="M8.9 7.699c-0.018-0.105-0.034-0.185-0.043-0.268-0.141-1.346-0.143-1.355 1.205-1.546 0.867-0.125 1.738-0.162 2.591 0.105 1.508 0.471 2.054 1.909 1.25 3.276-0.299 0.5-0.724 0.908-1.107 1.342-0.366 0.401-0.711 0.822-0.726 1.401-0.008 0.274-0.159 0.356-0.408 0.328-0.062-0.004-0.125-0.004-0.188 0-1.095 0.009-1.262-0.241-0.861-1.299 0.165-0.435 0.465-0.78 0.758-1.133 0.278-0.307 0.53-0.639 0.75-0.99 0.464-0.818 0.136-1.49-0.786-1.652-0.625-0.11-1.24 0-1.836 0.213-0.197 0.074-0.39 0.146-0.599 0.223z"></path>
    <path fill="#7289da"
          d="M14.192 1.127v4.383c-0.912-0.549-1.865-0.846-2.901-0.81-0.134 0-0.276-0.034-0.262-0.19 0.031-0.355-0.185-0.774 0.165-1.053 0.965-0.77 1.95-1.519 2.999-2.33z"></path>
    <path fill="#1ca037"
          d="M11.287 14.862c-0.953 0-0.953 0-0.953-0.934 0-0.8 0-0.806 1.1-0.797 0.86 0.006 0.731-0.139 0.74 0.974 0.006 0.758 0.001 0.758-0.887 0.758z"></path>
</svg>