<?xml version="1.0" encoding="utf-8"?>
<svg xmlns="http://www.w3.org/2000/svg" xmlns:xlink="http://www.w3.org/1999/xlink" id="client-talk_power_grant"
     width="16" height="16" viewBox="0 0 16 16" x="32" y="320">
    <path fill="#a9aaac"
          d="M5.16 9.758c0.321-0.321 0.75-0.497 1.207-0.497s0.885 0.177 1.208 0.498l0.395 0.395h0.264l1.242-1.24v-4.788h-7.016c-0.282 0-0.522 0.099-0.716 0.299s-0.291 0.436-0.291 0.708v4.013c0 0.274 0.097 0.509 0.291 0.71 0.194 0.198 0.434 0.298 0.716 0.298h1.226l0.266 1.001c0.084-0.208 0.21-0.399 0.373-0.562l0.835-0.835z"></path>
    <path fill="#a9aaac"
          d="M4.742 14.125c0.073 0.273 0.23 0.479 0.473 0.614s0.496 0.17 0.759 0.1l0.117-0.031c0.009-0.002 0.017-0.005 0.026-0.008l-1.627-1.627 0.253 0.953z"></path>
    <path fill="#7289da" d="M13.893 13.158l-0-2.159-1.216 1.214 1.216 0.945z"></path>
    <path fill="#7289da"
          d="M13.132 5.972c0.27 0 0.528 0.063 0.761 0.178l-0-5.025-3.158 2.453v4.079l1.189-1.187c0.321-0.321 0.75-0.498 1.208-0.498z"></path>
    <path fill="#1ca037"
          d="M14.379 8.924l-5.8 5.791c-0.112 0.112-0.278 0.165-0.497 0.159-0.2-0.006-0.353-0.059-0.459-0.159l-2.502-2.502c-0.112-0.112-0.168-0.25-0.168-0.412s0.056-0.3 0.168-0.412l0.834-0.834c0.112-0.112 0.25-0.169 0.412-0.169s0.3 0.056 0.412 0.169l1.321 1.321 4.62-4.61c0.112-0.112 0.25-0.169 0.412-0.169s0.3 0.056 0.412 0.169l0.834 0.824c0.112 0.119 0.169 0.258 0.169 0.417s-0.056 0.298-0.169 0.417z"></path>
</svg>