<?xml version="1.0" encoding="utf-8"?>
<svg xmlns="http://www.w3.org/2000/svg" xmlns:xlink="http://www.w3.org/1999/xlink" id="client-temp_server_password"
     width="16" height="16" viewBox="0 0 16 16" x="224" y="320">
    <path fill="#7289da"
          d="M8 0.625c0 0-4.814 1.587-6.875 1.587 0 9.251 6.743 13.078 6.874 13.163h-0.001c0.131-0.085 6.877-3.912 6.877-13.163-2.061 0-6.875-1.587-6.875-1.587z"></path>
    <path fill="#fff"
          d="M8.027 2.875l0.027 0 0.027 0 0.027 0.001 0.027 0.001 0.027 0.001 0.027 0.001 0.027 0.001 0.027 0.002 0.027 0.002 0.027 0.002 0.027 0.002 0.027 0.002 0.054 0.005 0.027 0.003 0.027 0.003 0.027 0.003 0.027 0.003 0.027 0.003 0.027 0.003 0.027 0.004 0.027 0.004 0.026 0.004 0.026 0.004 0.026 0.004 0.026 0.004 0.026 0.005 0.026 0.005 0.026 0.005 0.026 0.005 0.026 0.005 0.026 0.005 0.026 0.006 0.026 0.006 0.026 0.006 0.026 0.006 0.025 0.006 0.026 0.006 0.025 0.006 0.025 0.007 0.025 0.007 0.025 0.007 0.050 0.014 0.050 0.015 0.025 0.008 0.025 0.008 0.025 0.008 0.025 0.008 0.025 0.008 0.025 0.008 0.024 0.009 0.025 0.009 0.024 0.009 0.024 0.009 0.024 0.009 0.024 0.009 0.024 0.009 0.024 0.010 0.024 0.010 0.024 0.010 0.024 0.010 0.024 0.010 0.024 0.010 0.024 0.010 0.024 0.011 0.024 0.011 0.023 0.011 0.023 0.011 0.024 0.011 0.023 0.011 0.023 0.011 0.023 0.012 0.023 0.011 0.023 0.012 0.023 0.012 0.023 0.012 0.023 0.012 0.045 0.025 0.022 0.013 0.022 0.013 0.022 0.013 0.022 0.013 0.022 0.013 0.044 0.026 0.022 0.014 0.022 0.014 0.021 0.014 0.021 0.014 0.022 0.014 0.021 0.014 0.021 0.014 0.021 0.014 0.021 0.014 0.042 0.029 0.021 0.015 0.021 0.015 0.021 0.015 0.041 0.030 0.021 0.016 0.020 0.015 0.020 0.016 0.020 0.016 0.020 0.016 0.020 0.016 0.020 0.016 0.020 0.016 0.020 0.017 0.019 0.017 0.019 0.017 0.019 0.017 0.019 0.017 0.038 0.034 0.019 0.017 0.019 0.018 0.019 0.017 0.018 0.017 0.018 0.018 0.037 0.035 0.018 0.018 0.018 0.018 0.035 0.036 0.018 0.018 0.018 0.019 0.017 0.019 0.017 0.019 0.017 0.019 0.017 0.019 0.017 0.019 0.017 0.019 0.017 0.019 0.017 0.019 0.033 0.039 0.016 0.019 0.033 0.040 0.016 0.020 0.016 0.020 0.016 0.020 0.015 0.020 0.015 0.020 0.015 0.021 0.015 0.021 0.015 0.021 0.015 0.021 0.030 0.042 0.014 0.021 0.015 0.021 0.014 0.021 0.014 0.021 0.014 0.022 0.014 0.021 0.014 0.021 0.014 0.022 0.014 0.022 0.013 0.021 0.014 0.022 0.013 0.022 0.013 0.022 0.013 0.022 0.013 0.023 0.012 0.022 0.013 0.022 0.013 0.023 0.012 0.022 0.012 0.023 0.012 0.023 0.012 0.023 0.012 0.023 0.012 0.023 0.012 0.023 0.011 0.023 0.011 0.023 0.022 0.046 0.011 0.023 0.011 0.023 0.011 0.024 0.010 0.024 0.010 0.024 0.010 0.024 0.010 0.024 0.010 0.024 0.010 0.024 0.010 0.024 0.009 0.024 0.009 0.024 0.009 0.025 0.018 0.048 0.009 0.024 0.009 0.025 0.008 0.025 0.008 0.024 0.008 0.024 0.008 0.025 0.008 0.025 0.008 0.025 0.008 0.025 0.007 0.025 0.007 0.025 0.007 0.025 0.007 0.026 0.007 0.026 0.007 0.025 0.007 0.026 0.006 0.026 0.012 0.051 0.006 0.025 0.006 0.026 0.006 0.026 0.005 0.026 0.005 0.026 0.005 0.026 0.005 0.026 0.005 0.026 0.005 0.026 0.009 0.053 0.004 0.027 0.004 0.026 0.004 0.026 0.004 0.027 0.003 0.027 0.003 0.027 0.003 0.027 0.003 0.027 0.003 0.027 0.003 0.027 0.002 0.027 0.002 0.027 0.002 0.027 0.002 0.027 0.002 0.027 0.002 0.027 0.002 0.027 0.001 0.027 0.001 0.027 0.001 0.027 0.001 0.027 0.001 0.027 0 0.027 0 0.027 0 0.028-0 0.028-0 0.027-0 0.027-0.001 0.027-0.001 0.028-0.001 0.027-0.001 0.027-0.001 0.027-0.002 0.027-0.002 0.027-0.002 0.027-0.002 0.027-0.002 0.027-0.002 0.027-0.002 0.027-0.003 0.027-0.003 0.027-0.003 0.027-0.003 0.027-0.003 0.027-0.003 0.027-0.004 0.027-0.004 0.026-0.004 0.026-0.004 0.027-0.009 0.053-0.005 0.026-0.005 0.026-0.005 0.026-0.005 0.026-0.005 0.026-0.005 0.026-0.006 0.026-0.006 0.026-0.006 0.025-0.012 0.052-0.006 0.026-0.007 0.026-0.007 0.025-0.007 0.025-0.007 0.025-0.007 0.025-0.007 0.025-0.007 0.025-0.008 0.025-0.008 0.025-0.008 0.025-0.008 0.025-0.008 0.024-0.008 0.024-0.008 0.025-0.009 0.025-0.009 0.024-0.018 0.049-0.009 0.025-0.009 0.024-0.009 0.024-0.010 0.024-0.010 0.024-0.010 0.024-0.010 0.024-0.010 0.024-0.010 0.024-0.010 0.024-0.011 0.024-0.011 0.023-0.011 0.023-0.011 0.023-0.011 0.023-0.011 0.023-0.011 0.023-0.012 0.023-0.012 0.023-0.012 0.023-0.012 0.023-0.024 0.045-0.012 0.022-0.013 0.023-0.013 0.023-0.012 0.022-0.013 0.023-0.013 0.022-0.013 0.022-0.013 0.022-0.013 0.022-0.013 0.021-0.014 0.022-0.014 0.022-0.027 0.043-0.014 0.022-0.014 0.021-0.014 0.021-0.015 0.021-0.014 0.021-0.015 0.021-0.015 0.021-0.015 0.021-0.015 0.021-0.015 0.021-0.015 0.021-0.015 0.020-0.015 0.020-0.016 0.020-0.031 0.040-0.016 0.020-0.016 0.020-0.016 0.020-0.033 0.039-0.017 0.020-0.017 0.019-0.017 0.019-0.017 0.019-0.017 0.019-0.017 0.019-0.017 0.019-0.017 0.019-0.018 0.019-0.018 0.018-0.035 0.036-0.018 0.018-0.018 0.018-0.018 0.018-0.018 0.018-0.018 0.018-0.018 0.017-0.019 0.017-0.019 0.018-0.019 0.017-0.019 0.017-0.019 0.017-0.019 0.017-0.019 0.017-0.039 0.033-0.020 0.017-0.020 0.016-0.020 0.016-0.020 0.016-0.020 0.016-0.020 0.016-0.020 0.015-0.041 0.031-0.020 0.015-0.020 0.015-0.021 0.015-0.021 0.015-0.021 0.015-0.021 0.015-0.021 0.015-0.021 0.015-0.021 0.014-0.043 0.028-0.022 0.014-0.021 0.014-0.021 0.014-0.022 0.014-0.044 0.027-0.022 0.013-0.022 0.013-0.022 0.013-0.022 0.013-0.022 0.013-0.045 0.025-0.045 0.024-0.023 0.012-0.023 0.012-0.023 0.012-0.023 0.012-0.023 0.011-0.023 0.011-0.023 0.011-0.023 0.011-0.024 0.011-0.023 0.011-0.024 0.011-0.024 0.011-0.024 0.010-0.024 0.010-0.024 0.010-0.024 0.010-0.024 0.010-0.024 0.010-0.024 0.010-0.024 0.009-0.024 0.009-0.024 0.009-0.024 0.009-0.024 0.009-0.025 0.009-0.049 0.017-0.025 0.008-0.025 0.008-0.025 0.008-0.050 0.016-0.025 0.008-0.025 0.007-0.025 0.007-0.051 0.014-0.025 0.007-0.025 0.007-0.051 0.013-0.026 0.006-0.025 0.006-0.026 0.006-0.026 0.006-0.026 0.005-0.026 0.005-0.052 0.010-0.026 0.005-0.026 0.005-0.026 0.005-0.053 0.009-0.026 0.004-0.026 0.004-0.027 0.004-0.027 0.004-0.027 0.004-0.053 0.007-0.053 0.006-0.027 0.003-0.027 0.002-0.027 0.002-0.027 0.002-0.027 0.002-0.027 0.002-0.027 0.002-0.027 0.002-0.027 0.001-0.027 0.001-0.027 0.001-0.027 0.001-0.027 0.001-0.027 0-0.027 0-0.027 0-0.027-0-0.027-0-0.027-0-0.027-0.001-0.027-0.001-0.027-0.001-0.027-0.001-0.027-0.001-0.027-0.002-0.027-0.002-0.027-0.002-0.027-0.002-0.027-0.002-0.027-0.002-0.027-0.002-0.027-0.003-0.053-0.006-0.053-0.007-0.027-0.004-0.027-0.004-0.027-0.004-0.026-0.004-0.026-0.004-0.053-0.009-0.026-0.005-0.026-0.005-0.026-0.005-0.026-0.005-0.026-0.005-0.026-0.005-0.026-0.005-0.026-0.006-0.026-0.006-0.026-0.006-0.026-0.006-0.026-0.006-0.051-0.013-0.026-0.007-0.025-0.007-0.025-0.007-0.025-0.007-0.025-0.007-0.050-0.015-0.025-0.008-0.025-0.008-0.025-0.008-0.025-0.008-0.049-0.017-0.025-0.009-0.049-0.018-0.024-0.009-0.024-0.009-0.024-0.009-0.024-0.009-0.024-0.010-0.024-0.010-0.024-0.010-0.024-0.010-0.024-0.010-0.024-0.010-0.024-0.011-0.023-0.011-0.023-0.011-0.023-0.011-0.024-0.011-0.023-0.011-0.023-0.011-0.023-0.011-0.023-0.012-0.023-0.012-0.046-0.024-0.023-0.012-0.022-0.012-0.022-0.012-0.022-0.012-0.022-0.013-0.022-0.013-0.044-0.026-0.022-0.013-0.044-0.027-0.022-0.014-0.022-0.014-0.021-0.014-0.022-0.014-0.021-0.014-0.021-0.014-0.021-0.014-0.021-0.015-0.021-0.015-0.042-0.030-0.021-0.015-0.021-0.015-0.021-0.015-0.041-0.031-0.020-0.016-0.020-0.016-0.020-0.016-0.020-0.016-0.019-0.016-0.020-0.016-0.020-0.016-0.019-0.016-0.019-0.017-0.020-0.017-0.019-0.017-0.019-0.017-0.019-0.017-0.019-0.017-0.019-0.017-0.037-0.034-0.019-0.018-0.018-0.017-0.018-0.018-0.018-0.018-0.036-0.036-0.018-0.018-0.035-0.036-0.018-0.018-0.018-0.019-0.018-0.019-0.034-0.037-0.017-0.019-0.017-0.019-0.017-0.019-0.016-0.019-0.016-0.019-0.016-0.019-0.016-0.020-0.016-0.020-0.016-0.020-0.016-0.020-0.016-0.020-0.016-0.020-0.015-0.020-0.016-0.021-0.015-0.020-0.015-0.020-0.015-0.021-0.015-0.021-0.015-0.021-0.015-0.021-0.015-0.021-0.029-0.042-0.014-0.021-0.014-0.022-0.027-0.043-0.014-0.022-0.014-0.022-0.027-0.043-0.013-0.022-0.013-0.022-0.013-0.022-0.013-0.022-0.013-0.022-0.013-0.023-0.012-0.022-0.012-0.023-0.012-0.023-0.012-0.023-0.012-0.022-0.012-0.023-0.012-0.023-0.011-0.023-0.011-0.023-0.022-0.047-0.011-0.023-0.021-0.047-0.011-0.024-0.010-0.024-0.010-0.024-0.010-0.024-0.010-0.024-0.010-0.024-0.010-0.024-0.010-0.024-0.009-0.024-0.009-0.025-0.009-0.024-0.009-0.024-0.018-0.050-0.009-0.024-0.008-0.024-0.008-0.025-0.008-0.025-0.016-0.049-0.008-0.026-0.015-0.050-0.007-0.026-0.007-0.025-0.007-0.025-0.007-0.025-0.007-0.025-0.006-0.026-0.006-0.026-0.006-0.026-0.006-0.025-0.006-0.026-0.006-0.026-0.006-0.025-0.005-0.026-0.005-0.026-0.005-0.026-0.005-0.026-0.005-0.026-0.005-0.027-0.004-0.026-0.004-0.026-0.004-0.026-0.004-0.026-0.004-0.027-0.003-0.026-0.003-0.026-0.003-0.027-0.003-0.027-0.003-0.027-0.003-0.026-0.003-0.027-0.005-0.053-0.002-0.027-0.002-0.027-0.002-0.027-0.002-0.027-0.002-0.027-0.001-0.027-0.001-0.027-0.001-0.027-0.001-0.027-0.001-0.027-0-0.028-0-0.028-0-0.027 0-0.027 0-0.028 0-0.028 0.001-0.027 0.001-0.027 0.001-0.027 0.001-0.027 0.001-0.027 0.002-0.027 0.002-0.027 0.002-0.027 0.002-0.027 0.002-0.027 0.005-0.053 0.003-0.027 0.003-0.026 0.003-0.027 0.003-0.027 0.003-0.027 0.003-0.026 0.003-0.026 0.004-0.027 0.004-0.026 0.004-0.026 0.004-0.026 0.004-0.026 0.005-0.027 0.005-0.026 0.005-0.026 0.005-0.026 0.005-0.026 0.005-0.026 0.006-0.026 0.006-0.026 0.006-0.026 0.006-0.025 0.006-0.026 0.006-0.026 0.006-0.026 0.007-0.025 0.007-0.026 0.007-0.026 0.007-0.025 0.007-0.026 0.007-0.025 0.007-0.025 0.008-0.026 0.016-0.049 0.008-0.025 0.008-0.025 0.008-0.024 0.009-0.024 0.018-0.050 0.009-0.024 0.009-0.024 0.009-0.024 0.009-0.024 0.010-0.024 0.010-0.024 0.010-0.024 0.010-0.024 0.010-0.024 0.010-0.024 0.010-0.024 0.011-0.024 0.011-0.023 0.011-0.023 0.011-0.023 0.011-0.023 0.011-0.024 0.011-0.023 0.011-0.023 0.012-0.023 0.012-0.023 0.012-0.022 0.012-0.023 0.012-0.023 0.012-0.023 0.013-0.022 0.013-0.022 0.013-0.022 0.013-0.022 0.013-0.022 0.013-0.022 0.013-0.022 0.013-0.022 0.013-0.021 0.014-0.022 0.014-0.022 0.014-0.021 0.014-0.021 0.014-0.022 0.014-0.021 0.014-0.021 0.014-0.021 0.015-0.021 0.029-0.042 0.015-0.021 0.015-0.021 0.015-0.020 0.015-0.020 0.016-0.020 0.016-0.020 0.016-0.020 0.016-0.020 0.032-0.039 0.016-0.020 0.016-0.019 0.016-0.019 0.016-0.019 0.017-0.019 0.017-0.019 0.017-0.019 0.017-0.019 0.017-0.019 0.017-0.019 0.018-0.019 0.018-0.019 0.018-0.019 0.035-0.036 0.036-0.037 0.018-0.018 0.018-0.018 0.036-0.035 0.019-0.018 0.019-0.017 0.018-0.017 0.019-0.017 0.019-0.017 0.019-0.017 0.019-0.017 0.019-0.017 0.020-0.017 0.019-0.017 0.019-0.016 0.040-0.033 0.019-0.016 0.020-0.016 0.020-0.016 0.020-0.016 0.020-0.016 0.020-0.015 0.021-0.015 0.021-0.015 0.021-0.015 0.021-0.015 0.021-0.015 0.021-0.015 0.021-0.015 0.021-0.014 0.021-0.014 0.021-0.014 0.021-0.014 0.021-0.014 0.021-0.014 0.022-0.014 0.043-0.027 0.044-0.027 0.022-0.013 0.022-0.013 0.022-0.013 0.022-0.013 0.022-0.013 0.045-0.025 0.023-0.012 0.023-0.012 0.023-0.012 0.023-0.012 0.023-0.011 0.023-0.012 0.023-0.011 0.023-0.011 0.024-0.011 0.023-0.011 0.023-0.011 0.047-0.021 0.047-0.021 0.024-0.010 0.024-0.010 0.024-0.010 0.024-0.010 0.024-0.010 0.049-0.019 0.024-0.009 0.024-0.009 0.024-0.009 0.025-0.009 0.025-0.009 0.024-0.008 0.025-0.008 0.025-0.008 0.025-0.008 0.050-0.015 0.050-0.015 0.050-0.014 0.025-0.007 0.026-0.007 0.025-0.007 0.026-0.006 0.026-0.006 0.026-0.006 0.026-0.006 0.026-0.006 0.026-0.006 0.026-0.006 0.026-0.005 0.026-0.005 0.026-0.005 0.026-0.005 0.026-0.005 0.026-0.005 0.026-0.004 0.026-0.004 0.026-0.004 0.026-0.004 0.027-0.004 0.026-0.004 0.027-0.003 0.027-0.003 0.027-0.003 0.027-0.003 0.027-0.003 0.027-0.003 0.054-0.005 0.027-0.002 0.027-0.002 0.027-0.002 0.027-0.002 0.027-0.002 0.027-0.001 0.027-0.001 0.027-0.001 0.027-0.001 0.027-0.001 0.027-0 0.027-0 0.027-0 0.027 0zM7.979 3.875l-0.021 0-0.021 0-0.042 0.001-0.021 0.001-0.021 0.001-0.021 0.001-0.021 0.001-0.021 0.001-0.021 0.001-0.021 0.002-0.021 0.002-0.021 0.002-0.021 0.002-0.020 0.002-0.041 0.005-0.020 0.002-0.020 0.002-0.020 0.003-0.041 0.006-0.020 0.003-0.020 0.003-0.020 0.003-0.020 0.003-0.020 0.003-0.020 0.004-0.020 0.004-0.020 0.004-0.020 0.004-0.020 0.004-0.020 0.004-0.019 0.004-0.020 0.005-0.020 0.005-0.019 0.005-0.039 0.010-0.020 0.005-0.038 0.010-0.019 0.005-0.019 0.006-0.019 0.006-0.019 0.006-0.019 0.006-0.019 0.006-0.019 0.006-0.019 0.006-0.019 0.006-0.019 0.006-0.019 0.006-0.019 0.007-0.019 0.007-0.019 0.007-0.019 0.007-0.019 0.007-0.018 0.007-0.019 0.007-0.018 0.008-0.018 0.008-0.018 0.008-0.018 0.008-0.018 0.008-0.018 0.008-0.018 0.008-0.018 0.008-0.018 0.008-0.018 0.008-0.018 0.008-0.018 0.009-0.035 0.018-0.018 0.009-0.018 0.009-0.017 0.009-0.017 0.009-0.017 0.009-0.035 0.019-0.017 0.010-0.017 0.010-0.017 0.010-0.017 0.010-0.017 0.010-0.017 0.010-0.016 0.010-0.017 0.010-0.033 0.021-0.017 0.011-0.016 0.011-0.016 0.011-0.032 0.022-0.016 0.011-0.016 0.011-0.016 0.011-0.016 0.011-0.016 0.012-0.016 0.011-0.016 0.012-0.016 0.012-0.016 0.012-0.015 0.012-0.015 0.012-0.016 0.012-0.015 0.012-0.015 0.012-0.030 0.025-0.015 0.013-0.015 0.013-0.014 0.013-0.015 0.013-0.015 0.013-0.029 0.026-0.014 0.013-0.029 0.027-0.028 0.027-0.014 0.014-0.014 0.013-0.014 0.014-0.027 0.027-0.014 0.014-0.027 0.029-0.013 0.014-0.013 0.014-0.013 0.014-0.013 0.015-0.013 0.015-0.013 0.014-0.013 0.014-0.013 0.015-0.013 0.015-0.013 0.015-0.013 0.015-0.012 0.015-0.012 0.015-0.013 0.016-0.012 0.015-0.012 0.015-0.012 0.016-0.012 0.015-0.012 0.016-0.012 0.016-0.011 0.016-0.011 0.016-0.011 0.016-0.011 0.016-0.011 0.016-0.022 0.033-0.011 0.016-0.011 0.016-0.011 0.017-0.011 0.017-0.010 0.016-0.010 0.016-0.011 0.017-0.010 0.017-0.010 0.017-0.010 0.016-0.010 0.017-0.010 0.017-0.010 0.017-0.019 0.034-0.019 0.035-0.009 0.017-0.018 0.035-0.009 0.017-0.009 0.018-0.009 0.018-0.008 0.017-0.008 0.018-0.008 0.018-0.016 0.036-0.008 0.018-0.008 0.018-0.016 0.037-0.008 0.018-0.008 0.018-0.008 0.019-0.007 0.018-0.007 0.019-0.007 0.018-0.007 0.019-0.007 0.019-0.007 0.018-0.007 0.019-0.007 0.019-0.006 0.019-0.006 0.019-0.006 0.019-0.006 0.019-0.006 0.019-0.006 0.019-0.006 0.019-0.006 0.019-0.005 0.019-0.005 0.020-0.005 0.019-0.005 0.019-0.005 0.020-0.010 0.039-0.005 0.019-0.005 0.020-0.004 0.020-0.004 0.019-0.004 0.020-0.004 0.020-0.004 0.020-0.004 0.020-0.004 0.020-0.004 0.020-0.003 0.019-0.003 0.021-0.003 0.020-0.003 0.020-0.003 0.020-0.003 0.020-0.003 0.020-0.003 0.021-0.003 0.021-0.002 0.019-0.002 0.021-0.002 0.021-0.002 0.020-0.002 0.021-0.002 0.021-0.002 0.020-0.002 0.021-0.001 0.021-0.001 0.021-0.001 0.021-0.001 0.021-0.001 0.021-0.001 0.021-0 0.021-0 0.021-0 0.021-0 0.021v0.043l0 0.021 0 0.021 0 0.021 0 0.021 0.001 0.021 0.001 0.021 0.001 0.021 0.001 0.021 0.001 0.020 0.001 0.021 0.002 0.021 0.002 0.020 0.002 0.021 0.002 0.021 0.002 0.020 0.002 0.021 0.002 0.021 0.002 0.019 0.003 0.021 0.003 0.021 0.003 0.020 0.003 0.020 0.003 0.020 0.003 0.020 0.003 0.020 0.003 0.021 0.003 0.019 0.004 0.020 0.004 0.020 0.004 0.020 0.004 0.020 0.004 0.020 0.004 0.020 0.004 0.019 0.004 0.020 0.005 0.020 0.005 0.019 0.005 0.019 0.005 0.019 0.005 0.020 0.005 0.019 0.005 0.019 0.005 0.020 0.005 0.019 0.006 0.020 0.006 0.019 0.006 0.018 0.006 0.019 0.006 0.019 0.006 0.019 0.006 0.019 0.006 0.019 0.007 0.019 0.007 0.018 0.007 0.018 0.007 0.019 0.007 0.019 0.007 0.018 0.007 0.019 0.007 0.018 0.008 0.018 0.008 0.018 0.008 0.018 0.008 0.018 0.008 0.018 0.008 0.018 0.008 0.018 0.008 0.018 0.008 0.018 0.017 0.036 0.008 0.017 0.009 0.018 0.018 0.035 0.009 0.018 0.009 0.018 0.009 0.017 0.019 0.034 0.010 0.017 0.019 0.034 0.010 0.017 0.010 0.017 0.010 0.016 0.010 0.017 0.010 0.017 0.011 0.017 0.010 0.017 0.010 0.016 0.011 0.017 0.011 0.017 0.011 0.016 0.011 0.016 0.034 0.049 0.011 0.016 0.011 0.016 0.011 0.016 0.011 0.016 0.012 0.016 0.012 0.016 0.012 0.015 0.012 0.016 0.012 0.015 0.012 0.015 0.013 0.016 0.012 0.015 0.012 0.015 0.013 0.015 0.013 0.015 0.013 0.015 0.013 0.015 0.013 0.014 0.013 0.014 0.013 0.015 0.013 0.015 0.026 0.028 0.013 0.014 0.013 0.014 0.014 0.014 0.027 0.028 0.014 0.014 0.014 0.014 0.014 0.013 0.014 0.014 0.014 0.014 0.014 0.013 0.014 0.013 0.014 0.013 0.014 0.013 0.014 0.013 0.014 0.013 0.015 0.013 0.015 0.013 0.014 0.012 0.015 0.012 0.015 0.013 0.015 0.012 0.015 0.012 0.015 0.012 0.015 0.012 0.016 0.012 0.015 0.012 0.015 0.012 0.016 0.012 0.031 0.023 0.016 0.011 0.032 0.023 0.016 0.011 0.016 0.011 0.016 0.011 0.016 0.011 0.016 0.011 0.016 0.011 0.016 0.011 0.033 0.021 0.033 0.021 0.034 0.020 0.017 0.010 0.017 0.010 0.017 0.010 0.017 0.010 0.017 0.010 0.017 0.009 0.017 0.009 0.035 0.018 0.017 0.009 0.018 0.009 0.018 0.009 0.018 0.009 0.018 0.009 0.018 0.009 0.018 0.008 0.018 0.008 0.018 0.008 0.018 0.008 0.018 0.008 0.036 0.016 0.018 0.008 0.018 0.008 0.018 0.008 0.018 0.007 0.019 0.007 0.018 0.007 0.019 0.007 0.019 0.007 0.037 0.014 0.019 0.007 0.019 0.007 0.019 0.007 0.019 0.006 0.019 0.006 0.019 0.006 0.019 0.006 0.019 0.006 0.019 0.006 0.019 0.006 0.039 0.011 0.019 0.005 0.019 0.005 0.020 0.005 0.019 0.005 0.019 0.005 0.019 0.005 0.020 0.005 0.020 0.005 0.019 0.004 0.020 0.004 0.020 0.004 0.020 0.004 0.020 0.004 0.020 0.004 0.020 0.004 0.020 0.004 0.020 0.003 0.020 0.003 0.020 0.003 0.040 0.006 0.020 0.003 0.020 0.003 0.020 0.002 0.020 0.002 0.041 0.005 0.020 0.002 0.021 0.002 0.021 0.002 0.021 0.002 0.021 0.002 0.021 0.001 0.021 0.001 0.021 0.001 0.021 0.001 0.021 0.001 0.021 0.001 0.042 0.001 0.021 0 0.042 0 0.042-0 0.021-0 0.042-0.001 0.021-0.001 0.021-0.001 0.021-0.001 0.021-0.001 0.021-0.001 0.021-0.001 0.021-0.002 0.021-0.002 0.021-0.002 0.021-0.002 0.021-0.002 0.041-0.005 0.020-0.002 0.020-0.002 0.020-0.003 0.020-0.003 0.040-0.006 0.020-0.003 0.020-0.003 0.020-0.003 0.020-0.004 0.020-0.004 0.020-0.004 0.020-0.004 0.020-0.004 0.020-0.004 0.020-0.004 0.020-0.004 0.039-0.009 0.020-0.005 0.039-0.010 0.039-0.010 0.019-0.005 0.039-0.011 0.019-0.006 0.019-0.006 0.019-0.006 0.019-0.006 0.019-0.006 0.019-0.006 0.019-0.006 0.019-0.007 0.019-0.007 0.019-0.007 0.019-0.007 0.019-0.007 0.037-0.014 0.019-0.007 0.037-0.015 0.018-0.008 0.018-0.008 0.018-0.008 0.018-0.008 0.018-0.008 0.018-0.008 0.018-0.008 0.018-0.008 0.018-0.008 0.018-0.008 0.018-0.009 0.018-0.009 0.018-0.009 0.018-0.009 0.035-0.018 0.035-0.018 0.017-0.009 0.017-0.009 0.017-0.010 0.017-0.010 0.017-0.010 0.017-0.010 0.017-0.010 0.017-0.010 0.017-0.010 0.017-0.010 0.016-0.010 0.017-0.011 0.017-0.011 0.016-0.011 0.016-0.011 0.016-0.011 0.016-0.011 0.016-0.011 0.016-0.011 0.016-0.011 0.032-0.023 0.015-0.011 0.016-0.012 0.031-0.023 0.015-0.012 0.016-0.012 0.015-0.012 0.015-0.012 0.015-0.012 0.015-0.012 0.015-0.012 0.015-0.012 0.015-0.013 0.015-0.013 0.015-0.013 0.029-0.026 0.015-0.013 0.014-0.013 0.014-0.013 0.014-0.013 0.014-0.014 0.014-0.014 0.014-0.013 0.014-0.014 0.027-0.027 0.027-0.028 0.014-0.014 0.013-0.014 0.027-0.029 0.013-0.014 0.026-0.029 0.013-0.015 0.013-0.015 0.012-0.014 0.013-0.015 0.013-0.015 0.013-0.015 0.012-0.015 0.012-0.015 0.012-0.015 0.012-0.015 0.012-0.015 0.024-0.031 0.023-0.031 0.011-0.016 0.012-0.016 0.011-0.016 0.011-0.016 0.011-0.016 0.011-0.016 0.011-0.016 0.011-0.017 0.011-0.016 0.011-0.017 0.011-0.017 0.010-0.016 0.010-0.017 0.011-0.017 0.010-0.017 0.010-0.017 0.010-0.017 0.010-0.017 0.010-0.017 0.010-0.017 0.010-0.017 0.009-0.017 0.010-0.018 0.009-0.017 0.009-0.017 0.009-0.017 0.009-0.018 0.009-0.018 0.009-0.017 0.009-0.018 0.009-0.018 0.008-0.018 0.008-0.018 0.008-0.018 0.008-0.018 0.008-0.018 0.008-0.018 0.008-0.018 0.008-0.018 0.008-0.018 0.008-0.018 0.008-0.018 0.007-0.018 0.007-0.019 0.007-0.019 0.007-0.018 0.007-0.019 0.007-0.019 0.007-0.019 0.007-0.018 0.006-0.019 0.006-0.019 0.006-0.019 0.006-0.019 0.006-0.019 0.006-0.019 0.006-0.019 0.006-0.019 0.005-0.019 0.005-0.020 0.005-0.019 0.005-0.019 0.005-0.020 0.005-0.019 0.005-0.019 0.005-0.019 0.005-0.020 0.005-0.020 0.004-0.020 0.004-0.019 0.004-0.020 0.004-0.020 0.004-0.020 0.004-0.020 0.004-0.020 0.004-0.020 0.003-0.020 0.003-0.020 0.003-0.020 0.003-0.021 0.003-0.020 0.003-0.020 0.003-0.020 0.002-0.021 0.005-0.041 0.002-0.020 0.002-0.021 0.002-0.021 0.002-0.020 0.002-0.021 0.002-0.021 0.001-0.021 0.001-0.021 0.001-0.021 0.001-0.021 0.001-0.021 0.001-0.021 0.001-0.021 0-0.021 0-0.021 0-0.021 0-0.021-0-0.021-0-0.021-0-0.021-0-0.021-0.001-0.021-0.001-0.021-0.001-0.021-0.001-0.021-0.001-0.021-0.001-0.021-0.001-0.021-0.002-0.021-0.002-0.021-0.002-0.020-0.002-0.021-0.002-0.021-0.002-0.020-0.005-0.041-0.002-0.021-0.003-0.020-0.003-0.020-0.003-0.020-0.003-0.021-0.003-0.020-0.003-0.020-0.003-0.020-0.004-0.020-0.004-0.020-0.004-0.020-0.004-0.020-0.004-0.020-0.004-0.020-0.004-0.019-0.004-0.020-0.005-0.020-0.009-0.039-0.010-0.039-0.005-0.020-0.005-0.019-0.005-0.019-0.005-0.020-0.005-0.019-0.006-0.019-0.006-0.019-0.006-0.019-0.006-0.019-0.006-0.019-0.006-0.019-0.006-0.019-0.006-0.019-0.007-0.019-0.007-0.019-0.007-0.019-0.007-0.019-0.007-0.018-0.007-0.019-0.007-0.019-0.007-0.018-0.008-0.019-0.015-0.037-0.008-0.018-0.016-0.037-0.008-0.018-0.008-0.018-0.017-0.036-0.008-0.018-0.009-0.018-0.009-0.018-0.009-0.017-0.009-0.018-0.009-0.018-0.009-0.017-0.009-0.017-0.009-0.017-0.010-0.018-0.009-0.017-0.010-0.017-0.010-0.017-0.010-0.017-0.010-0.017-0.010-0.017-0.010-0.017-0.010-0.017-0.011-0.017-0.010-0.016-0.010-0.016-0.011-0.017-0.011-0.017-0.011-0.016-0.011-0.016-0.011-0.016-0.011-0.016-0.011-0.016-0.011-0.016-0.011-0.016-0.012-0.016-0.011-0.016-0.023-0.031-0.024-0.031-0.012-0.015-0.012-0.016-0.012-0.015-0.012-0.015-0.012-0.015-0.013-0.015-0.013-0.015-0.013-0.015-0.012-0.015-0.013-0.015-0.013-0.015-0.013-0.015-0.013-0.014-0.013-0.014-0.013-0.014-0.013-0.014-0.013-0.014-0.027-0.029-0.014-0.014-0.014-0.014-0.014-0.014-0.014-0.014-0.014-0.013-0.014-0.013-0.014-0.014-0.014-0.013-0.014-0.013-0.029-0.026-0.029-0.026-0.015-0.013-0.015-0.013-0.015-0.013-0.015-0.013-0.030-0.025-0.015-0.012-0.015-0.012-0.015-0.012-0.031-0.024-0.015-0.011-0.016-0.012-0.016-0.012-0.015-0.011-0.016-0.012-0.016-0.011-0.016-0.011-0.016-0.011-0.016-0.011-0.016-0.011-0.016-0.011-0.016-0.011-0.016-0.011-0.017-0.011-0.017-0.011-0.016-0.010-0.017-0.010-0.017-0.010-0.017-0.010-0.017-0.010-0.017-0.010-0.017-0.010-0.017-0.010-0.017-0.010-0.034-0.019-0.017-0.009-0.017-0.009-0.017-0.009-0.018-0.009-0.018-0.009-0.035-0.018-0.018-0.009-0.018-0.008-0.018-0.008-0.036-0.017-0.018-0.008-0.018-0.008-0.018-0.008-0.018-0.008-0.037-0.015-0.018-0.007-0.018-0.007-0.019-0.007-0.037-0.014-0.037-0.014-0.019-0.007-0.019-0.007-0.019-0.006-0.019-0.006-0.019-0.006-0.019-0.006-0.019-0.006-0.038-0.012-0.019-0.006-0.019-0.006-0.019-0.005-0.019-0.005-0.019-0.005-0.039-0.010-0.019-0.005-0.059-0.014-0.020-0.004-0.020-0.004-0.020-0.004-0.020-0.004-0.020-0.004-0.020-0.004-0.020-0.004-0.020-0.003-0.020-0.003-0.020-0.003-0.020-0.003-0.020-0.003-0.040-0.006-0.020-0.003-0.020-0.002-0.020-0.002-0.041-0.005-0.021-0.002-0.021-0.002-0.021-0.002-0.021-0.002-0.021-0.002-0.021-0.001-0.021-0.001-0.021-0.001-0.021-0.001-0.021-0.001-0.021-0.001-0.042-0.001-0.021-0-0.042-0-0.021 0z"></path>
    <path fill="#fff"
          d="M9.825 5.117l0.029 0.002 0.029 0.003 0.029 0.005 0.028 0.006 0.028 0.007 0.028 0.008 0.027 0.010 0.027 0.011 0.026 0.012 0.026 0.013 0.025 0.014 0.024 0.016 0.024 0.017 0.023 0.018 0.022 0.019 0.021 0.020 0.020 0.021 0.019 0.022 0.018 0.023 0.017 0.023 0.016 0.024 0.015 0.025 0.014 0.026 0.012 0.026 0.011 0.027 0.010 0.027 0.009 0.027 0.007 0.028 0.006 0.028 0.005 0.029 0.003 0.029 0.002 0.029 0.001 0.029-0.001 0.029-0.002 0.029-0.003 0.029-0.005 0.029-0.006 0.028-0.007 0.028-0.008 0.027-0.010 0.027-0.011 0.027-0.012 0.026-0.013 0.026-0.014 0.025-0.016 0.024-0.017 0.024-0.018 0.023-0.019 0.022-0.020 0.021-2.222 2.237-1.954-1.388-0.022-0.018-0.021-0.019-0.021-0.020-0.020-0.021-0.019-0.022-0.018-0.023-0.016-0.024-0.015-0.024-0.014-0.025-0.013-0.026-0.012-0.026-0.011-0.027-0.009-0.027-0.008-0.028-0.007-0.028-0.005-0.028-0.004-0.029-0.003-0.029-0.002-0.029-0-0.029 0.001-0.029 0.003-0.029 0.004-0.029 0.005-0.028 0.006-0.028 0.008-0.028 0.009-0.027 0.010-0.027 0.011-0.026 0.013-0.026 0.014-0.025 0.015-0.025 0.016-0.024 0.017-0.023 0.018-0.022 0.019-0.021 0.020-0.021 0.021-0.020 0.022-0.019 0.023-0.018 0.024-0.016 0.024-0.015 0.025-0.014 0.026-0.013 0.026-0.012 0.027-0.011 0.027-0.009 0.028-0.008 0.028-0.007 0.028-0.005 0.029-0.004 0.029-0.003 0.029-0.002 0.029-0 0.029 0.001 0.029 0.003 0.029 0.004 0.028 0.005 0.028 0.006 0.028 0.008 0.027 0.009 0.027 0.010 0.027 0.011 0.026 0.013 0.025 0.014 0.025 0.015 0.024 0.016 1.067 0.757 1.496-1.505 0.022-0.019 0.023-0.018 0.023-0.017 0.024-0.016 0.025-0.015 0.025-0.014 0.026-0.012 0.027-0.011 0.027-0.010 0.028-0.009 0.028-0.007 0.028-0.006 0.028-0.005 0.029-0.003 0.029-0.002 0.029-0.001 0.029 0.001z"></path>
</svg>