<?xml version="1.0" encoding="utf-8"?>
<svg xmlns="http://www.w3.org/2000/svg" xmlns:xlink="http://www.w3.org/1999/xlink" id="client-textformat" width="16"
     height="16" viewBox="0 0 16 16" x="288" y="320">
    <path fill="#a9aaac"
          d="M13 2.375c0.345 0 0.625 0.28 0.625 0.625v10c0 0.345-0.28 0.625-0.625 0.625h-10c-0.345 0-0.625-0.28-0.625-0.625v-10c0-0.345 0.28-0.625 0.625-0.625h10zM13 1.125h-10c-1.036 0-1.875 0.84-1.875 1.875v10c0 1.036 0.84 1.875 1.875 1.875h10c1.036 0 1.875-0.839 1.875-1.875v-10c0-1.036-0.839-1.875-1.875-1.875z"></path>
    <path fill="#a9aaac"
          d="M12.125 12.222h-1.148l-0.909-2.203h-4.184l-0.895 2.203h-1.114l3.568-8.444h1.076l3.605 8.444zM8.557 6.27c-0.040-0.089-0.086-0.201-0.14-0.338-0.051-0.137-0.107-0.282-0.163-0.435s-0.111-0.303-0.163-0.448c-0.053-0.145-0.095-0.274-0.127-0.387h-0.024c-0.040 0.113-0.085 0.242-0.133 0.387s-0.101 0.291-0.158 0.436c-0.057 0.145-0.111 0.288-0.163 0.429s-0.099 0.26-0.139 0.356l-1.138 2.902h3.51l-1.162-2.902z"></path>
</svg>