<?xml version="1.0" encoding="utf-8"?>
<svg xmlns="http://www.w3.org/2000/svg" xmlns:xlink="http://www.w3.org/1999/xlink" id="client-textformat_bold"
     width="16" height="16" viewBox="0 0 16 16" x="320" y="320">
    <path fill="#a9aaac"
          d="M3.164 1.125h4.216c0.761 0 1.457 0.066 2.088 0.197s1.169 0.338 1.615 0.62c0.446 0.282 0.791 0.647 1.034 1.093s0.365 0.985 0.365 1.615c0 0.788-0.237 1.461-0.71 2.019s-1.189 0.935-2.147 1.133v0.039c1.012 0.131 1.8 0.483 2.364 1.054s0.847 1.31 0.847 2.216c0 0.71-0.155 1.307-0.462 1.792s-0.717 0.874-1.222 1.162c-0.506 0.289-1.081 0.496-1.723 0.621s-1.307 0.187-1.99 0.187h-4.275v-13.75zM5.843 6.916h0.729c0.473 0 0.907-0.022 1.3-0.069s0.729-0.138 1.004-0.276c0.276-0.138 0.493-0.331 0.65-0.581s0.236-0.571 0.236-0.965c0-0.381-0.075-0.689-0.226-0.926s-0.361-0.423-0.631-0.561c-0.269-0.139-0.581-0.233-0.935-0.286s-0.729-0.079-1.123-0.079h-1.004v3.742zM5.843 12.807h0.906c1.129 0 1.963-0.155 2.502-0.463s0.808-0.824 0.808-1.546c0-0.709-0.279-1.212-0.837-1.507s-1.428-0.443-2.611-0.443h-0.768v3.96h-0z"></path>
</svg>