<?xml version="1.0" encoding="utf-8"?>
<svg xmlns="http://www.w3.org/2000/svg" xmlns:xlink="http://www.w3.org/1999/xlink" id="client-textformat_underline"
     width="16" height="16" viewBox="0 0 16 16" x="416" y="320">
    <path fill="#a9aaac"
          d="M5.466 1.125v7.308c0 1.162 0.205 2.004 0.616 2.524 0.41 0.523 1.043 0.783 1.9 0.783 0.928 0 1.606-0.26 2.034-0.783 0.429-0.521 0.643-1.362 0.643-2.524v-7.308h2.409v7.485c0 1.708-0.428 2.991-1.284 3.849-0.856 0.86-2.131 1.29-3.82 1.29-1.785 0-3.071-0.433-3.854-1.298-0.786-0.865-1.178-2.145-1.178-3.841v-7.485h2.534z"></path>
    <path fill="#a9aaac" d="M2.932 14.75h10.137v1.25h-10.137v-1.25z"></path>
</svg>