<?xml version="1.0" encoding="utf-8"?>
<svg xmlns="http://www.w3.org/2000/svg" xmlns:xlink="http://www.w3.org/1999/xlink" id="client-theme" width="16"
     height="16" viewBox="0 0 16 16" x="448" y="320">
    <path fill="#a9aaac"
          d="M13.252 6.183c-0-0.147-0.075-0.287-0.198-0.408-0.531-0.528-1.060-1.057-1.588-1.587-0.347-0.347-0.637-0.348-0.982-0.003l-7.825 7.823c-0.344 0.344-0.694 0.688-1.036 1.035-0.25 0.254-0.262 0.582-0.024 0.824 0.566 0.575 1.136 1.145 1.712 1.711 0.236 0.232 0.556 0.226 0.801 0.004 0.035-0.031 0.068-0.066 0.102-0.1l8.781-8.779c0.041-0.041 0.084-0.082 0.121-0.125 0.092-0.11 0.141-0.251 0.135-0.394zM12.358 6.347c-1 1.003-2.001 2.005-3.004 3.006-0.064 0.065-0.098 0.046-0.151-0.008-0.453-0.455-0.906-0.91-1.364-1.36-0.074-0.073-0.060-0.109 0.005-0.174 0.993-0.989 1.983-1.979 2.973-2.97 0.079-0.079 0.165-0.132 0.278-0.125 0.11-0.004 0.195 0.045 0.269 0.119 0.33 0.331 0.662 0.659 0.989 0.992 0.162 0.163 0.165 0.358 0.004 0.52h0z"></path>
    <path fill="#7289da"
          d="M7.909 2.879l0.39 1.381 0.034-0.007 0.388-1.375c0.023-0.136 0.103-0.198 0.24-0.224 0.164-0.031 0.324-0.086 0.486-0.132 0.294-0.085 0.588-0.171 0.922-0.269-0.512-0.148-0.979-0.289-1.449-0.414-0.117-0.031-0.162-0.090-0.191-0.196-0.116-0.419-0.237-0.836-0.359-1.253-0.013-0.044-0.011-0.102-0.066-0.141-0.134 0.471-0.27 0.928-0.393 1.388-0.031 0.114-0.085 0.161-0.195 0.192-0.474 0.132-0.945 0.274-1.46 0.425 0.502 0.143 0.961 0.279 1.423 0.404 0.125 0.034 0.207 0.091 0.23 0.22z"></path>
    <path fill="#7289da"
          d="M11.471 2.199c0.053 0.221 0.125 0.437 0.2 0.701 0.082-0.29 0.153-0.528 0.216-0.769 0.027-0.104 0.082-0.153 0.188-0.178 0.235-0.057 0.466-0.129 0.741-0.208-0.295-0.086-0.543-0.162-0.793-0.229-0.088-0.024-0.122-0.067-0.143-0.159-0.054-0.239-0.13-0.473-0.209-0.75-0.082 0.284-0.156 0.527-0.222 0.772-0.012 0.068-0.066 0.122-0.133 0.134-0.25 0.068-0.498 0.145-0.786 0.23 0.254 0.077 0.469 0.161 0.689 0.204 0.157 0.032 0.219 0.108 0.252 0.252z"></path>
    <path fill="#7289da"
          d="M14.569 7.25c-0.132-0.037-0.262-0.083-0.396-0.11-0.11-0.022-0.156-0.083-0.182-0.187-0.031-0.133-0.074-0.263-0.123-0.431-0.052 0.176-0.098 0.316-0.134 0.458-0.020 0.081-0.057 0.125-0.143 0.145-0.149 0.035-0.294 0.085-0.476 0.14 0.165 0.050 0.298 0.101 0.435 0.128 0.117 0.023 0.163 0.085 0.191 0.195 0.034 0.135 0.057 0.276 0.134 0.414 0.048-0.163 0.098-0.309 0.131-0.457 0.019-0.087 0.066-0.122 0.144-0.143 0.142-0.037 0.281-0.081 0.422-0.122l-0.003-0.030z"></path>
    <path fill="#7289da"
          d="M6.24 4.563c0.029 0.134 0.072 0.264 0.11 0.396l0.033 0c0.039-0.136 0.085-0.27 0.115-0.406 0.022-0.102 0.075-0.15 0.174-0.174 0.133-0.031 0.269-0.060 0.42-0.138-0.162-0.047-0.292-0.092-0.425-0.12-0.103-0.021-0.148-0.078-0.171-0.176-0.031-0.136-0.078-0.269-0.13-0.441-0.048 0.167-0.091 0.292-0.118 0.42-0.023 0.112-0.078 0.17-0.191 0.197-0.134 0.031-0.273 0.061-0.421 0.137 0.156 0.045 0.287 0.088 0.42 0.118 0.108 0.023 0.161 0.080 0.184 0.185z"></path>
</svg>