<?xml version="1.0" encoding="utf-8"?>
<svg xmlns="http://www.w3.org/2000/svg" xmlns:xlink="http://www.w3.org/1999/xlink"
     id="client-toggle_server_query_clients" width="16" height="16" viewBox="0 0 16 16" x="480" y="320">
    <path fill="#a9aaac"
          d="M11.75 7.841c1.69 0 3.066 1.342 3.122 3.018-0.056-3.020-1.165-7.588-3.471-7.506-1.225 0.043-1.542 0.783-1.925 1.765-0.318-0.106-1.149-0.174-1.477-0.174s-1.159 0.068-1.477 0.174c-0.383-0.982-0.7-1.721-1.925-1.765-2.306-0.082-3.415 4.487-3.471 7.506 0.056-1.676 1.432-3.018 3.122-3.018 1.726 0 3.125 1.399 3.125 3.125 0 0.144-0.011 0.286-0.029 0.425 0.218-0.219 0.455-0.271 0.654-0.271s0.437 0.052 0.655 0.271c-0.019-0.139-0.030-0.281-0.030-0.425 0-1.726 1.399-3.125 3.125-3.125z"></path>
    <path fill="#7289da"
          d="M4.25 8.716c1.241 0 2.25 1.009 2.25 2.25s-1.009 2.25-2.25 2.25-2.25-1.009-2.25-2.25c0-1.241 1.009-2.25 2.25-2.25z"></path>
    <path fill="#a9aaac"
          d="M6 4.109c0 0.732-0.593 1.325-1.325 1.325s-1.325-0.593-1.325-1.325c0-0.732 0.593-1.325 1.325-1.325s1.325 0.593 1.325 1.325z"></path>
    <path fill="#a9aaac"
          d="M12.651 4.109c0 0.732-0.593 1.325-1.325 1.325s-1.325-0.593-1.325-1.325c0-0.732 0.593-1.325 1.325-1.325s1.325 0.593 1.325 1.325z"></path>
    <path fill="#7289da"
          d="M11.75 8.716c1.241 0 2.25 1.009 2.25 2.25s-1.009 2.25-2.25 2.25-2.25-1.009-2.25-2.25c0-1.241 1.009-2.25 2.25-2.25z"></path>
</svg>