<?xml version="1.0" encoding="utf-8"?>
<svg xmlns="http://www.w3.org/2000/svg" xmlns:xlink="http://www.w3.org/1999/xlink" id="client-translation" width="16"
     height="16" viewBox="0 0 16 16" x="96" y="352">
    <path fill="#7289da"
          d="M14.608 7.525c0-1.895 0-3.789-0.008-5.684 0.004-0.147-0.013-0.293-0.049-0.435-0.186-0.686-0.818-1.164-1.529-1.156-2.868 0-5.736 0-8.605 0-0.498 0-0.995-0.003-1.492 0-0.832 0.007-1.531 0.713-1.531 1.542 0 1.942-0.001 3.884-0.002 5.827 0 0.063 0.004 0.127 0.007 0.19-0.002 1.386-0.003 2.773-0.005 4.159-0.001 0.026 0 0.053 0.004 0.079 0.145 0.844 0.834 1.368 1.613 1.356 0.82-0.012 1.641 0 2.461-0.005 0.089-0.004 0.175 0.032 0.235 0.098 0.729 0.73 1.462 1.456 2.19 2.188 0.083 0.084 0.125 0.085 0.208 0 0.724-0.728 1.454-1.45 2.179-2.177 0.067-0.074 0.163-0.114 0.262-0.11 0.852 0.004 1.704 0.009 2.556 0 0.795-0.010 1.496-0.69 1.502-1.476 0.011-1.434 0-2.868 0-4.302 0-0.030 0.004-0.062 0.004-0.093zM8.074 8.727c-0.224-0.209-0.448-0.419-0.665-0.636s-0.25-0.223-0.469-0.002c-0.433 0.435-0.867 0.869-1.302 1.302-0.161 0.161-0.219 0.159-0.38 0l-0.011-0.011c-0.285-0.288-0.286-0.321 0-0.604 0.31-0.309 0.621-0.618 0.932-0.927-0.024-0.005-0.048-0.010-0.072-0.016 0.024 0.006 0.048 0.011 0.072 0.016 0.112-0.104 0.226-0.206 0.336-0.313 0.163-0.159 0.167-0.216 0.022-0.387-0.292-0.343-0.54-0.72-0.741-1.123-0.1-0.199-0.077-0.236 0.143-0.25 0.371-0.022 0.503 0.054 0.666 0.385 0.118 0.24 0.294 0.438 0.464 0.641 0.071 0.084 0.145 0.077 0.213-0.004 0.379-0.45 0.683-0.958 0.901-1.504 0.057-0.141 0.012-0.188-0.165-0.188-1.085 0-2.17 0.001-3.255 0.002-0.333 0-0.445-0.145-0.382-0.479 0.031-0.164 0.097-0.226 0.277-0.222 0.619 0.014 1.238 0.007 1.858 0.007 0.233 0 0.31-0.073 0.31-0.313 0-0.451-0.008-0.386 0.397-0.389 0.256-0.002 0.301 0.045 0.299 0.306-0.003 0.383-0.045 0.397 0.383 0.394 0.587-0.004 1.175-0.002 1.763-0.002 0.225 0 0.268 0.045 0.271 0.268 0.006 0.503-0.028 0.424-0.42 0.426-0.551 0.002-0.553 0-0.773 0.504-0.247 0.563-0.547 1.094-0.95 1.561-0.127 0.148-0.12 0.215 0.020 0.351 0.167 0.161 0.337 0.32 0.505 0.479 0.058 0.084 0.178 0.138 0.156 0.261-0.029 0.177-0.077 0.353-0.185 0.5-0.072 0.096-0.157 0.023-0.217-0.033zM11.836 10.599c-0.101 0-0.201 0-0.302-0.003-0.219-0.004-0.307-0.066-0.353-0.276s-0.148-0.406-0.215-0.611c-0.033-0.102-0.112-0.148-0.219-0.148-0.429 0-0.857 0-1.286 0-0.13 0-0.203 0.071-0.245 0.188-0.077 0.214-0.159 0.425-0.233 0.64-0.050 0.145-0.141 0.209-0.296 0.21-0.602 0.004-0.482-0.015-0.329-0.46 0.177-0.512 0.406-1.003 0.567-1.52 0.063-0.198 0.148-0.388 0.222-0.582-0.008-0.017-0.019-0.033-0.031-0.047 0.012 0.014 0.023 0.030 0.031 0.047 0.172-0.375 0.29-0.767 0.442-1.148 0.037-0.094 0.066-0.191 0.115-0.277 0.148-0.258 0.397-0.1 0.599-0.136 0.121-0.021 0.178 0.058 0.216 0.163 0.125 0.344 0.236 0.693 0.394 1.023 0.296 0.794 0.593 1.588 0.888 2.383 0.051 0.138 0.114 0.272 0.143 0.418 0.018 0.098-0.021 0.134-0.111 0.134h0z"></path>
</svg>