<?xml version="1.0" encoding="utf-8"?>
<svg xmlns="http://www.w3.org/2000/svg" xmlns:xlink="http://www.w3.org/1999/xlink"
     id="client-unsubscribe_from_all_channels" width="16" height="16" viewBox="0 0 16 16" x="128" y="352">
    <path fill="#a9aaac"
          d="M6.19 14.901c0.654-0.688 0.98-1.313 0.884-2.1-0.048-0.384-0.201-0.57-0.639-0.554-0.935 0.036-1.875 0.020-2.81 0.009-1.58-0.018-2.509-0.961-2.505-2.527 0-0.957 0-1.915 0.008-2.875 0.008-1.344 0.959-2.344 2.303-2.364 2.167-0.025 4.333-0.025 6.5 0 1.259 0.024 2.284 1.064 2.289 2.324 0.021 1 0.019 2 0.014 3 0 1.324-0.914 2.326-2.237 2.425-0.352 0.026-0.5 0.197-0.655 0.46-0.689 1.13-1.656 1.884-3.15 2.203z"></path>
    <path fill="#ccc"
          d="M13.352 8.464c0-0.553 0-1.086 0-1.619-0.014-2-1.53-3.507-3.527-3.513-1.729 0-3.459-0.019-5.188 0.010-0.531 0.009-0.595-0.171-0.45-0.625 0.322-0.985 1.141-1.613 2.197-1.615 2.062-0.005 4.125-0.005 6.187 0 1.361 0 2.297 0.955 2.305 2.328 0 1 0.011 2 0 3-0.010 0.946-0.571 1.705-1.525 2.034z"></path>
</svg>