<?xml version="1.0" encoding="utf-8"?>
<svg xmlns="http://www.w3.org/2000/svg" xmlns:xlink="http://www.w3.org/1999/xlink" id="client-unsubscribe_mode"
     width="16" height="16" viewBox="0 0 16 16" x="192" y="352">
    <path fill="#fefefe"
          d="M3.458 6.583c0.579-1.966 2.524-3.197 4.647-2.949 0.764 0.090 1.514 0.215 2.205 0.584 0.967 0.515 1.646 1.242 1.81 2.368 0.016 1.547-0.921 2.401-2.223 2.911-1.633 0.64-3.261 0.569-4.81-0.297-1.010-0.566-1.619-1.416-1.63-2.616zM5.242 6.408c-0.199 1.539 0.829 2.816 2.386 2.967 1.381 0.134 2.637-0.977 2.739-2.424-1.145 0.469-1.669 0.317-2.303-0.655-0.111-0.761 0.050-1.419 0.81-1.837-1.591-0.788-3.354 0.209-3.633 1.949z"></path>
    <path fill="#7289da"
          d="M12.119 6.588c0.016 1.547-0.92 2.401-2.223 2.911-1.633 0.64-3.261 0.569-4.81-0.297-1.011-0.566-1.625-1.412-1.625-2.616 0.579-1.966 2.524-3.197 4.647-2.949 0.764 0.090 1.514 0.215 2.205 0.584 0.967 0.515 1.646 1.242 1.81 2.368h2.54c0.008-0.5 0.024-1 0.023-1.5 0-1.631-1.201-2.947-2.817-2.974-2.705-0.042-5.411-0.042-8.117 0-1.5 0.021-2.75 1.25-2.813 2.663-0.026 0.601 0.009 1.205 0.016 1.809-0.017 0.711-0.017 1.418-0.024 2.125-0.006 1.857 1.208 3.074 3.085 3.074 1.165 0 2.331 0.043 3.493-0.015 0.636-0.033 0.771 0.25 0.815 0.784 0.078 0.938-0.295 1.689-0.95 2.375 0.085 0.017 0.172 0.024 0.259 0.024 0.102-0.020 0.202-0.046 0.3-0.079 1.4-0.429 2.436-1.32 3.175-2.559 0.207-0.349 0.412-0.52 0.857-0.553 1.634-0.125 2.715-1.35 2.713-3 0-0.728-0.012-1.455-0.019-2.183z"></path>
    <path fill="#7289da"
          d="M8.063 6.298c-0.111-0.761 0.050-1.419 0.81-1.837-1.591-0.788-3.354 0.209-3.631 1.949-0.199 1.539 0.829 2.816 2.386 2.966 1.381 0.134 2.638-0.978 2.739-2.424-1.146 0.47-1.67 0.319-2.304-0.654z"></path>
</svg>