<?xml version="1.0" encoding="utf-8"?>
<svg xmlns="http://www.w3.org/2000/svg" xmlns:xlink="http://www.w3.org/1999/xlink"
     id="client-unsubscribe_from_channel_family" width="16" height="16" viewBox="0 0 16 16" x="160" y="352">
    <path fill="#a9aaac"
          d="M12.226 6.661c-0.082-1.125-1.050-2.116-2.152-2.134-2.266-0.037-4.532-0.037-6.799 0-1.141 0.019-2.098 1.008-2.141 2.124-0.025 0.58 0.010 1.162 0.018 1.75 0 0.457-0.015 0.915-0.016 1.375-0.011 1.529 0.914 2.486 2.441 2.509 0.958 0.014 1.915 0.027 2.875-0.009 0.44-0.016 0.581 0.174 0.634 0.556 0.11 0.801-0.25 1.426-0.786 2.031 1.266-0.19 2.302-0.919 3.048-2.147 0.162-0.268 0.31-0.428 0.659-0.45 1.057-0.068 1.805-0.686 2.114-1.695 0.217-0.713 0.090-1.445 0.088-2.169 0.008-0.581 0.063-1.165 0.020-1.741z"></path>
    <path fill="#ccc"
          d="M14.871 3.421c-0.009-1.316-0.969-2.271-2.291-2.277-1.019-0.006-2.039-0.006-3.059-0.006-1.061 0-2.125 0-3.184 0-0.987 0.008-1.859 0.666-2.139 1.612-0.147 0.458-0.064 0.634 0.459 0.625 1.726-0.024 3.454-0.011 5.181-0.009s3.104 1.138 3.451 2.834c0.125 0.625 0.041 1.25 0.080 1.865 0.009 0.133-0.080 0.316 0.091 0.387 0.146 0.061 0.276-0.063 0.39-0.145 0.645-0.464 1.031-1.069 1.025-1.891-0.008-0.997 0.001-1.996-0.005-2.995z"></path>
</svg>