<?xml version="1.0" encoding="utf-8"?>
<svg xmlns="http://www.w3.org/2000/svg" xmlns:xlink="http://www.w3.org/1999/xlink" id="client-upload_avatar" width="16"
     height="16" viewBox="0 0 16 16" x="288" y="352">
    <path fill="#c90709"
          d="M10.583 10.746c-0.193-0.052-0.375-0.103-0.552-0.192-0.232-0.114-0.98-0.651-0.874-0.764 0.543-0.572 0.751-0.724 1.021-1.374l0.088-0.206 0.189-0.097c0.162-0.081 0.372-0.389 0.489-0.899 0.065-0.29 0.078-0.584 0.036-0.805-0.031-0.158-0.081-0.241-0.116-0.266l-0.223-0.156-0.033-0.282c-0.171-1.486-1.043-2.51-2.599-2.51s-2.429 1.024-2.604 2.51l-0.033 0.284-0.225 0.154c-0.036 0.024-0.087 0.107-0.117 0.266-0.041 0.221-0.028 0.516 0.038 0.806 0.115 0.511 0.328 0.818 0.487 0.899l0.193 0.096 0.087 0.208c0.27 0.65 0.501 0.821 1.022 1.371 0.138 0.149-0.641 0.65-0.875 0.764-0.179 0.089-0.36 0.139-0.551 0.192-0.531 0.145-1.133 0.312-1.864 1.398-0.204 0.305-0.366 0.883-0.492 1.562 0.193 0.081 0.404 0.125 0.626 0.125h8.608c0.228 0 0.444-0.048 0.64-0.133-0.12-0.658-0.285-1.234-0.499-1.555-0.731-1.086-1.334-1.254-1.864-1.398z"></path>
    <path fill="#7289da"
          d="M13 2.375c0.345 0 0.625 0.28 0.625 0.625v10c0 0.345-0.28 0.625-0.625 0.625h-10c-0.345 0-0.625-0.28-0.625-0.625v-10c0-0.345 0.28-0.625 0.625-0.625h10zM13 1.125h-10c-1.036 0-1.875 0.839-1.875 1.875v10c0 1.036 0.84 1.875 1.875 1.875h10c1.036 0 1.875-0.839 1.875-1.875v-10c0-1.036-0.839-1.875-1.875-1.875z"></path>
</svg>