<?xml version="1.0" encoding="utf-8"?>
<svg xmlns="http://www.w3.org/2000/svg" xmlns:xlink="http://www.w3.org/1999/xlink" id="client-urlcatcher" width="16"
     height="16" viewBox="0 0 16 16" x="320" y="352">
    <path fill="#7289da"
          d="M13.801 3.864h-5.693v-0.752c0-0.593-0.481-1.074-1.074-1.074h-4.834c-0.593 0-1.074 0.481-1.074 1.074v9.775c0 0.593 0.481 1.074 1.074 1.074h11.602c0.593 0 1.074-0.481 1.074-1.074v-7.949c-0-0.593-0.481-1.074-1.074-1.074z"></path>
    <path fill="#fff"
          d="M8 4.563c-2.412 0-4.375 1.962-4.375 4.375s1.963 4.375 4.375 4.375 4.375-1.963 4.375-4.375c0-2.412-1.963-4.375-4.375-4.375z"></path>
    <path fill="#a9aaac"
          d="M11.125 8.937c0 1.726-1.399 3.125-3.125 3.125s-3.125-1.399-3.125-3.125c0-1.725 1.399-3.125 3.125-3.125s3.125 1.4 3.125 3.125z"></path>
    <path fill="#fff"
          d="M7.619 9.687c0.008-0.099 0.124-0.049 0.123-0.039 0.013-0.123-0.154-0.033-0.231-0.086-0.128-0.087 0.004-0.19-0.062-0.288-0.053-0.078-0.2-0.035-0.27-0.056 0.043-0.063 0.179-0.345 0.002-0.284-0.149 0.051-0.117 0.252-0.326 0.124-0.118-0.072-0.115-0.412-0.048-0.493 0.104-0.127 0.236-0.068 0.36-0.053 0.003-0.114 0.242-0.070 0.276-0.036 0.055 0.055 0.071 0.238 0.147 0.266 0.061 0.023 0.025-0.117 0.021-0.137-0.029-0.143-0.047-0.202 0.057-0.303 0.135-0.131 0.214-0.105 0.134-0.286 0.012-0.006 0.023-0.012 0.035-0.018 0.010 0.014 0.019 0.028 0.029 0.042 0.075-0.117 0.092-0.187 0.244-0.2-0.062-0.14 0.2-0.246 0.309-0.211-0.001 0.002-0.191 0.044-0.095 0.086 0.024 0.010 0.056-0.031 0.083-0.040 0.078-0.024 0.148-0.057 0.165-0.138-0.095 0.1-0.285-0.017-0.222-0.066 0.070-0.054-0.033-0.069-0.077-0.057-0.086 0.024-0.148 0.095-0.216 0.148 0.018-0.035 0.043-0.065 0.073-0.090l-0.053-0.013c0.095 0 0.13-0.096 0.212-0.113 0.091 0 0.13 0.019 0.191 0.001-0.001-0-0.002-0.001-0.004-0.001 0.095-0.003 0.126-0.074 0.22-0.088 0.019 0.065-0.057 0.090-0.072 0.146-0.028 0.032 0.178 0.080 0.229 0.101 0.076-0.106-0.053-0.154-0.136-0.179 0.004-0.015 0.051-0.099-0.005-0.081-0.004-0.102-0.111-0.113-0.203-0.071 0.025-0.028 0.074-0.063 0.117-0.076-0.076-0.005-0.15-0.040-0.199-0.1 0.014-0.056-0.085-0.131-0.129-0.203l-0.011 0.017-0.103-0.115c0.015 0.003 0.030 0.009 0.044 0.016-0.021-0.029-0.063-0.074-0.099-0.107 0.048 0.023 0.096 0.047 0.142 0.073-0.004-0.093-0.043-0.125-0.132-0.189 0.009-0.010 0.018-0.019 0.029-0.027 0.036 0.038 0.088 0.059 0.127 0.085 0.105-0.114-0.033-0.154-0.158-0.187-0.005-0.041 0.006-0.018 0.033-0.037-0.024-0.004-0.048-0.010-0.016-0.023-0.038-0.039-0.069-0.056-0.125-0.065l0.017-0.013c-0.080-0.029-0.134-0.080-0.223-0.035 0.041-0.12-0.111-0.070-0.091 0.032-0.050-0.040-0.014-0.067 0.032-0.11-0.072 0-0.127 0.036-0.153 0.107 0.024-0.001 0.041 0.004 0.044 0.026-0.018 0.002-0.027-0.006-0.046 0.001 0.028 0.019 0.059 0.034 0.1 0.045-0.026 0.038-0.056 0.089-0.107 0.135 0.002-0.022-0.020-0.073-0.018-0.099-0.012 0.008-0.024 0.016-0.037 0.024-0.056-0.222-0.052-0.099-0.14 0 0.021-0 0.040-0.006 0.058-0.018-0.021 0.043-0.063 0.050-0.088 0.093-0.022-0.017-0.020-0.034 0.003-0.050-0.006 0-0.012 0-0.018 0 0.028-0.035 0.059-0.045 0.018-0.085-0.087 0.175-0.245-0.025-0.343 0.156 0.020-0.077-0.037-0.088-0.116-0.076 0.016-0.010 0.024-0.022 0.047-0.024-0.040-0.055-0.079-0.087-0.149-0.063l0.027-0.036c-0.016 0.016-0.038 0.027-0.056 0.024 0.011-0.014 0.023-0.027 0.035-0.041-0.046 0.018-0.124 0.047-0.186 0.061 0.044-0.018 0.088-0.035 0.132-0.053-0.066 0.010-0.188 0.070-0.178 0.007l-0.026-0.006c0.017-0.027-0.002-0.025-0.025-0.017l0.011-0.014c-0.181-0.031-0.513 0.281-0.658 0.419 0.014 0.003 0.027 0.006 0.041 0.009-0.036 0.024-0.073 0.066-0.111 0.094 0.052-0.021 0.11-0.050 0.148-0.073 0.002 0.088 0.044 0.063 0.046 0.17 0.043-0.010-0.005 0.199-0.026 0.255-0.046 0.12 0.107 0.218 0.044 0.364-0.014-0.058-0.020-0.111-0.019-0.158-0.025 0-0.038-0.030-0.068-0.037 0.094 0.314-0.224 0.579-0.069 0.91 0.088 0.009 0.199 0.335 0.16 0.367-0.027 0.023 0.151 0.258 0.165 0.308 0.026-0.042-0.163-0.504-0.133-0.506 0.045-0.002 0.301 0.518 0.35 0.598-0.123 0.112 0.343 0.279 0.417 0.303 0.058 0.019 0.112 0.039 0.194 0.091 0.088 0 0.128 0.069 0.177 0.047 0.033 0.020 0.131 0.196 0.147 0.189 0.031-0.014 0.211 0.1 0.258 0.125z"></path>
    <path fill="#fff"
          d="M9.749 10.248c-0.071 0-0.117-0.1-0.178-0.079-0.043 0.001-0.163 0.020-0.194 0.001 0.004-0.010 0.004-0.010 0.030-0.027-0.142-0.1-0.135-0.018-0.232-0.018 0.003-0.032 0.015-0.043 0.041-0.058-0.046-0.095-0.107 0.020-0.142 0.015 0.005-0.060 0.089-0.077 0.059-0.14-0.049 0-0.013-0.099-0.078-0.13-0.087-0.042-0.12-0.045-0.209-0.051-0.141-0.024-0.181-0.157-0.305-0.176-0.006-0.044-0.009-0.026 0.022-0.052-0.057-0.079-0.146 0.057-0.199 0.013-0.044-0.037-0.14-0.054-0.19-0.081-0.104-0.055-0.097 0.105-0.113 0.148-0.068-0.038-0.022-0.144 0.017-0.179-0.103-0.002-0.332 0.117-0.367 0.268 0.159 0.145-0.252 0.433-0.086 0.452 0.002 0.054-0.064 0.070-0.061 0.148 0.003 0.069 0.207 0.302 0.252 0.366 0.061 0.087 0.080 0.072 0.161 0.129 0.128 0.091 0.080 0.094 0.104 0.22 0 0.11-0.030 0.224-0.078 0.325 0 0.133-0.104 0.32-0.075 0.426 0.009 0.007 0.019 0.009 0.030 0.006 0.012-0.030-0.014-0.044 0.027-0.044 0 0.028-0.020 0.071-0.025 0.105-0.029-0.007-0.006-0.026-0.029-0.026 0.009 0.015 0.016 0.032 0.020 0.049-0.082-0.055 0.002 0.045 0.003 0.051-0.042 0.003-0.051 0.043-0.012 0.069l-0.008 0.002c0.029 0.039 0.119 0.117 0.176 0.069-0.117-0.024 0.005-0.135 0.050-0.158 0.002-0.006-0.096-0.055-0.017-0.063 0.021 0 0.091-0.063 0.106-0.082 0.005-0.020-0.035-0.003-0.035-0.003 0-0.014 0-0.028 0-0.043 0.093 0 0.087-0.043 0.179-0.069 0.162 0 0.116-0.075 0.099-0.147 0.022-0 0.377-0.063 0.31-0.131-0.005 0.006-0.012 0.014-0.015 0.022 0.171-0.010 0.132-0.291 0.328-0.291 0.139-0.054 0.213-0.064 0.301-0.205 0.073-0.118 0.093-0.237 0.2-0.327 0.040-0.034 0.259-0.246 0.132-0.304-0.015 0 0.014 0.007 0 0z"></path>
</svg>