<?xml version="1.0" encoding="utf-8"?>
<svg xmlns="http://www.w3.org/2000/svg" xmlns:xlink="http://www.w3.org/1999/xlink" id="client-user-account" width="16"
     height="16" viewBox="0 0 16 16" x="352" y="352">
    <path fill="#fefefe"
          d="M7.44 10.706c-0-0.182 0.095-0.31 0.142-0.453 0.058-0.176 0.14-0.344 0.214-0.514 0.031-0.071 0.008-0.116-0.054-0.152-0.125-0.073-0.193-0.198-0.279-0.305-0.045-0.060-0.042-0.144 0.008-0.2 0.129-0.153 0.287-0.244 0.497-0.219 0.078 0.006 0.155 0.008 0.233 0.006 0.191 0 0.301 0.121 0.399 0.261 0.038 0.054 0.004 0.099-0.027 0.142-0.068 0.092-0.133 0.19-0.228 0.255-0.114 0.079-0.115 0.167-0.065 0.283 0.104 0.243 0.197 0.492 0.301 0.735 0.046 0.108 0.036 0.195-0.040 0.287-0.124 0.147-0.263 0.281-0.415 0.399-0.066 0.053-0.123 0.059-0.194 0.004-0.158-0.125-0.306-0.263-0.442-0.412-0.040-0.044-0.053-0.084-0.051-0.114z"></path>
    <path fill="#fff"
          d="M15.612 6.629c-0.054-0.503-0.224-0.977-0.402-1.444-0.495-1.303-1.323-2.365-2.398-3.243-0.316-0.256-0.654-0.484-1.010-0.68-1.65-0.915-3.416-1.238-5.261-0.852-2.894 0.606-4.854 2.336-5.877 5.114-0.156 0.427-0.275 0.869-0.313 1.327-0.095 0.562-0.121 1.133-0.076 1.702 0.282 4.031 3.678 7.198 7.719 7.198 0.593 0 1.184-0.068 1.762-0.203 3.488-0.807 5.982-3.946 5.984-7.522 0.002-0.471-0.060-0.933-0.129-1.397z"></path>
    <path fill="#7289da"
          d="M15.612 6.629c-0.054-0.503-0.224-0.977-0.402-1.444-0.495-1.303-1.323-2.365-2.398-3.243-0.316-0.256-0.654-0.484-1.010-0.68-1.65-0.915-3.416-1.238-5.261-0.852-2.894 0.606-4.854 2.336-5.877 5.114-0.156 0.427-0.275 0.869-0.313 1.327-0.095 0.562-0.121 1.133-0.076 1.702 0.282 4.031 3.678 7.198 7.719 7.198 0.593 0 1.184-0.068 1.762-0.203 3.488-0.807 5.982-3.946 5.984-7.522 0.002-0.471-0.060-0.933-0.129-1.397zM5.535 5.582c0.016-0.101 0.063-0.189 0.161-0.222s0.113-0.092 0.103-0.183c-0.041-0.365-0.069-0.73-0.038-1.099 0.038-0.459 0.222-0.844 0.563-1.147 0.446-0.395 0.978-0.576 1.57-0.591 0.475-0.013 0.93 0.072 1.35 0.294 0.623 0.33 0.951 0.854 1 1.56 0.023 0.326-0.008 0.648-0.046 0.969-0.012 0.098-0.006 0.159 0.1 0.195s0.147 0.13 0.166 0.236c0.056 0.316-0.018 0.602-0.201 0.862-0.046 0.065-0.088 0.132-0.132 0.198-0.113 0.204-0.227 0.406-0.339 0.611-0.147 0.272-0.332 0.521-0.55 0.741-0.741 0.746-1.795 0.731-2.522-0.032-0.324-0.34-0.544-0.745-0.76-1.156-0.037-0.139-0.131-0.242-0.219-0.348-0.219-0.262-0.259-0.563-0.205-0.887zM8.257 9.822c0.107 0.25 0.201 0.503 0.308 0.753 0.048 0.111 0.037 0.199-0.041 0.293-0.127 0.151-0.27 0.288-0.425 0.409-0.068 0.054-0.125 0.060-0.199 0.004-0.162-0.128-0.314-0.269-0.453-0.422-0.041-0.044-0.056-0.086-0.053-0.117 0-0.188 0.098-0.318 0.146-0.464 0.059-0.18 0.143-0.352 0.219-0.527 0.031-0.072 0.008-0.119-0.055-0.156-0.127-0.075-0.198-0.203-0.286-0.313-0.046-0.061-0.043-0.147 0.008-0.205 0.132-0.156 0.294-0.25 0.509-0.225 0.079 0.007 0.159 0.008 0.239 0.006 0.195 0 0.309 0.125 0.409 0.267 0.039 0.055 0.004 0.102-0.027 0.145-0.070 0.094-0.136 0.194-0.233 0.261-0.117 0.081-0.117 0.172-0.066 0.29v0zM12.649 11.712c-0.042 0.351-0.299 0.572-0.651 0.572-1.338 0-2.676 0-4.014 0h-3.934c-0.043 0-0.085 0.002-0.128 0-0.415-0.024-0.584-0.199-0.585-0.617 0-0.356-0.021-0.712 0.083-1.063 0.143-0.478 0.423-0.825 0.881-1.031 0.647-0.292 1.333-0.464 2.008-0.667 0.081-0.024 0.136-0.018 0.123 0.091-0.091 0.754 0.285 1.332 0.719 1.887 0.202 0.255 0.438 0.481 0.701 0.671 0.085 0.063 0.168 0.094 0.262 0.023 0.694-0.525 1.216-1.173 1.436-2.031 0.045-0.177 0.029-0.361 0.017-0.541-0.007-0.106 0.043-0.123 0.123-0.096 0.672 0.228 1.369 0.375 2.019 0.672 0.58 0.264 0.853 0.729 0.928 1.335 0.037 0.264 0.041 0.531 0.012 0.796v0z"></path>
    <path fill="#7289da"
          d="M6.395 6.982c0.109 0.247 0.25 0.479 0.418 0.69 0.286 0.364 0.723 0.577 1.186 0.577 0.451 0 0.88-0.203 1.166-0.552 0.188-0.226 0.309-0.491 0.448-0.746 0.128-0.25 0.25-0.502 0.426-0.727 0.125-0.159 0.154-0.361 0.125-0.563-0.012-0.084-0.056-0.152-0.146-0.171-0.085-0.017-0.118 0.053-0.161 0.107-0.035 0.044-0.031 0.125-0.129 0.131 0.063-0.246 0.091-0.488 0.125-0.728 0.016-0.11-0.015-0.167-0.14-0.173-0.202-0.009-0.404-0.031-0.604-0.055-0.726-0.091-1.387-0.333-1.92-0.854-0.123-0.12-0.246-0.136-0.39-0.065-0.413 0.205-0.761 0.592-0.647 1.258 0.034 0.199 0.091 0.397 0.089 0.607-0.063-0.010-0.064-0.055-0.083-0.083-0.048-0.071-0.089-0.16-0.194-0.132-0.11 0.029-0.135 0.127-0.138 0.227-0.005 0.156 0.013 0.32 0.105 0.445 0.188 0.251 0.327 0.527 0.464 0.806z"></path>
</svg>