<?xml version="1.0" encoding="utf-8"?>
<svg xmlns="http://www.w3.org/2000/svg" xmlns:xlink="http://www.w3.org/1999/xlink" id="client-volume" width="16"
     height="16" viewBox="0 0 16 16" x="416" y="352">
    <path fill="#7289da"
          d="M10.242 12.615c-0.139 0-0.279-0.054-0.384-0.161-0.208-0.212-0.204-0.552 0.008-0.759 0.484-0.474 0.863-1.035 1.126-1.666 0.267-0.637 0.402-1.316 0.402-2.018s-0.135-1.381-0.401-2.017c-0.263-0.633-0.642-1.194-1.127-1.669-0.212-0.207-0.215-0.548-0.008-0.76s0.548-0.215 0.759-0.008c0.589 0.576 1.049 1.257 1.367 2.022 0.321 0.766 0.484 1.584 0.484 2.43 0 0.845-0.163 1.663-0.485 2.432-0.318 0.764-0.778 1.444-1.366 2.019-0.104 0.102-0.24 0.153-0.376 0.153z"></path>
    <path fill="#7289da"
          d="M11.945 14.315c-0.139 0-0.277-0.053-0.382-0.16-0.209-0.211-0.206-0.551 0.005-0.759 0.702-0.694 1.255-1.513 1.644-2.435 0.391-0.924 0.589-1.916 0.589-2.95 0-1.035-0.198-2.028-0.588-2.95-0.39-0.925-0.944-1.749-1.645-2.451-0.21-0.21-0.21-0.55 0-0.76s0.55-0.21 0.76 0c0.8 0.8 1.43 1.74 1.875 2.792 0.447 1.055 0.673 2.188 0.673 3.368 0 1.179-0.227 2.312-0.674 3.368-0.444 1.052-1.076 1.988-1.879 2.781-0.105 0.104-0.241 0.155-0.377 0.155z"></path>
    <path fill="#a9aaac" d="M8.428 1.125l-3.525 3.708v6.332l3.525 3.71-0-13.75z"></path>
    <path fill="#a9aaac"
          d="M2.183 4.833c-0.298 0-0.549 0.105-0.752 0.314-0.205 0.209-0.306 0.457-0.306 0.744v4.215c0 0.286 0.102 0.535 0.306 0.743 0.203 0.21 0.454 0.315 0.752 0.315h1.646v-6.332h-1.646z"></path>
</svg>