<svg version="1.1" viewBox="0 0 16 13" xmlns="http://www.w3.org/2000/svg">
 <path d="m15.663 2.6995c-.18366-.6899-.58631-1.2738-1.2762-1.4576-1.2503-.33435-6.381-.36496-6.381-.36496s-5.1307.03061-6.381.36496c-.6899.18366-1.0902.76761-1.2762 1.4576-.33435 1.2503-.34849 3.8286-.34849 3.8286s.014128 2.5784.34849 3.8286c.18366.68992.58629 1.2739 1.2762 1.4576 1.2503.33436 6.381.36496 6.381.36496s5.1307-.03061 6.381-.36496c.6899-.18366 1.0925-.76761 1.2762-1.4576.33435-1.2503.34849-3.8286.34849-3.8286s-.01413-2.5784-.34849-3.8286z" fill="#f00" style="stroke-width:.23546"/>
 <path d="m10.596 6.5281-4.2383-2.3546v4.7093" fill="#fff" style="stroke-width:.23546"/>
</svg>
