<?xml version="1.0" encoding="utf-8"?>
<svg xmlns="http://www.w3.org/2000/svg" xmlns:xlink="http://www.w3.org/1999/xlink" id="client-warning_question"
     width="16" height="16" viewBox="0 0 16 16" x="32" y="384">
    <path fill="#7289da"
          d="M8.001 0.178c-4.337 0-7.853 3.516-7.853 7.853s3.516 7.853 7.853 7.853c4.336 0 7.852-3.516 7.852-7.853s-3.516-7.853-7.852-7.853z"></path>
    <path fill="#fff"
          d="M9.523 13.836c0 0.195-0.066 0.358-0.195 0.49-0.131 0.134-0.289 0.201-0.477 0.201h-1.703c-0.189 0-0.348-0.069-0.477-0.206s-0.194-0.299-0.194-0.486v-1.678c0-0.194 0.065-0.357 0.194-0.49 0.129-0.134 0.288-0.2 0.477-0.2h1.703c0.188 0 0.346 0.065 0.477 0.2 0.129 0.133 0.195 0.296 0.195 0.49v1.678z"></path>
    <path fill="#fff"
          d="M8.857 10.383h-1.804c-0.448 0.034-0.496-0.198-0.528-0.39 0-0.435 0.090-0.819 0.269-1.153 0.18-0.339 0.558-0.768 1.135-1.288l0.523-0.461c0.31-0.276 0.536-0.535 0.678-0.779 0.147-0.244 0.22-0.488 0.22-0.731 0-0.371-0.131-0.66-0.392-0.867-0.261-0.212-0.626-0.318-1.094-0.318-0.441 0-0.917 0.090-1.429 0.27-0.358 0.122-0.726 0.287-1.105 0.495-1.053 0.286-1.095-1.966 0.096-2.393 0.432-0.129 0.836-0.231 1.214-0.304 0.544-0.106 1.070-0.159 1.576-0.159 1.328 0 2.341 0.265 3.038 0.795 0.697 0.525 1.045 1.293 1.045 2.305 0 0.519-0.106 0.986-0.318 1.399-0.212 0.408-0.574 0.848-1.086 1.32l-0.523 0.453c-0.37 0.329-0.612 0.594-0.727 0.795-0.114 0.196-0.171 0.413-0.171 0.652 0.013 0.347-0.175 0.359-0.616 0.358z"></path>
</svg>