<?xml version="1.0" encoding="utf-8"?>
<svg xmlns="http://www.w3.org/2000/svg" xmlns:xlink="http://www.w3.org/1999/xlink" id="client-warning_external_link"
     width="16" height="16" viewBox="0 0 16 16" x="480" y="352">
    <path fill="#fff"
          d="M8 1.022c-3.867 0-7.050 3.15-7.050 6.978s3.182 6.978 7.050 6.978c3.867 0 7.050-3.15 7.050-6.978s-3.182-6.978-7.050-6.978z"></path>
    <path fill="#c9070a"
          d="M8 0.375c-4.183 0-7.625 3.442-7.625 7.625s3.442 7.625 7.625 7.625c4.183 0 7.625-3.442 7.625-7.625s-3.442-7.625-7.625-7.625zM8.139 13.89c-1.709 0-1.75-0.044-1.75-1.768 0-0.21 0-0.42 0.011-0.625 0.037-0.441 0.28-0.689 0.728-0.705 0.292-0.011 0.586 0 0.875 0 1.596 0 1.596 0 1.6 1.616 0.011 1.317-0.149 1.479-1.464 1.481zM9.581 8.375c-0.006 0.465-0.283 0.732-0.766 0.739-0.5 0-1.008 0.015-1.511 0-0.69-0.016-0.905-0.226-0.914-0.91-0.015-0.854-0.032-1.715-0.032-2.579 0-0.881-0.010-1.764 0-2.645 0.018-0.655 0.268-0.9 0.926-0.92 0.482-0.014 0.965 0 1.449 0 0.569 0 0.875 0.3 0.881 0.845 0.008 1.823-0.003 3.647-0.033 5.47z"></path>
    <path fill="#fff"
          d="M8.125 13.89c1.316 0 1.475-0.164 1.471-1.488 0-1.625 0-1.625-1.6-1.616-0.294 0-0.588-0.009-0.875 0-0.449 0.016-0.691 0.264-0.728 0.705-0.018 0.209-0.011 0.419-0.011 0.625-0.008 1.73 0.039 1.776 1.743 1.774z"></path>
</svg>