<?xml version="1.0" encoding="utf-8"?>
<svg xmlns="http://www.w3.org/2000/svg" xmlns:xlink="http://www.w3.org/1999/xlink" id="client-weblist" width="16"
     height="16" viewBox="0 0 16 16" x="64" y="384">
    <path fill="#7289da"
          d="M15.25 11.187c0 2.244-1.819 4.063-4.063 4.063s-4.063-1.819-4.063-4.063c0-2.244 1.819-4.062 4.063-4.062s4.063 1.818 4.063 4.062z"></path>
    <path fill="#a9aaac"
          d="M6.683 14h-4.058c-0.345 0-0.625-0.28-0.625-0.625v-10.75c0-0.345 0.28-0.625 0.625-0.625h9.061c0.345 0 0.625 0.28 0.625 0.625v3.372c0.439 0.095 0.858 0.245 1.25 0.441v-3.813c0-1.034-0.841-1.875-1.875-1.875h-9.061c-1.034 0-1.875 0.841-1.875 1.875v10.75c0 1.034 0.841 1.875 1.875 1.875h5.144c-0.423-0.357-0.79-0.779-1.086-1.25z"></path>
    <path fill="#a9aaac"
          d="M10.791 5.188h-7.271c-0.345 0-0.625-0.28-0.625-0.625s0.28-0.625 0.625-0.625h7.271c0.345 0 0.625 0.28 0.625 0.625s-0.28 0.625-0.625 0.625z"></path>
    <path fill="#a9aaac"
          d="M7.493 7.375h-3.973c-0.345 0-0.625 0.28-0.625 0.625s0.28 0.625 0.625 0.625h3.015c0.256-0.463 0.58-0.884 0.957-1.25z"></path>
    <path fill="#a9aaac"
          d="M5.89 10.813h-2.37c-0.345 0-0.625 0.28-0.625 0.625s0.28 0.625 0.625 0.625h2.428c-0.047-0.285-0.073-0.577-0.073-0.875 0-0.126 0.006-0.251 0.015-0.375z"></path>
    <path fill="#fff"
          d="M10.672 10.939c0 0 0.435-0.705 0.717-0.874s1.278-0.639 1.147-0.883c-0.132-0.244-1.053-1.936-1.447-1.842s-1.351 0.029-1.711 0.207c-0.604 0.299-0.997 0.703-0.997 0.703s0.027 0.911-0.011 1.099c-0.038 0.188-0.026 1.074 0.181 1.394s1.034 0.921 1.259 0.977c0.226 0.056 0.601 0.395 0.714 0.432s0.244 0.169 0.207 0.226c-0.038 0.056-0.338 0.414-0.244 0.564s0.658 0.846 0.658 0.846c0 0-0.169 1.109-0.15 1.222s0.255 0.236 0.255 0.236l0.147-0.216c0 0 0.838-0.621 1.083-0.79s1.241-0.959 1.071-1.297c-0.169-0.338-0.808-0.601-1.071-0.733s-0.658-0.47-0.883-0.451c-0.226 0.019-0.761-0.078-0.94-0.169-0.731-0.371 0.016-0.648 0.016-0.648z"></path>
</svg>