<?xml version="1.0" encoding="utf-8"?>
<svg xmlns="http://www.w3.org/2000/svg" xmlns:xlink="http://www.w3.org/1999/xlink" id="client-whisperlists" width="16"
     height="16" viewBox="0 0 16 16" x="128" y="384">
    <path fill="#a9aaac"
          d="M2.823 13.858c-0.345 0-0.625-0.28-0.625-0.625v-10.751c0-0.345 0.28-0.625 0.625-0.625h9.059c0.345 0 0.625 0.28 0.625 0.625v1.501h1.25v-1.501c0-1.034-0.841-1.875-1.875-1.875h-9.059c-1.034 0-1.875 0.841-1.875 1.875v10.751c0 1.034 0.841 1.875 1.875 1.875h6.933l-1.188-1.25h-5.745z"></path>
    <path fill="#a9aaac"
          d="M11.059 3.983c-0.113-0.115-0.271-0.187-0.445-0.187h-6.896c-0.345 0-0.625 0.28-0.625 0.625s0.28 0.625 0.625 0.625h6.331l1.010-1.063z"></path>
    <path fill="#a9aaac"
          d="M3.718 7.233c-0.345 0-0.625 0.28-0.625 0.625s0.28 0.625 0.625 0.625h1.432c0.037-0.473 0.229-0.903 0.563-1.25h-1.995z"></path>
    <path fill="#a9aaac"
          d="M5.142 10.67h-1.425c-0.345 0-0.625 0.28-0.625 0.625s0.28 0.625 0.625 0.625h1.43c-0.002-0.036-0.005-0.071-0.005-0.107v-1.143z"></path>
    <path fill="#7289da" d="M11.75 5.070l-2.646 2.784v4.754l2.646 2.785-0-10.323z"></path>
    <path fill="#7289da"
          d="M7.187 7.854c-0.224 0-0.412 0.079-0.565 0.236s-0.23 0.344-0.23 0.559v3.165c0 0.215 0.076 0.402 0.23 0.558 0.153 0.158 0.341 0.237 0.565 0.237h1.236v-4.754h-1.236z"></path>
    <path fill="#a9aaac"
          d="M14.791 8.923c-0.173-0.417-0.424-0.788-0.744-1.101-0.124-0.121-0.287-0.188-0.46-0.188-0.18 0-0.347 0.071-0.471 0.198-0.123 0.125-0.19 0.292-0.188 0.468s0.072 0.34 0.197 0.463c0.193 0.188 0.344 0.412 0.45 0.667s0.161 0.526 0.161 0.809c0 0.282-0.055 0.555-0.162 0.81-0.105 0.253-0.256 0.476-0.449 0.664-0.258 0.255-0.262 0.673-0.009 0.931 0.124 0.128 0.291 0.198 0.471 0.198 0.172 0 0.335-0.067 0.46-0.188 0.32-0.313 0.57-0.682 0.743-1.097 0.175-0.416 0.263-0.86 0.263-1.318 0-0.46-0.088-0.903-0.262-1.316z"></path>
</svg>