<?xml version="1.0" encoding="utf-8"?>
<svg xmlns="http://www.w3.org/2000/svg" xmlns:xlink="http://www.w3.org/1999/xlink" id="client-whisper" width="16"
     height="16" viewBox="0 0 16 16" x="96" y="384">
    <path fill="#7289da" d="M9.433 0.813l-3.686 3.877v6.619l3.686 3.879-0.001-14.375z"></path>
    <path fill="#a9aaac"
          d="M13.665 6.179c-0.239-0.581-0.59-1.097-1.036-1.534-0.172-0.168-0.399-0.261-0.639-0.261-0.251 0-0.484 0.099-0.655 0.276-0.173 0.174-0.266 0.406-0.263 0.651s0.1 0.474 0.275 0.645c0.269 0.261 0.479 0.573 0.626 0.929 0.149 0.353 0.224 0.732 0.224 1.126 0 0.392-0.075 0.773-0.225 1.13-0.145 0.352-0.356 0.663-0.625 0.923-0.359 0.355-0.365 0.937-0.012 1.297 0.172 0.177 0.405 0.276 0.656 0.276 0.239 0 0.466-0.093 0.639-0.261 0.446-0.438 0.796-0.952 1.035-1.529 0.243-0.578 0.365-1.197 0.365-1.836 0-0.641-0.121-1.258-0.365-1.833z"></path>
    <path fill="#7289da"
          d="M3.077 4.69c-0.312 0-0.574 0.109-0.787 0.328-0.213 0.22-0.32 0.479-0.32 0.779v4.406c0 0.299 0.106 0.56 0.32 0.777 0.213 0.22 0.475 0.329 0.787 0.329h1.721v-6.619h-1.721z"></path>
</svg>